<?xml version="1.0" encoding="UTF-8"?>
<!-- Created with Inkscape (http://www.inkscape.org/) -->
<svg width="126.71mm" height="92.318mm" version="1.1" viewBox="0 0 126.71 92.318" xmlns="http://www.w3.org/2000/svg">
 <g transform="translate(-13.059 -23.742)">
  <path d="m61.834 32.057c-9.6229 8.4225-15.98 21.153-17.057 33.503-1.2195 13.992 0.88849 31.657 12.492 40.43 12.836 9.7046 38.582 14.779 49.225 2.9419 9.9794-11.099-9.7581-28.025-10.355-42.576-0.36934-9.0021 7.3593-18.22 4.2291-26.73-2.6029-7.0764-9.5625-13.959-17.35-15.379-7.4427-1.3577-15.624 2.9431-21.184 7.8097z" fill="none" stroke="#003162" stroke-width=".5"/>
  <text transform="scale(.26458)" fill="#003162" font-family="'Source Sans 3'" font-size="37.333px" style="shape-inside:url(#rect2);white-space:pre" xml:space="preserve"/>
  <g fill="none" stroke="#007e9f">
   <g transform="translate(7.8001 7.212)">
    <path d="m39.259 38.666-15.478-3.1588" stroke-width=".5"/>
    <g transform="translate(1.9234 -1.3194)" stroke-width=".5">
     <path d="m37.601 40.22-1.5117-2.2869"/>
     <path d="m37.672 39.873-2.2869 1.5117"/>
    </g>
   </g>
   <g transform="translate(5.2375 12.06)">
    <path d="m39.259 38.666-15.478-3.1588" stroke-width=".5"/>
    <g transform="translate(1.9234 -1.3194)" stroke-width=".5">
     <path d="m37.601 40.22-1.5117-2.2869"/>
     <path d="m37.672 39.873-2.2869 1.5117"/>
    </g>
   </g>
   <g transform="translate(10.982 2.3636)">
    <path d="m39.259 38.666-15.478-3.1588" stroke-width=".5"/>
    <g transform="translate(1.9234 -1.3194)" stroke-width=".5">
     <path d="m37.601 40.22-1.5117-2.2869"/>
     <path d="m37.672 39.873-2.2869 1.5117"/>
    </g>
   </g>
   <g transform="translate(14.036 -2.4847)">
    <path d="m39.259 38.666-15.478-3.1588" stroke-width=".5"/>
    <g transform="translate(1.9234 -1.3194)" stroke-width=".5">
     <path d="m37.601 40.22-1.5117-2.2869"/>
     <path d="m37.672 39.873-2.2869 1.5117"/>
    </g>
   </g>
   <g transform="translate(18.5 -7.3331)">
    <path d="m39.259 38.666-15.478-3.1588" stroke-width=".5"/>
    <g transform="translate(1.9234 -1.3194)" stroke-width=".5">
     <path d="m37.601 40.22-1.5117-2.2869"/>
     <path d="m37.672 39.873-2.2869 1.5117"/>
    </g>
   </g>
  </g>
  <g fill="none" stroke="#f1443a">
   <g transform="rotate(157.95 66.49 59.965)">
    <path d="m39.259 38.666-15.478-3.1588" stroke-width=".5"/>
    <g transform="translate(1.9234 -1.3194)" stroke-width=".5">
     <path d="m37.601 40.22-1.5117-2.2869"/>
     <path d="m37.672 39.873-2.2869 1.5117"/>
    </g>
   </g>
   <g transform="rotate(157.95 67.463 63.129)">
    <path d="m39.259 38.666-15.478-3.1588" stroke-width=".5"/>
    <g transform="translate(1.9234 -1.3194)" stroke-width=".5">
     <path d="m37.601 40.22-1.5117-2.2869"/>
     <path d="m37.672 39.873-2.2869 1.5117"/>
    </g>
   </g>
   <g transform="rotate(157.95 68.519 66.309)">
    <path d="m39.259 38.666-15.478-3.1588" stroke-width=".5"/>
    <g transform="translate(1.9234 -1.3194)" stroke-width=".5">
     <path d="m37.601 40.22-1.5117-2.2869"/>
     <path d="m37.672 39.873-2.2869 1.5117"/>
    </g>
   </g>
   <g transform="rotate(157.95 69.269 69.429)">
    <path d="m39.259 38.666-15.478-3.1588" stroke-width=".5"/>
    <g transform="translate(1.9234 -1.3194)" stroke-width=".5">
     <path d="m37.601 40.22-1.5117-2.2869"/>
     <path d="m37.672 39.873-2.2869 1.5117"/>
    </g>
   </g>
   <g transform="rotate(157.95 67.138 57.118)">
    <path d="m39.259 38.666-15.478-3.1588" stroke-width=".5"/>
    <g transform="translate(1.9234 -1.3194)" stroke-width=".5">
     <path d="m37.601 40.22-1.5117-2.2869"/>
     <path d="m37.672 39.873-2.2869 1.5117"/>
    </g>
   </g>
  </g>
  <g transform="translate(86.816 36.703)" fill="#003162">
   <g transform="matrix(.35278 0 0 .35278 -1.0173 -.5637)" fill="#003162">
    <g transform="translate(1.993 18.926)" fill="#003162">
     <path d="m15.641-3.625h-0.45312c-0.21875 1.1406-0.29688 1.4375-0.42188 1.8438-0.125 0.375-0.1875 0.5625-1.625 0.5625h-2.0156c0.28125-1.4375 0.875-2.5 1.9062-4.1562 1.2969-2.1094 2.3594-3.8125 2.3594-5.875 0-3.3438-3.1719-6.0781-7.1094-6.0781-4.0469 0-7.1406 2.75-7.1406 6.0781 0 2.0625 1.0938 3.8125 2.2969 5.7656 1.0938 1.7656 1.6875 2.8281 1.9688 4.2656h-2.0156c-1.4062 0-1.4844-0.1875-1.6094-0.54688-0.14062-0.39062-0.1875-0.71875-0.4375-1.8594h-0.45312l0.71875 3.625h3.75c0.51562 0 0.53125-0.03125 0.53125-0.39062 0-1.7656-0.90625-4.0625-1.3281-5.1406-0.79688-1.9219-1.5469-3.8125-1.5469-5.75 0-3.6875 2.6562-5.6406 5.2344-5.6406 2.7031 0 5.25 2.0312 5.25 5.6406 0 1.9062-0.65625 3.625-1.5781 5.875-0.40625 1.0156-1.2969 3.2812-1.2969 5.0156 0 0.39062 0.03125 0.39062 0.54688 0.39062h3.75z" fill="#003162"/>
    </g>
   </g>
  </g>
  <g transform="translate(121.87 63.845)" fill="#f1443a">
   <g transform="matrix(.35278 0 0 .35278 -1.1661 1.3236)" fill="#f1443a">
    <g transform="translate(1.993,19.205)">
     <path d="m7.6562-15.438c-0.625-1.7656-2.5781-1.7656-2.8906-1.7656-0.15625 0-0.42188 0-0.42188 0.25 0 0.20312 0.14062 0.21875 0.26562 0.25 0.375 0.04687 0.67188 0.09375 1.0625 0.8125 0.25 0.48438 2.7969 7.8906 2.7969 7.9375 0 0.015625-0.015625 0.046875-0.21875 0.25l-6.4375 6.5156c-0.29688 0.29688-0.5 0.5-0.5 0.8125 0 0.34375 0.29688 0.64062 0.6875 0.64062 0.10938 0 0.375-0.046875 0.53125-0.1875 0.39062-0.375 3.9375-4.7188 6.1875-7.3906 0.65625 1.9375 1.4375 4.2188 2.2031 6.2969 0.125 0.375 0.25 0.71875 0.59375 1.0469 0.25 0.21875 0.3125 0.21875 1 0.21875h0.46875c0.09375 0 0.28125 0 0.28125-0.20312 0-0.09375-0.03125-0.125-0.125-0.21875-0.23438-0.28125-0.40625-0.71875-0.5-1.0156z" fill="#f1443a"/>
    </g>
    <g transform="translate(16.15,19.205)">
     <path d="m6.25-9.8438h2.2031c0.5 0 0.54688 0 0.67188-0.125 0.14062-0.09375 0.21875-0.4375 0.21875-0.59375 0-0.4375-0.42188-0.4375-0.8125-0.4375h-1.9844l0.78125-3.2031c0.10938-0.39062 0.10938-0.54688 0.10938-0.64062 0-0.79688-0.64062-1.0938-1.1719-1.0938-0.375 0-1.0312 0.17188-1.4375 0.875-0.09375 0.1875-0.39062 1.3281-0.5625 2.0312l-0.5 2.0312h-2.2344c-0.48438 0-0.90625 0-0.90625 0.71875 0 0.4375 0.39062 0.4375 0.84375 0.4375h2l-1.4062 5.6562c-0.17188 0.64062-0.42188 1.6875-0.42188 1.9531 0 1.6094 1.5781 2.4375 3.125 2.4375 2.9375 0 4.625-3.4531 4.625-3.875 0-0.34375-0.375-0.34375-0.59375-0.34375-0.42188 0-0.45312 0.03125-0.625 0.39062-0.9375 2.1406-2.3281 2.9375-3.2969 2.9375-0.21875 0-0.59375 0-0.59375-0.92188 0-0.46875 0.078125-0.75 0.15625-1.0625z" fill="#f1443a"/>
    </g>
    <g transform="translate(26.444 25.016)">
     <path d="m7.2031-7.2344c-0.39062 0-0.96875 0-0.96875 0.73438 0 0.57812 0.48438 0.73438 0.75 0.73438 0.14062 0 0.73438-0.0625 0.73438-0.78125 0-1.4688-1.3906-2.5781-2.9844-2.5781-2.1875 0-4.0469 2.0156-4.0469 4.6562 0 2.75 1.9375 4.6406 4.0469 4.6406 2.5625 0 3.2031-2.375 3.2031-2.6094 0-0.078125-0.03125-0.14062-0.17188-0.14062s-0.17188 0.015625-0.25 0.28125c-0.53125 1.6719-1.7188 2.0938-2.5938 2.0938-1.3281 0-2.9219-1.2188-2.9219-4.2812 0-3.1406 1.5312-4.2812 2.75-4.2812 0.8125 0 2 0.40625 2.4531 1.5312z" fill="#f1443a"/>
    </g>
    <g transform="translate(34.841 25.016)">
     <path d="m3.125-8.3438h2.8906v-0.53125h-2.8906v-3.8281h-0.375c-0.046875 2.125-0.76562 3.9844-2.5156 4.0312v0.32812h1.7969v5.7969c0 0.40625 0 2.7188 2.3906 2.7188 1.2188 0 1.9219-1.2031 1.9219-2.7344v-1.1719h-0.375v1.1562c0 1.4219-0.5625 2.375-1.4219 2.375-0.59375 0-1.4219-0.42188-1.4219-2.2969z" fill="#f1443a"/>
    </g>
    <g transform="translate(42.158 25.016)">
     <path d="m3.0938-4.875c0-1.9844 0.85938-3.8438 2.4062-3.8438 0.14062 0 0.28125 0.015625 0.42188 0.078125 0 0-0.45312 0.15625-0.45312 0.6875 0 0.5 0.39062 0.70312 0.70312 0.70312 0.25 0 0.70312-0.14062 0.70312-0.71875 0-0.67188-0.65625-1.0781-1.3594-1.0781-1.5625 0-2.25 1.5312-2.4531 2.25h-0.03125v-2.25l-2.3906 0.23438v0.53125c1.2188 0 1.4062 0.125 1.4062 1.1094v5.75c0 0.78125-0.078125 0.89062-1.4062 0.89062v0.53125c0.5-0.046875 1.4531-0.046875 1.9844-0.046875 0.59375 0 1.6562 0 2.2031 0.046875v-0.53125c-1.4844 0-1.7344 0-1.7344-0.9375z" fill="#f1443a"/>
    </g>
    <g transform="translate(49.474 25.016)">
     <path d="m3.1562-14.328-2.4531 0.21875v0.53125c1.2188 0 1.4062 0.125 1.4062 1.125v11.031c0 0.78125-0.078125 0.89062-1.4062 0.89062v0.53125c0.5-0.046875 1.4062-0.046875 1.9219-0.046875 0.53125 0 1.4375 0 1.9375 0.046875v-0.53125c-1.3125 0-1.4062-0.09375-1.4062-0.89062z" fill="#f1443a"/>
    </g>
   </g>
  </g>
  <g transform="translate(13.059 28.176)" fill="#007e9f">
   <g transform="matrix(.35278 0 0 .35278 -1.1661 -.70622)" fill="#007e9f">
    <g transform="translate(1.993,19.205)">
     <path d="m7.6562-15.438c-0.625-1.7656-2.5781-1.7656-2.8906-1.7656-0.15625 0-0.42188 0-0.42188 0.25 0 0.20312 0.14062 0.21875 0.26562 0.25 0.375 0.04687 0.67188 0.09375 1.0625 0.8125 0.25 0.48438 2.7969 7.8906 2.7969 7.9375 0 0.015625-0.015625 0.046875-0.21875 0.25l-6.4375 6.5156c-0.29688 0.29688-0.5 0.5-0.5 0.8125 0 0.34375 0.29688 0.64062 0.6875 0.64062 0.10938 0 0.375-0.046875 0.53125-0.1875 0.39062-0.375 3.9375-4.7188 6.1875-7.3906 0.65625 1.9375 1.4375 4.2188 2.2031 6.2969 0.125 0.375 0.25 0.71875 0.59375 1.0469 0.25 0.21875 0.3125 0.21875 1 0.21875h0.46875c0.09375 0 0.28125 0 0.28125-0.20312 0-0.09375-0.03125-0.125-0.125-0.21875-0.23438-0.28125-0.40625-0.71875-0.5-1.0156z" fill="#007e9f"/>
    </g>
    <g transform="translate(16.15,19.205)">
     <path d="m13.953-7.8594c0.17188-0.6875 0.46875-1.875 0.46875-2.0469 0-0.53125-0.39062-1.0938-1.1562-1.0938-0.40625 0-1.3281 0.21875-1.6406 1.3125-0.10938 0.34375-1.2188 4.8281-1.4219 5.6406-0.14062 0.57812-0.3125 1.2969-0.35938 1.75-0.45312 0.59375-1.4219 1.6094-2.6875 1.6094-1.4531 0-1.4844-1.25-1.4844-1.8125 0-1.5156 0.76562-3.4531 1.4688-5.2344 0.25-0.64062 0.3125-0.8125 0.3125-1.2344 0-1.4375-1.4375-2.2344-2.7969-2.2344-2.625 0-3.8594 3.375-3.8594 3.875 0 0.34375 0.375 0.34375 0.59375 0.34375 0.29688 0 0.46875 0 0.5625-0.32812 0.82812-2.75 2.1562-3 2.5625-3 0.17188 0 0.42188 0 0.42188 0.53125 0 0.5625-0.29688 1.25-0.40625 1.5469-1.0312 2.6094-1.5156 4-1.5156 5.2188 0 2.8125 2.4844 3.2188 3.9531 3.2188 0.71875 0 1.7969-0.10938 3.1406-1.375 0.79688 1.2188 2.2344 1.375 2.8281 1.375 0.92188 0 1.6406-0.53125 2.1562-1.4219 0.625-0.98438 0.9375-2.3281 0.9375-2.4531 0-0.34375-0.375-0.34375-0.59375-0.34375-0.26562 0-0.375 0-0.5 0.125-0.04687 0.046875-0.04687 0.09375-0.1875 0.71875-0.5 1.9375-1.0469 2.4844-1.6875 2.4844-0.375 0-0.57812-0.25-0.57812-0.92188 0-0.42188 0.10938-0.8125 0.35938-1.8125 0.17188-0.6875 0.42188-1.6875 0.53125-2.2344z" fill="#007e9f"/>
    </g>
    <g transform="translate(33.031 25.016)">
     <path d="m7.2031-7.2344c-0.39062 0-0.96875 0-0.96875 0.73438 0 0.57812 0.48438 0.73438 0.75 0.73438 0.14062 0 0.73438-0.0625 0.73438-0.78125 0-1.4688-1.3906-2.5781-2.9844-2.5781-2.1875 0-4.0469 2.0156-4.0469 4.6562 0 2.75 1.9375 4.6406 4.0469 4.6406 2.5625 0 3.2031-2.375 3.2031-2.6094 0-0.078125-0.03125-0.14062-0.17188-0.14062s-0.17188 0.015625-0.25 0.28125c-0.53125 1.6719-1.7188 2.0938-2.5938 2.0938-1.3281 0-2.9219-1.2188-2.9219-4.2812 0-3.1406 1.5312-4.2812 2.75-4.2812 0.8125 0 2 0.40625 2.4531 1.5312z" fill="#007e9f"/>
    </g>
    <g transform="translate(41.428 25.016)">
     <path d="m3.125-8.3438h2.8906v-0.53125h-2.8906v-3.8281h-0.375c-0.046875 2.125-0.76562 3.9844-2.5156 4.0312v0.32812h1.7969v5.7969c0 0.40625 0 2.7188 2.3906 2.7188 1.2188 0 1.9219-1.2031 1.9219-2.7344v-1.1719h-0.375v1.1562c0 1.4219-0.5625 2.375-1.4219 2.375-0.59375 0-1.4219-0.42188-1.4219-2.2969z" fill="#007e9f"/>
    </g>
    <g transform="translate(48.745 25.016)">
     <path d="m3.0938-4.875c0-1.9844 0.85938-3.8438 2.4062-3.8438 0.14062 0 0.28125 0.015625 0.42188 0.078125 0 0-0.45312 0.15625-0.45312 0.6875 0 0.5 0.39062 0.70312 0.70312 0.70312 0.25 0 0.70312-0.14062 0.70312-0.71875 0-0.67188-0.65625-1.0781-1.3594-1.0781-1.5625 0-2.25 1.5312-2.4531 2.25h-0.03125v-2.25l-2.3906 0.23438v0.53125c1.2188 0 1.4062 0.125 1.4062 1.1094v5.75c0 0.78125-0.078125 0.89062-1.4062 0.89062v0.53125c0.5-0.046875 1.4531-0.046875 1.9844-0.046875 0.59375 0 1.6562 0 2.2031 0.046875v-0.53125c-1.4844 0-1.7344 0-1.7344-0.9375z" fill="#007e9f"/>
    </g>
    <g transform="translate(56.061 25.016)">
     <path d="m3.1562-14.328-2.4531 0.21875v0.53125c1.2188 0 1.4062 0.125 1.4062 1.125v11.031c0 0.78125-0.078125 0.89062-1.4062 0.89062v0.53125c0.5-0.046875 1.4062-0.046875 1.9219-0.046875 0.53125 0 1.4375 0 1.9375 0.046875v-0.53125c-1.3125 0-1.4062-0.09375-1.4062-0.89062z" fill="#007e9f"/>
    </g>
   </g>
  </g>
 </g>
</svg>
