<?xml version="1.0" encoding="UTF-8" standalone="no"?>
<!-- Created with Inkscape (http://www.inkscape.org/) -->

<svg
   width="194.56458mm"
   height="41.590824mm"
   viewBox="0 0 194.56457 41.590824"
   version="1.1"
   id="svg1"
   inkscape:version="1.3.2 (091e20ef0f, 2023-11-25)"
   sodipodi:docname="illustration_cmsi.svg"
   xmlns:inkscape="http://www.inkscape.org/namespaces/inkscape"
   xmlns:sodipodi="http://sodipodi.sourceforge.net/DTD/sodipodi-0.dtd"
   xmlns:xlink="http://www.w3.org/1999/xlink"
   xmlns="http://www.w3.org/2000/svg"
   xmlns:svg="http://www.w3.org/2000/svg">
  <sodipodi:namedview
     id="namedview1"
     pagecolor="#ffffff"
     bordercolor="#000000"
     borderopacity="0.25"
     inkscape:showpageshadow="2"
     inkscape:pageopacity="0.0"
     inkscape:pagecheckerboard="0"
     inkscape:deskcolor="#d1d1d1"
     inkscape:document-units="mm"
     inkscape:zoom="0.28885674"
     inkscape:cx="195.59869"
     inkscape:cy="-192.13677"
     inkscape:window-width="1916"
     inkscape:window-height="1021"
     inkscape:window-x="0"
     inkscape:window-y="0"
     inkscape:window-maximized="0"
     inkscape:current-layer="layer1" />
  <defs
     id="defs1">
    <radialGradient
       inkscape:collect="always"
       xlink:href="#linearGradient234"
       id="radialGradient235"
       cx="2705.8501"
       cy="2118.2559"
       fx="2705.8501"
       fy="2118.2559"
       r="60.631516"
       gradientTransform="matrix(1.0984245,-0.15143468,0.41379518,1.1787285,-1165.942,20.363954)"
       gradientUnits="userSpaceOnUse" />
    <linearGradient
       id="linearGradient234"
       inkscape:collect="always">
      <stop
         style="stop-color:#f1443a;stop-opacity:1;"
         offset="0"
         id="stop234" />
      <stop
         style="stop-color:#f1443a;stop-opacity:0;"
         offset="1"
         id="stop235" />
    </linearGradient>
    <radialGradient
       inkscape:collect="always"
       xlink:href="#linearGradient239"
       id="radialGradient236"
       gradientUnits="userSpaceOnUse"
       gradientTransform="matrix(0.90112692,-0.1512933,0.41659939,0.97515563,-638.02436,451.2008)"
       cx="2705.8501"
       cy="2118.2559"
       fx="2705.8501"
       fy="2118.2559"
       r="60.631516" />
    <linearGradient
       id="linearGradient239"
       inkscape:collect="always">
      <stop
         style="stop-color:#007e9f;stop-opacity:1;"
         offset="0"
         id="stop238" />
      <stop
         style="stop-color:#ffffff;stop-opacity:1;"
         offset="1"
         id="stop239" />
    </linearGradient>
    <pattern
       inkscape:collect="always"
       xlink:href="#pattern8-6-6"
       preserveAspectRatio="xMidYMid"
       id="pattern691-3-7"
       patternTransform="rotate(25,-904.10262,405.28716)"
       x="0"
       y="0" />
    <pattern
       patternUnits="userSpaceOnUse"
       width="46.160622"
       height="39.922417"
       patternTransform="translate(86.574379,420.06253)"
       preserveAspectRatio="xMidYMid"
       id="pattern8-6-6"
       inkscape:label="Triangle grid"
       inkscape:collect="always"
       inkscape:isstock="true">
      <path
         style="fill:none;stroke:#003162;stroke-linecap:butt;stroke-linejoin:bevel;paint-order:stroke markers fill;stop-color:#003162;stroke-opacity:1.0;stop-opacity:1.0"
         d="M 63.480393,440 75,420 86.519607,440 Z M 86.560705,439.97627 75,420 l 23.080311,0.0237 z m 11.519606,-20 L 75,420 86.560705,400.02373 Z M 86.519607,400 75,420 63.480393,400 Z M 63.439295,400.02373 75,420 51.919689,419.97627 Z m -11.519606,20 L 75,420 63.439295,439.97627 Z M 109.64102,440 l 11.5196,-20 11.51961,20 z M 132.72133,439.9763 121.16062,420 l 23.08031,0.0237 z m 11.5196,-20 L 121.16062,420 132.72133,400.02373 Z M 132.68023,400 l -11.51961,20 -11.5196,-20 z m -23.08031,0.0237 11.5607,19.97627 -23.080309,-0.0237 z m -11.519609,20 L 121.16062,420 109.59992,439.97627 Z M 86.560705,480 98.080311,460 109.59992,480 Z M 109.64102,479.97627 98.080311,460 l 23.080309,0.0237 z m 11.5196,-20 L 98.080311,460 109.64102,440.02373 Z M 109.59992,440 98.080311,460 86.560705,440 Z M 86.519607,440.02373 98.080311,460 75,459.97627 Z M 75,460.02373 98.080311,460 86.519607,479.97627 Z M 132.72133,480 l 11.5196,-20 11.51961,20 z M 155.80164,479.9763 144.24093,460 l 23.08032,0.0237 z m 11.51961,-20 L 144.24093,460 155.80164,440.02373 Z M 155.76054,440 l -11.51961,20 -11.5196,-20 z m -23.08031,0.0237 11.5607,19.97627 -23.08031,-0.0237 z m -11.51961,20 23.08031,-0.0237 -11.5607,19.97627 z"
         id="path685-1-5"
         sodipodi:nodetypes="cccc"
         clip-path="url(#clipPath27-0-6)"
         transform="translate(-86.574379,-420.06253)" />
    </pattern>
    <clipPath
       clipPathUnits="userSpaceOnUse"
       id="clipPath27-0-6">
      <rect
         style="fill:none;stroke:#000000;stroke-width:0.999999;stroke-linecap:butt;stroke-linejoin:bevel;paint-order:stroke markers fill;stop-color:#000000"
         id="rect28-6-6-9"
         width="46.160622"
         height="39.922417"
         x="86.574379"
         y="420.06253" />
    </clipPath>
    <pattern
       inkscape:collect="always"
       xlink:href="#pattern691-3-7"
       preserveAspectRatio="xMidYMid"
       id="pattern2-3"
       patternTransform="rotate(25,-948.04984,-104.34692)" />
    <pattern
       inkscape:collect="always"
       xlink:href="#pattern8-6-6"
       preserveAspectRatio="xMidYMid"
       id="pattern1"
       patternTransform="rotate(25,-904.10262,405.28716)"
       x="0"
       y="0" />
    <clipPath
       clipPathUnits="userSpaceOnUse"
       id="clipPath2">
      <rect
         style="fill:none;stroke:#000000;stroke-width:0.999999;stroke-linecap:butt;stroke-linejoin:bevel;paint-order:stroke markers fill;stop-color:#000000"
         id="rect2"
         width="46.160622"
         height="39.922417"
         x="86.574379"
         y="420.06253" />
    </clipPath>
    <radialGradient
       inkscape:collect="always"
       xlink:href="#linearGradient234"
       id="radialGradient275"
       gradientUnits="userSpaceOnUse"
       gradientTransform="matrix(1.0984245,-0.15143468,0.41379518,1.1787285,-1165.942,20.363954)"
       cx="2705.8501"
       cy="2118.2559"
       fx="2705.8501"
       fy="2118.2559"
       r="60.631516" />
    <radialGradient
       inkscape:collect="always"
       xlink:href="#linearGradient239"
       id="radialGradient274"
       gradientUnits="userSpaceOnUse"
       gradientTransform="matrix(0.73017765,-0.1286432,0.22783886,0.77910956,224.38183,805.18867)"
       cx="2705.8501"
       cy="2118.2559"
       fx="2705.8501"
       fy="2118.2559"
       r="60.631516" />
    <pattern
       inkscape:collect="always"
       xlink:href="#pattern8-6-6"
       preserveAspectRatio="xMidYMid"
       id="pattern3"
       patternTransform="rotate(25,-904.10262,405.28716)"
       x="0"
       y="0" />
    <clipPath
       clipPathUnits="userSpaceOnUse"
       id="clipPath4">
      <rect
         style="fill:none;stroke:#000000;stroke-width:0.999999;stroke-linecap:butt;stroke-linejoin:bevel;paint-order:stroke markers fill;stop-color:#000000"
         id="rect4"
         width="46.160622"
         height="39.922417"
         x="86.574379"
         y="420.06253" />
    </clipPath>
    <pattern
       inkscape:collect="always"
       xlink:href="#pattern691-3-7"
       preserveAspectRatio="xMidYMid"
       id="pattern5"
       patternTransform="rotate(25,-948.04984,-104.34692)" />
    <pattern
       inkscape:collect="always"
       xlink:href="#pattern8-6-6"
       preserveAspectRatio="xMidYMid"
       id="pattern6"
       patternTransform="rotate(25,-904.10262,405.28716)"
       x="0"
       y="0" />
    <clipPath
       clipPathUnits="userSpaceOnUse"
       id="clipPath7">
      <rect
         style="fill:none;stroke:#000000;stroke-width:0.999999;stroke-linecap:butt;stroke-linejoin:bevel;paint-order:stroke markers fill;stop-color:#000000"
         id="rect7"
         width="46.160622"
         height="39.922417"
         x="86.574379"
         y="420.06253" />
    </clipPath>
    <marker
       style="overflow:visible"
       id="marker123"
       refX="0"
       refY="0"
       orient="auto-start-reverse"
       inkscape:stockid="Concave triangle arrow"
       markerWidth="1"
       markerHeight="1"
       viewBox="0 0 1 1"
       inkscape:isstock="true"
       inkscape:collect="always"
       preserveAspectRatio="xMidYMid">
      <path
         transform="scale(0.7)"
         d="M -2,-4 9,0 -2,4 c 2,-2.33 2,-5.66 0,-8 z"
         style="fill:context-stroke;fill-rule:evenodd;stroke:none"
         id="path123" />
    </marker>
    <rect
       x="359.05511"
       y="2891.3386"
       width="440.20502"
       height="28.526133"
       id="rect131-8-6-9" />
  </defs>
  <g
     inkscape:label="Layer 1"
     inkscape:groupmode="layer"
     id="layer1"
     transform="translate(-40.330292,-28.045814)">
    <g
       id="g2">
      <g
         id="g180"
         transform="matrix(0,-0.20137352,0.32106621,0,-567.52478,583.53418)"
         style="fill:url(#radialGradient235);fill-opacity:1;stroke:none;stroke-width:1.04055;stroke-opacity:1"
         inkscape:label="grad n-1">
        <path
           style="opacity:1;mix-blend-mode:normal;fill:url(#radialGradient236);fill-opacity:1;stroke:none;stroke-width:1.96639;stroke-linejoin:bevel;stroke-dasharray:1.96639, 1.96639;stroke-dashoffset:0;stroke-opacity:1"
           d="m 2642.9059,2151.1227 c 19.6059,15.4148 52.6377,11.3993 74.8202,0 11.315,-5.8147 20.6692,-18.4035 22.2188,-31.0305 2.4494,-19.9593 -7.9462,-41.9209 -22.2188,-56.0866 -11.7293,-11.6413 -29.7378,-18.9944 -46.2279,-17.9119 -18.1056,1.1885 -40.4194,9.5353 -47.7502,26.133 -10.9341,24.7557 -2.1168,62.1691 19.1579,78.896 z"
           id="path180"
           sodipodi:nodetypes="aaaaaaa" />
      </g>
      <g
         id="g686-1-5"
         transform="matrix(0,-0.20137352,0.32106621,0,-567.52478,583.53418)"
         style="fill:url(#pattern691-3-7);fill-opacity:1;stroke:#003162;stroke-width:1.04055;stroke-opacity:1"
         inkscape:label="mesh n">
        <path
           style="opacity:1;mix-blend-mode:normal;fill:url(#pattern2-3);fill-opacity:1;stroke:#003162;stroke-width:1.96639;stroke-linejoin:bevel;stroke-dasharray:1.96639, 1.96639;stroke-dashoffset:0;stroke-opacity:1"
           d="m 2642.9059,2151.1227 c 19.6059,15.4148 52.6377,11.3993 74.8202,0 11.315,-5.8147 20.6692,-18.4035 22.2188,-31.0305 2.4494,-19.9593 -7.9462,-41.9209 -22.2188,-56.0866 -11.7293,-11.6413 -29.7378,-18.9944 -46.2279,-17.9119 -18.1056,1.1885 -40.4194,9.5353 -47.7502,26.133 -10.9341,24.7557 -2.1168,62.1691 19.1579,78.896 z"
           id="path271-9-9-5-4"
           sodipodi:nodetypes="aaaaaaa" />
      </g>
      <g
         id="g273"
         transform="matrix(0,-0.1899108,0.20726516,0,-380.06891,553.39018)"
         style="fill:url(#radialGradient275);fill-opacity:1;stroke:none;stroke-width:1.3336;stroke-opacity:1"
         inkscape:label="grad n-1">
        <path
           style="opacity:1;mix-blend-mode:normal;fill:url(#radialGradient274);fill-opacity:1;stroke:none;stroke-width:2.52018;stroke-linejoin:bevel;stroke-dasharray:2.52018, 2.52018;stroke-dashoffset:0;stroke-opacity:1"
           d="m 2642.9059,2151.1227 c 19.6059,15.4148 52.6377,11.3993 74.8202,0 11.315,-5.8147 20.6692,-18.4035 22.2188,-31.0305 2.4494,-19.9593 -7.9462,-41.9209 -22.2188,-56.0866 -11.7293,-11.6413 -29.7378,-18.9944 -46.2279,-17.9119 -18.1056,1.1885 -40.4194,9.5353 -47.7502,26.133 -10.9341,24.7557 -2.1168,62.1691 19.1579,78.896 z"
           id="path273"
           sodipodi:nodetypes="aaaaaaa" />
      </g>
      <g
         id="g274"
         transform="matrix(0,-0.1899108,0.20726516,0,-380.06891,553.39018)"
         style="fill:url(#pattern691-3-7);fill-opacity:1;stroke:#003162;stroke-width:1.3336;stroke-opacity:1"
         inkscape:label="mesh n-1">
        <path
           style="opacity:1;mix-blend-mode:normal;fill:url(#pattern2-3);fill-opacity:1;stroke:#003162;stroke-width:2.52018;stroke-linejoin:bevel;stroke-dasharray:2.52018, 2.52018;stroke-dashoffset:0;stroke-opacity:1"
           d="m 2642.9059,2151.1227 c 19.6059,15.4148 52.6377,11.3993 74.8202,0 11.315,-5.8147 20.6692,-18.4035 22.2188,-31.0305 2.4494,-19.9593 -7.9462,-41.9209 -22.2188,-56.0866 -11.7293,-11.6413 -29.7378,-18.9944 -46.2279,-17.9119 -18.1056,1.1885 -40.4194,9.5353 -47.7502,26.133 -10.9341,24.7557 -2.1168,62.1691 19.1579,78.896 z"
           id="path274"
           sodipodi:nodetypes="aaaaaaa" />
      </g>
      <path
         style="fill:none;stroke:#f1443a;stroke-width:0.499999"
         d="m 105.61703,44.863563 3.18885,-4.221873 4.22135,3.779494 z"
         id="path3"
         inkscape:label="elem n" />
      <path
         style="fill:none;stroke:#0033dd;stroke-width:0.499999"
         d="m 54.506902,45.370985 2.005691,-3.966826 2.783628,3.577024 z"
         id="path2"
         inkscape:label="elem n-1" />
      <ellipse
         style="fill:none;stroke:#ffffff;stroke-width:0.499999;stroke-dasharray:none;stroke-dashoffset:0;stroke-opacity:1"
         id="path275"
         cx="-43.545486"
         cy="108.98215"
         rx="4.5769153"
         ry="4.5730615"
         transform="rotate(-90)"
         inkscape:label="circle n" />
      <ellipse
         style="fill:none;stroke:#ffffff;stroke-width:0.499999;stroke-dasharray:none;stroke-dashoffset:0;stroke-opacity:1"
         id="path275-8"
         cx="-43.919235"
         cy="56.858524"
         rx="3.2594967"
         ry="3.2567523"
         transform="rotate(-90)"
         inkscape:label="circle n-1" />
      <path
         style="fill:#003162;stroke:#003162;stroke-width:0.499999;marker-end:url(#marker123)"
         d="M 40.330292,60.783722 H 125.33028"
         id="path7"
         sodipodi:nodetypes="cc"
         inkscape:label="axis t" />
      <circle
         style="fill:#f1443a;stroke:#f1443a;stroke-width:0.499999"
         id="path179"
         cx="108.98215"
         cy="60.78371"
         r="1"
         inkscape:label="dot n" />
      <circle
         style="fill:#0033dd;stroke:#0033dd;stroke-width:0.499999"
         id="path179-7"
         cx="56.858524"
         cy="60.78371"
         r="1"
         inkscape:label="dot n-1" />
      <g
         inkscape:label="t"
         transform="matrix(0.26458333,0,0,0.26458333,130.04621,57.521357)"
         id="g185"
         style="fill:#003162">
        <g
           fill="#000000"
           fill-opacity="1"
           id="g183"
           transform="matrix(3.73333,0,0,3.73333,-362.84555,-260.61321)"
           style="fill:#003162">
          <g
             id="g182"
             transform="translate(91.925003,81.962997)"
             style="fill:#003162">
            <path
               d="m 2.046875,-3.984375 h 0.9375 c 0.203125,0 0.3125,0 0.3125,-0.203125 0,-0.109375 -0.109375,-0.109375 -0.28125,-0.109375 h -0.875 C 2.5,-5.71875 2.546875,-5.90625 2.546875,-5.96875 c 0,-0.171875 -0.125,-0.265625 -0.296875,-0.265625 -0.03125,0 -0.3125,0 -0.390625,0.359375 L 1.46875,-4.296875 h -0.9375 c -0.203125,0 -0.296875,0 -0.296875,0.1875 0,0.125 0.078125,0.125 0.28125,0.125 h 0.875 C 0.671875,-1.15625 0.625,-0.984375 0.625,-0.8125 0.625,-0.265625 1,0.109375 1.546875,0.109375 2.5625,0.109375 3.125,-1.34375 3.125,-1.421875 3.125,-1.53125 3.046875,-1.53125 3.015625,-1.53125 2.921875,-1.53125 2.90625,-1.5 2.859375,-1.390625 2.4375,-0.34375 1.90625,-0.109375 1.5625,-0.109375 c -0.203125,0 -0.3125,-0.125 -0.3125,-0.453125 0,-0.25 0.03125,-0.3125 0.0625,-0.484375 z m 0,0"
               id="path182"
               style="fill:#003162" />
          </g>
        </g>
      </g>
      <g
         inkscape:label="n-1"
         transform="matrix(0.26458333,0,0,0.26458333,45.977241,62.58654)"
         id="g195"
         style="fill:#0033dd">
        <g
           fill="#000000"
           fill-opacity="1"
           id="g189"
           transform="matrix(3.73333,0,0,3.73333,-344.295,-281.204)"
           style="fill:#0033dd">
          <g
             id="g187"
             transform="translate(91.925003,81.962997)"
             style="fill:#0033dd">
            <path
               d="m 0.875,-0.59375 c -0.03125,0.15625 -0.09375,0.390625 -0.09375,0.4375 0,0.171875 0.140625,0.265625 0.296875,0.265625 0.125,0 0.296875,-0.078125 0.375,-0.28125 0,-0.015625 0.125,-0.484375 0.1875,-0.734375 l 0.21875,-0.890625 C 1.90625,-2.03125 1.96875,-2.25 2.03125,-2.46875 c 0.03125,-0.171875 0.109375,-0.46875 0.125,-0.5 0.140625,-0.3125 0.671875,-1.21875 1.625,-1.21875 0.453125,0 0.53125,0.375 0.53125,0.703125 0,0.609375 -0.484375,1.890625 -0.640625,2.3125 C 3.578125,-0.9375 3.5625,-0.8125 3.5625,-0.703125 c 0,0.46875 0.359375,0.8125 0.828125,0.8125 0.9375,0 1.296875,-1.453125 1.296875,-1.53125 0,-0.109375 -0.078125,-0.109375 -0.109375,-0.109375 -0.109375,0 -0.109375,0.03125 -0.15625,0.1875 -0.203125,0.671875 -0.53125,1.234375 -1.015625,1.234375 -0.171875,0 -0.234375,-0.09375 -0.234375,-0.328125 0,-0.25 0.078125,-0.484375 0.171875,-0.703125 0.1875,-0.53125 0.609375,-1.625 0.609375,-2.203125 0,-0.65625 -0.421875,-1.0625 -1.140625,-1.0625 -0.90625,0 -1.390625,0.640625 -1.5625,0.875 -0.046875,-0.5625 -0.453125,-0.875 -0.921875,-0.875 -0.453125,0 -0.640625,0.390625 -0.734375,0.5625 C 0.421875,-3.5 0.296875,-2.90625 0.296875,-2.875 c 0,0.109375 0.09375,0.109375 0.109375,0.109375 0.109375,0 0.109375,-0.015625 0.171875,-0.234375 0.171875,-0.703125 0.375,-1.1875 0.734375,-1.1875 0.1875,0 0.296875,0.125 0.296875,0.453125 0,0.21875 -0.03125,0.328125 -0.15625,0.84375 z m 0,0"
               id="path187"
               style="fill:#0033dd" />
          </g>
        </g>
        <g
           fill="#000000"
           fill-opacity="1"
           id="g193"
           transform="matrix(3.73333,0,0,3.73333,-344.295,-281.204)"
           style="fill:#0033dd">
          <g
             id="g191"
             transform="translate(100.119,81.962997)"
             style="fill:#0033dd">
            <path
               d="m 6.5625,-2.296875 c 0.171875,0 0.359375,0 0.359375,-0.203125 0,-0.1875 -0.1875,-0.1875 -0.359375,-0.1875 H 1.171875 c -0.171875,0 -0.34375,0 -0.34375,0.1875 0,0.203125 0.171875,0.203125 0.34375,0.203125 z m 0,0"
               id="path191"
               style="fill:#0033dd" />
          </g>
        </g>
        <g
           fill="#000000"
           fill-opacity="1"
           id="g6"
           transform="matrix(3.73333,0,0,3.73333,-344.295,-281.204)"
           style="fill:#0033dd">
          <g
             id="use5"
             transform="translate(110.082,81.962997)"
             style="fill:#0033dd">
            <path
               d="m 2.9375,-6.375 c 0,-0.25 0,-0.265625 -0.234375,-0.265625 C 2.078125,-6 1.203125,-6 0.890625,-6 v 0.3125 c 0.203125,0 0.78125,0 1.296875,-0.265625 v 5.171875 c 0,0.359375 -0.03125,0.46875 -0.921875,0.46875 h -0.3125 V 0 c 0.34375,-0.03125 1.203125,-0.03125 1.609375,-0.03125 0.390625,0 1.265625,0 1.609375,0.03125 v -0.3125 h -0.3125 c -0.90625,0 -0.921875,-0.109375 -0.921875,-0.46875 z m 0,0"
               id="path195"
               style="fill:#0033dd" />
          </g>
        </g>
      </g>
      <g
         inkscape:label="n"
         transform="matrix(0.26458333,0,0,0.26458333,106.31986,64.808114)"
         id="g202"
         style="fill:#f1443a">
        <g
           fill="#000000"
           fill-opacity="1"
           id="g201"
           transform="matrix(3.73333,0,0,3.73333,-344.295,-289.545)"
           style="fill:#f1443a">
          <g
             id="g199"
             transform="translate(91.925003,81.962997)"
             style="fill:#f1443a">
            <path
               d="m 0.875,-0.59375 c -0.03125,0.15625 -0.09375,0.390625 -0.09375,0.4375 0,0.171875 0.140625,0.265625 0.296875,0.265625 0.125,0 0.296875,-0.078125 0.375,-0.28125 0,-0.015625 0.125,-0.484375 0.1875,-0.734375 l 0.21875,-0.890625 C 1.90625,-2.03125 1.96875,-2.25 2.03125,-2.46875 c 0.03125,-0.171875 0.109375,-0.46875 0.125,-0.5 0.140625,-0.3125 0.671875,-1.21875 1.625,-1.21875 0.453125,0 0.53125,0.375 0.53125,0.703125 0,0.609375 -0.484375,1.890625 -0.640625,2.3125 C 3.578125,-0.9375 3.5625,-0.8125 3.5625,-0.703125 c 0,0.46875 0.359375,0.8125 0.828125,0.8125 0.9375,0 1.296875,-1.453125 1.296875,-1.53125 0,-0.109375 -0.078125,-0.109375 -0.109375,-0.109375 -0.109375,0 -0.109375,0.03125 -0.15625,0.1875 -0.203125,0.671875 -0.53125,1.234375 -1.015625,1.234375 -0.171875,0 -0.234375,-0.09375 -0.234375,-0.328125 0,-0.25 0.078125,-0.484375 0.171875,-0.703125 0.1875,-0.53125 0.609375,-1.625 0.609375,-2.203125 0,-0.65625 -0.421875,-1.0625 -1.140625,-1.0625 -0.90625,0 -1.390625,0.640625 -1.5625,0.875 -0.046875,-0.5625 -0.453125,-0.875 -0.921875,-0.875 -0.453125,0 -0.640625,0.390625 -0.734375,0.5625 C 0.421875,-3.5 0.296875,-2.90625 0.296875,-2.875 c 0,0.109375 0.09375,0.109375 0.109375,0.109375 0.109375,0 0.109375,-0.015625 0.171875,-0.234375 0.171875,-0.703125 0.375,-1.1875 0.734375,-1.1875 0.1875,0 0.296875,0.125 0.296875,0.453125 0,0.21875 -0.03125,0.328125 -0.15625,0.84375 z m 0,0"
               id="path199"
               style="fill:#f1443a" />
          </g>
        </g>
      </g>
      <g
         id="g186"
         transform="matrix(0.18838432,0,0,0.18793019,-465.70251,-199.51522)"
         inkscape:label="elements"
         style="stroke-width:1.40618">
        <path
           id="path270-0"
           style="fill:none;stroke:#0033dd;stroke-width:2.65735;stroke-opacity:1"
           inkscape:transform-center-x="2.1147724e-05"
           d="m 2861.2072,1363.189 27.9915,-60.005 37.1724,54.3759 z"
           sodipodi:nodetypes="cccc"
           inkscape:transform-center-y="-11.753647" />
        <path
           id="path270"
           style="fill:none;stroke:#f1443a;stroke-width:2.65735;stroke-opacity:1"
           inkscape:transform-center-x="6.1305e-05"
           d="m 2861.2072,1363.189 34.2011,-48.1446 45.8447,43.2142 z"
           sodipodi:nodetypes="cccc"
           inkscape:transform-center-y="-12.895203" />
      </g>
      <g
         inkscape:label="u(x)"
         transform="matrix(0.26458333,0,0,0.26458333,70.29573,28.046006)"
         id="g280"
         style="fill:#007e9f">
        <g
           fill="#000000"
           fill-opacity="1"
           id="g277"
           transform="matrix(3.73333,0,0,3.73333,-344.353,-278.054)"
           style="fill:#007e9f">
          <g
             id="g276"
             transform="translate(91.925003,81.962997)"
             style="fill:#007e9f">
            <path
               d="m 5.609375,-3.15625 c 0.078125,-0.28125 0.1875,-0.765625 0.1875,-0.828125 0,-0.21875 -0.15625,-0.4375 -0.46875,-0.4375 -0.15625,0 -0.515625,0.078125 -0.65625,0.53125 -0.03125,0.125 -0.484375,1.9375 -0.5625,2.265625 -0.0625,0.234375 -0.125,0.515625 -0.15625,0.703125 C 3.78125,-0.6875 3.390625,-0.28125 2.875,-0.28125 c -0.578125,0 -0.59375,-0.5 -0.59375,-0.71875 0,-0.609375 0.3125,-1.390625 0.59375,-2.109375 C 2.96875,-3.375 3,-3.4375 3,-3.609375 3,-4.1875 2.421875,-4.5 1.875,-4.5 c -1.0625,0 -1.5625,1.34375 -1.5625,1.546875 0,0.140625 0.15625,0.140625 0.25,0.140625 0.109375,0 0.1875,0 0.21875,-0.125 0.328125,-1.109375 0.875,-1.203125 1.03125,-1.203125 0.078125,0 0.171875,0 0.171875,0.203125 0,0.234375 -0.125,0.515625 -0.15625,0.625 -0.421875,1.046875 -0.609375,1.609375 -0.609375,2.09375 0,1.140625 1,1.296875 1.578125,1.296875 0.296875,0 0.734375,-0.03125 1.265625,-0.546875 0.328125,0.484375 0.90625,0.546875 1.140625,0.546875 0.375,0 0.65625,-0.203125 0.875,-0.5625 0.234375,-0.40625 0.375,-0.9375 0.375,-0.984375 0,-0.140625 -0.15625,-0.140625 -0.25,-0.140625 -0.109375,0 -0.140625,0 -0.1875,0.046875 -0.03125,0.015625 -0.03125,0.03125 -0.078125,0.28125 -0.203125,0.78125 -0.421875,1 -0.6875,1 -0.140625,0 -0.21875,-0.09375 -0.21875,-0.359375 0,-0.171875 0.03125,-0.34375 0.125,-0.734375 0.078125,-0.28125 0.171875,-0.671875 0.234375,-0.890625 z m 0,0"
               id="path276"
               style="fill:#007e9f" />
          </g>
        </g>
        <g
           fill="#000000"
           fill-opacity="1"
           id="g279"
           transform="matrix(3.73333,0,0,3.73333,-344.353,-278.054)"
           style="fill:#007e9f">
          <g
             id="g278"
             transform="translate(98.709999,81.962997)"
             style="fill:#007e9f">
            <path
               d="m 3.296875,2.390625 c 0,-0.03125 0,-0.046875 -0.171875,-0.21875 C 1.890625,0.921875 1.5625,-0.96875 1.5625,-2.5 c 0,-1.734375 0.375,-3.46875 1.609375,-4.703125 0.125,-0.125 0.125,-0.140625 0.125,-0.171875 0,-0.078125 -0.03125,-0.109375 -0.09375,-0.109375 -0.109375,0 -1,0.6875 -1.59375,1.953125 -0.5,1.09375 -0.625,2.203125 -0.625,3.03125 0,0.78125 0.109375,1.984375 0.65625,3.125 C 2.25,1.84375 3.09375,2.5 3.203125,2.5 c 0.0625,0 0.09375,-0.03125 0.09375,-0.109375 z m 0,0"
               id="path277"
               style="fill:#007e9f" />
          </g>
        </g>
        <g
           fill="#000000"
           fill-opacity="1"
           id="g8"
           transform="matrix(3.73333,0,0,3.73333,-344.353,-278.054)"
           style="fill:#007e9f">
          <g
             id="use6"
             transform="translate(102.584,81.962997)"
             style="fill:#007e9f">
            <path
               d="m 5.34375,-4 c -0.359375,0.109375 -0.53125,0.4375 -0.53125,0.6875 0,0.21875 0.15625,0.46875 0.484375,0.46875 0.359375,0 0.71875,-0.296875 0.71875,-0.78125 C 6.015625,-4.15625 5.5,-4.5 4.890625,-4.5 4.3125,-4.5 3.953125,-4.078125 3.8125,-3.890625 3.5625,-4.3125 3.015625,-4.5 2.4375,-4.5 c -1.25,0 -1.921875,1.21875 -1.921875,1.546875 0,0.140625 0.140625,0.140625 0.234375,0.140625 0.125,0 0.1875,0 0.234375,-0.125 0.28125,-0.90625 1,-1.203125 1.40625,-1.203125 0.375,0 0.5625,0.171875 0.5625,0.484375 0,0.203125 -0.140625,0.75 -0.234375,1.109375 L 2.375,-1.1875 c -0.140625,0.609375 -0.5,0.90625 -0.84375,0.90625 -0.046875,0 -0.28125,0 -0.46875,-0.140625 0.359375,-0.109375 0.53125,-0.453125 0.53125,-0.6875 0,-0.21875 -0.171875,-0.46875 -0.5,-0.46875 -0.34375,0 -0.71875,0.296875 -0.71875,0.78125 0,0.53125 0.53125,0.875 1.140625,0.875 0.5625,0 0.9375,-0.421875 1.0625,-0.609375 0.25,0.421875 0.8125,0.609375 1.375,0.609375 1.265625,0 1.9375,-1.21875 1.9375,-1.546875 0,-0.140625 -0.15625,-0.140625 -0.234375,-0.140625 -0.125,0 -0.1875,0 -0.234375,0.125 -0.28125,0.90625 -1,1.203125 -1.421875,1.203125 -0.375,0 -0.546875,-0.171875 -0.546875,-0.5 0,-0.203125 0.125,-0.734375 0.21875,-1.109375 0.0625,-0.25 0.296875,-1.1875 0.34375,-1.34375 0.15625,-0.609375 0.5,-0.90625 0.84375,-0.90625 0.0625,0 0.28125,0 0.484375,0.140625 z m 0,0"
               id="path279"
               style="fill:#007e9f" />
          </g>
        </g>
        <g
           fill="#000000"
           fill-opacity="1"
           id="g9"
           transform="matrix(3.73333,0,0,3.73333,-344.353,-278.054)"
           style="fill:#007e9f">
          <g
             id="use7"
             transform="translate(109.15,81.962997)"
             style="fill:#007e9f">
            <path
               d="m 2.875,-2.5 c 0,-0.765625 -0.109375,-1.96875 -0.65625,-3.109375 -0.59375,-1.21875 -1.453125,-1.875 -1.546875,-1.875 -0.0625,0 -0.109375,0.046875 -0.109375,0.109375 0,0.03125 0,0.046875 0.1875,0.234375 0.984375,0.984375 1.546875,2.5625 1.546875,4.640625 0,1.71875 -0.359375,3.46875 -1.59375,4.71875 C 0.5625,2.34375 0.5625,2.359375 0.5625,2.390625 0.5625,2.453125 0.609375,2.5 0.671875,2.5 0.765625,2.5 1.671875,1.8125 2.25,0.546875 2.765625,-0.546875 2.875,-1.65625 2.875,-2.5 Z m 0,0"
               id="path280"
               style="fill:#007e9f" />
          </g>
        </g>
      </g>
    </g>
    <g
       id="g1"
       transform="translate(-7.4083337,-11.246827)">
      <g
         inkscape:label=""
         transform="matrix(0.26458333,0,0,0.26458333,181.45108,54.705722)"
         id="g334">
        <g
           fill="#000000"
           fill-opacity="1"
           id="g11"
           transform="matrix(3.73333,0,0,3.73333,-481.59537,-269.105)"
           style="fill:#003162">
          <g
             id="use10"
             transform="translate(91.925003,81.962997)"
             style="fill:#003162">
            <path
               d="m 4.40625,-6.953125 c -0.0625,-0.140625 -0.09375,-0.1875 -0.265625,-0.1875 -0.15625,0 -0.1875,0.046875 -0.25,0.1875 l -3.375,6.75 C 0.46875,-0.109375 0.46875,-0.09375 0.46875,-0.078125 0.46875,0 0.53125,0 0.6875,0 h 6.921875 c 0.15625,0 0.21875,0 0.21875,-0.078125 0,-0.015625 0,-0.03125 -0.046875,-0.125 z m -0.578125,0.8125 2.6875,5.390625 h -5.375 z m 0,0"
               id="path283"
               style="fill:#003162" />
          </g>
        </g>
        <g
           fill="#000000"
           fill-opacity="1"
           id="g284"
           transform="matrix(3.73333,0,0,3.73333,-481.59537,-269.105)"
           style="fill:#003162">
          <g
             id="use11"
             transform="translate(100.227,81.962997)"
             style="fill:#003162">
            <path
               d="M 4.109375,-1.078125 C 3.875,-0.625 3.265625,-0.59375 2.40625,-0.59375 c -0.625,0 -1.5625,0 -1.5625,-0.65625 0,-0.203125 0.140625,-0.578125 0.484375,-0.84375 C 1.75,-1.875 2.28125,-1.875 2.46875,-1.875 c 0.265625,0 1.015625,0 1.015625,-0.546875 0,-0.40625 -0.53125,-0.40625 -0.84375,-0.40625 -0.203125,0 -0.734375,0 -1.265625,0.25 C 1.296875,-2.6875 1.25,-2.828125 1.25,-2.9375 c 0,-0.546875 0.6875,-0.90625 1.875,-0.90625 0.28125,0 0.59375,0 1.015625,0.3125 0.09375,0.046875 0.15625,0.078125 0.21875,0.078125 0.21875,0 0.453125,-0.21875 0.453125,-0.453125 0,-0.1875 -0.15625,-0.3125 -0.53125,-0.484375 C 3.84375,-4.59375 3.46875,-4.59375 3.3125,-4.59375 c -1.703125,0 -2.53125,0.953125 -2.53125,1.65625 0,0.3125 0.15625,0.515625 0.21875,0.578125 -0.40625,0.34375 -0.65625,0.75 -0.65625,1.234375 0,0.6875 0.546875,1.296875 1.890625,1.296875 1.625,0 2.140625,-0.953125 2.140625,-1.109375 0,-0.09375 -0.0625,-0.171875 -0.171875,-0.171875 -0.046875,0 -0.09375,0.03125 -0.09375,0.03125 z M 1.765625,-2.34375 c 0.359375,-0.125 0.734375,-0.125 0.84375,-0.125 0.265625,0 0.296875,0 0.40625,0.046875 -0.03125,0.125 -0.0625,0.1875 -0.546875,0.1875 -0.171875,0 -0.421875,0 -0.703125,-0.109375 z m 0,0"
               id="path284"
               style="fill:#003162" />
          </g>
        </g>
        <g
           fill="#000000"
           fill-opacity="1"
           id="g287"
           transform="matrix(3.73333,0,0,3.73333,-481.59537,-269.105)"
           style="fill:#003162">
          <g
             id="g285"
             transform="translate(108.263,81.962997)"
             style="fill:#003162">
            <path
               d="m 6.84375,-3.265625 c 0.15625,0 0.34375,0 0.34375,-0.1875 C 7.1875,-3.65625 7,-3.65625 6.859375,-3.65625 h -5.96875 c -0.140625,0 -0.328125,0 -0.328125,0.203125 0,0.1875 0.1875,0.1875 0.328125,0.1875 z m 0.015625,1.9375 c 0.140625,0 0.328125,0 0.328125,-0.203125 0,-0.1875 -0.1875,-0.1875 -0.34375,-0.1875 H 0.890625 c -0.140625,0 -0.328125,0 -0.328125,0.1875 0,0.203125 0.1875,0.203125 0.328125,0.203125 z m 0,0"
               id="path285"
               style="fill:#003162" />
          </g>
        </g>
        <g
           fill="#000000"
           fill-opacity="1"
           id="g299"
           transform="matrix(3.73333,0,0,3.73333,-481.59537,-269.105)"
           style="fill:#0033dd">
          <g
             id="g298"
             transform="translate(118.779,81.962997)"
             style="fill:#0033dd">
            <path
               d="M 4.109375,-1.078125 C 3.875,-0.625 3.265625,-0.59375 2.40625,-0.59375 c -0.625,0 -1.5625,0 -1.5625,-0.65625 0,-0.203125 0.140625,-0.578125 0.484375,-0.84375 C 1.75,-1.875 2.28125,-1.875 2.46875,-1.875 c 0.265625,0 1.015625,0 1.015625,-0.546875 0,-0.40625 -0.53125,-0.40625 -0.84375,-0.40625 -0.203125,0 -0.734375,0 -1.265625,0.25 C 1.296875,-2.6875 1.25,-2.828125 1.25,-2.9375 c 0,-0.546875 0.6875,-0.90625 1.875,-0.90625 0.28125,0 0.59375,0 1.015625,0.3125 0.09375,0.046875 0.15625,0.078125 0.21875,0.078125 0.21875,0 0.453125,-0.21875 0.453125,-0.453125 0,-0.1875 -0.15625,-0.3125 -0.53125,-0.484375 C 3.84375,-4.59375 3.46875,-4.59375 3.3125,-4.59375 c -1.703125,0 -2.53125,0.953125 -2.53125,1.65625 0,0.3125 0.15625,0.515625 0.21875,0.578125 -0.40625,0.34375 -0.65625,0.75 -0.65625,1.234375 0,0.6875 0.546875,1.296875 1.890625,1.296875 1.625,0 2.140625,-0.953125 2.140625,-1.109375 0,-0.09375 -0.0625,-0.171875 -0.171875,-0.171875 -0.046875,0 -0.09375,0.03125 -0.09375,0.03125 z M 1.765625,-2.34375 c 0.359375,-0.125 0.734375,-0.125 0.84375,-0.125 0.265625,0 0.296875,0 0.40625,0.046875 -0.03125,0.125 -0.0625,0.1875 -0.546875,0.1875 -0.171875,0 -0.421875,0 -0.703125,-0.109375 z m 0,0"
               id="path297"
               style="fill:#0033dd" />
          </g>
        </g>
        <g
           fill="#000000"
           fill-opacity="1"
           id="g301"
           transform="matrix(3.73333,0,0,3.73333,-481.59537,-269.105)"
           style="fill:#0033dd">
          <g
             id="g300"
             transform="translate(124.048,81.962997)"
             style="fill:#0033dd">
            <path
               d="m 3.296875,2.390625 c 0,-0.03125 0,-0.046875 -0.171875,-0.21875 C 1.890625,0.921875 1.5625,-0.96875 1.5625,-2.5 c 0,-1.734375 0.375,-3.46875 1.609375,-4.703125 0.125,-0.125 0.125,-0.140625 0.125,-0.171875 0,-0.078125 -0.03125,-0.109375 -0.09375,-0.109375 -0.109375,0 -1,0.6875 -1.59375,1.953125 -0.5,1.09375 -0.625,2.203125 -0.625,3.03125 0,0.78125 0.109375,1.984375 0.65625,3.125 C 2.25,1.84375 3.09375,2.5 3.203125,2.5 c 0.0625,0 0.09375,-0.03125 0.09375,-0.109375 z m 0,0"
               id="path299"
               style="fill:#0033dd" />
          </g>
        </g>
        <g
           fill="#000000"
           fill-opacity="1"
           id="g306"
           transform="matrix(3.73333,0,0,3.73333,-481.59537,-269.105)"
           style="fill:#0033dd">
          <g
             id="g302"
             transform="translate(127.922,81.962997)"
             style="fill:#0033dd">
            <path
               d="m 5.609375,-3.15625 c 0.078125,-0.28125 0.1875,-0.765625 0.1875,-0.828125 0,-0.21875 -0.15625,-0.4375 -0.46875,-0.4375 -0.15625,0 -0.515625,0.078125 -0.65625,0.53125 -0.03125,0.125 -0.484375,1.9375 -0.5625,2.265625 -0.0625,0.234375 -0.125,0.515625 -0.15625,0.703125 C 3.78125,-0.6875 3.390625,-0.28125 2.875,-0.28125 c -0.578125,0 -0.59375,-0.5 -0.59375,-0.71875 0,-0.609375 0.3125,-1.390625 0.59375,-2.109375 C 2.96875,-3.375 3,-3.4375 3,-3.609375 3,-4.1875 2.421875,-4.5 1.875,-4.5 c -1.0625,0 -1.5625,1.34375 -1.5625,1.546875 0,0.140625 0.15625,0.140625 0.25,0.140625 0.109375,0 0.1875,0 0.21875,-0.125 0.328125,-1.109375 0.875,-1.203125 1.03125,-1.203125 0.078125,0 0.171875,0 0.171875,0.203125 0,0.234375 -0.125,0.515625 -0.15625,0.625 -0.421875,1.046875 -0.609375,1.609375 -0.609375,2.09375 0,1.140625 1,1.296875 1.578125,1.296875 0.296875,0 0.734375,-0.03125 1.265625,-0.546875 0.328125,0.484375 0.90625,0.546875 1.140625,0.546875 0.375,0 0.65625,-0.203125 0.875,-0.5625 0.234375,-0.40625 0.375,-0.9375 0.375,-0.984375 0,-0.140625 -0.15625,-0.140625 -0.25,-0.140625 -0.109375,0 -0.140625,0 -0.1875,0.046875 -0.03125,0.015625 -0.03125,0.03125 -0.078125,0.28125 -0.203125,0.78125 -0.421875,1 -0.6875,1 -0.140625,0 -0.21875,-0.09375 -0.21875,-0.359375 0,-0.171875 0.03125,-0.34375 0.125,-0.734375 0.078125,-0.28125 0.171875,-0.671875 0.234375,-0.890625 z m 0,0"
               id="path301"
               style="fill:#0033dd" />
          </g>
        </g>
        <g
           fill="#000000"
           fill-opacity="1"
           id="g308"
           transform="matrix(3.73333,0,0,3.73333,-481.59537,-269.105)"
           style="fill:#0033dd">
          <g
             id="g307"
             transform="translate(134.707,83.457001)"
             style="fill:#0033dd">
            <path
               d="m 0.84375,-0.4375 c -0.015625,0.09375 -0.0625,0.265625 -0.0625,0.28125 0,0.15625 0.125,0.21875 0.234375,0.21875 0.125,0 0.234375,-0.078125 0.28125,-0.140625 0.03125,-0.0625 0.078125,-0.296875 0.125,-0.4375 0.03125,-0.125 0.109375,-0.453125 0.140625,-0.625 0.046875,-0.15625 0.09375,-0.3125 0.125,-0.46875 0.078125,-0.28125 0.09375,-0.34375 0.296875,-0.625 C 2.171875,-2.515625 2.5,-2.875 3.03125,-2.875 c 0.390625,0 0.40625,0.359375 0.40625,0.484375 0,0.421875 -0.296875,1.1875 -0.40625,1.484375 -0.078125,0.203125 -0.109375,0.265625 -0.109375,0.375 0,0.375 0.296875,0.59375 0.65625,0.59375 0.703125,0 1,-0.953125 1,-1.0625 0,-0.09375 -0.078125,-0.09375 -0.109375,-0.09375 -0.09375,0 -0.09375,0.046875 -0.125,0.125 C 4.1875,-0.40625 3.875,-0.125 3.609375,-0.125 c -0.15625,0 -0.1875,-0.09375 -0.1875,-0.25 0,-0.15625 0.046875,-0.25 0.171875,-0.5625 0.078125,-0.21875 0.359375,-0.953125 0.359375,-1.34375 0,-0.671875 -0.53125,-0.796875 -0.90625,-0.796875 -0.578125,0 -0.96875,0.359375 -1.171875,0.640625 -0.046875,-0.484375 -0.453125,-0.640625 -0.75,-0.640625 -0.296875,0 -0.453125,0.21875 -0.546875,0.375 -0.15625,0.265625 -0.25,0.65625 -0.25,0.703125 0,0.078125 0.09375,0.078125 0.125,0.078125 0.09375,0 0.09375,-0.015625 0.140625,-0.203125 0.109375,-0.40625 0.25,-0.75 0.515625,-0.75 0.1875,0 0.234375,0.15625 0.234375,0.34375 0,0.125 -0.0625,0.390625 -0.125,0.578125 -0.046875,0.1875 -0.109375,0.46875 -0.140625,0.625 z m 0,0"
               id="path307"
               style="fill:#0033dd" />
          </g>
        </g>
        <g
           fill="#000000"
           fill-opacity="1"
           id="g310"
           transform="matrix(3.73333,0,0,3.73333,-481.59537,-269.105)"
           style="fill:#0033dd">
          <g
             id="g309"
             transform="translate(140.13,81.962997)"
             style="fill:#0033dd">
            <path
               d="m 2.875,-2.5 c 0,-0.765625 -0.109375,-1.96875 -0.65625,-3.109375 -0.59375,-1.21875 -1.453125,-1.875 -1.546875,-1.875 -0.0625,0 -0.109375,0.046875 -0.109375,0.109375 0,0.03125 0,0.046875 0.1875,0.234375 0.984375,0.984375 1.546875,2.5625 1.546875,4.640625 0,1.71875 -0.359375,3.46875 -1.59375,4.71875 C 0.5625,2.34375 0.5625,2.359375 0.5625,2.390625 0.5625,2.453125 0.609375,2.5 0.671875,2.5 0.765625,2.5 1.671875,1.8125 2.25,0.546875 2.765625,-0.546875 2.875,-1.65625 2.875,-2.5 Z m 0,0"
               id="path308"
               style="fill:#0033dd" />
          </g>
        </g>
        <g
           fill="#000000"
           fill-opacity="1"
           id="g312"
           transform="matrix(3.73333,0,0,3.73333,-481.59537,-269.105)"
           style="fill:#003162">
          <g
             id="g311"
             transform="translate(146.218,81.962997)"
             style="fill:#003162">
            <path
               d="m 6.5625,-2.296875 c 0.171875,0 0.359375,0 0.359375,-0.203125 0,-0.1875 -0.1875,-0.1875 -0.359375,-0.1875 H 1.171875 c -0.171875,0 -0.34375,0 -0.34375,0.1875 0,0.203125 0.171875,0.203125 0.34375,0.203125 z m 0,0"
               id="path310"
               style="fill:#003162" />
          </g>
        </g>
        <g
           fill="#000000"
           fill-opacity="1"
           id="g314"
           transform="matrix(3.73333,0,0,3.73333,-481.59537,-269.105)"
           style="fill:#f1443a">
          <g
             id="g313"
             transform="translate(156.181,81.962997)"
             style="fill:#f1443a">
            <path
               d="M 4.109375,-1.078125 C 3.875,-0.625 3.265625,-0.59375 2.40625,-0.59375 c -0.625,0 -1.5625,0 -1.5625,-0.65625 0,-0.203125 0.140625,-0.578125 0.484375,-0.84375 C 1.75,-1.875 2.28125,-1.875 2.46875,-1.875 c 0.265625,0 1.015625,0 1.015625,-0.546875 0,-0.40625 -0.53125,-0.40625 -0.84375,-0.40625 -0.203125,0 -0.734375,0 -1.265625,0.25 C 1.296875,-2.6875 1.25,-2.828125 1.25,-2.9375 c 0,-0.546875 0.6875,-0.90625 1.875,-0.90625 0.28125,0 0.59375,0 1.015625,0.3125 0.09375,0.046875 0.15625,0.078125 0.21875,0.078125 0.21875,0 0.453125,-0.21875 0.453125,-0.453125 0,-0.1875 -0.15625,-0.3125 -0.53125,-0.484375 C 3.84375,-4.59375 3.46875,-4.59375 3.3125,-4.59375 c -1.703125,0 -2.53125,0.953125 -2.53125,1.65625 0,0.3125 0.15625,0.515625 0.21875,0.578125 -0.40625,0.34375 -0.65625,0.75 -0.65625,1.234375 0,0.6875 0.546875,1.296875 1.890625,1.296875 1.625,0 2.140625,-0.953125 2.140625,-1.109375 0,-0.09375 -0.0625,-0.171875 -0.171875,-0.171875 -0.046875,0 -0.09375,0.03125 -0.09375,0.03125 z M 1.765625,-2.34375 c 0.359375,-0.125 0.734375,-0.125 0.84375,-0.125 0.265625,0 0.296875,0 0.40625,0.046875 -0.03125,0.125 -0.0625,0.1875 -0.546875,0.1875 -0.171875,0 -0.421875,0 -0.703125,-0.109375 z m 0,0"
               id="path312"
               style="fill:#f1443a" />
          </g>
        </g>
        <g
           fill="#000000"
           fill-opacity="1"
           id="g316"
           transform="matrix(3.73333,0,0,3.73333,-481.59537,-269.105)"
           style="fill:#f1443a">
          <g
             id="g315"
             transform="translate(161.44901,81.962997)"
             style="fill:#f1443a">
            <path
               d="m 3.296875,2.390625 c 0,-0.03125 0,-0.046875 -0.171875,-0.21875 C 1.890625,0.921875 1.5625,-0.96875 1.5625,-2.5 c 0,-1.734375 0.375,-3.46875 1.609375,-4.703125 0.125,-0.125 0.125,-0.140625 0.125,-0.171875 0,-0.078125 -0.03125,-0.109375 -0.09375,-0.109375 -0.109375,0 -1,0.6875 -1.59375,1.953125 -0.5,1.09375 -0.625,2.203125 -0.625,3.03125 0,0.78125 0.109375,1.984375 0.65625,3.125 C 2.25,1.84375 3.09375,2.5 3.203125,2.5 c 0.0625,0 0.09375,-0.03125 0.09375,-0.109375 z m 0,0"
               id="path314"
               style="fill:#f1443a" />
          </g>
        </g>
        <g
           fill="#000000"
           fill-opacity="1"
           id="g318"
           transform="matrix(3.73333,0,0,3.73333,-481.59537,-269.105)"
           style="fill:#f1443a">
          <g
             id="g317"
             transform="translate(165.323,81.962997)"
             style="fill:#f1443a">
            <path
               d="m 5.609375,-3.15625 c 0.078125,-0.28125 0.1875,-0.765625 0.1875,-0.828125 0,-0.21875 -0.15625,-0.4375 -0.46875,-0.4375 -0.15625,0 -0.515625,0.078125 -0.65625,0.53125 -0.03125,0.125 -0.484375,1.9375 -0.5625,2.265625 -0.0625,0.234375 -0.125,0.515625 -0.15625,0.703125 C 3.78125,-0.6875 3.390625,-0.28125 2.875,-0.28125 c -0.578125,0 -0.59375,-0.5 -0.59375,-0.71875 0,-0.609375 0.3125,-1.390625 0.59375,-2.109375 C 2.96875,-3.375 3,-3.4375 3,-3.609375 3,-4.1875 2.421875,-4.5 1.875,-4.5 c -1.0625,0 -1.5625,1.34375 -1.5625,1.546875 0,0.140625 0.15625,0.140625 0.25,0.140625 0.109375,0 0.1875,0 0.21875,-0.125 0.328125,-1.109375 0.875,-1.203125 1.03125,-1.203125 0.078125,0 0.171875,0 0.171875,0.203125 0,0.234375 -0.125,0.515625 -0.15625,0.625 -0.421875,1.046875 -0.609375,1.609375 -0.609375,2.09375 0,1.140625 1,1.296875 1.578125,1.296875 0.296875,0 0.734375,-0.03125 1.265625,-0.546875 0.328125,0.484375 0.90625,0.546875 1.140625,0.546875 0.375,0 0.65625,-0.203125 0.875,-0.5625 0.234375,-0.40625 0.375,-0.9375 0.375,-0.984375 0,-0.140625 -0.15625,-0.140625 -0.25,-0.140625 -0.109375,0 -0.140625,0 -0.1875,0.046875 -0.03125,0.015625 -0.03125,0.03125 -0.078125,0.28125 -0.203125,0.78125 -0.421875,1 -0.6875,1 -0.140625,0 -0.21875,-0.09375 -0.21875,-0.359375 0,-0.171875 0.03125,-0.34375 0.125,-0.734375 0.078125,-0.28125 0.171875,-0.671875 0.234375,-0.890625 z m 0,0"
               id="path316"
               style="fill:#f1443a" />
          </g>
        </g>
        <g
           fill="#000000"
           fill-opacity="1"
           id="g320"
           transform="matrix(3.73333,0,0,3.73333,-481.59537,-269.105)"
           style="fill:#f1443a">
          <g
             id="g319"
             transform="translate(172.108,83.457001)"
             style="fill:#f1443a">
            <path
               d="m 0.84375,-0.4375 c -0.015625,0.09375 -0.0625,0.265625 -0.0625,0.28125 0,0.15625 0.125,0.21875 0.234375,0.21875 0.125,0 0.234375,-0.078125 0.28125,-0.140625 0.03125,-0.0625 0.078125,-0.296875 0.125,-0.4375 0.03125,-0.125 0.109375,-0.453125 0.140625,-0.625 0.046875,-0.15625 0.09375,-0.3125 0.125,-0.46875 0.078125,-0.28125 0.09375,-0.34375 0.296875,-0.625 C 2.171875,-2.515625 2.5,-2.875 3.03125,-2.875 c 0.390625,0 0.40625,0.359375 0.40625,0.484375 0,0.421875 -0.296875,1.1875 -0.40625,1.484375 -0.078125,0.203125 -0.109375,0.265625 -0.109375,0.375 0,0.375 0.296875,0.59375 0.65625,0.59375 0.703125,0 1,-0.953125 1,-1.0625 0,-0.09375 -0.078125,-0.09375 -0.109375,-0.09375 -0.09375,0 -0.09375,0.046875 -0.125,0.125 C 4.1875,-0.40625 3.875,-0.125 3.609375,-0.125 c -0.15625,0 -0.1875,-0.09375 -0.1875,-0.25 0,-0.15625 0.046875,-0.25 0.171875,-0.5625 0.078125,-0.21875 0.359375,-0.953125 0.359375,-1.34375 0,-0.671875 -0.53125,-0.796875 -0.90625,-0.796875 -0.578125,0 -0.96875,0.359375 -1.171875,0.640625 -0.046875,-0.484375 -0.453125,-0.640625 -0.75,-0.640625 -0.296875,0 -0.453125,0.21875 -0.546875,0.375 -0.15625,0.265625 -0.25,0.65625 -0.25,0.703125 0,0.078125 0.09375,0.078125 0.125,0.078125 0.09375,0 0.09375,-0.015625 0.140625,-0.203125 0.109375,-0.40625 0.25,-0.75 0.515625,-0.75 0.1875,0 0.234375,0.15625 0.234375,0.34375 0,0.125 -0.0625,0.390625 -0.125,0.578125 -0.046875,0.1875 -0.109375,0.46875 -0.140625,0.625 z m 0,0"
               id="path318"
               style="fill:#f1443a" />
          </g>
        </g>
        <g
           fill="#000000"
           fill-opacity="1"
           id="g322"
           transform="matrix(3.73333,0,0,3.73333,-481.59537,-269.105)"
           style="fill:#f1443a">
          <g
             id="g321"
             transform="translate(177.033,83.457001)"
             style="fill:#f1443a">
            <path
               d="m 5.1875,-1.578125 c 0.109375,0 0.28125,0 0.28125,-0.15625 0,-0.1875 -0.171875,-0.1875 -0.28125,-0.1875 H 1.03125 c -0.109375,0 -0.28125,0 -0.28125,0.171875 0,0.171875 0.15625,0.171875 0.28125,0.171875 z m 0,0"
               id="path320"
               style="fill:#f1443a" />
          </g>
        </g>
        <g
           fill="#000000"
           fill-opacity="1"
           id="g330"
           transform="matrix(3.73333,0,0,3.73333,-481.59537,-269.105)"
           style="fill:#f1443a">
          <g
             id="g329"
             transform="translate(183.25999,83.457001)"
             style="fill:#f1443a">
            <path
               d="m 2.328125,-4.4375 c 0,-0.1875 0,-0.1875 -0.203125,-0.1875 -0.453125,0.4375 -1.078125,0.4375 -1.359375,0.4375 v 0.25 c 0.15625,0 0.625,0 1,-0.1875 v 3.546875 c 0,0.234375 0,0.328125 -0.6875,0.328125 H 0.8125 V 0 c 0.125,0 0.984375,-0.03125 1.234375,-0.03125 0.21875,0 1.09375,0.03125 1.25,0.03125 V -0.25 H 3.03125 c -0.703125,0 -0.703125,-0.09375 -0.703125,-0.328125 z m 0,0"
               id="path322"
               style="fill:#f1443a" />
          </g>
        </g>
        <g
           fill="#000000"
           fill-opacity="1"
           id="g333"
           transform="matrix(3.73333,0,0,3.73333,-481.59537,-269.105)"
           style="fill:#f1443a">
          <g
             id="g331"
             transform="translate(187.729,81.962997)"
             style="fill:#f1443a">
            <path
               d="m 2.875,-2.5 c 0,-0.765625 -0.109375,-1.96875 -0.65625,-3.109375 -0.59375,-1.21875 -1.453125,-1.875 -1.546875,-1.875 -0.0625,0 -0.109375,0.046875 -0.109375,0.109375 0,0.03125 0,0.046875 0.1875,0.234375 0.984375,0.984375 1.546875,2.5625 1.546875,4.640625 0,1.71875 -0.359375,3.46875 -1.59375,4.71875 C 0.5625,2.34375 0.5625,2.359375 0.5625,2.390625 0.5625,2.453125 0.609375,2.5 0.671875,2.5 0.765625,2.5 1.671875,1.8125 2.25,0.546875 2.765625,-0.546875 2.875,-1.65625 2.875,-2.5 Z m 0,0"
               id="path330"
               style="fill:#f1443a" />
          </g>
        </g>
      </g>
    </g>
  </g>
</svg>
