<?xml version="1.0" encoding="UTF-8" standalone="no"?>
<!-- Created with Inkscape (http://www.inkscape.org/) -->

<svg
   width="80.905548mm"
   height="108.57901mm"
   version="1.1"
   viewBox="0 0 80.905546 108.57898"
   id="svg54"
   sodipodi:docname="problem_generic_path_following.svg"
   inkscape:version="1.3.2 (091e20ef0f, 2023-11-25)"
   inkscape:export-filename="problem_uimp.png"
   inkscape:export-xdpi="96"
   inkscape:export-ydpi="96"
   xmlns:inkscape="http://www.inkscape.org/namespaces/inkscape"
   xmlns:sodipodi="http://sodipodi.sourceforge.net/DTD/sodipodi-0.dtd"
   xmlns="http://www.w3.org/2000/svg"
   xmlns:svg="http://www.w3.org/2000/svg">
  <sodipodi:namedview
     id="namedview54"
     pagecolor="#ffffff"
     bordercolor="#000000"
     borderopacity="0.25"
     inkscape:showpageshadow="2"
     inkscape:pageopacity="0.0"
     inkscape:pagecheckerboard="0"
     inkscape:deskcolor="#d1d1d1"
     inkscape:document-units="mm"
     inkscape:zoom="2.6666016"
     inkscape:cx="169.50414"
     inkscape:cy="102.565"
     inkscape:window-width="1916"
     inkscape:window-height="1021"
     inkscape:window-x="0"
     inkscape:window-y="0"
     inkscape:window-maximized="0"
     inkscape:current-layer="layer3" />
  <defs
     id="defs54">
    <rect
       x="-20.618826"
       y="-13.169079"
       width="230.35876"
       height="53.516224"
       id="rect62" />
    <rect
       x="131.99937"
       y="170.54376"
       width="147.08836"
       height="88.668098"
       id="rect61" />
    <marker
       style="overflow:visible"
       id="ArrowWide"
       refX="0"
       refY="0"
       orient="auto-start-reverse"
       inkscape:stockid="Wide arrow"
       markerWidth="1"
       markerHeight="1"
       viewBox="0 0 1 1"
       inkscape:isstock="true"
       inkscape:collect="always"
       preserveAspectRatio="xMidYMid">
      <path
         style="fill:none;stroke:context-stroke;stroke-width:1;stroke-linecap:butt"
         d="M 3,-3 0,0 3,3"
         transform="rotate(180,0.125,0)"
         sodipodi:nodetypes="ccc"
         id="path56" />
    </marker>
    <marker
       style="overflow:visible"
       id="ArrowWide-6"
       refX="0"
       refY="0"
       orient="auto-start-reverse"
       inkscape:stockid="Wide arrow"
       markerWidth="1"
       markerHeight="1"
       viewBox="0 0 1 1"
       inkscape:isstock="true"
       inkscape:collect="always"
       preserveAspectRatio="xMidYMid">
      <path
         style="fill:none;stroke:context-stroke;stroke-width:1;stroke-linecap:butt"
         d="M 3,-3 0,0 3,3"
         transform="rotate(180,0.125,0)"
         sodipodi:nodetypes="ccc"
         id="path56-0" />
    </marker>
    <marker
       style="overflow:visible"
       id="ArrowWide-3"
       refX="0"
       refY="0"
       orient="auto-start-reverse"
       inkscape:stockid="Wide arrow"
       markerWidth="1"
       markerHeight="1"
       viewBox="0 0 1 1"
       inkscape:isstock="true"
       inkscape:collect="always"
       preserveAspectRatio="xMidYMid">
      <path
         style="fill:none;stroke:context-stroke;stroke-width:1;stroke-linecap:butt"
         d="M 3,-3 0,0 3,3"
         transform="rotate(180,0.125,0)"
         sodipodi:nodetypes="ccc"
         id="path56-6" />
    </marker>
    <marker
       style="overflow:visible"
       id="ArrowWide-3-5"
       refX="0"
       refY="0"
       orient="auto-start-reverse"
       inkscape:stockid="Wide arrow"
       markerWidth="1"
       markerHeight="1"
       viewBox="0 0 1 1"
       inkscape:isstock="true"
       inkscape:collect="always"
       preserveAspectRatio="xMidYMid">
      <path
         style="fill:none;stroke:context-stroke;stroke-width:1;stroke-linecap:butt"
         d="M 3,-3 0,0 3,3"
         transform="rotate(180,0.125,0)"
         sodipodi:nodetypes="ccc"
         id="path56-6-3" />
    </marker>
    <marker
       style="overflow:visible"
       id="ArrowWide-3-5-6"
       refX="0"
       refY="0"
       orient="auto-start-reverse"
       inkscape:stockid="Wide arrow"
       markerWidth="1"
       markerHeight="1"
       viewBox="0 0 1 1"
       inkscape:isstock="true"
       inkscape:collect="always"
       preserveAspectRatio="xMidYMid">
      <path
         style="fill:none;stroke:context-stroke;stroke-width:1;stroke-linecap:butt"
         d="M 3,-3 0,0 3,3"
         transform="rotate(180,0.125,0)"
         sodipodi:nodetypes="ccc"
         id="path56-6-3-2" />
    </marker>
    <marker
       style="overflow:visible"
       id="ArrowWide-3-5-6-1"
       refX="0"
       refY="0"
       orient="auto-start-reverse"
       inkscape:stockid="Wide arrow"
       markerWidth="1"
       markerHeight="1"
       viewBox="0 0 1 1"
       inkscape:isstock="true"
       inkscape:collect="always"
       preserveAspectRatio="xMidYMid">
      <path
         style="fill:none;stroke:context-stroke;stroke-width:1;stroke-linecap:butt"
         d="M 3,-3 0,0 3,3"
         transform="rotate(180,0.125,0)"
         sodipodi:nodetypes="ccc"
         id="path56-6-3-2-2" />
    </marker>
  </defs>
  <g
     inkscape:groupmode="layer"
     id="layer3"
     inkscape:label="Background"
     transform="translate(-6.9194275e-7,-1.1831559)">
    <rect
       style="display:inline;fill:#ffffff;stroke:none;stroke-width:0.499999"
       id="rect1"
       width="80.905548"
       height="108.57901"
       x="6.9194277e-07"
       y="1.1831559"
       ry="0" />
  </g>
  <g
     transform="translate(-44.364606,-11.135487)"
     id="g74"
     inkscape:groupmode="layer"
     inkscape:label="Imposed displacements"
     style="display:inline">
    <path
       style="fill:none;stroke:#007e9f;stroke-width:0.499999;stroke-dasharray:none;marker-end:url(#ArrowWide)"
       d="m 64.944782,26.263945 -7.2614,-11.103571"
       id="path70"
       sodipodi:nodetypes="cc" />
    <path
       style="fill:none;stroke:#007e9f;stroke-width:0.499999;stroke-dasharray:none;marker-end:url(#ArrowWide)"
       d="m 61.619697,28.409105 -7.2614,-11.103571"
       id="path71"
       sodipodi:nodetypes="cc" />
    <path
       style="fill:none;stroke:#007e9f;stroke-width:0.499999;stroke-dasharray:none;marker-end:url(#ArrowWide)"
       d="M 58.720676,30.988457 51.45928,19.884886"
       id="path72"
       sodipodi:nodetypes="cc" />
    <path
       style="fill:none;stroke:#007e9f;stroke-width:0.499999;stroke-dasharray:none;marker-end:url(#ArrowWide-6)"
       d="M 56.114502,34.120722 48.8531,23.017151"
       id="path73"
       sodipodi:nodetypes="cc" />
    <path
       style="fill:none;stroke:#007e9f;stroke-width:0.499999;stroke-dasharray:none;marker-end:url(#ArrowWide)"
       d="m 69.153632,24.631416 -7.2614,-11.103571"
       id="path74"
       sodipodi:nodetypes="cc" />
    <g
       inkscape:label=""
       transform="translate(66.794898,11.135418)"
       id="g22"
       style="fill:#007e9f">
      <g
         fill="#000000"
         fill-opacity="1"
         id="g21"
         transform="matrix(0.987778,0,0,0.987778,-91.3262,-74.1239)"
         style="fill:#007e9f">
        <g
           id="use5"
           transform="translate(91.925003,81.962997)"
           style="fill:#007e9f">
          <path
             d="m 3.5625,-2.90625 c 0.40625,1.046875 0.890625,2.5625 1.046875,2.796875 0.15625,0.21875 0.25,0.21875 0.53125,0.21875 h 0.21875 c 0.09375,-0.015625 0.109375,-0.0625 0.109375,-0.09375 0,-0.03125 -0.03125,-0.0625 -0.0625,-0.09375 C 5.3125,-0.1875 5.25,-0.34375 5.1875,-0.53125 L 3.15625,-6.203125 c -0.21875,-0.578125 -0.75,-0.71875 -1.21875,-0.71875 -0.046875,0 -0.1875,0 -0.1875,0.109375 0,0.078125 0.078125,0.109375 0.09375,0.109375 C 2.171875,-6.65625 2.25,-6.59375 2.5,-5.90625 l 0.953125,2.703125 -2.75,2.734375 c -0.109375,0.125 -0.171875,0.171875 -0.171875,0.3125 0,0.171875 0.140625,0.28125 0.296875,0.28125 0.15625,0 0.25,-0.109375 0.328125,-0.203125 z m 0,0"
             id="path9"
             style="fill:#007e9f" />
        </g>
      </g>
      <g
         fill="#000000"
         fill-opacity="1"
         id="g7"
         transform="matrix(0.987778,0,0,0.987778,-91.3262,-74.1239)"
         style="fill:#007e9f">
        <g
           id="use6"
           transform="translate(97.737,81.962997)"
           style="fill:#007e9f">
          <path
             d="m 5.609375,-3.15625 c 0.078125,-0.28125 0.1875,-0.765625 0.1875,-0.828125 0,-0.21875 -0.15625,-0.4375 -0.46875,-0.4375 -0.15625,0 -0.515625,0.078125 -0.65625,0.53125 -0.03125,0.125 -0.484375,1.9375 -0.5625,2.265625 -0.0625,0.234375 -0.125,0.515625 -0.15625,0.703125 C 3.78125,-0.6875 3.390625,-0.28125 2.875,-0.28125 c -0.578125,0 -0.59375,-0.5 -0.59375,-0.71875 0,-0.609375 0.3125,-1.390625 0.59375,-2.109375 C 2.96875,-3.375 3,-3.4375 3,-3.609375 3,-4.1875 2.421875,-4.5 1.875,-4.5 c -1.0625,0 -1.5625,1.34375 -1.5625,1.546875 0,0.140625 0.15625,0.140625 0.25,0.140625 0.109375,0 0.1875,0 0.21875,-0.125 0.328125,-1.109375 0.875,-1.203125 1.03125,-1.203125 0.078125,0 0.171875,0 0.171875,0.203125 0,0.234375 -0.125,0.515625 -0.15625,0.625 -0.421875,1.046875 -0.609375,1.609375 -0.609375,2.09375 0,1.140625 1,1.296875 1.578125,1.296875 0.296875,0 0.734375,-0.03125 1.265625,-0.546875 0.328125,0.484375 0.90625,0.546875 1.140625,0.546875 0.375,0 0.65625,-0.203125 0.875,-0.5625 0.234375,-0.40625 0.375,-0.9375 0.375,-0.984375 0,-0.140625 -0.15625,-0.140625 -0.25,-0.140625 -0.109375,0 -0.140625,0 -0.1875,0.046875 -0.03125,0.015625 -0.03125,0.03125 -0.078125,0.28125 -0.203125,0.78125 -0.421875,1 -0.6875,1 -0.140625,0 -0.21875,-0.09375 -0.21875,-0.359375 0,-0.171875 0.03125,-0.34375 0.125,-0.734375 0.078125,-0.28125 0.171875,-0.671875 0.234375,-0.890625 z m 0,0"
             id="path10"
             style="fill:#007e9f" />
        </g>
      </g>
      <g
         fill="#000000"
         fill-opacity="1"
         id="g9"
         transform="matrix(0.987778,0,0,0.987778,-91.3262,-74.1239)"
         style="fill:#007e9f">
        <g
           id="use7"
           transform="translate(104.522,83.457001)"
           style="fill:#007e9f">
          <path
             d="m 1.46875,-4.296875 c 0,-0.203125 -0.171875,-0.40625 -0.40625,-0.40625 -0.203125,0 -0.390625,0.171875 -0.390625,0.40625 0,0.25 0.203125,0.40625 0.390625,0.40625 0.234375,0 0.40625,-0.171875 0.40625,-0.40625 z M 0.40625,-3 v 0.25 c 0.4375,0 0.5,0.046875 0.5,0.390625 v 1.8125 C 0.90625,-0.25 0.84375,-0.25 0.390625,-0.25 V 0 c 0.015625,0 0.5,-0.03125 0.78125,-0.03125 0.25,0 0.5,0.015625 0.734375,0.03125 V -0.25 C 1.5,-0.25 1.4375,-0.25 1.4375,-0.546875 v -2.53125 z m 0,0"
             id="path21"
             style="fill:#007e9f" />
        </g>
        <g
           id="use8"
           transform="translate(106.77733,83.457001)"
           style="fill:#007e9f">
          <path
             d="m 5.734375,-2.109375 c 0,-0.609375 -0.3125,-0.96875 -1.046875,-0.96875 -0.5625,0 -0.9375,0.296875 -1.125,0.65625 -0.140625,-0.5 -0.515625,-0.65625 -1.015625,-0.65625 -0.578125,0 -0.9375,0.3125 -1.140625,0.6875 v -0.6875 L 0.375,-3 v 0.25 c 0.46875,0 0.53125,0.046875 0.53125,0.390625 v 1.8125 C 0.90625,-0.25 0.828125,-0.25 0.375,-0.25 V 0 C 0.390625,0 0.875,-0.03125 1.171875,-0.03125 1.421875,-0.03125 1.90625,0 1.96875,0 v -0.25 c -0.453125,0 -0.515625,0 -0.515625,-0.296875 V -1.8125 c 0,-0.71875 0.578125,-1.0625 1.03125,-1.0625 0.484375,0 0.546875,0.375 0.546875,0.734375 v 1.59375 C 3.03125,-0.25 2.96875,-0.25 2.515625,-0.25 V 0 C 2.53125,0 3.015625,-0.03125 3.3125,-0.03125 3.5625,-0.03125 4.046875,0 4.109375,0 v -0.25 c -0.453125,0 -0.515625,0 -0.515625,-0.296875 V -1.8125 c 0,-0.71875 0.578125,-1.0625 1.03125,-1.0625 0.484375,0 0.546875,0.375 0.546875,0.734375 v 1.59375 C 5.171875,-0.25 5.109375,-0.25 4.65625,-0.25 V 0 c 0.015625,0 0.5,-0.03125 0.796875,-0.03125 C 5.703125,-0.03125 6.1875,0 6.25,0 v -0.25 c -0.453125,0 -0.515625,0 -0.515625,-0.296875 z m 0,0"
             id="path22"
             style="fill:#007e9f" />
        </g>
        <g
           id="use9"
           transform="translate(113.32224,83.457001)"
           style="fill:#007e9f">
          <path
             d="m 1.9375,1.09375 c -0.453125,0 -0.515625,0 -0.515625,-0.296875 v -1.125 C 1.453125,-0.296875 1.78125,0.0625 2.359375,0.0625 3.28125,0.0625 4.0625,-0.625 4.0625,-1.5 c 0,-0.859375 -0.703125,-1.578125 -1.59375,-1.578125 -0.390625,0 -0.796875,0.15625 -1.078125,0.4375 v -0.4375 L 0.34375,-3 v 0.25 c 0.484375,0 0.515625,0.046875 0.515625,0.328125 v 3.21875 c 0,0.296875 -0.0625,0.296875 -0.515625,0.296875 v 0.265625 c 0.015625,0 0.5,-0.03125 0.796875,-0.03125 0.25,0 0.734375,0.015625 0.796875,0.03125 z M 1.421875,-2.328125 C 1.625,-2.671875 2.03125,-2.84375 2.390625,-2.84375 c 0.59375,0 1.046875,0.609375 1.046875,1.34375 0,0.796875 -0.53125,1.375 -1.109375,1.375 -0.625,0 -0.890625,-0.53125 -0.90625,-0.578125 z m 0,0"
             id="path13"
             style="fill:#007e9f" />
        </g>
      </g>
    </g>
  </g>
  <g
     inkscape:groupmode="layer"
     id="layer2"
     inkscape:label="Imposed forces"
     transform="translate(4.3080572e-6,-1.1831564)">
    <path
       style="display:inline;fill:none;stroke:#f1443a;stroke-width:0.499999;stroke-dasharray:none;marker-end:url(#ArrowWide)"
       d="m 51.685234,26.391998 9.298033,-9.463816"
       id="path23"
       sodipodi:nodetypes="cc" />
    <path
       style="display:inline;fill:none;stroke:#f1443a;stroke-width:0.499999;stroke-dasharray:none;marker-end:url(#ArrowWide-3)"
       d="m 53.983682,29.17987 9.298033,-9.463816"
       id="path3-7"
       sodipodi:nodetypes="cc" />
    <path
       style="display:inline;fill:none;stroke:#f1443a;stroke-width:0.499999;stroke-dasharray:none;marker-end:url(#ArrowWide-3-5)"
       d="m 56.212826,32.324615 9.298033,-9.463816"
       id="path3-7-5"
       sodipodi:nodetypes="cc" />
    <path
       style="display:inline;fill:none;stroke:#f1443a;stroke-width:0.499999;stroke-dasharray:none;marker-end:url(#ArrowWide-3-5-6)"
       d="m 58.114968,35.463693 9.298033,-9.463816"
       id="path3-7-5-9"
       sodipodi:nodetypes="cc" />
    <path
       style="display:inline;fill:none;stroke:#f1443a;stroke-width:0.499999;stroke-dasharray:none;marker-end:url(#ArrowWide-3-5-6-1)"
       d="m 59.858272,38.862068 9.298033,-9.463816"
       id="path3-7-5-9-7"
       sodipodi:nodetypes="cc" />
    <g
       inkscape:label=""
       transform="translate(54.633079,6.4165979)"
       id="g20"
       style="fill:#f1443a">
      <g
         fill="#000000"
         fill-opacity="1"
         id="g16"
         transform="matrix(0.987778,0,0,0.987778,-91.3262,-74.1239)"
         style="fill:#f1443a">
        <g
           id="g15"
           transform="translate(91.925003,81.962997)"
           style="fill:#f1443a">
          <path
             d="m 3.5625,-2.90625 c 0.40625,1.046875 0.890625,2.5625 1.046875,2.796875 0.15625,0.21875 0.25,0.21875 0.53125,0.21875 h 0.21875 c 0.09375,-0.015625 0.109375,-0.0625 0.109375,-0.09375 0,-0.03125 -0.03125,-0.0625 -0.0625,-0.09375 C 5.3125,-0.1875 5.25,-0.34375 5.1875,-0.53125 L 3.15625,-6.203125 c -0.21875,-0.578125 -0.75,-0.71875 -1.21875,-0.71875 -0.046875,0 -0.1875,0 -0.1875,0.109375 0,0.078125 0.078125,0.109375 0.09375,0.109375 C 2.171875,-6.65625 2.25,-6.59375 2.5,-5.90625 l 0.953125,2.703125 -2.75,2.734375 c -0.109375,0.125 -0.171875,0.171875 -0.171875,0.3125 0,0.171875 0.140625,0.28125 0.296875,0.28125 0.15625,0 0.25,-0.109375 0.328125,-0.203125 z m 0,0"
             id="path15"
             style="fill:#f1443a" />
        </g>
      </g>
      <g
         fill="#000000"
         fill-opacity="1"
         id="g18"
         transform="matrix(0.987778,0,0,0.987778,-91.3262,-74.1239)"
         style="fill:#f1443a">
        <g
           id="g17"
           transform="translate(97.737,81.962997)"
           style="fill:#f1443a">
          <path
             d="m 3.65625,-3.15625 h 0.640625 c 0.59375,0 0.765625,0.09375 0.765625,0.421875 C 5.0625,-2.625 5.03125,-2.4375 5,-2.3125 4.984375,-2.25 4.96875,-2.1875 4.96875,-2.171875 4.96875,-2.03125 5.109375,-2 5.203125,-2 c 0.1875,0 0.203125,-0.046875 0.25,-0.234375 l 0.5625,-2.21875 c 0.03125,-0.125 0.03125,-0.15625 0.03125,-0.15625 0,-0.1875 -0.1875,-0.1875 -0.234375,-0.1875 -0.1875,0 -0.203125,0.078125 -0.265625,0.265625 -0.1875,0.75 -0.5,0.90625 -1.21875,0.90625 h -0.5625 l 0.65625,-2.671875 C 4.5625,-6.3125 4.671875,-6.3125 4.765625,-6.3125 h 1.1875 c 1.140625,0 1.484375,0.296875 1.484375,1.171875 0,0.234375 -0.046875,0.53125 -0.046875,0.578125 0,0.1875 0.203125,0.1875 0.25,0.1875 0.203125,0 0.21875,-0.09375 0.234375,-0.28125 L 8.0625,-6.4375 v -0.15625 c 0,-0.1875 -0.171875,-0.1875 -0.328125,-0.1875 H 2.375 c -0.21875,0 -0.21875,0.015625 -0.265625,0.046875 -0.078125,0.0625 -0.09375,0.234375 -0.09375,0.25 0,0.171875 0.140625,0.171875 0.40625,0.171875 0.203125,0 0.40625,0.015625 0.609375,0.015625 l -1.40625,5.625 C 1.578125,-0.515625 1.578125,-0.5 1.390625,-0.484375 1.21875,-0.46875 1.03125,-0.46875 0.875,-0.46875 c -0.265625,0 -0.28125,0 -0.328125,0.015625 -0.125,0.078125 -0.125,0.234375 -0.125,0.28125 0,0 0,0.171875 0.21875,0.171875 0.25,0 0.515625,-0.015625 0.765625,-0.015625 0.265625,0 0.53125,-0.015625 0.8125,-0.015625 0.296875,0 0.59375,0.015625 0.890625,0.015625 C 3.40625,-0.015625 3.6875,0 3.96875,0 4.09375,0 4.265625,0 4.265625,-0.296875 4.265625,-0.46875 4.09375,-0.46875 3.9375,-0.46875 H 3.609375 c -0.375,0 -0.53125,-0.015625 -0.625,-0.046875 z m 0,0"
             id="path16"
             style="fill:#f1443a" />
        </g>
      </g>
      <g
         fill="#000000"
         fill-opacity="1"
         id="g25"
         transform="matrix(0.987778,0,0,0.987778,-91.3262,-74.1239)"
         style="fill:#f1443a">
        <g
           id="g19"
           transform="translate(106.191,83.457001)"
           style="fill:#f1443a">
          <path
             d="m 1.46875,-4.296875 c 0,-0.203125 -0.171875,-0.40625 -0.40625,-0.40625 -0.203125,0 -0.390625,0.171875 -0.390625,0.40625 0,0.25 0.203125,0.40625 0.390625,0.40625 0.234375,0 0.40625,-0.171875 0.40625,-0.40625 z M 0.40625,-3 v 0.25 c 0.4375,0 0.5,0.046875 0.5,0.390625 v 1.8125 C 0.90625,-0.25 0.84375,-0.25 0.390625,-0.25 V 0 c 0.015625,0 0.5,-0.03125 0.78125,-0.03125 0.25,0 0.5,0.015625 0.734375,0.03125 V -0.25 C 1.5,-0.25 1.4375,-0.25 1.4375,-0.546875 v -2.53125 z m 0,0"
             id="path18"
             style="fill:#f1443a" />
        </g>
        <g
           id="g23"
           transform="translate(108.44633,83.457001)"
           style="fill:#f1443a">
          <path
             d="m 5.734375,-2.109375 c 0,-0.609375 -0.3125,-0.96875 -1.046875,-0.96875 -0.5625,0 -0.9375,0.296875 -1.125,0.65625 -0.140625,-0.5 -0.515625,-0.65625 -1.015625,-0.65625 -0.578125,0 -0.9375,0.3125 -1.140625,0.6875 v -0.6875 L 0.375,-3 v 0.25 c 0.46875,0 0.53125,0.046875 0.53125,0.390625 v 1.8125 C 0.90625,-0.25 0.828125,-0.25 0.375,-0.25 V 0 C 0.390625,0 0.875,-0.03125 1.171875,-0.03125 1.421875,-0.03125 1.90625,0 1.96875,0 v -0.25 c -0.453125,0 -0.515625,0 -0.515625,-0.296875 V -1.8125 c 0,-0.71875 0.578125,-1.0625 1.03125,-1.0625 0.484375,0 0.546875,0.375 0.546875,0.734375 v 1.59375 C 3.03125,-0.25 2.96875,-0.25 2.515625,-0.25 V 0 C 2.53125,0 3.015625,-0.03125 3.3125,-0.03125 3.5625,-0.03125 4.046875,0 4.109375,0 v -0.25 c -0.453125,0 -0.515625,0 -0.515625,-0.296875 V -1.8125 c 0,-0.71875 0.578125,-1.0625 1.03125,-1.0625 0.484375,0 0.546875,0.375 0.546875,0.734375 v 1.59375 C 5.171875,-0.25 5.109375,-0.25 4.65625,-0.25 V 0 c 0.015625,0 0.5,-0.03125 0.796875,-0.03125 C 5.703125,-0.03125 6.1875,0 6.25,0 v -0.25 c -0.453125,0 -0.515625,0 -0.515625,-0.296875 z m 0,0"
             id="path19"
             style="fill:#f1443a" />
        </g>
        <g
           id="g24"
           transform="translate(114.99124,83.457001)"
           style="fill:#f1443a">
          <path
             d="m 1.9375,1.09375 c -0.453125,0 -0.515625,0 -0.515625,-0.296875 v -1.125 C 1.453125,-0.296875 1.78125,0.0625 2.359375,0.0625 3.28125,0.0625 4.0625,-0.625 4.0625,-1.5 c 0,-0.859375 -0.703125,-1.578125 -1.59375,-1.578125 -0.390625,0 -0.796875,0.15625 -1.078125,0.4375 v -0.4375 L 0.34375,-3 v 0.25 c 0.484375,0 0.515625,0.046875 0.515625,0.328125 v 3.21875 c 0,0.296875 -0.0625,0.296875 -0.515625,0.296875 v 0.265625 c 0.015625,0 0.5,-0.03125 0.796875,-0.03125 0.25,0 0.734375,0.015625 0.796875,0.03125 z M 1.421875,-2.328125 C 1.625,-2.671875 2.03125,-2.84375 2.390625,-2.84375 c 0.59375,0 1.046875,0.609375 1.046875,1.34375 0,0.796875 -0.53125,1.375 -1.109375,1.375 -0.625,0 -0.890625,-0.53125 -0.90625,-0.578125 z m 0,0"
             id="path20"
             style="fill:#f1443a" />
        </g>
      </g>
    </g>
  </g>
  <g
     id="g56"
     inkscape:groupmode="layer"
     transform="translate(-44.364623,-11.135464)"
     inkscape:label="Domain"
     style="display:inline">
    <path
       d="m 91.741266,32.057 c 9.622904,8.4225 15.985344,21.017203 17.057004,33.503 0.47734,5.561407 0.35829,11.688832 -0.64752,17.603043 -1.53586,9.030951 -5.13939,17.564747 -11.844484,22.826957 -12.930894,10.14826 -38.72128,15.58575 -49.225,2.9419 C 38.062258,98.075273 56.611599,81.941176 57.313924,67.844524 57.786911,58.351001 49.94323,48.55324 53.207166,39.6259 c 2.653741,-7.258367 9.755058,-13.949633 17.35,-15.379 7.396064,-1.391938 15.624,2.9431 21.184,7.8097 z"
       fill="none"
       stroke="#003162"
       stroke-width="0.5"
       id="path1"
       sodipodi:nodetypes="csssaaaacc"
       inkscape:label="domain"
       style="display:inline;stroke:#003162" />
    <g
       inkscape:label=""
       transform="translate(57.786817,40.177731)"
       id="g60"
       style="display:inline;fill:#003162">
      <g
         fill="#000000"
         fill-opacity="1"
         id="g2"
         transform="matrix(0.987778,0,0,0.987778,-91.2336,-74.0159)"
         style="fill:#003162">
        <g
           id="use1"
           transform="translate(91.925003,81.962997)"
           style="fill:#003162">
          <path
             d="M 6.75,-1.609375 H 6.5 c -0.046875,0.25 -0.09375,0.484375 -0.1875,0.71875 -0.046875,0.15625 -0.078125,0.25 -0.65625,0.25 H 4.859375 C 5,-1.203125 5.296875,-1.6875 5.75,-2.34375 c 0.46875,-0.703125 0.875,-1.390625 0.875,-2.1875 0,-1.375 -1.34375,-2.5 -3.03125,-2.5 -1.703125,0 -3.03125,1.140625 -3.03125,2.5 0,0.796875 0.40625,1.484375 0.875,2.1875 0.4375,0.65625 0.75,1.140625 0.890625,1.703125 H 1.53125 C 0.953125,-0.640625 0.921875,-0.734375 0.875,-0.875 0.78125,-1.109375 0.734375,-1.359375 0.6875,-1.609375 h -0.25 L 0.765625,0 h 1.59375 c 0.21875,0 0.25,0 0.25,-0.203125 0,-0.703125 -0.3125,-1.578125 -0.53125,-2.21875 -0.21875,-0.578125 -0.5,-1.359375 -0.5,-2.109375 0,-1.59375 1.109375,-2.28125 2.015625,-2.28125 0.953125,0 2.015625,0.71875 2.015625,2.28125 0,0.75 -0.28125,1.5 -0.5625,2.3125 -0.15625,0.421875 -0.46875,1.328125 -0.46875,2.015625 C 4.578125,0 4.609375,0 4.828125,0 h 1.59375 z m 0,0"
             id="path2"
             style="fill:#003162" />
        </g>
      </g>
    </g>
    <g
       id="g59"
       inkscape:label="Pre-crack"
       inkscape:groupmode="layer">
      <path
         style="fill:none;stroke:#ff950a;stroke-width:0.499999;stroke-dasharray:none"
         d="m 57.313924,67.844524 22.400274,7.396038"
         id="path59" />
      <circle
         style="fill:#ff950a;stroke:none;stroke-width:0.499999;stroke-dasharray:none"
         id="path61"
         cx="79.714195"
         cy="75.240562"
         r="1" />
      <g
         inkscape:label=""
         transform="translate(61.393046,75.477981)"
         id="g61"
         style="fill:#ff950a">
        <g
           fill="#000000"
           fill-opacity="1"
           id="g14"
           transform="matrix(0.987778,0,0,0.987778,-91.1256,-74.2629)"
           style="fill:#ff950a">
          <g
             id="use2"
             transform="translate(91.925003,81.962997)"
             style="fill:#ff950a">
            <path
               d="m 5.515625,-6.78125 h -5.1875 v 0.3125 H 0.5625 c 0.765625,0 0.796875,0.109375 0.796875,0.46875 v 5.21875 c 0,0.359375 -0.03125,0.46875 -0.796875,0.46875 H 0.328125 V 0 c 0.34375,-0.03125 1.125,-0.03125 1.515625,-0.03125 0.40625,0 1.3125,0 1.671875,0.03125 V -0.3125 H 3.1875 C 2.25,-0.3125 2.25,-0.4375 2.25,-0.78125 v -5.296875 c 0,-0.328125 0.015625,-0.390625 0.484375,-0.390625 h 1.03125 c 1.421875,0 1.625,0.59375 1.78125,1.9375 h 0.25 z m 0,0"
               id="path4"
               style="fill:#ff950a" />
          </g>
        </g>
        <g
           fill="#000000"
           fill-opacity="1"
           id="g26"
           transform="matrix(0.987778,0,0,0.987778,-91.1256,-74.2629)"
           style="fill:#ff950a">
          <g
             id="use3"
             transform="translate(98.152,83.457001)"
             style="fill:#ff950a">
            <path
               d="M 3.59375,-2.21875 C 3.59375,-2.984375 3.5,-3.546875 3.1875,-4.03125 2.96875,-4.34375 2.53125,-4.625 1.984375,-4.625 c -1.625,0 -1.625,1.90625 -1.625,2.40625 0,0.5 0,2.359375 1.625,2.359375 1.609375,0 1.609375,-1.859375 1.609375,-2.359375 z M 1.984375,-0.0625 c -0.328125,0 -0.75,-0.1875 -0.890625,-0.75 C 1,-1.21875 1,-1.796875 1,-2.3125 1,-2.828125 1,-3.359375 1.09375,-3.734375 1.25,-4.28125 1.6875,-4.4375 1.984375,-4.4375 c 0.375,0 0.734375,0.234375 0.859375,0.640625 0.109375,0.375 0.125,0.875 0.125,1.484375 0,0.515625 0,1.03125 -0.09375,1.46875 -0.140625,0.640625 -0.609375,0.78125 -0.890625,0.78125 z m 0,0"
               id="path5"
               style="fill:#ff950a" />
          </g>
        </g>
      </g>
    </g>
  </g>
  <g
     id="g58"
     inkscape:label="Clamp"
     transform="translate(-44.364593,-11.135484)"
     inkscape:groupmode="layer"
     style="display:inline">
    <path
       style="fill:none;stroke:#003162;stroke-width:0.5;stroke-dasharray:none"
       d="m 96.905896,105.50386 5.919034,3.41735"
       id="path54" />
    <path
       style="fill:none;stroke:#003162;stroke-width:0.5;stroke-dasharray:none"
       d="m 99.355346,103.15377 5.919034,3.41735"
       id="path54-2" />
    <path
       style="fill:none;stroke:#003162;stroke-width:0.5;stroke-dasharray:none"
       d="m 101.3864,100.64856 5.91903,3.41735"
       id="path54-2-7" />
    <path
       style="fill:none;stroke:#003162;stroke-width:0.5;stroke-dasharray:none"
       d="m 94.105255,107.5894 5.919035,3.41735"
       id="path54-3" />
    <path
       style="fill:none;stroke:#003162;stroke-width:0.5;stroke-dasharray:none"
       d="m 90.944509,109.52865 5.919033,3.41735"
       id="path54-3-6" />
    <path
       style="fill:none;stroke:#003162;stroke-width:0.5;stroke-dasharray:none"
       d="m 87.552876,111.25688 5.919033,3.41735"
       id="path54-3-6-7-5" />
    <path
       style="fill:none;stroke:#003162;stroke-width:0.5;stroke-dasharray:none"
       d="m 83.832546,112.81727 5.919033,3.41735"
       id="path54-3-6-7-5-3" />
    <path
       style="fill:none;stroke:#003162;stroke-width:0.5;stroke-dasharray:none"
       d="m 79.839199,114.15546 5.919033,3.41735"
       id="path54-3-6-7-5-3-5" />
    <path
       style="fill:none;stroke:#003162;stroke-width:0.5;stroke-dasharray:none"
       d="m 75.434573,115.25761 5.919033,3.41735"
       id="path54-3-6-7-5-3-5-6" />
    <path
       style="fill:none;stroke:#003162;stroke-width:0.5;stroke-dasharray:none"
       d="m 70.48518,116.08064 5.919033,3.41735"
       id="path54-3-6-7-5-3-5-6-2" />
  </g>
</svg>
