<?xml version="1.0" encoding="UTF-8" standalone="no"?>
<!-- Created with Inkscape (http://www.inkscape.org/) -->

<svg
   width="61.842541mm"
   height="88.484917mm"
   viewBox="0 0 61.84254 88.484916"
   version="1.1"
   id="svg1"
   inkscape:version="1.3.2 (091e20ef0f, 2023-11-25)"
   sodipodi:docname="sent.svg"
   xmlns:inkscape="http://www.inkscape.org/namespaces/inkscape"
   xmlns:sodipodi="http://sodipodi.sourceforge.net/DTD/sodipodi-0.dtd"
   xmlns="http://www.w3.org/2000/svg"
   xmlns:svg="http://www.w3.org/2000/svg">
  <sodipodi:namedview
     id="namedview1"
     pagecolor="#ffffff"
     bordercolor="#000000"
     borderopacity="0.25"
     inkscape:showpageshadow="2"
     inkscape:pageopacity="0.0"
     inkscape:pagecheckerboard="0"
     inkscape:deskcolor="#d1d1d1"
     inkscape:document-units="mm"
     showguides="true"
     showgrid="true"
     inkscape:zoom="3.42105"
     inkscape:cx="125.25394"
     inkscape:cy="127.88471"
     inkscape:window-width="2556"
     inkscape:window-height="1381"
     inkscape:window-x="0"
     inkscape:window-y="0"
     inkscape:window-maximized="0"
     inkscape:current-layer="layer1">
    <inkscape:grid
       id="grid1"
       units="mm"
       originx="-44.048463"
       originy="-11.926517"
       spacingx="1"
       spacingy="0.99999998"
       empcolor="#0099e5"
       empopacity="0.30196078"
       color="#0099e5"
       opacity="0.14901961"
       empspacing="5"
       dotted="false"
       gridanglex="30"
       gridanglez="30"
       visible="true" />
  </sodipodi:namedview>
  <defs
     id="defs1">
    <rect
       x="37.795277"
       y="18.897638"
       width="163.50897"
       height="75.590553"
       id="rect2" />
  </defs>
  <g
     inkscape:label="Layer 1"
     inkscape:groupmode="layer"
     id="layer1"
     transform="translate(-44.048444,-11.926497)">
    <g
       inkscape:label="a0"
       transform="translate(59.872769,54.315968)"
       id="g114"
       style="fill:#003162">
      <g
         fill="#000000"
         fill-opacity="1"
         id="g2"
         transform="matrix(0.352778,0,0,0.352778,-1.05035,-0.603206)"
         style="fill:#003162">
        <g
           inkscape:label=""
           transform="matrix(2.83464,0,0,2.83464,-1.008687,-0.86003646)"
           id="g113"
           style="fill:#003162">
          <g
             fill="#000000"
             fill-opacity="1"
             id="g3"
             transform="matrix(0.352778,0,0,0.352778,-1.05035,-0.614936)"
             style="fill:#003162">
            <g
               id="use2"
               transform="translate(1.993,12.665)"
               style="fill:#003162">
              <path
                 d="m 7.453125,-2.953125 c -0.125,0.421875 -0.125,0.46875 -0.46875,0.953125 -0.546875,0.6875 -1.625,1.75 -2.796875,1.75 -1.015625,0 -1.578125,-0.921875 -1.578125,-2.375 0,-1.359375 0.765625,-4.140625 1.234375,-5.1875 0.84375,-1.734375 2,-2.625 2.96875,-2.625 1.640625,0 1.953125,2.03125 1.953125,2.234375 0,0.03125 -0.0625,0.34375 -0.09375,0.390625 z m 1.59375,-6.34375 c -0.28125,-0.640625 -0.9375,-1.625 -2.234375,-1.625 -2.796875,0 -5.828125,3.609375 -5.828125,7.28125 0,2.453125 1.4375,3.890625 3.125,3.890625 1.375,0 2.53125,-1.0625 3.21875,-1.890625 C 7.578125,-0.171875 8.75,0.25 9.484375,0.25 c 0.75,0 1.34375,-0.453125 1.796875,-1.34375 0.390625,-0.84375 0.734375,-2.34375 0.734375,-2.453125 0,-0.125 -0.09375,-0.21875 -0.25,-0.21875 -0.21875,0 -0.25,0.125 -0.34375,0.5 C 11.046875,-1.8125 10.578125,-0.25 9.5625,-0.25 c -0.71875,0 -0.765625,-0.640625 -0.765625,-1.140625 0,-0.5625 0.078125,-0.84375 0.296875,-1.8125 0.171875,-0.609375 0.296875,-1.15625 0.5,-1.875 0.90625,-3.71875 1.140625,-4.609375 1.140625,-4.765625 0,-0.34375 -0.28125,-0.609375 -0.640625,-0.609375 -0.796875,0 -1,0.859375 -1.046875,1.15625 z m 0,0"
                 id="path4"
                 style="fill:#003162" />
            </g>
          </g>
          <g
             fill="#000000"
             fill-opacity="1"
             id="g4"
             transform="matrix(0.352778,0,0,0.352778,-1.05035,-0.614936)"
             style="fill:#003162">
            <g
               id="use3"
               transform="translate(14.733,17.445999)"
               style="fill:#003162">
              <path
                 d="m 8.671875,-6.625 c 0,-1.265625 -0.015625,-3.40625 -0.890625,-5.0625 -0.765625,-1.453125 -1.984375,-1.96875 -3.046875,-1.96875 -1,0 -2.25,0.453125 -3.046875,1.9375 -0.8125,1.5625 -0.90625,3.484375 -0.90625,5.09375 0,1.171875 0.03125,2.96875 0.671875,4.53125 0.875,2.140625 2.46875,2.421875 3.28125,2.421875 C 5.6875,0.328125 7.125,-0.0625 7.96875,-2.03125 8.59375,-3.453125 8.671875,-5.125 8.671875,-6.625 Z M 4.734375,0 C 3.40625,0 2.625,-1.140625 2.328125,-2.703125 c -0.21875,-1.21875 -0.21875,-3 -0.21875,-4.15625 0,-1.59375 0,-2.90625 0.265625,-4.171875 0.390625,-1.75 1.546875,-2.296875 2.359375,-2.296875 0.84375,0 1.9375,0.5625 2.328125,2.25 0.265625,1.1875 0.296875,2.5625 0.296875,4.21875 0,1.34375 0,3 -0.25,4.21875 C 6.671875,-0.390625 5.453125,0 4.734375,0 Z m 0,0"
                 id="path5"
                 style="fill:#003162" />
            </g>
          </g>
        </g>
      </g>
    </g>
    <g
       id="g100"
       inkscape:label="Displacement arrow"
       transform="matrix(0.46127655,0,0,0.4720519,33.355249,20.838444)"
       style="stroke-width:1.07150559;stroke-dasharray:none;fill:#007e9f;stroke:#007e9f">
      <path
         style="display:inline;fill:#007e9f;stroke:#007e9f;stroke-width:1.07150559;stroke-dasharray:none"
         d="M 29.999999,29 30,3.9999996"
         id="path98"
         sodipodi:nodetypes="cc"
         transform="translate(4.9999995,1.0000005)" />
      <path
         sodipodi:type="star"
         style="fill:#007e9f;stroke:#007e9f;stroke-width:1.07150559;stroke-dasharray:none"
         id="path100"
         inkscape:flatsided="true"
         sodipodi:sides="3"
         sodipodi:cx="35"
         sodipodi:cy="5"
         sodipodi:r1="2.236068"
         sodipodi:r2="1.118034"
         sodipodi:arg1="0.52359878"
         sodipodi:arg2="1.5707963"
         inkscape:rounded="0"
         inkscape:randomized="0"
         d="m 36.936492,6.118034 -3.872984,0 L 35,2.763932 Z"
         inkscape:transform-center-y="-0.55901704" />
    </g>
    <g
       id="g102"
       inkscape:label="Displacement arrow"
       transform="matrix(0.46127655,0,0,0.4720519,43.480266,20.838444)"
       style="stroke-width:1.07150559;stroke-dasharray:none;fill:#007e9f;stroke:#007e9f">
      <path
         style="display:inline;fill:#007e9f;stroke:#007e9f;stroke-width:1.07150559;stroke-dasharray:none"
         d="M 29.999999,29 30,3.9999996"
         id="path101"
         sodipodi:nodetypes="cc"
         transform="translate(4.9999995,1.0000005)" />
      <path
         sodipodi:type="star"
         style="fill:#007e9f;stroke:#007e9f;stroke-width:1.07150559;stroke-dasharray:none"
         id="path102"
         inkscape:flatsided="true"
         sodipodi:sides="3"
         sodipodi:cx="35"
         sodipodi:cy="5"
         sodipodi:r1="2.236068"
         sodipodi:r2="1.118034"
         sodipodi:arg1="0.52359878"
         sodipodi:arg2="1.5707963"
         inkscape:rounded="0"
         inkscape:randomized="0"
         d="m 36.936492,6.118034 -3.872984,0 L 35,2.763932 Z"
         inkscape:transform-center-y="-0.55901704" />
    </g>
    <g
       id="g104"
       inkscape:label="Displacement arrow"
       transform="matrix(0.46127655,0,0,0.4720519,53.605284,20.838444)"
       style="stroke-width:1.07150559;stroke-dasharray:none;fill:#007e9f;stroke:#007e9f">
      <path
         style="display:inline;fill:#007e9f;stroke:#007e9f;stroke-width:1.07150559;stroke-dasharray:none"
         d="M 29.999999,29 30,3.9999996"
         id="path103"
         sodipodi:nodetypes="cc"
         transform="translate(4.9999995,1.0000005)" />
      <path
         sodipodi:type="star"
         style="fill:#007e9f;stroke:#007e9f;stroke-width:1.07150559;stroke-dasharray:none"
         id="path104"
         inkscape:flatsided="true"
         sodipodi:sides="3"
         sodipodi:cx="35"
         sodipodi:cy="5"
         sodipodi:r1="2.236068"
         sodipodi:r2="1.118034"
         sodipodi:arg1="0.52359878"
         sodipodi:arg2="1.5707963"
         inkscape:rounded="0"
         inkscape:randomized="0"
         d="m 36.936492,6.118034 -3.872984,0 L 35,2.763932 Z"
         inkscape:transform-center-y="-0.55901704" />
    </g>
    <g
       id="g106"
       inkscape:label="Displacement arrow"
       transform="matrix(0.46127655,0,0,0.4720519,63.730301,20.838444)"
       style="stroke-width:1.07150559;stroke-dasharray:none;fill:#007e9f;stroke:#007e9f">
      <path
         style="display:inline;fill:#007e9f;stroke:#007e9f;stroke-width:1.07150559;stroke-dasharray:none"
         d="M 29.999999,29 30,3.9999996"
         id="path105"
         sodipodi:nodetypes="cc"
         transform="translate(4.9999995,1.0000005)" />
      <path
         sodipodi:type="star"
         style="fill:#007e9f;stroke:#007e9f;stroke-width:1.07150559;stroke-dasharray:none"
         id="path106"
         inkscape:flatsided="true"
         sodipodi:sides="3"
         sodipodi:cx="35"
         sodipodi:cy="5"
         sodipodi:r1="2.236068"
         sodipodi:r2="1.118034"
         sodipodi:arg1="0.52359878"
         sodipodi:arg2="1.5707963"
         inkscape:rounded="0"
         inkscape:randomized="0"
         d="m 36.936492,6.118034 -3.872984,0 L 35,2.763932 Z"
         inkscape:transform-center-y="-0.55901704" />
    </g>
    <g
       id="g108"
       inkscape:label="Displacement arrow"
       transform="matrix(0.46127655,0,0,0.4720519,73.855319,20.838444)"
       style="stroke-width:1.07150559;stroke-dasharray:none;fill:#007e9f;stroke:#007e9f">
      <path
         style="display:inline;fill:#007e9f;stroke:#007e9f;stroke-width:1.07150559;stroke-dasharray:none"
         d="M 29.999999,29 30,3.9999996"
         id="path107"
         sodipodi:nodetypes="cc"
         transform="translate(4.9999995,1.0000005)" />
      <path
         sodipodi:type="star"
         style="fill:#007e9f;stroke:#007e9f;stroke-width:1.07150559;stroke-dasharray:none"
         id="path108"
         inkscape:flatsided="true"
         sodipodi:sides="3"
         sodipodi:cx="35"
         sodipodi:cy="5"
         sodipodi:r1="2.236068"
         sodipodi:r2="1.118034"
         sodipodi:arg1="0.52359878"
         sodipodi:arg2="1.5707963"
         inkscape:rounded="0"
         inkscape:randomized="0"
         d="m 36.936492,6.118034 -3.872984,0 L 35,2.763932 Z"
         inkscape:transform-center-y="-0.55901704" />
    </g>
    <g
       id="g110"
       inkscape:label="Displacement arrow"
       transform="matrix(0.46127655,0,0,0.4720519,83.980336,20.838444)"
       style="stroke-width:1.07150559;stroke-dasharray:none;fill:#007e9f;stroke:#007e9f">
      <path
         style="display:inline;fill:#007e9f;stroke:#007e9f;stroke-width:1.07150559;stroke-dasharray:none"
         d="M 29.999999,29 30,3.9999996"
         id="path109"
         sodipodi:nodetypes="cc"
         transform="translate(4.9999995,1.0000005)" />
      <path
         sodipodi:type="star"
         style="fill:#007e9f;stroke:#007e9f;stroke-width:1.07150559;stroke-dasharray:none"
         id="path110"
         inkscape:flatsided="true"
         sodipodi:sides="3"
         sodipodi:cx="35"
         sodipodi:cy="5"
         sodipodi:r1="2.236068"
         sodipodi:r2="1.118034"
         sodipodi:arg1="0.52359878"
         sodipodi:arg2="1.5707963"
         inkscape:rounded="0"
         inkscape:randomized="0"
         d="m 36.936492,6.118034 -3.872984,0 L 35,2.763932 Z"
         inkscape:transform-center-y="-0.55901704" />
    </g>
    <g
       id="g30"
       inkscape:label="Support 1"
       transform="matrix(0.46127655,0,0,0.4720519,35.661631,21.428514)"
       style="stroke-width:1.07150559;stroke-dasharray:none">
      <path
         sodipodi:type="star"
         style="fill:none;stroke:#003162;stroke-width:1.07150559;stroke-dasharray:none"
         id="path2"
         inkscape:flatsided="true"
         sodipodi:sides="3"
         sodipodi:cx="35"
         sodipodi:cy="130"
         sodipodi:r1="10"
         sodipodi:r2="5"
         sodipodi:arg1="-1.5707963"
         sodipodi:arg2="-0.52359878"
         inkscape:rounded="0"
         inkscape:randomized="0"
         d="m 35,120 8.660254,15 -17.320508,0 z"
         inkscape:transform-center-y="-2.5000017"
         transform="translate(-5.250002,19.750004)" />
      <path
         style="display:inline;fill:none;stroke:#003162;stroke-width:1.07150559;stroke-dasharray:none"
         d="m 22.749999,154.75 -4.000001,4"
         id="path74-4"
         sodipodi:nodetypes="cc" />
      <path
         style="display:inline;fill:none;stroke:#003162;stroke-width:1.07150559;stroke-dasharray:none"
         d="m 30.416666,154.75 -4,4"
         id="path75-5"
         sodipodi:nodetypes="cc" />
      <path
         style="display:inline;fill:none;stroke:#003162;stroke-width:1.07150559;stroke-dasharray:none"
         d="m 38.083332,154.75 -4,4"
         id="path76-0"
         sodipodi:nodetypes="cc" />
    </g>
    <g
       id="g12"
       inkscape:label="Support 2"
       transform="matrix(0.46127655,0,0,0.4720519,78.214392,26.031024)"
       style="stroke-width:1.07150559;stroke-dasharray:none">
      <path
         sodipodi:type="star"
         style="fill:none;stroke:#003162;stroke-width:1.07150559;stroke-dasharray:none"
         id="path10"
         inkscape:flatsided="true"
         sodipodi:sides="3"
         sodipodi:cx="35"
         sodipodi:cy="130"
         sodipodi:r1="10"
         sodipodi:r2="5"
         sodipodi:arg1="-1.5707963"
         sodipodi:arg2="-0.52359878"
         inkscape:rounded="0"
         inkscape:randomized="0"
         d="m 35,120 8.660254,15 -17.320508,0 z"
         inkscape:transform-center-y="-2.5000017"
         transform="translate(-15.000001,10.000003)" />
      <ellipse
         style="fill:none;stroke:#003162;stroke-width:1.07150559;stroke-dasharray:none"
         id="ellipse10"
         cx="20"
         cy="149"
         rx="2.9999998"
         ry="3" />
      <ellipse
         style="fill:none;stroke:#003162;stroke-width:1.07150559;stroke-dasharray:none"
         id="ellipse11"
         cx="28"
         cy="149"
         rx="2.9999998"
         ry="3" />
      <ellipse
         style="fill:none;stroke:#003162;stroke-width:1.07150559;stroke-dasharray:none"
         id="ellipse12"
         cx="11.999999"
         cy="149"
         rx="2.9999998"
         ry="3" />
      <path
         style="display:inline;fill:none;stroke:#003162;stroke-width:1.07150559;stroke-dasharray:none"
         d="M 39.999999,154 H 64.999998"
         id="path70"
         sodipodi:nodetypes="cc"
         transform="translate(-32.499999,-1.0000005)" />
      <path
         style="display:inline;fill:none;stroke:#003162;stroke-width:1.07150559;stroke-dasharray:none"
         d="M 8.4999999,153 4.5,157"
         id="path71"
         sodipodi:nodetypes="cc" />
      <path
         style="display:inline;fill:none;stroke:#003162;stroke-width:1.07150559;stroke-dasharray:none"
         d="m 16.166666,153 -4,4"
         id="path74"
         sodipodi:nodetypes="cc" />
      <path
         style="display:inline;fill:none;stroke:#003162;stroke-width:1.07150559;stroke-dasharray:none"
         d="m 23.833333,153 -4,4"
         id="path75"
         sodipodi:nodetypes="cc" />
      <path
         style="display:inline;fill:none;stroke:#003162;stroke-width:1.07150559;stroke-dasharray:none"
         d="m 31.499999,153 -4,4"
         id="path76"
         sodipodi:nodetypes="cc" />
    </g>
    <g
       id="g83"
       inkscape:label="Support 2"
       transform="matrix(0.46127655,0,0,0.4720519,52.844182,26.031024)"
       style="display:inline;stroke-width:1.07150559;stroke-dasharray:none">
      <path
         sodipodi:type="star"
         style="fill:none;stroke:#003162;stroke-width:1.07150559;stroke-dasharray:none"
         id="path77"
         inkscape:flatsided="true"
         sodipodi:sides="3"
         sodipodi:cx="35"
         sodipodi:cy="130"
         sodipodi:r1="10"
         sodipodi:r2="5"
         sodipodi:arg1="-1.5707963"
         sodipodi:arg2="-0.52359878"
         inkscape:rounded="0"
         inkscape:randomized="0"
         d="m 35,120 8.660254,15 -17.320508,0 z"
         inkscape:transform-center-y="-2.5000017"
         transform="translate(-15.000001,10.000003)" />
      <ellipse
         style="fill:none;stroke:#003162;stroke-width:1.07150559;stroke-dasharray:none"
         id="ellipse77"
         cx="20"
         cy="149"
         rx="2.9999998"
         ry="3" />
      <ellipse
         style="fill:none;stroke:#003162;stroke-width:1.07150559;stroke-dasharray:none"
         id="ellipse78"
         cx="28"
         cy="149"
         rx="2.9999998"
         ry="3" />
      <ellipse
         style="fill:none;stroke:#003162;stroke-width:1.07150559;stroke-dasharray:none"
         id="ellipse79"
         cx="11.999999"
         cy="149"
         rx="2.9999998"
         ry="3" />
      <path
         style="display:inline;fill:none;stroke:#003162;stroke-width:1.07150559;stroke-dasharray:none"
         d="M 39.999999,154 H 64.999998"
         id="path79"
         sodipodi:nodetypes="cc"
         transform="translate(-32.499999,-1.0000005)" />
      <path
         style="display:inline;fill:none;stroke:#003162;stroke-width:1.07150559;stroke-dasharray:none"
         d="M 8.4999999,153 4.5,157"
         id="path80"
         sodipodi:nodetypes="cc" />
      <path
         style="display:inline;fill:none;stroke:#003162;stroke-width:1.07150559;stroke-dasharray:none"
         d="m 16.166666,153 -4,4"
         id="path81"
         sodipodi:nodetypes="cc" />
      <path
         style="display:inline;fill:none;stroke:#003162;stroke-width:1.07150559;stroke-dasharray:none"
         d="m 23.833333,153 -4,4"
         id="path82"
         sodipodi:nodetypes="cc" />
      <path
         style="display:inline;fill:none;stroke:#003162;stroke-width:1.07150559;stroke-dasharray:none"
         d="m 31.499999,153 -4,4"
         id="path83"
         sodipodi:nodetypes="cc" />
    </g>
    <g
       id="g90"
       inkscape:label="Support 2"
       transform="matrix(0.46127655,0,0,0.4720519,65.529287,26.031024)"
       style="display:inline;stroke-width:1.07150559;stroke-dasharray:none">
      <path
         sodipodi:type="star"
         style="fill:none;stroke:#003162;stroke-width:1.07150559;stroke-dasharray:none"
         id="path84"
         inkscape:flatsided="true"
         sodipodi:sides="3"
         sodipodi:cx="35"
         sodipodi:cy="130"
         sodipodi:r1="10"
         sodipodi:r2="5"
         sodipodi:arg1="-1.5707963"
         sodipodi:arg2="-0.52359878"
         inkscape:rounded="0"
         inkscape:randomized="0"
         d="m 35,120 8.660254,15 -17.320508,0 z"
         inkscape:transform-center-y="-2.5000017"
         transform="translate(-15.000001,10.000003)" />
      <ellipse
         style="fill:none;stroke:#003162;stroke-width:1.07150559;stroke-dasharray:none"
         id="ellipse84"
         cx="20"
         cy="149"
         rx="2.9999998"
         ry="3" />
      <ellipse
         style="fill:none;stroke:#003162;stroke-width:1.07150559;stroke-dasharray:none"
         id="ellipse85"
         cx="28"
         cy="149"
         rx="2.9999998"
         ry="3" />
      <ellipse
         style="fill:none;stroke:#003162;stroke-width:1.07150559;stroke-dasharray:none"
         id="ellipse86"
         cx="11.999999"
         cy="149"
         rx="2.9999998"
         ry="3" />
      <path
         style="display:inline;fill:none;stroke:#003162;stroke-width:1.07150559;stroke-dasharray:none"
         d="M 39.999999,154 H 64.999998"
         id="path86"
         sodipodi:nodetypes="cc"
         transform="translate(-32.499999,-1.0000005)" />
      <path
         style="display:inline;fill:none;stroke:#003162;stroke-width:1.07150559;stroke-dasharray:none"
         d="M 8.4999999,153 4.5,157"
         id="path87"
         sodipodi:nodetypes="cc" />
      <path
         style="display:inline;fill:none;stroke:#003162;stroke-width:1.07150559;stroke-dasharray:none"
         d="m 16.166666,153 -4,4"
         id="path88"
         sodipodi:nodetypes="cc" />
      <path
         style="display:inline;fill:none;stroke:#003162;stroke-width:1.07150559;stroke-dasharray:none"
         d="m 23.833333,153 -4,4"
         id="path89"
         sodipodi:nodetypes="cc" />
      <path
         style="display:inline;fill:none;stroke:#003162;stroke-width:1.07150559;stroke-dasharray:none"
         d="m 31.499999,153 -4,4"
         id="path90"
         sodipodi:nodetypes="cc" />
    </g>
    <g
       id="g97"
       inkscape:label="Support 2"
       transform="matrix(0.46127655,0,0,0.4720519,90.899499,26.031024)"
       style="display:inline;stroke-width:1.07150559;stroke-dasharray:none">
      <path
         sodipodi:type="star"
         style="fill:none;stroke:#003162;stroke-width:1.07150559;stroke-dasharray:none"
         id="path91"
         inkscape:flatsided="true"
         sodipodi:sides="3"
         sodipodi:cx="35"
         sodipodi:cy="130"
         sodipodi:r1="10"
         sodipodi:r2="5"
         sodipodi:arg1="-1.5707963"
         sodipodi:arg2="-0.52359878"
         inkscape:rounded="0"
         inkscape:randomized="0"
         d="m 35,120 8.660254,15 -17.320508,0 z"
         inkscape:transform-center-y="-2.5000017"
         transform="translate(-15.000001,10.000003)" />
      <ellipse
         style="fill:none;stroke:#003162;stroke-width:1.07150559;stroke-dasharray:none"
         id="ellipse91"
         cx="20"
         cy="149"
         rx="2.9999998"
         ry="3" />
      <ellipse
         style="fill:none;stroke:#003162;stroke-width:1.07150559;stroke-dasharray:none"
         id="ellipse92"
         cx="28"
         cy="149"
         rx="2.9999998"
         ry="3" />
      <ellipse
         style="fill:none;stroke:#003162;stroke-width:1.07150559;stroke-dasharray:none"
         id="ellipse93"
         cx="11.999999"
         cy="149"
         rx="2.9999998"
         ry="3" />
      <path
         style="display:inline;fill:none;stroke:#003162;stroke-width:1.07150559;stroke-dasharray:none"
         d="M 39.999999,154 H 64.999998"
         id="path93"
         sodipodi:nodetypes="cc"
         transform="translate(-32.499999,-1.0000005)" />
      <path
         style="display:inline;fill:none;stroke:#003162;stroke-width:1.07150559;stroke-dasharray:none"
         d="M 8.4999999,153 4.5,157"
         id="path94"
         sodipodi:nodetypes="cc" />
      <path
         style="display:inline;fill:none;stroke:#003162;stroke-width:1.07150559;stroke-dasharray:none"
         d="m 16.166666,153 -4,4"
         id="path95"
         sodipodi:nodetypes="cc" />
      <path
         style="display:inline;fill:none;stroke:#003162;stroke-width:1.07150559;stroke-dasharray:none"
         d="m 23.833333,153 -4,4"
         id="path96"
         sodipodi:nodetypes="cc" />
      <path
         style="display:inline;fill:none;stroke:#003162;stroke-width:1.07150559;stroke-dasharray:none"
         d="m 31.499999,153 -4,4"
         id="path97"
         sodipodi:nodetypes="cc" />
    </g>
    <path
       style="fill:#003162;stroke:#003162;stroke-width:0.5;stroke-dasharray:none"
       d="M -17.371941,48.672539 H 7.9982612"
       id="path112"
       inkscape:label="Pre-crack"
       transform="translate(66.7566,12.2903)" />
    <rect
       style="fill:none;stroke:#003162;stroke-width:0.5;stroke-dasharray:none"
       id="rect1"
       width="50.74041"
       height="51.925709"
       x="49.384609"
       y="35.000004"
       inkscape:label="Domain" />
    <g
       inkscape:label=""
       transform="translate(64.644478,11.926497)"
       id="g120"
       style="fill:#007e9f;stroke:none">
      <g
         fill="#000000"
         fill-opacity="1"
         id="g7"
         transform="matrix(0.352778,0,0,0.352778,-1.16611,-0.706217)"
         style="fill:#007e9f;stroke:none">
        <g
           id="g116"
           transform="translate(1.993,19.205)"
           style="fill:#007e9f;stroke:none">
          <path
             d="m 7.65625,-15.4375 c -0.625,-1.765625 -2.578125,-1.765625 -2.890625,-1.765625 -0.15625,0 -0.421875,0 -0.421875,0.25 0,0.203125 0.140625,0.21875 0.265625,0.25 0.375,0.04687 0.671875,0.09375 1.0625,0.8125 0.25,0.484375 2.796875,7.890625 2.796875,7.9375 0,0.015625 -0.015625,0.046875 -0.21875,0.25 L 1.8125,-1.1875 c -0.296875,0.296875 -0.5,0.5 -0.5,0.8125 0,0.34375 0.296875,0.640625 0.6875,0.640625 0.109375,0 0.375,-0.046875 0.53125,-0.1875 0.390625,-0.375 3.9375,-4.71875 6.1875,-7.390625 0.65625,1.9375 1.4375,4.21875 2.203125,6.296875 0.125,0.375 0.25,0.71875 0.59375,1.046875 0.25,0.21875 0.3125,0.21875 1,0.21875 h 0.46875 c 0.09375,0 0.28125,0 0.28125,-0.203125 0,-0.09375 -0.03125,-0.125 -0.125,-0.21875 -0.234375,-0.28125 -0.40625,-0.71875 -0.5,-1.015625 z m 0,0"
             id="path115"
             style="fill:#007e9f;stroke:none" />
        </g>
      </g>
      <g
         fill="#000000"
         fill-opacity="1"
         id="g8"
         transform="matrix(0.352778,0,0,0.352778,-1.16611,-0.706217)"
         style="fill:#007e9f;stroke:none">
        <g
           id="g117"
           transform="translate(16.15,19.205)"
           style="fill:#007e9f;stroke:none">
          <path
             d="m 13.953125,-7.859375 c 0.171875,-0.6875 0.46875,-1.875 0.46875,-2.046875 0,-0.53125 -0.390625,-1.09375 -1.15625,-1.09375 -0.40625,0 -1.328125,0.21875 -1.640625,1.3125 -0.109375,0.34375 -1.21875,4.828125 -1.421875,5.640625 -0.140625,0.578125 -0.3125,1.296875 -0.359375,1.75 -0.453125,0.59375 -1.421875,1.609375 -2.6875,1.609375 -1.453125,0 -1.484375,-1.25 -1.484375,-1.8125 0,-1.515625 0.765625,-3.453125 1.46875,-5.234375 0.25,-0.640625 0.3125,-0.8125 0.3125,-1.234375 0,-1.4375 -1.4375,-2.234375 -2.796875,-2.234375 -2.625,0 -3.859375,3.375 -3.859375,3.875 0,0.34375 0.375,0.34375 0.59375,0.34375 0.296875,0 0.46875,0 0.5625,-0.328125 0.828125,-2.75 2.15625,-3 2.5625,-3 0.171875,0 0.421875,0 0.421875,0.53125 0,0.5625 -0.296875,1.25 -0.40625,1.546875 -1.03125,2.609375 -1.515625,4 -1.515625,5.21875 0,2.8125 2.484375,3.21875 3.953125,3.21875 0.71875,0 1.796875,-0.109375 3.140625,-1.375 0.796875,1.21875 2.234375,1.375 2.828125,1.375 0.921875,0 1.640625,-0.53125 2.15625,-1.421875 0.625,-0.984375 0.9375,-2.328125 0.9375,-2.453125 0,-0.34375 -0.375,-0.34375 -0.59375,-0.34375 -0.265625,0 -0.375,0 -0.5,0.125 -0.04687,0.046875 -0.04687,0.09375 -0.1875,0.71875 -0.5,1.9375 -1.046875,2.484375 -1.6875,2.484375 -0.375,0 -0.578125,-0.25 -0.578125,-0.921875 0,-0.421875 0.109375,-0.8125 0.359375,-1.8125 0.171875,-0.6875 0.421875,-1.6875 0.53125,-2.234375 z m 0,0"
             id="path116"
             style="fill:#007e9f;stroke:none" />
        </g>
      </g>
      <g
         fill="#000000"
         fill-opacity="1"
         id="g11"
         transform="matrix(0.352778,0,0,0.352778,-1.16611,-0.706217)"
         style="fill:#007e9f;stroke:none">
        <g
           id="g118"
           transform="translate(33.030998,25.016001)"
           style="fill:#007e9f;stroke:none">
          <path
             d="m 7.203125,-7.234375 c -0.390625,0 -0.96875,0 -0.96875,0.734375 0,0.578125 0.484375,0.734375 0.75,0.734375 0.140625,0 0.734375,-0.0625 0.734375,-0.78125 0,-1.46875 -1.390625,-2.578125 -2.984375,-2.578125 -2.1875,0 -4.046875,2.015625 -4.046875,4.65625 0,2.75 1.9375,4.640625 4.046875,4.640625 2.5625,0 3.203125,-2.375 3.203125,-2.609375 0,-0.078125 -0.03125,-0.140625 -0.171875,-0.140625 -0.140625,0 -0.171875,0.015625 -0.25,0.28125 -0.53125,1.671875 -1.71875,2.09375 -2.59375,2.09375 C 3.59375,-0.203125 2,-1.421875 2,-4.484375 2,-7.625 3.53125,-8.765625 4.75,-8.765625 c 0.8125,0 2,0.40625 2.453125,1.53125 z m 0,0"
             id="path117"
             style="fill:#007e9f;stroke:none" />
        </g>
        <g
           id="g119"
           transform="translate(41.428242,25.016001)"
           style="fill:#007e9f;stroke:none">
          <path
             d="M 3.125,-8.34375 H 6.015625 V -8.875 H 3.125 v -3.828125 H 2.75 c -0.046875,2.125 -0.765625,3.984375 -2.515625,4.03125 V -8.34375 H 2.03125 v 5.796875 c 0,0.40625 0,2.71875 2.390625,2.71875 1.21875,0 1.921875,-1.203125 1.921875,-2.734375 v -1.171875 h -0.375 v 1.15625 c 0,1.421875 -0.5625,2.375 -1.421875,2.375 C 3.953125,-0.203125 3.125,-0.625 3.125,-2.5 Z m 0,0"
             id="path14"
             style="fill:#007e9f;stroke:none" />
        </g>
        <g
           id="use10"
           transform="translate(48.744831,25.016001)"
           style="fill:#007e9f;stroke:none">
          <path
             d="m 3.09375,-4.875 c 0,-1.984375 0.859375,-3.84375 2.40625,-3.84375 0.140625,0 0.28125,0.015625 0.421875,0.078125 0,0 -0.453125,0.15625 -0.453125,0.6875 0,0.5 0.390625,0.703125 0.703125,0.703125 0.25,0 0.703125,-0.140625 0.703125,-0.71875 0,-0.671875 -0.65625,-1.078125 -1.359375,-1.078125 -1.5625,0 -2.25,1.53125 -2.453125,2.25 H 3.03125 v -2.25 L 0.640625,-8.8125 v 0.53125 c 1.21875,0 1.40625,0.125 1.40625,1.109375 v 5.75 c 0,0.78125 -0.078125,0.890625 -1.40625,0.890625 V 0 c 0.5,-0.046875 1.453125,-0.046875 1.984375,-0.046875 0.59375,0 1.65625,0 2.203125,0.046875 v -0.53125 c -1.484375,0 -1.734375,0 -1.734375,-0.9375 z m 0,0"
             id="path15"
             style="fill:#007e9f;stroke:none" />
        </g>
        <g
           id="use11"
           transform="translate(56.06142,25.016001)"
           style="fill:#007e9f;stroke:none">
          <path
             d="m 3.15625,-14.328125 -2.453125,0.21875 v 0.53125 c 1.21875,0 1.40625,0.125 1.40625,1.125 v 11.03125 c 0,0.78125 -0.078125,0.890625 -1.40625,0.890625 V 0 c 0.5,-0.046875 1.40625,-0.046875 1.921875,-0.046875 0.53125,0 1.4375,0 1.9375,0.046875 v -0.53125 c -1.3125,0 -1.40625,-0.09375 -1.40625,-0.890625 z m 0,0"
             id="path16"
             style="fill:#007e9f;stroke:none" />
        </g>
      </g>
    </g>
  </g>
</svg>
