<?xml version="1.0" encoding="utf-8" standalone="no"?>
<!DOCTYPE svg PUBLIC "-//W3C//DTD SVG 1.1//EN"
  "http://www.w3.org/Graphics/SVG/1.1/DTD/svg11.dtd">
<svg xmlns:xlink="http://www.w3.org/1999/xlink" width="330.723591pt" height="336.07268pt" viewBox="0 0 330.723591 336.07268" xmlns="http://www.w3.org/2000/svg" version="1.1">
 <metadata>
  <rdf:RDF xmlns:dc="http://purl.org/dc/elements/1.1/" xmlns:cc="http://creativecommons.org/ns#" xmlns:rdf="http://www.w3.org/1999/02/22-rdf-syntax-ns#">
   <cc:Work>
    <dc:type rdf:resource="http://purl.org/dc/dcmitype/StillImage"/>
    <dc:date>2025-01-13T18:16:48.507791</dc:date>
    <dc:format>image/svg+xml</dc:format>
    <dc:creator>
     <cc:Agent>
      <dc:title>Matplotlib v3.8.2, https://matplotlib.org/</dc:title>
     </cc:Agent>
    </dc:creator>
   </cc:Work>
  </rdf:RDF>
 </metadata>
 <defs>
  <style type="text/css">*{stroke-linejoin: round; stroke-linecap: butt}</style>
 </defs>
 <g id="figure_1">
  <g id="patch_1">
   <path d="M 0 336.07268 
L 330.723591 336.07268 
L 330.723591 0 
L 0 0 
z
" style="fill: #ffffff"/>
  </g>
  <g id="axes_1">
   <g id="patch_2">
    <path d="M 13.432678 328.87268 
L 321.49633 328.87268 
L 321.49633 20.8 
L 13.432678 20.8 
z
" style="fill: #ffffff"/>
   </g>
   <g id="matplotlib.axis_1">
    <g id="xtick_1">
     <g id="line2d_1">
      <defs>
       <path id="m29b1583cff" d="M 0 0 
L 0 3.5 
" style="stroke: #000000; stroke-width: 0.8"/>
      </defs>
      <g>
       <use xlink:href="#m29b1583cff" x="19.341406" y="174.837071" style="stroke: #000000; stroke-width: 0.8"/>
      </g>
     </g>
     <g id="text_1">
      <!-- −1.0 -->
      <g transform="translate(7.2 189.435509) scale(0.1 -0.1)">
       <defs>
        <path id="DejaVuSans-2212" d="M 678 2272 
L 4684 2272 
L 4684 1741 
L 678 1741 
L 678 2272 
z
" transform="scale(0.015625)"/>
        <path id="DejaVuSans-31" d="M 794 531 
L 1825 531 
L 1825 4091 
L 703 3866 
L 703 4441 
L 1819 4666 
L 2450 4666 
L 2450 531 
L 3481 531 
L 3481 0 
L 794 0 
L 794 531 
z
" transform="scale(0.015625)"/>
        <path id="DejaVuSans-2e" d="M 684 794 
L 1344 794 
L 1344 0 
L 684 0 
L 684 794 
z
" transform="scale(0.015625)"/>
        <path id="DejaVuSans-30" d="M 2034 4250 
Q 1547 4250 1301 3770 
Q 1056 3291 1056 2328 
Q 1056 1369 1301 889 
Q 1547 409 2034 409 
Q 2525 409 2770 889 
Q 3016 1369 3016 2328 
Q 3016 3291 2770 3770 
Q 2525 4250 2034 4250 
z
M 2034 4750 
Q 2819 4750 3233 4129 
Q 3647 3509 3647 2328 
Q 3647 1150 3233 529 
Q 2819 -91 2034 -91 
Q 1250 -91 836 529 
Q 422 1150 422 2328 
Q 422 3509 836 4129 
Q 1250 4750 2034 4750 
z
" transform="scale(0.015625)"/>
       </defs>
       <use xlink:href="#DejaVuSans-2212"/>
       <use xlink:href="#DejaVuSans-31" x="83.789062"/>
       <use xlink:href="#DejaVuSans-2e" x="147.412109"/>
       <use xlink:href="#DejaVuSans-30" x="179.199219"/>
      </g>
     </g>
    </g>
    <g id="xtick_2">
     <g id="line2d_2">
      <g>
       <use xlink:href="#m29b1583cff" x="93.399062" y="174.837071" style="stroke: #000000; stroke-width: 0.8"/>
      </g>
     </g>
     <g id="text_2">
      <!-- −0.5 -->
      <g transform="translate(81.257656 189.435509) scale(0.1 -0.1)">
       <defs>
        <path id="DejaVuSans-35" d="M 691 4666 
L 3169 4666 
L 3169 4134 
L 1269 4134 
L 1269 2991 
Q 1406 3038 1543 3061 
Q 1681 3084 1819 3084 
Q 2600 3084 3056 2656 
Q 3513 2228 3513 1497 
Q 3513 744 3044 326 
Q 2575 -91 1722 -91 
Q 1428 -91 1123 -41 
Q 819 9 494 109 
L 494 744 
Q 775 591 1075 516 
Q 1375 441 1709 441 
Q 2250 441 2565 725 
Q 2881 1009 2881 1497 
Q 2881 1984 2565 2268 
Q 2250 2553 1709 2553 
Q 1456 2553 1204 2497 
Q 953 2441 691 2322 
L 691 4666 
z
" transform="scale(0.015625)"/>
       </defs>
       <use xlink:href="#DejaVuSans-2212"/>
       <use xlink:href="#DejaVuSans-30" x="83.789062"/>
       <use xlink:href="#DejaVuSans-2e" x="147.412109"/>
       <use xlink:href="#DejaVuSans-35" x="179.199219"/>
      </g>
     </g>
    </g>
    <g id="xtick_3">
     <g id="line2d_3">
      <g>
       <use xlink:href="#m29b1583cff" x="167.456718" y="174.837071" style="stroke: #000000; stroke-width: 0.8"/>
      </g>
     </g>
    </g>
    <g id="xtick_4">
     <g id="line2d_4">
      <g>
       <use xlink:href="#m29b1583cff" x="241.514373" y="174.837071" style="stroke: #000000; stroke-width: 0.8"/>
      </g>
     </g>
     <g id="text_3">
      <!-- 0.5 -->
      <g transform="translate(233.562811 189.435509) scale(0.1 -0.1)">
       <use xlink:href="#DejaVuSans-30"/>
       <use xlink:href="#DejaVuSans-2e" x="63.623047"/>
       <use xlink:href="#DejaVuSans-35" x="95.410156"/>
      </g>
     </g>
    </g>
    <g id="xtick_5">
     <g id="line2d_5">
      <g>
       <use xlink:href="#m29b1583cff" x="315.572029" y="174.837071" style="stroke: #000000; stroke-width: 0.8"/>
      </g>
     </g>
     <g id="text_4">
      <!-- 1.0 -->
      <g transform="translate(307.620466 189.435509) scale(0.1 -0.1)">
       <use xlink:href="#DejaVuSans-31"/>
       <use xlink:href="#DejaVuSans-2e" x="63.623047"/>
       <use xlink:href="#DejaVuSans-30" x="95.410156"/>
      </g>
     </g>
    </g>
    <g id="xtick_6">
     <g id="line2d_6">
      <defs>
       <path id="m8e9adbb079" d="M 0 0 
L 0 2 
" style="stroke: #000000; stroke-width: 0.6"/>
      </defs>
      <g>
       <use xlink:href="#m8e9adbb079" x="34.152937" y="174.837071" style="stroke: #000000; stroke-width: 0.6"/>
      </g>
     </g>
    </g>
    <g id="xtick_7">
     <g id="line2d_7">
      <g>
       <use xlink:href="#m8e9adbb079" x="48.964469" y="174.837071" style="stroke: #000000; stroke-width: 0.6"/>
      </g>
     </g>
    </g>
    <g id="xtick_8">
     <g id="line2d_8">
      <g>
       <use xlink:href="#m8e9adbb079" x="63.776" y="174.837071" style="stroke: #000000; stroke-width: 0.6"/>
      </g>
     </g>
    </g>
    <g id="xtick_9">
     <g id="line2d_9">
      <g>
       <use xlink:href="#m8e9adbb079" x="78.587531" y="174.837071" style="stroke: #000000; stroke-width: 0.6"/>
      </g>
     </g>
    </g>
    <g id="xtick_10">
     <g id="line2d_10">
      <g>
       <use xlink:href="#m8e9adbb079" x="108.210593" y="174.837071" style="stroke: #000000; stroke-width: 0.6"/>
      </g>
     </g>
    </g>
    <g id="xtick_11">
     <g id="line2d_11">
      <g>
       <use xlink:href="#m8e9adbb079" x="123.022124" y="174.837071" style="stroke: #000000; stroke-width: 0.6"/>
      </g>
     </g>
    </g>
    <g id="xtick_12">
     <g id="line2d_12">
      <g>
       <use xlink:href="#m8e9adbb079" x="137.833655" y="174.837071" style="stroke: #000000; stroke-width: 0.6"/>
      </g>
     </g>
    </g>
    <g id="xtick_13">
     <g id="line2d_13">
      <g>
       <use xlink:href="#m8e9adbb079" x="152.645186" y="174.837071" style="stroke: #000000; stroke-width: 0.6"/>
      </g>
     </g>
    </g>
    <g id="xtick_14">
     <g id="line2d_14">
      <g>
       <use xlink:href="#m8e9adbb079" x="182.268249" y="174.837071" style="stroke: #000000; stroke-width: 0.6"/>
      </g>
     </g>
    </g>
    <g id="xtick_15">
     <g id="line2d_15">
      <g>
       <use xlink:href="#m8e9adbb079" x="197.07978" y="174.837071" style="stroke: #000000; stroke-width: 0.6"/>
      </g>
     </g>
    </g>
    <g id="xtick_16">
     <g id="line2d_16">
      <g>
       <use xlink:href="#m8e9adbb079" x="211.891311" y="174.837071" style="stroke: #000000; stroke-width: 0.6"/>
      </g>
     </g>
    </g>
    <g id="xtick_17">
     <g id="line2d_17">
      <g>
       <use xlink:href="#m8e9adbb079" x="226.702842" y="174.837071" style="stroke: #000000; stroke-width: 0.6"/>
      </g>
     </g>
    </g>
    <g id="xtick_18">
     <g id="line2d_18">
      <g>
       <use xlink:href="#m8e9adbb079" x="256.325904" y="174.837071" style="stroke: #000000; stroke-width: 0.6"/>
      </g>
     </g>
    </g>
    <g id="xtick_19">
     <g id="line2d_19">
      <g>
       <use xlink:href="#m8e9adbb079" x="271.137436" y="174.837071" style="stroke: #000000; stroke-width: 0.6"/>
      </g>
     </g>
    </g>
    <g id="xtick_20">
     <g id="line2d_20">
      <g>
       <use xlink:href="#m8e9adbb079" x="285.948967" y="174.837071" style="stroke: #000000; stroke-width: 0.6"/>
      </g>
     </g>
    </g>
    <g id="xtick_21">
     <g id="line2d_21">
      <g>
       <use xlink:href="#m8e9adbb079" x="300.760498" y="174.837071" style="stroke: #000000; stroke-width: 0.6"/>
      </g>
     </g>
    </g>
   </g>
   <g id="matplotlib.axis_2">
    <g id="ytick_1">
     <g id="line2d_22">
      <defs>
       <path id="m4ab1860222" d="M 0 0 
L -3.5 0 
" style="stroke: #000000; stroke-width: 0.8"/>
      </defs>
      <g>
       <use xlink:href="#m4ab1860222" x="167.456718" y="322.952383" style="stroke: #000000; stroke-width: 0.8"/>
      </g>
     </g>
     <g id="text_5">
      <!-- −1.0 -->
      <g transform="translate(136.173905 326.751602) scale(0.1 -0.1)">
       <use xlink:href="#DejaVuSans-2212"/>
       <use xlink:href="#DejaVuSans-31" x="83.789062"/>
       <use xlink:href="#DejaVuSans-2e" x="147.412109"/>
       <use xlink:href="#DejaVuSans-30" x="179.199219"/>
      </g>
     </g>
    </g>
    <g id="ytick_2">
     <g id="line2d_23">
      <g>
       <use xlink:href="#m4ab1860222" x="167.456718" y="248.894727" style="stroke: #000000; stroke-width: 0.8"/>
      </g>
     </g>
     <g id="text_6">
      <!-- −0.5 -->
      <g transform="translate(136.173905 252.693946) scale(0.1 -0.1)">
       <use xlink:href="#DejaVuSans-2212"/>
       <use xlink:href="#DejaVuSans-30" x="83.789062"/>
       <use xlink:href="#DejaVuSans-2e" x="147.412109"/>
       <use xlink:href="#DejaVuSans-35" x="179.199219"/>
      </g>
     </g>
    </g>
    <g id="ytick_3">
     <g id="line2d_24">
      <g>
       <use xlink:href="#m4ab1860222" x="167.456718" y="174.837071" style="stroke: #000000; stroke-width: 0.8"/>
      </g>
     </g>
    </g>
    <g id="ytick_4">
     <g id="line2d_25">
      <g>
       <use xlink:href="#m4ab1860222" x="167.456718" y="100.779416" style="stroke: #000000; stroke-width: 0.8"/>
      </g>
     </g>
     <g id="text_7">
      <!-- 0.5 -->
      <g transform="translate(144.553593 104.578635) scale(0.1 -0.1)">
       <use xlink:href="#DejaVuSans-30"/>
       <use xlink:href="#DejaVuSans-2e" x="63.623047"/>
       <use xlink:href="#DejaVuSans-35" x="95.410156"/>
      </g>
     </g>
    </g>
    <g id="ytick_5">
     <g id="line2d_26">
      <g>
       <use xlink:href="#m4ab1860222" x="167.456718" y="26.72176" style="stroke: #000000; stroke-width: 0.8"/>
      </g>
     </g>
     <g id="text_8">
      <!-- 1.0 -->
      <g transform="translate(144.553593 30.520979) scale(0.1 -0.1)">
       <use xlink:href="#DejaVuSans-31"/>
       <use xlink:href="#DejaVuSans-2e" x="63.623047"/>
       <use xlink:href="#DejaVuSans-30" x="95.410156"/>
      </g>
     </g>
    </g>
    <g id="ytick_6">
     <g id="line2d_27">
      <defs>
       <path id="md50b111e2e" d="M 0 0 
L -2 0 
" style="stroke: #000000; stroke-width: 0.6"/>
      </defs>
      <g>
       <use xlink:href="#md50b111e2e" x="167.456718" y="308.140852" style="stroke: #000000; stroke-width: 0.6"/>
      </g>
     </g>
    </g>
    <g id="ytick_7">
     <g id="line2d_28">
      <g>
       <use xlink:href="#md50b111e2e" x="167.456718" y="293.329321" style="stroke: #000000; stroke-width: 0.6"/>
      </g>
     </g>
    </g>
    <g id="ytick_8">
     <g id="line2d_29">
      <g>
       <use xlink:href="#md50b111e2e" x="167.456718" y="278.517789" style="stroke: #000000; stroke-width: 0.6"/>
      </g>
     </g>
    </g>
    <g id="ytick_9">
     <g id="line2d_30">
      <g>
       <use xlink:href="#md50b111e2e" x="167.456718" y="263.706258" style="stroke: #000000; stroke-width: 0.6"/>
      </g>
     </g>
    </g>
    <g id="ytick_10">
     <g id="line2d_31">
      <g>
       <use xlink:href="#md50b111e2e" x="167.456718" y="234.083196" style="stroke: #000000; stroke-width: 0.6"/>
      </g>
     </g>
    </g>
    <g id="ytick_11">
     <g id="line2d_32">
      <g>
       <use xlink:href="#md50b111e2e" x="167.456718" y="219.271665" style="stroke: #000000; stroke-width: 0.6"/>
      </g>
     </g>
    </g>
    <g id="ytick_12">
     <g id="line2d_33">
      <g>
       <use xlink:href="#md50b111e2e" x="167.456718" y="204.460134" style="stroke: #000000; stroke-width: 0.6"/>
      </g>
     </g>
    </g>
    <g id="ytick_13">
     <g id="line2d_34">
      <g>
       <use xlink:href="#md50b111e2e" x="167.456718" y="189.648603" style="stroke: #000000; stroke-width: 0.6"/>
      </g>
     </g>
    </g>
    <g id="ytick_14">
     <g id="line2d_35">
      <g>
       <use xlink:href="#md50b111e2e" x="167.456718" y="160.02554" style="stroke: #000000; stroke-width: 0.6"/>
      </g>
     </g>
    </g>
    <g id="ytick_15">
     <g id="line2d_36">
      <g>
       <use xlink:href="#md50b111e2e" x="167.456718" y="145.214009" style="stroke: #000000; stroke-width: 0.6"/>
      </g>
     </g>
    </g>
    <g id="ytick_16">
     <g id="line2d_37">
      <g>
       <use xlink:href="#md50b111e2e" x="167.456718" y="130.402478" style="stroke: #000000; stroke-width: 0.6"/>
      </g>
     </g>
    </g>
    <g id="ytick_17">
     <g id="line2d_38">
      <g>
       <use xlink:href="#md50b111e2e" x="167.456718" y="115.590947" style="stroke: #000000; stroke-width: 0.6"/>
      </g>
     </g>
    </g>
    <g id="ytick_18">
     <g id="line2d_39">
      <g>
       <use xlink:href="#md50b111e2e" x="167.456718" y="85.967885" style="stroke: #000000; stroke-width: 0.6"/>
      </g>
     </g>
    </g>
    <g id="ytick_19">
     <g id="line2d_40">
      <g>
       <use xlink:href="#md50b111e2e" x="167.456718" y="71.156354" style="stroke: #000000; stroke-width: 0.6"/>
      </g>
     </g>
    </g>
    <g id="ytick_20">
     <g id="line2d_41">
      <g>
       <use xlink:href="#md50b111e2e" x="167.456718" y="56.344822" style="stroke: #000000; stroke-width: 0.6"/>
      </g>
     </g>
    </g>
    <g id="ytick_21">
     <g id="line2d_42">
      <g>
       <use xlink:href="#md50b111e2e" x="167.456718" y="41.533291" style="stroke: #000000; stroke-width: 0.6"/>
      </g>
     </g>
    </g>
   </g>
   <g id="line2d_43">
    <path d="M 272.190059 174.837071 
L 274.01321 170.81899 
L 275.372856 167.14946 
L 276.201455 164.444518 
L 277.23595 160.126877 
L 277.932677 155.805364 
L 278.32768 150.908313 
L 278.297155 145.711992 
L 278.116016 143.194365 
L 277.717452 139.92948 
L 276.332429 133.338268 
L 274.485701 127.680735 
L 273.011599 124.182335 
L 271.907355 121.912464 
L 270.394241 119.150786 
L 268.695088 116.41413 
L 265.117329 111.555298 
L 263.98863 110.21851 
L 259.345902 105.458759 
L 258.005964 104.269886 
L 255.37429 102.135261 
L 253.367927 100.668331 
L 250.029721 98.499846 
L 245.959869 96.193565 
L 244.810858 94.020727 
L 242.325336 89.949969 
L 239.292118 85.813558 
L 237.711144 83.927255 
L 234.484098 80.522824 
L 232.832419 78.975647 
L 230.16755 76.714776 
L 226.693097 74.145133 
L 222.526855 71.545084 
L 217.810187 69.144611 
L 214.533239 67.777531 
L 211.268545 66.639661 
L 207.858817 65.675489 
L 203.530502 64.764125 
L 198.450727 64.120657 
L 192.972388 63.92649 
L 189.452623 64.072621 
L 184.325202 64.668422 
L 179.271124 65.713295 
L 174.751706 67.053205 
L 171.421677 68.302338 
L 167.311006 70.031128 
L 165.953428 69.378682 
L 162.958932 68.086836 
L 158.61205 66.548975 
L 154.621913 65.464682 
L 151.18464 64.767696 
L 147.771944 64.284458 
L 142.976283 63.947454 
L 138.413611 63.992568 
L 131.111609 64.811286 
L 128.216911 65.397082 
L 125.043779 66.217088 
L 121.46826 67.374191 
L 116.240329 69.544212 
L 111.389979 72.12343 
L 106.780266 75.16226 
L 103.482507 77.752564 
L 100.685149 80.275252 
L 96.547881 84.688596 
L 94.629447 87.084266 
L 91.155512 92.204343 
L 88.942542 96.215528 
L 84.953347 98.457974 
L 79.619476 102.073979 
L 76.282739 104.815076 
L 71.545444 109.516761 
L 68.283882 113.482468 
L 66.07631 116.630483 
L 63.317248 121.31489 
L 61.789735 124.42747 
L 60.855248 126.598763 
L 59.507001 130.259167 
L 58.280958 134.491723 
L 57.495276 138.133398 
L 57.059482 140.889157 
L 56.647405 145.147628 
L 56.552524 147.561184 
L 56.58262 150.825417 
L 56.857088 154.716548 
L 57.622386 159.847628 
L 58.387176 163.235221 
L 59.200856 166.096029 
L 60.523976 169.875874 
L 62.531078 174.44889 
L 62.712778 174.858279 
L 61.858152 176.644178 
L 60.789018 179.129006 
L 59.227488 183.493007 
L 57.989037 188.085575 
L 57.444183 190.783728 
L 56.911907 194.452361 
L 56.689514 196.871556 
L 56.545151 201.595178 
L 56.765285 206.125044 
L 57.390847 210.952049 
L 58.361114 215.500165 
L 59.649828 219.84107 
L 60.643366 222.546997 
L 63.31412 228.353328 
L 65.227609 231.705459 
L 67.180401 234.67306 
L 69.286727 237.488078 
L 71.951838 240.604876 
L 75.584427 244.230836 
L 81.072652 248.671766 
L 84.179582 250.743423 
L 88.930411 253.434422 
L 90.610946 256.549147 
L 92.885572 260.16516 
L 95.305478 263.463734 
L 99.220609 267.939469 
L 102.451144 271.02918 
L 105.964985 273.90655 
L 109.712916 276.516744 
L 112.745113 278.330771 
L 116.377843 280.194754 
L 119.954691 281.732162 
L 123.926128 283.122504 
L 128.159347 284.263862 
L 133.749582 285.266016 
L 139.044292 285.70901 
L 141.506199 285.750997 
L 146.855089 285.484783 
L 149.600742 285.156225 
L 154.627188 284.208225 
L 159.113136 282.967336 
L 165.43072 280.53533 
L 167.484594 279.584342 
L 170.929855 281.167453 
L 176.244435 283.107478 
L 180.388518 284.232086 
L 183.154968 284.804942 
L 186.988212 285.372361 
L 190.754053 285.680286 
L 194.389219 285.746666 
L 197.01942 285.65385 
L 200.57534 285.339248 
L 204.605769 284.715378 
L 207.956877 283.974014 
L 212.558798 282.610568 
L 217.251348 280.779314 
L 220.580146 279.185149 
L 224.541092 276.932617 
L 226.481885 275.672797 
L 230.103613 273.010335 
L 233.51753 270.071236 
L 236.278532 267.325997 
L 240.355266 262.495725 
L 243.003708 258.684923 
L 245.478755 254.417419 
L 246.022001 253.379435 
L 247.758116 252.474136 
L 253.459813 248.941447 
L 254.912713 247.888034 
L 258.63919 244.851546 
L 261.185847 242.456891 
L 263.075614 240.480262 
L 266.873417 235.864775 
L 269.975364 231.229918 
L 271.163996 229.162496 
L 273.500327 224.400345 
L 275.47219 219.215077 
L 276.441688 215.926895 
L 277.529265 210.913181 
L 278.02341 207.391644 
L 278.357059 202.302807 
L 278.326746 198.741739 
L 278.147567 195.909105 
L 277.42756 190.551664 
L 276.00847 184.556149 
L 274.068989 178.992015 
L 272.190059 174.837071 
L 272.190059 174.837071 
" clip-path="url(#pad7e2d2c8e)" style="fill: none; stroke: #0000ff; stroke-linecap: square"/>
   </g>
   <g id="line2d_44">
    <path d="M 315.572029 174.837071 
L 315.333382 166.432451 
L 315.083148 162.812825 
L 313.964127 153.071862 
L 312.356052 144.139705 
L 310.503409 136.421066 
L 309.686046 133.497458 
L 306.623572 124.134684 
L 303.901778 117.209899 
L 301.150387 111.086399 
L 296.898273 102.843814 
L 293.470393 96.999426 
L 290.306519 92.096079 
L 286.669969 86.937435 
L 282.460369 81.49734 
L 277.423187 75.612472 
L 275.237668 73.242721 
L 269.349003 67.337734 
L 266.557963 64.759423 
L 262.674235 61.383249 
L 259.09943 58.476603 
L 255.669271 55.855179 
L 248.052138 50.56912 
L 239.869723 45.629866 
L 232.609611 41.82111 
L 224.789208 38.267928 
L 222.335944 37.26376 
L 214.300242 34.324333 
L 205.432162 31.672791 
L 199.133799 30.148758 
L 191.661549 28.712906 
L 186.525049 27.954315 
L 178.986326 27.171186 
L 171.714485 26.78297 
L 166.559995 26.724475 
L 159.464376 26.937552 
L 156.20989 27.14938 
L 149.986069 27.755727 
L 145.478276 28.361498 
L 139.512357 29.381724 
L 133.667652 30.627347 
L 129.046045 31.788948 
L 123.52315 33.387479 
L 118.636217 34.998936 
L 111.111037 37.857841 
L 107.377637 39.453728 
L 101.904598 42.0174 
L 97.737934 44.156405 
L 90.770622 48.119321 
L 84.246385 52.304684 
L 78.851306 56.147449 
L 73.479812 60.353506 
L 65.390517 67.502845 
L 59.333654 73.606895 
L 53.421629 80.31647 
L 47.39664 88.097674 
L 45.18157 91.249191 
L 41.630672 96.696482 
L 39.206169 100.742926 
L 36.293941 106.029576 
L 34.118911 110.345406 
L 31.235325 116.683157 
L 29.028845 122.150551 
L 27.064427 127.633786 
L 25.784375 131.627201 
L 24.660496 135.500262 
L 23.061172 141.851139 
L 22.200302 145.876421 
L 20.699591 154.824793 
L 19.931301 161.631135 
L 19.510029 167.771455 
L 19.356979 172.68934 
L 19.361186 177.257625 
L 19.644354 184.305474 
L 20.228866 191.026737 
L 21.053063 197.289585 
L 21.716078 201.253191 
L 23.610586 210.141969 
L 25.566956 217.327552 
L 26.774974 221.170563 
L 28.535475 226.208598 
L 31.890858 234.503168 
L 34.586384 240.286441 
L 38.32154 247.378448 
L 43.227028 255.491455 
L 46.573923 260.426179 
L 51.620917 267.14207 
L 57.026844 273.545675 
L 60.409128 277.203858 
L 67.412801 284.058682 
L 71.995102 288.085584 
L 79.029187 293.65928 
L 85.010411 297.884834 
L 92.084808 302.340878 
L 95.999714 304.575432 
L 99.966127 306.682305 
L 107.664979 310.347563 
L 110.01532 311.360444 
L 115.437382 313.517042 
L 120.420225 315.285332 
L 124.673893 316.638959 
L 129.018274 317.877735 
L 133.376082 318.978168 
L 141.107628 320.589845 
L 149.294949 321.834676 
L 156.473189 322.544578 
L 161.491943 322.83223 
L 171.270393 322.903277 
L 176.926955 322.649317 
L 184.351922 321.985627 
L 189.067706 321.367309 
L 197.475563 319.878494 
L 207.764682 317.362204 
L 214.789135 315.185879 
L 222.271943 312.435896 
L 228.573655 309.755067 
L 236.071073 306.100988 
L 242.195853 302.71282 
L 246.84005 299.882791 
L 251.500382 296.799393 
L 256.061195 293.527391 
L 262.098754 288.771397 
L 265.008644 286.290053 
L 270.771206 280.970299 
L 275.22337 276.446589 
L 279.990144 271.14062 
L 283.045817 267.450816 
L 286.135253 263.457333 
L 289.982099 258.05772 
L 293.061779 253.332383 
L 295.418155 249.429404 
L 297.652207 245.457749 
L 301.070871 238.754232 
L 302.628254 235.39119 
L 306.124461 226.888993 
L 308.981711 218.527136 
L 310.570623 213.00192 
L 312.586303 204.426748 
L 314.283412 194.332386 
L 315.14581 186.065489 
L 315.412825 181.70261 
L 315.572029 174.837071 
L 315.572029 174.837071 
" clip-path="url(#pad7e2d2c8e)" style="fill: none; stroke-dasharray: 1,1.65; stroke-dashoffset: 0; stroke: #808080"/>
   </g>
   <g id="patch_3">
    <path d="M 167.456718 328.87268 
L 167.456718 20.8 
" style="fill: none; stroke: #000000; stroke-width: 0.8; stroke-linejoin: miter; stroke-linecap: square"/>
   </g>
   <g id="patch_4">
    <path d="M 13.432678 174.837071 
L 321.49633 174.837071 
" style="fill: none; stroke: #000000; stroke-width: 0.8; stroke-linejoin: miter; stroke-linecap: square"/>
   </g>
   <g id="text_9">
    <!-- Mesh-induced anisotropy function $\phi_2(\boldsymbol{n})$ -->
    <g transform="translate(69.164504 14.8) scale(0.1 -0.1)">
     <defs>
      <path id="DejaVuSans-4d" d="M 628 4666 
L 1569 4666 
L 2759 1491 
L 3956 4666 
L 4897 4666 
L 4897 0 
L 4281 0 
L 4281 4097 
L 3078 897 
L 2444 897 
L 1241 4097 
L 1241 0 
L 628 0 
L 628 4666 
z
" transform="scale(0.015625)"/>
      <path id="DejaVuSans-65" d="M 3597 1894 
L 3597 1613 
L 953 1613 
Q 991 1019 1311 708 
Q 1631 397 2203 397 
Q 2534 397 2845 478 
Q 3156 559 3463 722 
L 3463 178 
Q 3153 47 2828 -22 
Q 2503 -91 2169 -91 
Q 1331 -91 842 396 
Q 353 884 353 1716 
Q 353 2575 817 3079 
Q 1281 3584 2069 3584 
Q 2775 3584 3186 3129 
Q 3597 2675 3597 1894 
z
M 3022 2063 
Q 3016 2534 2758 2815 
Q 2500 3097 2075 3097 
Q 1594 3097 1305 2825 
Q 1016 2553 972 2059 
L 3022 2063 
z
" transform="scale(0.015625)"/>
      <path id="DejaVuSans-73" d="M 2834 3397 
L 2834 2853 
Q 2591 2978 2328 3040 
Q 2066 3103 1784 3103 
Q 1356 3103 1142 2972 
Q 928 2841 928 2578 
Q 928 2378 1081 2264 
Q 1234 2150 1697 2047 
L 1894 2003 
Q 2506 1872 2764 1633 
Q 3022 1394 3022 966 
Q 3022 478 2636 193 
Q 2250 -91 1575 -91 
Q 1294 -91 989 -36 
Q 684 19 347 128 
L 347 722 
Q 666 556 975 473 
Q 1284 391 1588 391 
Q 1994 391 2212 530 
Q 2431 669 2431 922 
Q 2431 1156 2273 1281 
Q 2116 1406 1581 1522 
L 1381 1569 
Q 847 1681 609 1914 
Q 372 2147 372 2553 
Q 372 3047 722 3315 
Q 1072 3584 1716 3584 
Q 2034 3584 2315 3537 
Q 2597 3491 2834 3397 
z
" transform="scale(0.015625)"/>
      <path id="DejaVuSans-68" d="M 3513 2113 
L 3513 0 
L 2938 0 
L 2938 2094 
Q 2938 2591 2744 2837 
Q 2550 3084 2163 3084 
Q 1697 3084 1428 2787 
Q 1159 2491 1159 1978 
L 1159 0 
L 581 0 
L 581 4863 
L 1159 4863 
L 1159 2956 
Q 1366 3272 1645 3428 
Q 1925 3584 2291 3584 
Q 2894 3584 3203 3211 
Q 3513 2838 3513 2113 
z
" transform="scale(0.015625)"/>
      <path id="DejaVuSans-2d" d="M 313 2009 
L 1997 2009 
L 1997 1497 
L 313 1497 
L 313 2009 
z
" transform="scale(0.015625)"/>
      <path id="DejaVuSans-69" d="M 603 3500 
L 1178 3500 
L 1178 0 
L 603 0 
L 603 3500 
z
M 603 4863 
L 1178 4863 
L 1178 4134 
L 603 4134 
L 603 4863 
z
" transform="scale(0.015625)"/>
      <path id="DejaVuSans-6e" d="M 3513 2113 
L 3513 0 
L 2938 0 
L 2938 2094 
Q 2938 2591 2744 2837 
Q 2550 3084 2163 3084 
Q 1697 3084 1428 2787 
Q 1159 2491 1159 1978 
L 1159 0 
L 581 0 
L 581 3500 
L 1159 3500 
L 1159 2956 
Q 1366 3272 1645 3428 
Q 1925 3584 2291 3584 
Q 2894 3584 3203 3211 
Q 3513 2838 3513 2113 
z
" transform="scale(0.015625)"/>
      <path id="DejaVuSans-64" d="M 2906 2969 
L 2906 4863 
L 3481 4863 
L 3481 0 
L 2906 0 
L 2906 525 
Q 2725 213 2448 61 
Q 2172 -91 1784 -91 
Q 1150 -91 751 415 
Q 353 922 353 1747 
Q 353 2572 751 3078 
Q 1150 3584 1784 3584 
Q 2172 3584 2448 3432 
Q 2725 3281 2906 2969 
z
M 947 1747 
Q 947 1113 1208 752 
Q 1469 391 1925 391 
Q 2381 391 2643 752 
Q 2906 1113 2906 1747 
Q 2906 2381 2643 2742 
Q 2381 3103 1925 3103 
Q 1469 3103 1208 2742 
Q 947 2381 947 1747 
z
" transform="scale(0.015625)"/>
      <path id="DejaVuSans-75" d="M 544 1381 
L 544 3500 
L 1119 3500 
L 1119 1403 
Q 1119 906 1312 657 
Q 1506 409 1894 409 
Q 2359 409 2629 706 
Q 2900 1003 2900 1516 
L 2900 3500 
L 3475 3500 
L 3475 0 
L 2900 0 
L 2900 538 
Q 2691 219 2414 64 
Q 2138 -91 1772 -91 
Q 1169 -91 856 284 
Q 544 659 544 1381 
z
M 1991 3584 
L 1991 3584 
z
" transform="scale(0.015625)"/>
      <path id="DejaVuSans-63" d="M 3122 3366 
L 3122 2828 
Q 2878 2963 2633 3030 
Q 2388 3097 2138 3097 
Q 1578 3097 1268 2742 
Q 959 2388 959 1747 
Q 959 1106 1268 751 
Q 1578 397 2138 397 
Q 2388 397 2633 464 
Q 2878 531 3122 666 
L 3122 134 
Q 2881 22 2623 -34 
Q 2366 -91 2075 -91 
Q 1284 -91 818 406 
Q 353 903 353 1747 
Q 353 2603 823 3093 
Q 1294 3584 2113 3584 
Q 2378 3584 2631 3529 
Q 2884 3475 3122 3366 
z
" transform="scale(0.015625)"/>
      <path id="DejaVuSans-20" transform="scale(0.015625)"/>
      <path id="DejaVuSans-61" d="M 2194 1759 
Q 1497 1759 1228 1600 
Q 959 1441 959 1056 
Q 959 750 1161 570 
Q 1363 391 1709 391 
Q 2188 391 2477 730 
Q 2766 1069 2766 1631 
L 2766 1759 
L 2194 1759 
z
M 3341 1997 
L 3341 0 
L 2766 0 
L 2766 531 
Q 2569 213 2275 61 
Q 1981 -91 1556 -91 
Q 1019 -91 701 211 
Q 384 513 384 1019 
Q 384 1609 779 1909 
Q 1175 2209 1959 2209 
L 2766 2209 
L 2766 2266 
Q 2766 2663 2505 2880 
Q 2244 3097 1772 3097 
Q 1472 3097 1187 3025 
Q 903 2953 641 2809 
L 641 3341 
Q 956 3463 1253 3523 
Q 1550 3584 1831 3584 
Q 2591 3584 2966 3190 
Q 3341 2797 3341 1997 
z
" transform="scale(0.015625)"/>
      <path id="DejaVuSans-6f" d="M 1959 3097 
Q 1497 3097 1228 2736 
Q 959 2375 959 1747 
Q 959 1119 1226 758 
Q 1494 397 1959 397 
Q 2419 397 2687 759 
Q 2956 1122 2956 1747 
Q 2956 2369 2687 2733 
Q 2419 3097 1959 3097 
z
M 1959 3584 
Q 2709 3584 3137 3096 
Q 3566 2609 3566 1747 
Q 3566 888 3137 398 
Q 2709 -91 1959 -91 
Q 1206 -91 779 398 
Q 353 888 353 1747 
Q 353 2609 779 3096 
Q 1206 3584 1959 3584 
z
" transform="scale(0.015625)"/>
      <path id="DejaVuSans-74" d="M 1172 4494 
L 1172 3500 
L 2356 3500 
L 2356 3053 
L 1172 3053 
L 1172 1153 
Q 1172 725 1289 603 
Q 1406 481 1766 481 
L 2356 481 
L 2356 0 
L 1766 0 
Q 1100 0 847 248 
Q 594 497 594 1153 
L 594 3053 
L 172 3053 
L 172 3500 
L 594 3500 
L 594 4494 
L 1172 4494 
z
" transform="scale(0.015625)"/>
      <path id="DejaVuSans-72" d="M 2631 2963 
Q 2534 3019 2420 3045 
Q 2306 3072 2169 3072 
Q 1681 3072 1420 2755 
Q 1159 2438 1159 1844 
L 1159 0 
L 581 0 
L 581 3500 
L 1159 3500 
L 1159 2956 
Q 1341 3275 1631 3429 
Q 1922 3584 2338 3584 
Q 2397 3584 2469 3576 
Q 2541 3569 2628 3553 
L 2631 2963 
z
" transform="scale(0.015625)"/>
      <path id="DejaVuSans-70" d="M 1159 525 
L 1159 -1331 
L 581 -1331 
L 581 3500 
L 1159 3500 
L 1159 2969 
Q 1341 3281 1617 3432 
Q 1894 3584 2278 3584 
Q 2916 3584 3314 3078 
Q 3713 2572 3713 1747 
Q 3713 922 3314 415 
Q 2916 -91 2278 -91 
Q 1894 -91 1617 61 
Q 1341 213 1159 525 
z
M 3116 1747 
Q 3116 2381 2855 2742 
Q 2594 3103 2138 3103 
Q 1681 3103 1420 2742 
Q 1159 2381 1159 1747 
Q 1159 1113 1420 752 
Q 1681 391 2138 391 
Q 2594 391 2855 752 
Q 3116 1113 3116 1747 
z
" transform="scale(0.015625)"/>
      <path id="DejaVuSans-79" d="M 2059 -325 
Q 1816 -950 1584 -1140 
Q 1353 -1331 966 -1331 
L 506 -1331 
L 506 -850 
L 844 -850 
Q 1081 -850 1212 -737 
Q 1344 -625 1503 -206 
L 1606 56 
L 191 3500 
L 800 3500 
L 1894 763 
L 2988 3500 
L 3597 3500 
L 2059 -325 
z
" transform="scale(0.015625)"/>
      <path id="DejaVuSans-66" d="M 2375 4863 
L 2375 4384 
L 1825 4384 
Q 1516 4384 1395 4259 
Q 1275 4134 1275 3809 
L 1275 3500 
L 2222 3500 
L 2222 3053 
L 1275 3053 
L 1275 0 
L 697 0 
L 697 3053 
L 147 3053 
L 147 3500 
L 697 3500 
L 697 3744 
Q 697 4328 969 4595 
Q 1241 4863 1831 4863 
L 2375 4863 
z
" transform="scale(0.015625)"/>
      <path id="Cmmi10-c1" d="M 1241 -1247 
L 1528 -91 
Q 1203 -91 922 61 
Q 641 213 470 484 
Q 300 756 300 1075 
Q 300 1422 472 1737 
Q 644 2053 942 2311 
Q 1241 2569 1584 2708 
Q 1928 2847 2266 2847 
L 2650 4403 
Q 2663 4441 2700 4441 
L 2778 4441 
Q 2803 4441 2818 4419 
Q 2834 4397 2834 4378 
L 2450 2847 
Q 2691 2847 2916 2759 
Q 3141 2672 3314 2514 
Q 3488 2356 3584 2142 
Q 3681 1928 3681 1684 
Q 3681 1338 3509 1022 
Q 3338 706 3047 453 
Q 2756 200 2398 54 
Q 2041 -91 1716 -91 
L 1422 -1275 
Q 1409 -1313 1369 -1313 
L 1294 -1313 
Q 1269 -1313 1255 -1289 
Q 1241 -1266 1241 -1247 
z
M 1569 78 
L 2222 2681 
Q 2059 2681 1881 2615 
Q 1703 2550 1545 2450 
Q 1388 2350 1259 2222 
Q 1103 2066 984 1853 
Q 866 1641 805 1405 
Q 744 1169 744 941 
Q 744 700 847 503 
Q 950 306 1137 192 
Q 1325 78 1569 78 
z
M 1759 78 
Q 2000 78 2272 215 
Q 2544 353 2719 538 
Q 2959 775 3098 1120 
Q 3238 1466 3238 1819 
Q 3238 2056 3134 2254 
Q 3031 2453 2843 2567 
Q 2656 2681 2413 2681 
L 1759 78 
z
" transform="scale(0.015625)"/>
      <path id="Cmr10-32" d="M 319 0 
L 319 172 
Q 319 188 331 206 
L 1325 1306 
Q 1550 1550 1690 1715 
Q 1831 1881 1968 2097 
Q 2106 2313 2186 2536 
Q 2266 2759 2266 3009 
Q 2266 3272 2169 3511 
Q 2072 3750 1880 3894 
Q 1688 4038 1416 4038 
Q 1138 4038 916 3870 
Q 694 3703 603 3438 
Q 628 3444 672 3444 
Q 816 3444 917 3347 
Q 1019 3250 1019 3097 
Q 1019 2950 917 2848 
Q 816 2747 672 2747 
Q 522 2747 420 2851 
Q 319 2956 319 3097 
Q 319 3338 409 3548 
Q 500 3759 670 3923 
Q 841 4088 1055 4175 
Q 1269 4263 1509 4263 
Q 1875 4263 2190 4108 
Q 2506 3953 2690 3670 
Q 2875 3388 2875 3009 
Q 2875 2731 2753 2481 
Q 2631 2231 2440 2026 
Q 2250 1822 1953 1562 
Q 1656 1303 1563 1216 
L 838 519 
L 1453 519 
Q 1906 519 2211 526 
Q 2516 534 2534 550 
Q 2609 631 2688 1141 
L 2875 1141 
L 2694 0 
L 319 0 
z
" transform="scale(0.015625)"/>
      <path id="Cmr10-28" d="M 1984 -1588 
Q 1628 -1306 1370 -942 
Q 1113 -578 948 -165 
Q 784 247 703 697 
Q 622 1147 622 1600 
Q 622 2059 703 2509 
Q 784 2959 951 3375 
Q 1119 3791 1378 4153 
Q 1638 4516 1984 4788 
Q 1984 4800 2016 4800 
L 2075 4800 
Q 2094 4800 2109 4783 
Q 2125 4766 2125 4744 
Q 2125 4716 2113 4703 
Q 1800 4397 1592 4047 
Q 1384 3697 1257 3301 
Q 1131 2906 1075 2482 
Q 1019 2059 1019 1600 
Q 1019 -434 2106 -1491 
Q 2125 -1509 2125 -1544 
Q 2125 -1559 2108 -1579 
Q 2091 -1600 2075 -1600 
L 2016 -1600 
Q 1984 -1600 1984 -1588 
z
" transform="scale(0.015625)"/>
      <path id="STIXGeneral-BoldItalic-6e" d="M 3021 864 
L 3162 781 
Q 2899 320 2665 131 
Q 2432 -58 2138 -58 
Q 1702 -58 1702 326 
Q 1702 627 1869 1126 
L 2221 2182 
Q 2266 2330 2266 2362 
Q 2266 2496 2106 2496 
Q 2022 2496 1894 2390 
Q 1766 2285 1664 2150 
Q 1363 1754 1158 1286 
Q 954 819 736 0 
L -38 0 
L 326 1306 
Q 614 2355 614 2451 
Q 614 2541 540 2569 
Q 467 2598 262 2605 
L 262 2778 
Q 838 2797 1536 2950 
L 1139 1683 
L 1146 1683 
Q 1472 2163 1613 2345 
Q 1754 2528 1926 2694 
Q 2202 2957 2566 2957 
Q 3034 2957 3034 2464 
Q 3034 2246 2854 1722 
L 2630 1056 
Q 2477 602 2477 486 
Q 2477 378 2566 378 
Q 2650 378 2739 474 
Q 2829 570 3021 864 
z
" transform="scale(0.015625)"/>
      <path id="Cmr10-29" d="M 416 -1600 
Q 359 -1600 359 -1544 
Q 359 -1516 372 -1503 
Q 1466 -434 1466 1600 
Q 1466 3634 384 4691 
Q 359 4706 359 4744 
Q 359 4766 376 4783 
Q 394 4800 416 4800 
L 475 4800 
Q 494 4800 506 4788 
Q 966 4425 1272 3906 
Q 1578 3388 1720 2800 
Q 1863 2213 1863 1600 
Q 1863 1147 1786 708 
Q 1709 269 1542 -157 
Q 1375 -584 1119 -945 
Q 863 -1306 506 -1588 
Q 494 -1600 475 -1600 
L 416 -1600 
z
" transform="scale(0.015625)"/>
     </defs>
     <use xlink:href="#DejaVuSans-4d" transform="translate(0 0.015625)"/>
     <use xlink:href="#DejaVuSans-65" transform="translate(86.279297 0.015625)"/>
     <use xlink:href="#DejaVuSans-73" transform="translate(147.802734 0.015625)"/>
     <use xlink:href="#DejaVuSans-68" transform="translate(199.902344 0.015625)"/>
     <use xlink:href="#DejaVuSans-2d" transform="translate(263.28125 0.015625)"/>
     <use xlink:href="#DejaVuSans-69" transform="translate(299.365234 0.015625)"/>
     <use xlink:href="#DejaVuSans-6e" transform="translate(327.148438 0.015625)"/>
     <use xlink:href="#DejaVuSans-64" transform="translate(390.527344 0.015625)"/>
     <use xlink:href="#DejaVuSans-75" transform="translate(454.003906 0.015625)"/>
     <use xlink:href="#DejaVuSans-63" transform="translate(517.382812 0.015625)"/>
     <use xlink:href="#DejaVuSans-65" transform="translate(572.363281 0.015625)"/>
     <use xlink:href="#DejaVuSans-64" transform="translate(633.886719 0.015625)"/>
     <use xlink:href="#DejaVuSans-20" transform="translate(697.363281 0.015625)"/>
     <use xlink:href="#DejaVuSans-61" transform="translate(729.150391 0.015625)"/>
     <use xlink:href="#DejaVuSans-6e" transform="translate(790.429688 0.015625)"/>
     <use xlink:href="#DejaVuSans-69" transform="translate(853.808594 0.015625)"/>
     <use xlink:href="#DejaVuSans-73" transform="translate(881.591797 0.015625)"/>
     <use xlink:href="#DejaVuSans-6f" transform="translate(933.691406 0.015625)"/>
     <use xlink:href="#DejaVuSans-74" transform="translate(994.873047 0.015625)"/>
     <use xlink:href="#DejaVuSans-72" transform="translate(1034.082031 0.015625)"/>
     <use xlink:href="#DejaVuSans-6f" transform="translate(1075.195312 0.015625)"/>
     <use xlink:href="#DejaVuSans-70" transform="translate(1136.376953 0.015625)"/>
     <use xlink:href="#DejaVuSans-79" transform="translate(1199.853516 0.015625)"/>
     <use xlink:href="#DejaVuSans-20" transform="translate(1259.033203 0.015625)"/>
     <use xlink:href="#DejaVuSans-66" transform="translate(1290.820312 0.015625)"/>
     <use xlink:href="#DejaVuSans-75" transform="translate(1326.025391 0.015625)"/>
     <use xlink:href="#DejaVuSans-6e" transform="translate(1389.404297 0.015625)"/>
     <use xlink:href="#DejaVuSans-63" transform="translate(1452.783203 0.015625)"/>
     <use xlink:href="#DejaVuSans-74" transform="translate(1507.763672 0.015625)"/>
     <use xlink:href="#DejaVuSans-69" transform="translate(1546.972656 0.015625)"/>
     <use xlink:href="#DejaVuSans-6f" transform="translate(1574.755859 0.015625)"/>
     <use xlink:href="#DejaVuSans-6e" transform="translate(1635.9375 0.015625)"/>
     <use xlink:href="#DejaVuSans-20" transform="translate(1699.316406 0.015625)"/>
     <use xlink:href="#Cmmi10-c1" transform="translate(1731.103516 0.015625)"/>
     <use xlink:href="#Cmr10-32" transform="translate(1790.625 -16.990625) scale(0.7)"/>
     <use xlink:href="#Cmr10-28" transform="translate(1832.002344 0.015625)"/>
     <use xlink:href="#STIXGeneral-BoldItalic-6e" transform="translate(1870.820703 0.015625)"/>
     <use xlink:href="#Cmr10-29" transform="translate(1926.420694 0.015625)"/>
    </g>
   </g>
  </g>
 </g>
 <defs>
  <clipPath id="pad7e2d2c8e">
   <rect x="13.432678" y="20.8" width="308.063652" height="308.07268"/>
  </clipPath>
 </defs>
</svg>
