<?xml version="1.0" encoding="UTF-8" standalone="no"?>
<svg
   width="503.2796"
   height="432.53"
   viewBox="0 0 503.2796 432.53"
   version="1.1"
   id="svg80"
   sodipodi:docname="sent_f_u_3.svg"
   inkscape:version="1.3.2 (091e20ef0f, 2023-11-25)"
   xmlns:inkscape="http://www.inkscape.org/namespaces/inkscape"
   xmlns:sodipodi="http://sodipodi.sourceforge.net/DTD/sodipodi-0.dtd"
   xmlns:xlink="http://www.w3.org/1999/xlink"
   xmlns="http://www.w3.org/2000/svg"
   xmlns:svg="http://www.w3.org/2000/svg">
  <defs
     id="defs80" />
  <sodipodi:namedview
     id="namedview80"
     pagecolor="#ffffff"
     bordercolor="#000000"
     borderopacity="0.25"
     inkscape:showpageshadow="2"
     inkscape:pageopacity="0.0"
     inkscape:pagecheckerboard="0"
     inkscape:deskcolor="#d1d1d1"
     inkscape:zoom="0.39333333"
     inkscape:cx="225"
     inkscape:cy="207.20339"
     inkscape:window-width="1916"
     inkscape:window-height="1021"
     inkscape:window-x="0"
     inkscape:window-y="0"
     inkscape:window-maximized="0"
     inkscape:current-layer="gnuplot_canvas" />
  <title
     id="title1">Gnuplot</title>
  <desc
     id="desc1">Produced by GNUPLOT 5.4 patchlevel 9 </desc>
  <g
     id="gnuplot_canvas"
     inkscape:groupmode="layer"
     transform="translate(-73.926,-32.91)">
    <defs
       id="defs2">
      <circle
         id="gpDot"
         r="0.5"
         stroke-width="0.5"
         stroke="currentColor"
         cx="0"
         cy="0" />
      <path
         id="gpPt0"
         stroke-width="0.095"
         stroke="currentColor"
         d="M -1,0 H 1 M 0,-1 v 2" />
      <path
         id="gpPt1"
         stroke-width="0.095"
         stroke="currentColor"
         d="M -1,-1 1,1 M 1,-1 -1,1" />
      <path
         id="gpPt2"
         stroke-width="0.095"
         stroke="currentColor"
         d="M -1,0 H 1 M 0,-1 v 2 m -1,-2 2,2 m -2,0 2,-2" />
      <rect
         id="gpPt3"
         stroke-width="0.095"
         stroke="currentColor"
         x="-1"
         y="-1"
         width="2"
         height="2" />
      <rect
         id="gpPt4"
         stroke-width="0.095"
         stroke="currentColor"
         fill="currentColor"
         x="-1"
         y="-1"
         width="2"
         height="2" />
      <circle
         id="gpPt5"
         stroke-width="0.095"
         stroke="currentColor"
         cx="0"
         cy="0"
         r="1" />
      <use
         xlink:href="#gpPt5"
         id="gpPt6"
         fill="currentColor"
         stroke="none" />
      <path
         id="gpPt7"
         stroke-width="0.095"
         stroke="currentColor"
         d="m 0,-1.33 -1.33,2 h 2.66 z" />
      <use
         xlink:href="#gpPt7"
         id="gpPt8"
         fill="currentColor"
         stroke="none" />
      <use
         xlink:href="#gpPt7"
         id="gpPt9"
         stroke="currentColor"
         transform="scale(-1)" />
      <use
         xlink:href="#gpPt9"
         id="gpPt10"
         fill="currentColor"
         stroke="none" />
      <use
         xlink:href="#gpPt3"
         id="gpPt11"
         stroke="currentColor"
         transform="rotate(45)" />
      <use
         xlink:href="#gpPt11"
         id="gpPt12"
         fill="currentColor"
         stroke="none" />
      <path
         id="gpPt13"
         stroke-width="0.095"
         stroke="currentColor"
         d="M 0,1.33 1.265,0.411 0.782,-1.067 -0.782,-1.076 -1.265,0.411 Z" />
      <use
         xlink:href="#gpPt13"
         id="gpPt14"
         fill="currentColor"
         stroke="none" />
      <filter
         id="textbox"
         filterUnits="objectBoundingBox"
         x="0"
         y="0"
         height="1"
         width="1">
        <feFlood
           flood-color="white"
           flood-opacity="1"
           result="bgnd"
           id="feFlood1" />
        <feComposite
           in="SourceGraphic"
           in2="bgnd"
           operator="atop"
           id="feComposite1" />
      </filter>
      <filter
         id="greybox"
         filterUnits="objectBoundingBox"
         x="0"
         y="0"
         height="1"
         width="1">
        <feFlood
           flood-color="lightgrey"
           flood-opacity="1"
           result="grey"
           id="feFlood2" />
        <feComposite
           in="SourceGraphic"
           in2="grey"
           operator="atop"
           id="feComposite2" />
      </filter>
    </defs>
    <rect
       style="fill:#ffffff;stroke-width:3.77953"
       id="rect80"
       width="503.2796"
       height="432.53"
       x="73.926003"
       y="32.91" />
    <g
       fill="none"
       color="#ffffff"
       stroke="#003162"
       stroke-width="1"
       stroke-linecap="butt"
       stroke-linejoin="miter"
       id="g2" />
    <g
       fill="none"
       color="#000000"
       stroke="currentColor"
       stroke-width="1"
       stroke-linecap="butt"
       stroke-linejoin="miter"
       id="g3" />
    <g
       fill="none"
       color="#000000"
       stroke="#003162"
       stroke-width="0.5"
       stroke-linecap="butt"
       stroke-linejoin="miter"
       id="g4" />
    <g
       fill="none"
       color="#808080"
       stroke="currentColor"
       stroke-width="0.5"
       stroke-linecap="butt"
       stroke-linejoin="miter"
       id="g5">
      <path
         stroke="#003162"
         stroke-dasharray="2, 4"
         class="gridline"
         d="M 169.33,370.8 H 541.22"
         id="path4" />
    </g>
    <g
       fill="none"
       color="#808080"
       stroke="#003162"
       stroke-width="1"
       stroke-linecap="butt"
       stroke-linejoin="miter"
       id="g6" />
    <g
       fill="none"
       color="#000000"
       stroke="currentColor"
       stroke-width="1"
       stroke-linecap="butt"
       stroke-linejoin="miter"
       id="g8">
      <path
         stroke="#003162"
         d="m 169.33,370.8 h 21 m 350.89,0 h -21"
         id="path6" />
      <g
         transform="translate(149.74,379.9)"
         stroke="none"
         fill="#003162"
         font-family="'Source Sans 3'"
         font-size="28px"
         text-anchor="end"
         id="g7">
        <text
           id="text6"><tspan
             font-family="'Source Sans 3'"
             id="tspan6">0</tspan></text>
      </g>
    </g>
    <g
       fill="none"
       color="#000000"
       stroke="currentColor"
       stroke-width="1"
       stroke-linecap="butt"
       stroke-linejoin="miter"
       id="g9" />
    <g
       fill="none"
       color="#000000"
       stroke="#003162"
       stroke-width="0.5"
       stroke-linecap="butt"
       stroke-linejoin="miter"
       id="g10" />
    <g
       fill="none"
       color="#808080"
       stroke="currentColor"
       stroke-width="0.5"
       stroke-linecap="butt"
       stroke-linejoin="miter"
       id="g11">
      <path
         stroke="#003162"
         stroke-dasharray="2, 4"
         class="gridline"
         d="M 169.33,288.6 H 541.22"
         id="path10" />
    </g>
    <g
       fill="none"
       color="#808080"
       stroke="#003162"
       stroke-width="1"
       stroke-linecap="butt"
       stroke-linejoin="miter"
       id="g12" />
    <g
       fill="none"
       color="#000000"
       stroke="currentColor"
       stroke-width="1"
       stroke-linecap="butt"
       stroke-linejoin="miter"
       id="g14">
      <path
         stroke="#003162"
         d="m 169.33,288.6 h 21 m 350.89,0 h -21"
         id="path12" />
      <g
         transform="translate(149.74,297.7)"
         stroke="none"
         fill="#003162"
         font-family="'Source Sans 3'"
         font-size="28px"
         text-anchor="end"
         id="g13">
        <text
           id="text12"><tspan
             font-family="'Source Sans 3'"
             id="tspan12">200</tspan></text>
      </g>
    </g>
    <g
       fill="none"
       color="#000000"
       stroke="currentColor"
       stroke-width="1"
       stroke-linecap="butt"
       stroke-linejoin="miter"
       id="g15" />
    <g
       fill="none"
       color="#000000"
       stroke="#003162"
       stroke-width="0.5"
       stroke-linecap="butt"
       stroke-linejoin="miter"
       id="g16" />
    <g
       fill="none"
       color="#808080"
       stroke="currentColor"
       stroke-width="0.5"
       stroke-linecap="butt"
       stroke-linejoin="miter"
       id="g17">
      <path
         stroke="#003162"
         stroke-dasharray="2, 4"
         class="gridline"
         d="M 169.33,206.4 H 541.22"
         id="path16" />
    </g>
    <g
       fill="none"
       color="#808080"
       stroke="#003162"
       stroke-width="1"
       stroke-linecap="butt"
       stroke-linejoin="miter"
       id="g18" />
    <g
       fill="none"
       color="#000000"
       stroke="currentColor"
       stroke-width="1"
       stroke-linecap="butt"
       stroke-linejoin="miter"
       id="g20">
      <path
         stroke="#003162"
         d="m 169.33,206.4 h 21 m 350.89,0 h -21"
         id="path18" />
      <g
         transform="translate(149.74,215.5)"
         stroke="none"
         fill="#003162"
         font-family="'Source Sans 3'"
         font-size="28px"
         text-anchor="end"
         id="g19">
        <text
           id="text18"><tspan
             font-family="'Source Sans 3'"
             id="tspan18">400</tspan></text>
      </g>
    </g>
    <g
       fill="none"
       color="#000000"
       stroke="currentColor"
       stroke-width="1"
       stroke-linecap="butt"
       stroke-linejoin="miter"
       id="g21" />
    <g
       fill="none"
       color="#000000"
       stroke="#003162"
       stroke-width="0.5"
       stroke-linecap="butt"
       stroke-linejoin="miter"
       id="g22" />
    <g
       fill="none"
       color="#808080"
       stroke="currentColor"
       stroke-width="0.5"
       stroke-linecap="butt"
       stroke-linejoin="miter"
       id="g23">
      <path
         stroke="#003162"
         stroke-dasharray="2, 4"
         class="gridline"
         d="m 169.33,124.21 h 19.59 m 158.13,0 h 194.17"
         id="path22" />
    </g>
    <g
       fill="none"
       color="#808080"
       stroke="#003162"
       stroke-width="1"
       stroke-linecap="butt"
       stroke-linejoin="miter"
       id="g24" />
    <g
       fill="none"
       color="#000000"
       stroke="currentColor"
       stroke-width="1"
       stroke-linecap="butt"
       stroke-linejoin="miter"
       id="g26">
      <path
         stroke="#003162"
         d="m 169.33,124.21 h 21 m 350.89,0 h -21"
         id="path24" />
      <g
         transform="translate(149.74,133.31)"
         stroke="none"
         fill="#003162"
         font-family="'Source Sans 3'"
         font-size="28px"
         text-anchor="end"
         id="g25">
        <text
           id="text24"><tspan
             font-family="'Source Sans 3'"
             id="tspan24">600</tspan></text>
      </g>
    </g>
    <g
       fill="none"
       color="#000000"
       stroke="currentColor"
       stroke-width="1"
       stroke-linecap="butt"
       stroke-linejoin="miter"
       id="g27" />
    <g
       fill="none"
       color="#000000"
       stroke="#003162"
       stroke-width="0.5"
       stroke-linecap="butt"
       stroke-linejoin="miter"
       id="g28" />
    <g
       fill="none"
       color="#808080"
       stroke="currentColor"
       stroke-width="0.5"
       stroke-linecap="butt"
       stroke-linejoin="miter"
       id="g29">
      <path
         stroke="#003162"
         stroke-dasharray="2, 4"
         class="gridline"
         d="M 169.33,42.01 H 541.22"
         id="path28" />
    </g>
    <g
       fill="none"
       color="#808080"
       stroke="#003162"
       stroke-width="1"
       stroke-linecap="butt"
       stroke-linejoin="miter"
       id="g30" />
    <g
       fill="none"
       color="#000000"
       stroke="currentColor"
       stroke-width="1"
       stroke-linecap="butt"
       stroke-linejoin="miter"
       id="g32">
      <path
         stroke="#003162"
         d="m 169.33,42.01 h 21 m 350.89,0 h -21"
         id="path30" />
      <g
         transform="translate(149.74,51.11)"
         stroke="none"
         fill="#003162"
         font-family="'Source Sans 3'"
         font-size="28px"
         text-anchor="end"
         id="g31">
        <text
           id="text30"><tspan
             font-family="'Source Sans 3'"
             id="tspan30">800</tspan></text>
      </g>
    </g>
    <g
       fill="none"
       color="#000000"
       stroke="currentColor"
       stroke-width="1"
       stroke-linecap="butt"
       stroke-linejoin="miter"
       id="g33" />
    <g
       fill="none"
       color="#000000"
       stroke="#003162"
       stroke-width="0.5"
       stroke-linecap="butt"
       stroke-linejoin="miter"
       id="g34" />
    <g
       fill="none"
       color="#808080"
       stroke="currentColor"
       stroke-width="0.5"
       stroke-linecap="butt"
       stroke-linejoin="miter"
       id="g35">
      <path
         stroke="#003162"
         stroke-dasharray="2, 4"
         class="gridline"
         d="M 169.33,370.8 V 42.01"
         id="path34" />
    </g>
    <g
       fill="none"
       color="#808080"
       stroke="#003162"
       stroke-width="1"
       stroke-linecap="butt"
       stroke-linejoin="miter"
       id="g36" />
    <g
       fill="none"
       color="#000000"
       stroke="currentColor"
       stroke-width="1"
       stroke-linecap="butt"
       stroke-linejoin="miter"
       id="g38">
      <path
         stroke="#003162"
         d="m 169.33,370.8 v -21 m 0,-307.79 v 21"
         id="path36" />
      <g
         transform="translate(169.33,421.9)"
         stroke="none"
         fill="#003162"
         font-family="'Source Sans 3'"
         font-size="28px"
         text-anchor="middle"
         id="g37">
        <text
           id="text36"><tspan
             font-family="'Source Sans 3'"
             id="tspan36">0</tspan></text>
      </g>
    </g>
    <g
       fill="none"
       color="#000000"
       stroke="currentColor"
       stroke-width="1"
       stroke-linecap="butt"
       stroke-linejoin="miter"
       id="g39" />
    <g
       fill="none"
       color="#000000"
       stroke="#003162"
       stroke-width="0.5"
       stroke-linecap="butt"
       stroke-linejoin="miter"
       id="g40" />
    <g
       fill="none"
       color="#808080"
       stroke="currentColor"
       stroke-width="0.5"
       stroke-linecap="butt"
       stroke-linejoin="miter"
       id="g41">
      <path
         stroke="#003162"
         stroke-dasharray="2, 4"
         class="gridline"
         d="M 293.29,370.8 V 189.01 m 0,-126 v -21"
         id="path40" />
    </g>
    <g
       fill="none"
       color="#808080"
       stroke="#003162"
       stroke-width="1"
       stroke-linecap="butt"
       stroke-linejoin="miter"
       id="g42" />
    <g
       fill="none"
       color="#000000"
       stroke="currentColor"
       stroke-width="1"
       stroke-linecap="butt"
       stroke-linejoin="miter"
       id="g45">
      <path
         stroke="#003162"
         d="m 293.29,370.8 v -21 m 0,-307.79 v 21"
         id="path42" />
      <g
         transform="translate(293.29,421.9)"
         stroke="none"
         fill="#003162"
         font-family="'Source Sans 3'"
         font-size="28px"
         text-anchor="middle"
         id="g44">
        <text
           id="text44"><tspan
             font-family="'Source Sans 3'"
             id="tspan42">2×10</tspan><tspan
             font-family="'Source Sans 3'"
             font-size="22.4px"
             dy="-14"
             id="tspan43">-6</tspan><tspan
             font-size="28px"
             dy="14"
             id="tspan44" /></text>
      </g>
    </g>
    <g
       fill="none"
       color="#000000"
       stroke="currentColor"
       stroke-width="1"
       stroke-linecap="butt"
       stroke-linejoin="miter"
       id="g46" />
    <g
       fill="none"
       color="#000000"
       stroke="#003162"
       stroke-width="0.5"
       stroke-linecap="butt"
       stroke-linejoin="miter"
       id="g47" />
    <g
       fill="none"
       color="#808080"
       stroke="currentColor"
       stroke-width="0.5"
       stroke-linecap="butt"
       stroke-linejoin="miter"
       id="g48">
      <path
         stroke="#003162"
         stroke-dasharray="2, 4"
         class="gridline"
         d="M 417.26,370.8 V 42.01"
         id="path47" />
    </g>
    <g
       fill="none"
       color="#808080"
       stroke="#003162"
       stroke-width="1"
       stroke-linecap="butt"
       stroke-linejoin="miter"
       id="g49" />
    <g
       fill="none"
       color="#000000"
       stroke="currentColor"
       stroke-width="1"
       stroke-linecap="butt"
       stroke-linejoin="miter"
       id="g52">
      <path
         stroke="#003162"
         d="m 417.26,370.8 v -21 m 0,-307.79 v 21"
         id="path49" />
      <g
         transform="translate(417.26,421.9)"
         stroke="none"
         fill="#003162"
         font-family="'Source Sans 3'"
         font-size="28px"
         text-anchor="middle"
         id="g51">
        <text
           id="text51"><tspan
             font-family="'Source Sans 3'"
             id="tspan49">4×10</tspan><tspan
             font-family="'Source Sans 3'"
             font-size="22.4px"
             dy="-14"
             id="tspan50">-6</tspan><tspan
             font-size="28px"
             dy="14"
             id="tspan51" /></text>
      </g>
    </g>
    <g
       fill="none"
       color="#000000"
       stroke="currentColor"
       stroke-width="1"
       stroke-linecap="butt"
       stroke-linejoin="miter"
       id="g53" />
    <g
       fill="none"
       color="#000000"
       stroke="#003162"
       stroke-width="0.5"
       stroke-linecap="butt"
       stroke-linejoin="miter"
       id="g54" />
    <g
       fill="none"
       color="#808080"
       stroke="currentColor"
       stroke-width="0.5"
       stroke-linecap="butt"
       stroke-linejoin="miter"
       id="g55">
      <path
         stroke="#003162"
         stroke-dasharray="2, 4"
         class="gridline"
         d="M 541.22,370.8 V 42.01"
         id="path54" />
    </g>
    <g
       fill="none"
       color="#808080"
       stroke="#003162"
       stroke-width="1"
       stroke-linecap="butt"
       stroke-linejoin="miter"
       id="g56" />
    <g
       fill="none"
       color="#000000"
       stroke="currentColor"
       stroke-width="1"
       stroke-linecap="butt"
       stroke-linejoin="miter"
       id="g59">
      <path
         stroke="#003162"
         d="m 541.22,370.8 v -21 m 0,-307.79 v 21"
         id="path56" />
      <g
         transform="translate(541.22,421.9)"
         stroke="none"
         fill="#003162"
         font-family="'Source Sans 3'"
         font-size="28px"
         text-anchor="middle"
         id="g58">
        <text
           id="text58"><tspan
             font-family="'Source Sans 3'"
             id="tspan56">6×10</tspan><tspan
             font-family="'Source Sans 3'"
             font-size="22.4px"
             dy="-14"
             id="tspan57">-6</tspan><tspan
             font-size="28px"
             dy="14"
             id="tspan58" /></text>
      </g>
    </g>
    <g
       fill="none"
       color="#000000"
       stroke="currentColor"
       stroke-width="1"
       stroke-linecap="butt"
       stroke-linejoin="miter"
       id="g60" />
    <g
       fill="none"
       color="#000000"
       stroke="currentColor"
       stroke-width="1"
       stroke-linecap="butt"
       stroke-linejoin="miter"
       id="g61">
      <path
         stroke="#003162"
         d="M 169.33,42.01 V 370.8 h 371.89 m 0,-328.79 m -371.89,0"
         id="path60" />
    </g>
    <g
       fill="none"
       color="#000000"
       stroke="currentColor"
       stroke-width="1"
       stroke-linecap="butt"
       stroke-linejoin="miter"
       id="g63">
      <g
         transform="rotate(-90,150.08,56.33)"
         stroke="none"
         fill="#003162"
         font-family="'Source Sans 3'"
         font-size="28px"
         text-anchor="middle"
         id="g62">
        <text
           id="text61"><tspan
             font-family="'Source Sans 3'"
             id="tspan61">Force [N]</tspan></text>
      </g>
    </g>
    <g
       fill="none"
       color="#000000"
       stroke="currentColor"
       stroke-width="1"
       stroke-linecap="butt"
       stroke-linejoin="miter"
       id="g65">
      <g
         transform="translate(355.27,459.7)"
         stroke="none"
         fill="#003162"
         font-family="'Source Sans 3'"
         font-size="28px"
         text-anchor="middle"
         id="g64">
        <text
           id="text63"><tspan
             font-family="'Source Sans 3'"
             id="tspan63">Displacement [m]</tspan></text>
      </g>
    </g>
    <g
       fill="none"
       color="#000000"
       stroke="currentColor"
       stroke-width="1"
       stroke-linecap="butt"
       stroke-linejoin="miter"
       id="g66" />
    <g
       id="gnuplot_plot_1">
      <title
         id="title66">LEFM</title>
      <g
         fill="none"
         color="#ffffff"
         stroke="currentColor"
         stroke-width="2"
         stroke-linecap="butt"
         stroke-linejoin="miter"
         id="g67" />
      <g
         fill="none"
         color="#000000"
         stroke="currentColor"
         stroke-width="2"
         stroke-linecap="butt"
         stroke-linejoin="miter"
         id="g69">
        <g
           transform="translate(267.28,93.11)"
           stroke="none"
           fill="#003162"
           font-family="'Source Sans 3'"
           font-size="28px"
           text-anchor="end"
           id="g68">
          <text
             id="text67"><tspan
               font-family="'Source Sans 3'"
               id="tspan67">LEFM</tspan></text>
        </g>
      </g>
      <g
         fill="none"
         color="#000000"
         stroke="currentColor"
         stroke-width="2"
         stroke-linecap="butt"
         stroke-linejoin="miter"
         id="g70">
        <path
           stroke="#003162"
           d="m 286.87,84.01 h 40.59 M 169.33,370.8 441.64,72.73 l -0.16,7.29 -0.2,7.3 -0.23,7.38 -0.25,7.31 -0.28,7.14 -0.3,7.74 -0.31,7.48 -0.33,7.45 -0.34,7.29 -0.35,7.53 -0.35,7.62 -0.35,7.33 -0.34,7.53 -0.32,7.38 -0.31,7.47 -0.29,7.4 -0.26,7.37 -0.22,7.47 -0.19,7.38 -0.15,7.13 -0.11,7.46 -0.07,7.33 -0.05,7.23 -0.05,7.36 -0.07,7.32 -0.14,7.39 -0.3,7.42 -0.57,7.53 -1.03,7.63 -1.79,7.94 -3.02,8.3 -5.18,8.77 -4.6,5.51 -5.29,4.9 -5.89,4.35 -6.41,3.92 -6.87,3.58 -7.18,3.17 -7.46,2.93 -7.7,2.61 -7.84,2.38 -7.72,2.18 -7.99,1.97 -7.88,1.8 -7.86,1.64 -7.75,1.5 -7.38,1.34 -7.38,1.26 -7.36,1.16 -7.07,1.03 -6.61,0.95 -6.61,0.86 -6.2,0.8 -6.06,0.73 -5.71,0.65 -5.69,0.63 -5.37,0.56 -4.86,0.5 -4.99,0.48 -4.48,0.42 -4.3,0.39 -4.11,0.35 -3.95,0.34"
           id="path69" />
      </g>
    </g>
    <g
       id="gnuplot_plot_2">
      <title
         id="title70">DISP</title>
      <g
         fill="none"
         color="#000000"
         stroke="currentColor"
         stroke-width="2"
         stroke-linecap="butt"
         stroke-linejoin="miter"
         id="g72">
        <g
           transform="translate(267.28,135.11)"
           stroke="none"
           fill="#003162"
           font-family="'Source Sans 3'"
           font-size="28px"
           text-anchor="end"
           id="g71">
          <text
             id="text70"><tspan
               font-family="'Source Sans 3'"
               id="tspan70">DISP</tspan></text>
        </g>
      </g>
      <g
         fill="none"
         color="#000000"
         stroke="currentColor"
         stroke-width="2"
         stroke-linecap="butt"
         stroke-linejoin="miter"
         id="g73">
        <path
           stroke="#40d2a7"
           d="m 286.87,126.01 h 40.59 m -158.13,244.79 3.72,-4.03 3.72,-4.03 3.72,-4.03 3.72,-4.04 3.71,-4.03 3.72,-4.03 3.72,-4.03 3.72,-4.03 3.72,-4.03 3.72,-4.03 3.72,-4.03 3.72,-4.03 3.72,-4.03 3.71,-4.03 3.72,-4.03 3.72,-4.03 3.72,-4.03 3.72,-4.03 3.72,-4.03 3.72,-4.03 3.72,-4.03 3.72,-4.03 3.71,-4.03 3.72,-4.02 3.72,-4.03 3.72,-4.03 3.72,-4.02 3.72,-4.03 3.72,-4.03 3.72,-4.02 3.72,-4.03 3.71,-4.02 3.72,-4.02 3.72,-4.03 3.72,-4.02 3.72,-4.02 3.72,-4.02 3.72,-4.02 3.72,-4.02 3.72,-4.02 3.71,-4.02 3.72,-4.02 3.72,-4.02 3.72,-4.01 3.72,-4.02 3.72,-4.01 3.72,-4.01 3.72,-4.01 3.72,-4.01 3.72,-4.01 3.71,-4.01 3.72,-4 3.72,-4.01 3.72,-4 3.72,-4 3.72,-3.99 3.72,-4 3.72,-3.99 3.72,-3.99 3.71,-3.99 3.72,-3.98 3.72,-3.98 3.72,-3.97 3.72,-3.97 3.72,-3.97 3.72,-3.96 3.72,-3.95 3.72,-3.94 3.71,-3.94 3.72,-3.92 3.72,-3.91 3.72,-3.89 3.72,-3.87 3.72,-3.84 3.72,-3.8 3.72,-3.72 3.72,303.61"
           id="path72" />
      </g>
    </g>
    <g
       id="gnuplot_plot_3">
      <title
         id="title73">CMSI</title>
      <g
         fill="none"
         color="#000000"
         stroke="currentColor"
         stroke-width="2"
         stroke-linecap="butt"
         stroke-linejoin="miter"
         id="g75">
        <g
           transform="translate(267.28,177.11)"
           stroke="none"
           fill="#003162"
           font-family="'Source Sans 3'"
           font-size="28px"
           text-anchor="end"
           id="g74">
          <text
             id="text73"><tspan
               font-family="'Source Sans 3'"
               id="tspan73">CMSI</tspan></text>
        </g>
      </g>
      <g
         fill="none"
         color="#000000"
         stroke="currentColor"
         stroke-width="2"
         stroke-linecap="butt"
         stroke-linejoin="miter"
         id="g76">
        <path
           stroke="#f1443a"
           d="m 286.87,168.01 h 40.59 m -158.13,202.79 3.72,-4.03 225.31,-243.5 54.97,-57.61 -1.15,2.8 -4.84,6.14 4.08,-2.92 -2.06,2.81 -0.28,1.55 -1.12,1.74 -0.36,0.92 -0.87,1.4 -1.13,2.26 -0.27,0.85 2.34,-1.8 0.2,0.76 0.1,0.71 0.34,1.03 -0.64,2.08 -0.63,1.65 0.16,0.58 0.86,-0.08 -1.84,2.24 1.78,-1.05 -0.29,1.07 -1.82,3.28 1.61,-0.59 0.1,0.78 0.55,0.31 -2.25,3.12 -1.83,2.33 1.81,-1.35 1.86,-1.26 0.19,0.43 0.32,0.26 0.32,0.87 -0.92,1.33 -0.66,1.1 0.01,0.7 0.18,0.32 0.12,1.25 -1.42,1.94 0.21,0.92 0.63,-0.16 -1.05,1.56 -0.54,1 -0.44,0.92 0.67,-0.24 0.95,-0.4 -0.05,0.54 -0.27,1.06 0.38,0.19 -0.54,0.87 0.54,0.07 -1.79,2.46 0.09,0.29 2.2,-1.34 -1.2,1.88 -0.2,0.77 -1.53,1.73 0.95,-0.45 0.88,0.08 -2.26,2.33 -0.43,0.73 0.51,-0.1 0.81,-0.35 0.56,-0.05 h 0.59 l 0.91,-0.16 -1.2,1.61 0.76,0.04 0.18,0.59 -0.11,1.15 -0.73,1.06 -0.1,0.69 0.26,0.92 -1.48,1.97 -1.42,1.71 2.26,-1.21 0.59,0.35 0.65,0.17 -0.57,1.03 -0.25,0.78 -0.7,1.19 -1.6,2.08 3.49,-2.18 -1.36,1.99 0.13,0.38 -1.02,1.26 0.15,0.72 0.76,-0.08 -0.03,0.88 -1.15,1.36 0.31,0.36 -1.27,1.6 0.38,0.33 1.56,-0.52 1.25,-0.49 -0.87,1.12 1.11,-0.01 -0.82,1.16 -0.04,0.73 -1.52,1.58 1.15,-0.31 -0.56,1.25 -1.29,1.89 1.45,0.13 1.04,0.16 -0.7,1.75 -1.81,2.12 1.3,-0.3 -2.35,2.96 -0.64,0.99 0.51,0.15 1.8,-0.75 1.81,-0.76 0.28,0.21 -1.06,1.23 -1.3,1.53 -0.24,1.18 0.07,0.66 -0.11,0.96 1.33,-0.09 -0.08,0.83 0.65,0.21 -0.83,1.4 -1.44,1.75 -0.78,1.2 -0.55,1.22 1.5,-0.47 1.6,-0.6 -1.73,2.11 0.07,0.57 0.22,0.4 0.06,0.63 1.14,-0.24 -1.19,1.68 -0.89,1.03 -0.38,0.88 2.01,-0.31 -0.14,0.93 -0.65,0.99 0.53,0.18 -0.89,1.2 -0.01,0.69 1.02,0.02 -0.78,0.86 0.83,-0.2 -0.1,0.79 -1.91,1.96 0.2,0.51 0.06,0.59 -1.24,1.38 0.77,0.46 1.5,-0.25 -0.46,0.84 0.13,0.64 1.24,-0.16 -1.97,2.03 0.43,0.6 -1.04,1.12 -0.34,0.61 0.88,0.02 0.58,0.08 -0.69,1.03 -1.04,1.26 3.5,-1.64 -0.23,1.35 -0.39,1.25 -2.34,2.43 -0.38,0.99 2.36,-0.74 -0.29,0.62 -2.34,2.28 1.78,-0.17 0.48,0.64 -3.14,2.54 -0.66,0.95 4.49,-1.81 1.51,-0.31 -1.98,1.85 -0.87,1.34 0.4,0.33 -0.82,1.23 -0.33,0.88 1.35,-0.15 0.26,0.79 -0.49,0.96 -1.33,1.48 0.65,0.54 0.24,0.54 -0.12,0.7 -0.87,0.81 1.59,-0.35 -2.7,2.86 1.05,0.19 -0.12,0.6 1.47,0.09 -0.6,0.78 0.16,0.39 -0.83,1.25 -1.47,1.39 1.81,-0.05 0.25,0.34 0.18,0.72 0.9,0.2 -2.41,2.01 1.99,-0.38 -0.03,0.93 0.54,0.33 -0.9,1.08 -0.93,0.92 -1.11,1.16 -0.25,0.74 -0.19,0.57 0.86,-0.01 0.71,0.37 -0.01,0.67 0.53,0.33 0.85,0.32 -1.29,1.28 -1.27,1.09 -0.28,0.9 2.15,-0.26 0.74,0.75 -0.86,1.01 -1.13,1.38 1.94,-0.16 0.32,0.34 1.24,0.32 -0.79,0.92 -1.3,1.66 -0.9,1.67 0.43,1.09 -0.68,0.8 -1.8,1.39 1.62,-0.18 0.06,0.9 -1.33,0.99 1.29,0.02 0.63,0.31 -1.69,1.63 1.88,0.05 -0.78,1.42 1.18,1.07 v 0.52 l -1.52,1.31 1.47,0.44 -1.54,1.51 1.01,0.17 -1.66,1.19 -1.2,1.17 0.83,0.38 3.75,-0.59 -2.82,1.8 -1.17,0.88 1.77,0.48 0.82,0.39 -0.79,1.21 0.68,0.3 -0.46,0.56 -0.58,0.69 -0.42,0.86 -1.22,1.47 -0.04,0.57 0.78,0.26 4.06,-0.59 -3.01,2.08 0.26,0.76 -2.43,1.45 0.67,0.4 -0.01,0.57 1.17,0.18 -0.52,0.74 -0.15,0.39 2.42,-0.22 0.53,0.75 -0.52,0.63 -0.19,0.7 -2.89,1.9 1.27,0.62 2.49,0.13 -3.12,1.8 0.51,0.24 -0.24,1.1 -1.29,1.22 2.14,0.32 -1.53,0.98 -1.12,0.62 0.28,0.39 1.73,0.08 -1.81,1.05 -0.44,0.62 0.66,0.14 0.53,0.23 1.27,0.35 -1.82,1.44 -0.78,0.8 1.64,0.28 0.62,0.95 -0.49,0.89 -1.07,0.92 0.66,0.54 -0.16,0.62 -0.84,0.81 -1.17,0.82 0.9,0.46 -0.89,0.68 1.02,0.57 -1.86,1.41 -1.03,0.8 2.5,0.04 -2.47,1.88 -0.35,0.76 0.83,0.31 0.8,0.29 0.89,0.44 -1.02,0.55 -0.61,0.53 -0.57,1.17 0.71,0.7 -0.51,0.87 -1.46,1.15 -0.46,0.85 -0.23,0.85 -0.93,1.08 -1.27,0.91 0.94,0.56 -0.99,0.82 -0.56,0.68 -0.04,0.74 0.05,0.55 -0.18,0.67 -0.47,0.93 -2.1,1.24 -1.36,1.31 0.74,0.87 -2.09,1.7 -1.56,1.55 -2.71,1.87 -0.08,1.27 -4.16,2.37 -0.76,0.99 -2.02,1.34 -3.14,1.92 -0.93,1.02 -2.8,1.1 -2.06,1.66 -2,0.9 -1.75,0.72 -1.61,1 -1.82,1.53 -3.36,1.52 -3.88,1.07 -19.46,5.5 -9.13,2.12 -12.08,2.96 -9.03,2.14 -10.91,2.53 -21.23,4.32 -14.77,3.06 -14.07,2.63 -10.36,1.86 -8.96,1.61 -12.26,1.89"
           id="path75" />
      </g>
    </g>
    <g
       fill="none"
       color="#000000"
       stroke="currentColor"
       stroke-width="2"
       stroke-linecap="butt"
       stroke-linejoin="miter"
       id="g77" />
    <g
       fill="none"
       color="#000000"
       stroke="#000000"
       stroke-width="1"
       stroke-linecap="butt"
       stroke-linejoin="miter"
       id="g78" />
    <g
       fill="none"
       color="#000000"
       stroke="currentColor"
       stroke-width="1"
       stroke-linecap="butt"
       stroke-linejoin="miter"
       id="g79">
      <path
         stroke="#003162"
         d="M 169.33,42.01 V 370.8 h 371.89 m 0,-328.79 m -371.89,0"
         id="path78" />
    </g>
    <g
       fill="none"
       color="#000000"
       stroke="currentColor"
       stroke-width="1"
       stroke-linecap="butt"
       stroke-linejoin="miter"
       id="g80" />
  </g>
</svg>
