<?xml version="1.0" encoding="UTF-8" standalone="no"?>
<!-- Created with Inkscape (http://www.inkscape.org/) -->

<svg
   version="1.1"
   id="svg1"
   width="520.65955"
   height="161.57611"
   viewBox="0 0 520.65955 161.57611"
   sodipodi:docname="negri_2003_illustration.svg"
   inkscape:version="1.4 (e7c3feb100, 2024-10-09)"
   xmlns:inkscape="http://www.inkscape.org/namespaces/inkscape"
   xmlns:sodipodi="http://sodipodi.sourceforge.net/DTD/sodipodi-0.dtd"
   xmlns="http://www.w3.org/2000/svg"
   xmlns:svg="http://www.w3.org/2000/svg">
  <defs
     id="defs1">
    <clipPath
       clipPathUnits="userSpaceOnUse"
       id="clipPath1">
      <path
         d="M 0,0 H 793.33333 V 1122.6667 H 0 Z"
         id="path1" />
    </clipPath>
    <clipPath
       clipPathUnits="userSpaceOnUse"
       id="clipPath155">
      <path
         d="M 88.674,244.265 H 212.049 V 367.64 H 88.674 Z"
         transform="matrix(1.3333333,0,0,-1.3333333,0,887.99579)"
         id="path155-7" />
    </clipPath>
    <clipPath
       clipPathUnits="userSpaceOnUse"
       id="clipPath152">
      <path
         d="m 90.132,245.636 h 123.2 v 125.65 h -123.2 z"
         id="path152" />
    </clipPath>
    <clipPath
       clipPathUnits="userSpaceOnUse"
       id="clipPath153">
      <path
         d="m 90.132,245.636 h 123.2 v 125.65 h -123.2 z"
         id="path153-5" />
    </clipPath>
    <clipPath
       clipPathUnits="userSpaceOnUse"
       id="clipPath154">
      <path
         d="m 90.132,245.636 h 123.2 v 125.65 h -123.2 z"
         id="path154-3" />
    </clipPath>
    <clipPath
       clipPathUnits="userSpaceOnUse"
       id="clipPath168">
      <path
         d="M 214.167,244.265 H 337.542 V 367.64 H 214.167 Z"
         transform="matrix(1.3333333,0,0,-1.3333333,0,887.99579)"
         id="path168-0" />
    </clipPath>
    <clipPath
       clipPathUnits="userSpaceOnUse"
       id="clipPath165">
      <path
         d="m 215.625,245.636 h 123.2 v 125.65 h -123.2 z"
         id="path165-9" />
    </clipPath>
    <clipPath
       clipPathUnits="userSpaceOnUse"
       id="clipPath166">
      <path
         d="m 215.625,245.636 h 123.2 v 125.65 h -123.2 z"
         id="path166-3" />
    </clipPath>
    <clipPath
       clipPathUnits="userSpaceOnUse"
       id="clipPath167">
      <path
         d="m 215.625,245.636 h 123.2 v 125.65 h -123.2 z"
         id="path167-6" />
    </clipPath>
  </defs>
  <sodipodi:namedview
     id="namedview1"
     pagecolor="#ffffff"
     bordercolor="#000000"
     borderopacity="0.25"
     inkscape:showpageshadow="2"
     inkscape:pageopacity="0.0"
     inkscape:pagecheckerboard="0"
     inkscape:deskcolor="#d1d1d1"
     inkscape:zoom="2.56"
     inkscape:cx="256.25"
     inkscape:cy="96.289063"
     inkscape:window-width="2556"
     inkscape:window-height="1381"
     inkscape:window-x="0"
     inkscape:window-y="0"
     inkscape:window-maximized="0"
     inkscape:current-layer="g1">
    <inkscape:page
       x="0"
       y="0"
       width="520.65955"
       height="161.57611"
       id="page2"
       margin="0"
       bleed="0" />
  </sodipodi:namedview>
  <g
     id="g1"
     inkscape:groupmode="layer"
     inkscape:label="13"
     clip-path="url(#clipPath1)"
     transform="translate(-125.13672,-442.57422)">
    <g
       id="g2"
       inkscape:label="T3">
      <path
         id="path231"
         d="m 504.81539,594.24371 h 2.1 m 137.2,0 h -2.1"
         style="fill:none;stroke:#000000;stroke-width:0.333333;stroke-linecap:butt;stroke-linejoin:miter;stroke-miterlimit:10;stroke-dasharray:none;stroke-opacity:1" />
      <path
         id="path232"
         d="m 496.01889,594.31829 h -1.79688 v 0.65625 h 1.79688 z m 1.28516,-0.95312 c 0.0156,-0.34375 0.0625,-1.26563 1.04687,-1.26563 0.75,0 1.01563,0.53125 1.01563,0.9375 0,0.67188 -0.40625,0.89063 -0.95313,1.20313 l -0.67187,0.39062 c -0.70313,0.40625 -1.17188,0.98438 -1.21875,2.04688 h 3.53125 v -0.60938 h -2.79688 c 0.0312,-0.20312 0.17188,-0.59375 0.875,-0.98437 l 0.54688,-0.29688 c 0.76562,-0.40625 1.375,-0.79687 1.375,-1.71875 0,-0.96875 -0.71875,-1.54687 -1.60938,-1.54687 -0.5625,0 -1.78125,0.17187 -1.78125,1.84375 z m 0,0"
         style="fill:#000000;fill-opacity:1;fill-rule:nonzero;stroke:none;stroke-width:1.33333"
         aria-label="-2" />
      <path
         id="path233"
         d="m 504.81539,576.17705 h 2.1 m 137.2,0 h -2.1"
         style="fill:none;stroke:#000000;stroke-width:0.333333;stroke-linecap:butt;stroke-linejoin:miter;stroke-miterlimit:10;stroke-dasharray:none;stroke-opacity:1" />
      <path
         id="path234"
         d="m 489.90171,576.25189 h -1.79688 v 0.65625 h 1.79688 z m 2.94531,-2.79687 h -0.5 c -0.20313,0.84375 -0.54688,0.92187 -1.39063,0.98437 v 0.51563 h 1.20313 v 3.65625 h 0.6875 z m 2.85547,4.375 h -0.76563 v 0.78125 h 0.76563 z m 1.92968,-3.625 h 2.1875 v -0.64063 h -2.67187 l -0.39063,2.76563 0.5625,0.0312 c 0.23438,-0.3125 0.57813,-0.48438 0.95313,-0.48438 0.64062,0 1.14062,0.39063 1.14062,1.14063 0,0.64062 -0.42187,1.17187 -1.07812,1.17187 -0.57813,0 -1.03125,-0.26562 -1.09375,-0.85937 h -0.67188 c 0.125,1.15625 0.98438,1.42187 1.65625,1.42187 1.625,0 1.875,-1.23437 1.875,-1.8125 0,-1.0625 -0.85937,-1.64062 -1.6875,-1.64062 -0.46875,0 -0.78125,0.14062 -1,0.3125 z m 0,0"
         style="fill:#000000;fill-opacity:1;fill-rule:nonzero;stroke:none;stroke-width:1.33333"
         aria-label="-1.5" />
      <path
         id="path235"
         d="m 504.81539,558.11038 h 2.1 m 137.2,0 h -2.1"
         style="fill:none;stroke:#000000;stroke-width:0.333333;stroke-linecap:butt;stroke-linejoin:miter;stroke-miterlimit:10;stroke-dasharray:none;stroke-opacity:1" />
      <path
         id="path236"
         d="m 496.01889,558.18548 h -1.79688 v 0.65625 h 1.79688 z m 2.94141,-2.79687 h -0.5 c -0.20313,0.84375 -0.54688,0.92187 -1.39063,0.98437 v 0.51563 h 1.20313 v 3.65625 h 0.6875 z m 0,0"
         style="fill:#000000;fill-opacity:1;fill-rule:nonzero;stroke:none;stroke-width:1.33333"
         aria-label="-1" />
      <path
         id="path237"
         d="m 504.81539,540.04371 h 2.1 m 137.2,0 h -2.1"
         style="fill:none;stroke:#000000;stroke-width:0.333333;stroke-linecap:butt;stroke-linejoin:miter;stroke-miterlimit:10;stroke-dasharray:none;stroke-opacity:1" />
      <path
         id="path238"
         d="m 489.90171,540.11908 h -1.79688 v 0.65625 h 1.79688 z m 3.42968,-0.14063 c 0,1.28125 -0.32812,2.0625 -1.07812,2.0625 -0.73438,0 -1.07813,-0.78125 -1.07813,-2.0625 0,-1.29687 0.34375,-2.07812 1.07813,-2.07812 0.75,0 1.07812,0.78125 1.07812,2.07812 z m 0.6875,0 c 0,-1.07812 -0.28125,-2.65625 -1.76562,-2.65625 -1.46875,0 -1.76563,1.57813 -1.76563,2.65625 0,1.0625 0.29688,2.64063 1.76563,2.64063 1.48437,0 1.76562,-1.57813 1.76562,-2.64063 z m 1.6836,1.71875 h -0.76563 v 0.78125 h 0.76563 z m 1.92968,-3.625 h 2.1875 v -0.64062 h -2.67187 l -0.39063,2.76562 0.5625,0.0312 c 0.23438,-0.3125 0.57813,-0.48437 0.95313,-0.48437 0.64062,0 1.14062,0.39062 1.14062,1.14062 0,0.64063 -0.42187,1.17188 -1.07812,1.17188 -0.57813,0 -1.03125,-0.26563 -1.09375,-0.85938 h -0.67188 c 0.125,1.15625 0.98438,1.42188 1.65625,1.42188 1.625,0 1.875,-1.23438 1.875,-1.8125 0,-1.0625 -0.85937,-1.64063 -1.6875,-1.64063 -0.46875,0 -0.78125,0.14063 -1,0.3125 z m 0,0"
         style="fill:#000000;fill-opacity:1;fill-rule:nonzero;stroke:none;stroke-width:1.33333"
         aria-label="-0.5" />
      <path
         id="path239"
         d="m 504.81539,521.97705 h 2.1 m 137.2,0 h -2.1"
         style="fill:none;stroke:#000000;stroke-width:0.333333;stroke-linecap:butt;stroke-linejoin:miter;stroke-miterlimit:10;stroke-dasharray:none;stroke-opacity:1" />
      <path
         id="path240"
         d="m 499.44858,521.91205 c 0,1.28125 -0.32812,2.0625 -1.07812,2.0625 -0.73438,0 -1.07813,-0.78125 -1.07813,-2.0625 0,-1.29688 0.34375,-2.07813 1.07813,-2.07813 0.75,0 1.07812,0.78125 1.07812,2.07813 z m 0.6875,0 c 0,-1.07813 -0.28125,-2.65625 -1.76562,-2.65625 -1.46875,0 -1.76563,1.57812 -1.76563,2.65625 0,1.0625 0.29688,2.64062 1.76563,2.64062 1.48437,0 1.76562,-1.57812 1.76562,-2.64062 z m 0,0"
         style="fill:#000000;fill-opacity:1;fill-rule:nonzero;stroke:none;stroke-width:1.33333"
         aria-label="0" />
      <path
         id="path241"
         d="m 504.81539,503.91038 h 2.1 m 137.2,0 h -2.1"
         style="fill:none;stroke:#000000;stroke-width:0.333333;stroke-linecap:butt;stroke-linejoin:miter;stroke-miterlimit:10;stroke-dasharray:none;stroke-opacity:1" />
      <path
         id="path242"
         d="m 493.33139,503.84173 c 0,1.28125 -0.32813,2.0625 -1.07813,2.0625 -0.73437,0 -1.07812,-0.78125 -1.07812,-2.0625 0,-1.29687 0.34375,-2.07812 1.07812,-2.07812 0.75,0 1.07813,0.78125 1.07813,2.07812 z m 0.6875,0 c 0,-1.07812 -0.28125,-2.65625 -1.76563,-2.65625 -1.46875,0 -1.76562,1.57813 -1.76562,2.65625 0,1.0625 0.29687,2.64063 1.76562,2.64063 1.48438,0 1.76563,-1.57813 1.76563,-2.64063 z m 1.6875,1.71875 h -0.76563 v 0.78125 h 0.76563 z m 1.92578,-3.625 h 2.1875 v -0.64062 h -2.67188 l -0.39062,2.76562 0.5625,0.0312 c 0.23437,-0.3125 0.57812,-0.48437 0.95312,-0.48437 0.64063,0 1.14063,0.39062 1.14063,1.14062 0,0.64063 -0.42188,1.17188 -1.07813,1.17188 -0.57812,0 -1.03125,-0.26563 -1.09375,-0.85938 h -0.67187 c 0.125,1.15625 0.98437,1.42188 1.65625,1.42188 1.625,0 1.875,-1.23438 1.875,-1.8125 0,-1.0625 -0.85938,-1.64063 -1.6875,-1.64063 -0.46875,0 -0.78125,0.14063 -1,0.3125 z m 0,0"
         style="fill:#000000;fill-opacity:1;fill-rule:nonzero;stroke:none;stroke-width:1.33333"
         aria-label="0.5" />
      <path
         id="path243"
         d="m 504.81539,485.84372 h 2.1 m 137.2,0 h -2.1"
         style="fill:none;stroke:#000000;stroke-width:0.333333;stroke-linecap:butt;stroke-linejoin:miter;stroke-miterlimit:10;stroke-dasharray:none;stroke-opacity:1" />
      <path
         id="path244"
         d="m 498.96421,483.11907 h -0.5 c -0.20313,0.84375 -0.54688,0.92188 -1.39063,0.98438 v 0.51562 h 1.20313 v 3.65625 h 0.6875 z m 0,0"
         style="fill:#000000;fill-opacity:1;fill-rule:nonzero;stroke:none;stroke-width:1.33333"
         aria-label="1" />
      <path
         id="path245"
         d="m 504.81539,467.77705 h 2.1 m 137.2,0 h -2.1"
         style="fill:none;stroke:#000000;stroke-width:0.333333;stroke-linecap:butt;stroke-linejoin:miter;stroke-miterlimit:10;stroke-dasharray:none;stroke-opacity:1" />
      <path
         id="path246"
         d="m 492.84701,465.05267 h -0.5 c -0.20312,0.84375 -0.54687,0.92188 -1.39062,0.98438 v 0.51562 h 1.20312 v 3.65625 h 0.6875 z m 2.85938,4.375 h -0.76563 v 0.78125 h 0.76563 z m 1.92578,-3.625 h 2.1875 v -0.64062 h -2.67188 l -0.39062,2.76562 0.5625,0.0312 c 0.23437,-0.3125 0.57812,-0.48437 0.95312,-0.48437 0.64063,0 1.14063,0.39062 1.14063,1.14062 0,0.64063 -0.42188,1.17188 -1.07813,1.17188 -0.57812,0 -1.03125,-0.26563 -1.09375,-0.85938 h -0.67187 c 0.125,1.15625 0.98437,1.42188 1.65625,1.42188 1.625,0 1.875,-1.23438 1.875,-1.8125 0,-1.0625 -0.85938,-1.64063 -1.6875,-1.64063 -0.46875,0 -0.78125,0.14063 -1,0.3125 z m 0,0"
         style="fill:#000000;fill-opacity:1;fill-rule:nonzero;stroke:none;stroke-width:1.33333"
         aria-label="1.5" />
      <path
         id="path247"
         d="m 504.81539,449.71038 h 2.1 m 137.2,0 h -2.1"
         style="fill:none;stroke:#000000;stroke-width:0.333333;stroke-linecap:butt;stroke-linejoin:miter;stroke-miterlimit:10;stroke-dasharray:none;stroke-opacity:1" />
      <path
         id="path248"
         d="m 497.30796,448.83001 c 0.0156,-0.34375 0.0625,-1.26562 1.04687,-1.26562 0.75,0 1.01563,0.53125 1.01563,0.9375 0,0.67187 -0.40625,0.89062 -0.95313,1.20312 l -0.67187,0.39063 c -0.70313,0.40625 -1.17188,0.98437 -1.21875,2.04687 h 3.53125 v -0.60937 h -2.79688 c 0.0312,-0.20313 0.17188,-0.59375 0.875,-0.98438 l 0.54688,-0.29687 c 0.76562,-0.40625 1.375,-0.79688 1.375,-1.71875 0,-0.96875 -0.71875,-1.54688 -1.60938,-1.54688 -0.5625,0 -1.78125,0.17188 -1.78125,1.84375 z m 0,0"
         style="fill:#000000;fill-opacity:1;fill-rule:nonzero;stroke:none;stroke-width:1.33333"
         aria-label="2" />
      <path
         id="path249"
         d="m 504.81539,594.24371 v -2.1 m 0,-142.43333 v 2.1"
         style="fill:none;stroke:#000000;stroke-width:0.333333;stroke-linecap:butt;stroke-linejoin:miter;stroke-miterlimit:10;stroke-dasharray:none;stroke-opacity:1" />
      <path
         id="path250"
         d="m 503.67905,601.65033 h -1.79688 v 0.65625 h 1.79688 z m 1.28515,-0.95313 c 0.0156,-0.34375 0.0625,-1.26562 1.04688,-1.26562 0.75,0 1.01562,0.53125 1.01562,0.9375 0,0.67187 -0.40625,0.89062 -0.95312,1.20312 l -0.67188,0.39063 c -0.70312,0.40625 -1.17187,0.98437 -1.21875,2.04687 h 3.53125 v -0.60937 h -2.79687 c 0.0312,-0.20313 0.17187,-0.59375 0.875,-0.98438 l 0.54687,-0.29687 c 0.76563,-0.40625 1.375,-0.79688 1.375,-1.71875 0,-0.96875 -0.71875,-1.54688 -1.60937,-1.54688 -0.5625,0 -1.78125,0.17188 -1.78125,1.84375 z m 0,0"
         style="fill:#000000;fill-opacity:1;fill-rule:nonzero;stroke:none;stroke-width:1.33333"
         aria-label="-2" />
      <path
         id="path251"
         d="m 522.21539,594.24371 v -2.1 m 0,-142.43333 v 2.1"
         style="fill:none;stroke:#000000;stroke-width:0.333333;stroke-linecap:butt;stroke-linejoin:miter;stroke-miterlimit:10;stroke-dasharray:none;stroke-opacity:1" />
      <path
         id="path252"
         d="m 518.02279,601.65033 h -1.79687 v 0.65625 h 1.79687 z m 2.94141,-2.79688 h -0.5 c -0.20313,0.84375 -0.54688,0.92188 -1.39063,0.98438 v 0.51562 h 1.20313 v 3.65625 h 0.6875 z m 2.85937,4.375 h -0.76562 v 0.78125 h 0.76562 z m 1.92969,-3.625 h 2.1875 v -0.64062 h -2.67187 l -0.39063,2.76562 0.5625,0.0312 c 0.23438,-0.3125 0.57813,-0.48437 0.95313,-0.48437 0.64062,0 1.14062,0.39062 1.14062,1.14062 0,0.64063 -0.42187,1.17188 -1.07812,1.17188 -0.57813,0 -1.03125,-0.26563 -1.09375,-0.85938 h -0.67188 c 0.125,1.15625 0.98438,1.42188 1.65625,1.42188 1.625,0 1.875,-1.23438 1.875,-1.8125 0,-1.0625 -0.85937,-1.64063 -1.6875,-1.64063 -0.46875,0 -0.78125,0.14063 -1,0.3125 z m 0,0"
         style="fill:#000000;fill-opacity:1;fill-rule:nonzero;stroke:none;stroke-width:1.33333"
         aria-label="-1.5" />
      <path
         id="path253"
         d="m 539.64873,594.24371 v -2.1 m 0,-142.43333 v 2.1"
         style="fill:none;stroke:#000000;stroke-width:0.333333;stroke-linecap:butt;stroke-linejoin:miter;stroke-miterlimit:10;stroke-dasharray:none;stroke-opacity:1" />
      <path
         id="path254"
         d="m 538.51498,601.65033 h -1.79688 v 0.65625 h 1.79688 z m 2.94141,-2.79688 h -0.5 c -0.20313,0.84375 -0.54688,0.92188 -1.39063,0.98438 v 0.51562 h 1.20313 v 3.65625 h 0.6875 z m 0,0"
         style="fill:#000000;fill-opacity:1;fill-rule:nonzero;stroke:none;stroke-width:1.33333"
         aria-label="-1" />
      <path
         id="path255"
         d="m 557.04873,594.24371 v -2.1 m 0,-142.43333 v 2.1"
         style="fill:none;stroke:#000000;stroke-width:0.333333;stroke-linecap:butt;stroke-linejoin:miter;stroke-miterlimit:10;stroke-dasharray:none;stroke-opacity:1" />
      <path
         id="path256"
         d="m 552.85483,601.65033 h -1.79687 v 0.65625 h 1.79687 z m 3.42578,-0.14063 c 0,1.28125 -0.32812,2.0625 -1.07812,2.0625 -0.73438,0 -1.07813,-0.78125 -1.07813,-2.0625 0,-1.29687 0.34375,-2.07812 1.07813,-2.07812 0.75,0 1.07812,0.78125 1.07812,2.07812 z m 0.6875,0 c 0,-1.07812 -0.28125,-2.65625 -1.76562,-2.65625 -1.46875,0 -1.76563,1.57813 -1.76563,2.65625 0,1.0625 0.29688,2.64063 1.76563,2.64063 1.48437,0 1.76562,-1.57813 1.76562,-2.64063 z m 1.6875,1.71875 h -0.76562 v 0.78125 h 0.76562 z m 1.92969,-3.625 h 2.1875 v -0.64062 h -2.67188 l -0.39062,2.76562 0.5625,0.0312 c 0.23437,-0.3125 0.57812,-0.48437 0.95312,-0.48437 0.64063,0 1.14063,0.39062 1.14063,1.14062 0,0.64063 -0.42188,1.17188 -1.07813,1.17188 -0.57812,0 -1.03125,-0.26563 -1.09375,-0.85938 h -0.67187 c 0.125,1.15625 0.98437,1.42188 1.65625,1.42188 1.625,0 1.875,-1.23438 1.875,-1.8125 0,-1.0625 -0.85938,-1.64063 -1.6875,-1.64063 -0.46875,0 -0.78125,0.14063 -1,0.3125 z m 0,0"
         style="fill:#000000;fill-opacity:1;fill-rule:nonzero;stroke:none;stroke-width:1.33333"
         aria-label="-0.5" />
      <path
         id="path257"
         d="m 574.48206,594.24371 v -2.1 m 0,-142.43333 v 2.1"
         style="fill:none;stroke:#000000;stroke-width:0.333333;stroke-linecap:butt;stroke-linejoin:miter;stroke-miterlimit:10;stroke-dasharray:none;stroke-opacity:1" />
      <path
         id="path258"
         d="m 575.55404,601.5097 c 0,1.28125 -0.32812,2.0625 -1.07812,2.0625 -0.73438,0 -1.07813,-0.78125 -1.07813,-2.0625 0,-1.29687 0.34375,-2.07812 1.07813,-2.07812 0.75,0 1.07812,0.78125 1.07812,2.07812 z m 0.6875,0 c 0,-1.07812 -0.28125,-2.65625 -1.76562,-2.65625 -1.46875,0 -1.76563,1.57813 -1.76563,2.65625 0,1.0625 0.29688,2.64063 1.76563,2.64063 1.48437,0 1.76562,-1.57813 1.76562,-2.64063 z m 0,0"
         style="fill:#000000;fill-opacity:1;fill-rule:nonzero;stroke:none;stroke-width:1.33333"
         aria-label="0" />
      <path
         id="path259"
         d="m 591.88206,594.24371 v -2.1 m 0,-142.43333 v 2.1"
         style="fill:none;stroke:#000000;stroke-width:0.333333;stroke-linecap:butt;stroke-linejoin:miter;stroke-miterlimit:10;stroke-dasharray:none;stroke-opacity:1" />
      <path
         id="path260"
         d="m 589.89389,601.5097 c 0,1.28125 -0.32812,2.0625 -1.07812,2.0625 -0.73438,0 -1.07813,-0.78125 -1.07813,-2.0625 0,-1.29687 0.34375,-2.07812 1.07813,-2.07812 0.75,0 1.07812,0.78125 1.07812,2.07812 z m 0.6875,0 c 0,-1.07812 -0.28125,-2.65625 -1.76562,-2.65625 -1.46875,0 -1.76563,1.57813 -1.76563,2.65625 0,1.0625 0.29688,2.64063 1.76563,2.64063 1.48437,0 1.76562,-1.57813 1.76562,-2.64063 z m 1.6875,1.71875 h -0.76562 v 0.78125 h 0.76562 z m 1.92969,-3.625 h 2.1875 v -0.64062 h -2.67187 l -0.39063,2.76562 0.5625,0.0312 c 0.23438,-0.3125 0.57813,-0.48437 0.95313,-0.48437 0.64062,0 1.14062,0.39062 1.14062,1.14062 0,0.64063 -0.42187,1.17188 -1.07812,1.17188 -0.57813,0 -1.03125,-0.26563 -1.09375,-0.85938 h -0.67188 c 0.125,1.15625 0.98438,1.42188 1.65625,1.42188 1.625,0 1.875,-1.23438 1.875,-1.8125 0,-1.0625 -0.85937,-1.64063 -1.6875,-1.64063 -0.46875,0 -0.78125,0.14063 -1,0.3125 z m 0,0"
         style="fill:#000000;fill-opacity:1;fill-rule:nonzero;stroke:none;stroke-width:1.33333"
         aria-label="0.5" />
      <path
         id="path261"
         d="m 609.28206,594.24371 v -2.1 m 0,-142.43333 v 2.1"
         style="fill:none;stroke:#000000;stroke-width:0.333333;stroke-linecap:butt;stroke-linejoin:miter;stroke-miterlimit:10;stroke-dasharray:none;stroke-opacity:1" />
      <path
         id="path262"
         d="m 609.86654,598.85345 h -0.5 c -0.20312,0.84375 -0.54687,0.92188 -1.39062,0.98438 v 0.51562 h 1.20312 v 3.65625 h 0.6875 z m 0,0"
         style="fill:#000000;fill-opacity:1;fill-rule:nonzero;stroke:none;stroke-width:1.33333"
         aria-label="1" />
      <path
         id="path263"
         d="m 626.71539,594.24371 v -2.1 m 0,-142.43333 v 2.1"
         style="fill:none;stroke:#000000;stroke-width:0.333333;stroke-linecap:butt;stroke-linejoin:miter;stroke-miterlimit:10;stroke-dasharray:none;stroke-opacity:1" />
      <path
         id="path264"
         d="m 624.24155,598.85345 h -0.5 c -0.20313,0.84375 -0.54688,0.92188 -1.39063,0.98438 v 0.51562 h 1.20313 v 3.65625 h 0.6875 z m 2.85937,4.375 h -0.76562 v 0.78125 h 0.76562 z m 1.92969,-3.625 h 2.1875 v -0.64062 h -2.67188 l -0.39062,2.76562 0.5625,0.0312 c 0.23437,-0.3125 0.57812,-0.48437 0.95312,-0.48437 0.64063,0 1.14063,0.39062 1.14063,1.14062 0,0.64063 -0.42188,1.17188 -1.07813,1.17188 -0.57812,0 -1.03125,-0.26563 -1.09375,-0.85938 h -0.67187 c 0.125,1.15625 0.98437,1.42188 1.65625,1.42188 1.625,0 1.875,-1.23438 1.875,-1.8125 0,-1.0625 -0.85938,-1.64063 -1.6875,-1.64063 -0.46875,0 -0.78125,0.14063 -1,0.3125 z m 0,0"
         style="fill:#000000;fill-opacity:1;fill-rule:nonzero;stroke:none;stroke-width:1.33333"
         aria-label="1.5" />
      <path
         id="path265"
         d="m 644.11539,594.24371 v -2.1 m 0,-142.43333 v 2.1"
         style="fill:none;stroke:#000000;stroke-width:0.333333;stroke-linecap:butt;stroke-linejoin:miter;stroke-miterlimit:10;stroke-dasharray:none;stroke-opacity:1" />
      <path
         id="path266"
         d="m 643.04624,600.6972 c 0.0156,-0.34375 0.0625,-1.26562 1.04687,-1.26562 0.75,0 1.01563,0.53125 1.01563,0.9375 0,0.67187 -0.40625,0.89062 -0.95313,1.20312 l -0.67187,0.39063 c -0.70313,0.40625 -1.17188,0.98437 -1.21875,2.04687 h 3.53125 v -0.60937 h -2.79688 c 0.0312,-0.20313 0.17188,-0.59375 0.875,-0.98438 l 0.54688,-0.29687 c 0.76562,-0.40625 1.375,-0.79688 1.375,-1.71875 0,-0.96875 -0.71875,-1.54688 -1.60938,-1.54688 -0.5625,0 -1.78125,0.17188 -1.78125,1.84375 z m 0,0"
         style="fill:#000000;fill-opacity:1;fill-rule:nonzero;stroke:none;stroke-width:1.33333"
         aria-label="2" />
      <path
         id="path267"
         d="m 504.81539,594.24371 h 139.3 V 449.71038 h -139.3 v 144.53333"
         style="fill:none;stroke:#000000;stroke-width:0.333333;stroke-linecap:butt;stroke-linejoin:miter;stroke-miterlimit:10;stroke-dasharray:none;stroke-opacity:1" />
      <path
         id="path268"
         d="m 609.21539,519.71038 -0.2,-2.26667 m -0.33333,-2.23333 -0.5,-2.23333 m -0.6,-2.16667 -0.73334,-2.13333 m -0.86666,-2.1 -1,-2 m -1.1,-1.96667 -1.23334,-1.86666 m -1.36666,-1.8 -1.43333,-1.7 m -1.53334,-1.6 -1.66666,-1.5 m -1.7,-1.4 -1.83334,-1.26667 m -1.86666,-1.16667 -1.96667,-1.03333 m -2,-0.9 -2.06667,-0.76667 m -2.1,-0.63333 -2.13333,-0.5 m -2.16667,-0.33333 -2.16666,-0.23334 m -2.2,-0.0667 -2.16667,0.0667 m -2.16667,0.23334 -2.16666,0.33333 m -2.13334,0.5 -2.1,0.63333 m -2.06666,0.76667 -2,0.9 m -1.96667,1.03333 -1.86667,1.16667 m -1.83333,1.26667 -1.7,1.4 m -1.66667,1.5 -1.53333,1.6 m -1.43333,1.7 -1.36667,1.8 m -1.23333,1.86666 -1.1,1.96667 m -1,2 -0.86667,2.1 m -0.73333,2.13333 -0.6,2.16667 m -0.5,2.23333 -0.33334,2.23333 m -0.2,2.26667 -0.0667,2.26667 m 0.0667,2.26666 0.2,2.26667 m 0.33334,2.23333 0.5,2.23334 m 0.6,2.16666 0.73333,2.13334 m 0.86667,2.1 1,2 m 1.1,1.96666 1.23333,1.86667 m 1.36667,1.8 1.43333,1.7 m 1.53333,1.6 1.66667,1.5 m 1.7,1.4 1.83333,1.26667 m 1.86667,1.16666 1.96667,1.03334 m 2,0.9 2.06666,0.76666 m 2.1,0.63334 2.13334,0.5 m 2.16666,0.33333 2.16667,0.23333 m 2.2,0.0667 2.16667,-0.0667 m 2.16666,-0.23333 2.16667,-0.33333 m 2.13333,-0.5 2.1,-0.63334 m 2.06667,-0.76666 2,-0.9 m 1.96667,-1.03334 1.86666,-1.16666 m 1.83334,-1.26667 1.7,-1.4 m 1.66666,-1.5 1.53334,-1.6 m 1.43333,-1.7 1.36666,-1.8 m 1.23334,-1.86667 1.1,-1.96666 m 1,-2 0.86666,-2.1 m 0.73334,-2.13334 0.6,-2.16666 m 0.5,-2.23334 0.33333,-2.23333 m 0.2,-2.26667 0.0667,-2.26666 m -104.46667,0 h 139.3 m -69.63333,72.26666 V 449.71038"
         style="fill:none;stroke:#000000;stroke-width:0.166667;stroke-linecap:butt;stroke-linejoin:miter;stroke-miterlimit:10;stroke-dasharray:none;stroke-opacity:1" />
      <path
         id="path269"
         d="m 609.28206,501.14372 -34.8,-20.86667 -34.83333,20.86667 v 41.66666 l 34.83333,20.86667 34.8,-20.86667 v -41.66666"
         style="fill:none;stroke:#000000;stroke-width:0.5;stroke-linecap:butt;stroke-linejoin:miter;stroke-miterlimit:10;stroke-dasharray:none;stroke-opacity:1" />
      <path
         id="path178-9"
         d="m 551.64418,541.71656 h 5.70956 l -2.8546,-4.93497 -2.85496,4.93497 m 5.70956,0 h 5.70956 l -2.85496,-4.93497 -2.8546,4.93497 m 5.70956,0 h 5.7092 l -2.8546,-4.93497 -2.8546,4.93497 m 5.7092,0 h 5.70956 l -2.8546,-4.93497 -2.85496,4.93497 m 5.70956,0 h 5.69717 l -2.8546,-4.93497 -2.84257,4.93497 m 5.69717,0 h 5.70956 l -2.8546,-4.93497 -2.85496,4.93497 m 5.70956,0 h 5.70956 l -2.85496,-4.93497 -2.8546,4.93497 m 5.70956,0 h 5.7092 l -2.8546,-4.93497 -2.8546,4.93497 m -39.95417,-9.86994 h 5.70956 l -2.8546,4.93497 -2.85496,-4.93497 m 5.70956,0 h 5.70956 l -2.85496,4.93497 -2.8546,-4.93497 m 5.70956,0 h 5.7092 l -2.8546,4.93497 -2.8546,-4.93497 m 5.7092,0 h 5.70956 l -2.8546,4.93497 -2.85496,-4.93497 m 5.70956,0 h 5.69717 l -2.8546,4.93497 -2.84257,-4.93497 m 5.69717,0 h 5.70956 l -2.8546,4.93497 -2.85496,-4.93497 m 5.70956,0 h 5.70956 l -2.85496,4.93497 -2.8546,-4.93497 m 5.70956,0 h 5.7092 l -2.8546,4.93497 -2.8546,-4.93497 m -37.09921,4.93497 h 39.95381 m -42.80877,-4.93497 h 5.70956 l -2.8546,-4.9346 -2.85496,4.9346 m 5.70956,0 h 5.70956 l -2.85496,-4.9346 -2.8546,4.9346 m 5.70956,0 h 5.7092 l -2.8546,-4.9346 -2.8546,4.9346 m 5.7092,0 h 5.70956 l -2.8546,-4.9346 -2.85496,4.9346 m 5.70956,0 h 5.69717 l -2.8546,-4.9346 -2.84257,4.9346 m 5.69717,0 h 5.70956 l -2.8546,-4.9346 -2.85496,4.9346 m 5.70956,0 h 5.70956 l -2.85496,-4.9346 -2.8546,4.9346 m 5.70956,0 h 5.7092 l -2.8546,-4.9346 -2.8546,4.9346 m -39.95417,-9.86957 h 5.70956 l -2.8546,4.93497 -2.85496,-4.93497 m 5.70956,0 h 5.70956 l -2.85496,4.93497 -2.8546,-4.93497 m 5.70956,0 h 5.7092 l -2.8546,4.93497 -2.8546,-4.93497 m 5.7092,0 h 5.70956 l -2.8546,4.93497 -2.85496,-4.93497 m 5.70956,0 h 5.69717 l -2.8546,4.93497 -2.84257,-4.93497 m 5.69717,0 h 5.70956 l -2.8546,4.93497 -2.85496,-4.93497 m 5.70956,0 h 5.70956 l -2.85496,4.93497 -2.8546,-4.93497 m 5.70956,0 h 5.7092 l -2.8546,4.93497 -2.8546,-4.93497"
         style="fill:none;stroke:#000000;stroke-width:0.533334;stroke-linecap:butt;stroke-linejoin:round;stroke-miterlimit:10;stroke-dasharray:none;stroke-opacity:1" />
      <path
         id="path179-2"
         d="m 554.49914,526.91202 h 39.95381 m -42.80877,-4.93497 h 5.70956 l -2.8546,-4.93497 -2.85496,4.93497 m 5.70956,0 h 5.70956 l -2.85496,-4.93497 -2.8546,4.93497 m 5.70956,0 h 5.7092 l -2.8546,-4.93497 -2.8546,4.93497 m 5.7092,0 h 5.70956 l -2.8546,-4.93497 -2.85496,4.93497 m 5.70956,0 h 5.69717 l -2.8546,-4.93497 -2.84257,4.93497 m 5.69717,0 h 5.70956 l -2.8546,-4.93497 -2.85496,4.93497 m 5.70956,0 h 5.70956 l -2.85496,-4.93497 -2.8546,4.93497 m 5.70956,0 h 5.7092 l -2.8546,-4.93497 -2.8546,4.93497 m -39.95417,-9.86958 h 5.70956 l -2.8546,4.93461 -2.85496,-4.93461 m 5.70956,0 h 5.70956 l -2.85496,4.93461 -2.8546,-4.93461 m 5.70956,0 h 5.7092 l -2.8546,4.93461 -2.8546,-4.93461 m 5.7092,0 h 5.70956 l -2.8546,4.93461 -2.85496,-4.93461 m 5.70956,0 h 5.69717 l -2.8546,4.93461 -2.84257,-4.93461 m 5.69717,0 h 5.70956 l -2.8546,4.93461 -2.85496,-4.93461 m 5.70956,0 h 5.70956 l -2.85496,4.93461 -2.8546,-4.93461 m 5.70956,0 h 5.7092 l -2.8546,4.93461 -2.8546,-4.93461 m -37.09921,4.93461 h 39.95381 m -42.80877,-4.93461 h 5.70956 l -2.8546,-4.92297 -2.85496,4.92297 m 5.70956,0 h 5.70956 l -2.85496,-4.92297 -2.8546,4.92297 m 5.70956,0 h 5.7092 l -2.8546,-4.92297 -2.8546,4.92297 m 5.7092,0 h 5.70956 l -2.8546,-4.92297 -2.85496,4.92297 m 5.70956,0 h 5.69717 l -2.8546,-4.92297 -2.84257,4.92297 m 5.69717,0 h 5.70956 l -2.8546,-4.92297 -2.85496,4.92297 m 5.70956,0 h 5.70956 l -2.85496,-4.92297 -2.8546,4.92297 m 5.70956,0 h 5.7092 l -2.8546,-4.92297 -2.8546,4.92297 m -39.95417,-9.85757 h 5.70956 l -2.8546,4.9346 -2.85496,-4.9346 m 5.70956,0 h 5.70956 l -2.85496,4.9346 -2.8546,-4.9346 m 5.70956,0 h 5.7092 l -2.8546,4.9346 -2.8546,-4.9346 m 5.7092,0 h 5.70956 l -2.8546,4.9346 -2.85496,-4.9346 m 5.70956,0 h 5.69717 l -2.8546,4.9346 -2.84257,-4.9346 m 5.69717,0 h 5.70956 l -2.8546,4.9346 -2.85496,-4.9346 m 5.70956,0 h 5.70956 l -2.85496,4.9346 -2.8546,-4.9346"
         style="fill:none;stroke:#000000;stroke-width:0.533334;stroke-linecap:butt;stroke-linejoin:round;stroke-miterlimit:10;stroke-dasharray:none;stroke-opacity:1" />
      <path
         id="path180-2"
         d="m 591.59835,502.2499 h 5.7092 l -2.8546,4.9346 -2.8546,-4.9346 m -37.09921,4.9346 h 39.95381"
         style="fill:none;stroke:#000000;stroke-width:0.533334;stroke-linecap:butt;stroke-linejoin:round;stroke-miterlimit:10;stroke-dasharray:none;stroke-opacity:1" />
    </g>
    <g
       id="g3"
       inkscape:label="T2"
       transform="translate(5.7613977,4.4120432)">
      <path
         id="path192"
         d="m 238.175,223.623 h 1.575 m 102.9,0 h -1.575"
         style="fill:none;stroke:#000000;stroke-width:0.25;stroke-linecap:butt;stroke-linejoin:miter;stroke-miterlimit:10;stroke-dasharray:none;stroke-opacity:1"
         transform="matrix(1.3333333,0,0,-1.3333333,0,887.99579)" />
      <path
         id="path193"
         d="M 1.5945781,-1.7686525 H 0.24692187 V -1.276465 H 1.5945781 Z m 0.9638672,-0.7148438 c 0.011719,-0.2578125 0.046875,-0.9492187 0.7851563,-0.9492187 0.5625,0 0.7617187,0.3984375 0.7617187,0.703125 0,0.5039062 -0.3046875,0.6679687 -0.7148437,0.9023437 L 2.8865703,-1.5342775 C 2.3592266,-1.22959 2.0076641,-0.79599625 1.9725078,8.7875e-4 H 4.6209453 V -0.4561525 H 2.5232891 c 0.023437,-0.15234375 0.1289062,-0.4453125 0.65625,-0.7382813 L 3.5896953,-1.41709 c 0.5742188,-0.3046875 1.03125,-0.5976563 1.03125,-1.2890625 0,-0.7265625 -0.5390625,-1.1601563 -1.2070312,-1.1601563 -0.421875,0 -1.3359375,0.1289063 -1.3359375,1.3828125 z m 0,0"
         style="fill:#000000;fill-opacity:1;fill-rule:nonzero;stroke:none"
         aria-label="-2"
         transform="matrix(1.3333333,0,0,1.3333333,306.64733,592.26445)" />
      <path
         id="path194"
         d="m 238.175,237.173 h 1.575 m 102.9,0 h -1.575"
         style="fill:none;stroke:#000000;stroke-width:0.25;stroke-linecap:butt;stroke-linejoin:miter;stroke-miterlimit:10;stroke-dasharray:none;stroke-opacity:1"
         transform="matrix(1.3333333,0,0,-1.3333333,0,887.99579)" />
      <path
         id="path195"
         d="M 1.5940875,-1.7684572 H 0.24643125 v 0.4921875 H 1.5940875 Z m 2.2060547,-2.0976562 h -0.375 c -0.1523438,0.6328125 -0.4101563,0.6914062 -1.0429688,0.7382812 v 0.3867188 h 0.9023438 v 2.74218746 h 0.515625 z m 2.1445312,3.28124996 H 5.3704547 v 0.5859375 H 5.9446734 Z M 7.3919391,-3.3036134 h 1.640625 V -3.7840822 H 7.0286578 l -0.2929687,2.0742188 0.421875,0.023437 c 0.1757812,-0.234375 0.4335937,-0.3632813 0.7148437,-0.3632813 0.4804688,0 0.8554688,0.2929688 0.8554688,0.8554688 0,0.48046871 -0.3164063,0.87890621 -0.8085938,0.87890621 -0.4335937,0 -0.7734375,-0.19921875 -0.8203125,-0.64453125 H 6.5950641 c 0.09375,0.8671875 0.7382812,1.06640625 1.2421875,1.06640625 1.21875,0 1.40625,-0.92578125 1.40625,-1.35937501 0,-0.796875 -0.6445313,-1.2304687 -1.265625,-1.2304687 -0.3515625,0 -0.5859375,0.1054687 -0.75,0.234375 z m 0,0"
         style="fill:#000000;fill-opacity:1;fill-rule:nonzero;stroke:none"
         aria-label="-1.5"
         transform="matrix(1.3333333,0,0,1.3333333,300.5308,574.19779)" />
      <path
         id="path196"
         d="m 238.175,250.723 h 1.575 m 102.9,0 h -1.575"
         style="fill:none;stroke:#000000;stroke-width:0.25;stroke-linecap:butt;stroke-linejoin:miter;stroke-miterlimit:10;stroke-dasharray:none;stroke-opacity:1"
         transform="matrix(1.3333333,0,0,-1.3333333,0,887.99579)" />
      <path
         id="path197"
         d="M 1.5945781,-1.7682619 H 0.24692187 v 0.4921875 H 1.5945781 Z m 2.2060547,-2.0976562 h -0.375 c -0.1523437,0.6328125 -0.4101562,0.6914062 -1.0429687,0.7382812 v 0.3867188 h 0.9023437 v 2.74218747 h 0.515625 z m 0,0"
         style="fill:#000000;fill-opacity:1;fill-rule:nonzero;stroke:none"
         aria-label="-1"
         transform="matrix(1.3333333,0,0,1.3333333,306.64733,556.13112)" />
      <path
         id="path198"
         d="m 238.175,264.273 h 1.575 m 102.9,0 h -1.575"
         style="fill:none;stroke:#000000;stroke-width:0.25;stroke-linecap:butt;stroke-linejoin:miter;stroke-miterlimit:10;stroke-dasharray:none;stroke-opacity:1"
         transform="matrix(1.3333333,0,0,-1.3333333,0,887.99579)" />
      <path
         id="path199"
         d="M 1.5940875,-1.7680666 H 0.24643125 v 0.4921875 H 1.5940875 Z m 2.5693359,-0.1054687 c 0,0.96093749 -0.2460937,1.54687499 -0.8085937,1.54687499 -0.5507813,0 -0.8085938,-0.5859375 -0.8085938,-1.54687499 0,-0.9726563 0.2578125,-1.5585938 0.8085938,-1.5585938 0.5625,0 0.8085937,0.5859375 0.8085937,1.5585938 z m 0.515625,0 c 0,-0.8085938 -0.2109375,-1.9921875 -1.3242187,-1.9921875 -1.1015625,0 -1.3242188,1.1835937 -1.3242188,1.9921875 0,0.796875 0.2226563,1.98046874 1.3242188,1.98046874 1.1132812,0 1.3242187,-1.18359374 1.3242187,-1.98046874 z m 1.265625,1.28906249 H 5.3704547 v 0.5859375 H 5.9446734 Z M 7.3919391,-3.3032228 h 1.640625 V -3.7836916 H 7.0286578 l -0.2929687,2.0742188 0.421875,0.023437 c 0.1757812,-0.234375 0.4335937,-0.3632813 0.7148437,-0.3632813 0.4804688,0 0.8554688,0.2929688 0.8554688,0.8554688 0,0.48046874 -0.3164063,0.87890624 -0.8085938,0.87890624 -0.4335937,0 -0.7734375,-0.19921875 -0.8203125,-0.64453125 H 6.5950641 c 0.09375,0.8671875 0.7382812,1.06640625 1.2421875,1.06640625 1.21875,0 1.40625,-0.92578125 1.40625,-1.35937504 0,-0.796875 -0.6445313,-1.2304687 -1.265625,-1.2304687 -0.3515625,0 -0.5859375,0.1054687 -0.75,0.234375 z m 0,0"
         style="fill:#000000;fill-opacity:1;fill-rule:nonzero;stroke:none"
         aria-label="-0.5"
         transform="matrix(1.3333333,0,0,1.3333333,300.5308,538.06445)" />
      <path
         id="path200"
         d="m 238.175,277.823 h 1.575 m 102.9,0 h -1.575"
         style="fill:none;stroke:#000000;stroke-width:0.25;stroke-linecap:butt;stroke-linejoin:miter;stroke-miterlimit:10;stroke-dasharray:none;stroke-opacity:1"
         transform="matrix(1.3333333,0,0,-1.3333333,0,887.99579)" />
      <path
         id="path201"
         d="m 2.3322141,-1.8762697 c 0,0.96093751 -0.2460938,1.54687501 -0.8085938,1.54687501 -0.55078124,0 -0.80859374,-0.5859375 -0.80859374,-1.54687501 0,-0.9726562 0.2578125,-1.5585937 0.80859374,-1.5585937 0.5625,0 0.8085938,0.5859375 0.8085938,1.5585937 z m 0.515625,0 c 0,-0.8085937 -0.2109375,-1.9921875 -1.3242188,-1.9921875 -1.10156249,0 -1.32421874,1.1835938 -1.32421874,1.9921875 0,0.796875 0.22265625,1.98046876 1.32421874,1.98046876 1.1132813,0 1.3242188,-1.18359376 1.3242188,-1.98046876 z m 0,0"
         style="fill:#000000;fill-opacity:1;fill-rule:nonzero;stroke:none"
         aria-label="0"
         transform="matrix(1.3333333,0,0,1.3333333,309.0896,519.99779)" />
      <path
         id="path202"
         d="m 238.175,291.373 h 1.575 m 102.9,0 h -1.575"
         style="fill:none;stroke:#000000;stroke-width:0.25;stroke-linecap:butt;stroke-linejoin:miter;stroke-miterlimit:10;stroke-dasharray:none;stroke-opacity:1"
         transform="matrix(1.3333333,0,0,-1.3333333,0,887.99579)" />
      <path
         id="path203"
         d="m 2.3317234,-1.8760744 c 0,0.96093753 -0.2460937,1.54687503 -0.8085937,1.54687503 -0.55078126,0 -0.80859376,-0.5859375 -0.80859376,-1.54687503 0,-0.9726562 0.2578125,-1.5585937 0.80859376,-1.5585937 0.5625,0 0.8085937,0.5859375 0.8085937,1.5585937 z m 0.515625,0 c 0,-0.8085937 -0.2109375,-1.9921875 -1.3242187,-1.9921875 -1.10156251,0 -1.32421876,1.1835938 -1.32421876,1.9921875 0,0.796875 0.22265625,1.98046878 1.32421876,1.98046878 1.1132812,0 1.3242187,-1.18359378 1.3242187,-1.98046878 z m 1.265625,1.28906253 H 3.5387547 v 0.5859375 H 4.1129734 Z M 5.5602391,-3.3057619 h 1.640625 V -3.7862306 H 5.1969578 l -0.2929687,2.0742187 0.421875,0.023437 c 0.1757812,-0.234375 0.4335937,-0.3632812 0.7148437,-0.3632812 0.4804688,0 0.8554688,0.2929687 0.8554688,0.8554687 0,0.48046878 -0.3164063,0.87890628 -0.8085938,0.87890628 -0.4335937,0 -0.7734375,-0.19921875 -0.8203125,-0.64453125 H 4.7633641 c 0.09375,0.8671875 0.7382812,1.06640625 1.2421875,1.06640625 1.21875,0 1.40625,-0.92578125 1.40625,-1.35937498 0,-0.796875 -0.6445313,-1.2304688 -1.265625,-1.2304688 -0.3515625,0 -0.5859375,0.1054688 -0.75,0.234375 z m 0,0"
         style="fill:#000000;fill-opacity:1;fill-rule:nonzero;stroke:none"
         aria-label="0.5"
         transform="matrix(1.3333333,0,0,1.3333333,302.97307,501.93112)" />
      <path
         id="path204"
         d="m 238.175,304.923 h 1.575 m 102.9,0 h -1.575"
         style="fill:none;stroke:#000000;stroke-width:0.25;stroke-linecap:butt;stroke-linejoin:miter;stroke-miterlimit:10;stroke-dasharray:none;stroke-opacity:1"
         transform="matrix(1.3333333,0,0,-1.3333333,0,887.99579)" />
      <path
         id="path205"
         d="m 1.9689328,-3.8680666 h -0.375 c -0.1523437,0.6328125 -0.4101562,0.6914063 -1.04296874,0.7382813 v 0.3867187 H 1.4533078 v 2.7421875375 h 0.515625 z m 0,0"
         style="fill:#000000;fill-opacity:1;fill-rule:nonzero;stroke:none"
         aria-label="1"
         transform="matrix(1.3333333,0,0,1.3333333,309.0896,483.86445)" />
      <path
         id="path206"
         d="m 238.175,318.473 h 1.575 m 102.9,0 h -1.575"
         style="fill:none;stroke:#000000;stroke-width:0.25;stroke-linecap:butt;stroke-linejoin:miter;stroke-miterlimit:10;stroke-dasharray:none;stroke-opacity:1"
         transform="matrix(1.3333333,0,0,-1.3333333,0,887.99579)" />
      <path
         id="path207"
         d="m 1.9684422,-3.8678713 h -0.375 C 1.4410984,-3.2350588 1.1832859,-3.176465 0.55047344,-3.12959 v 0.3867187 H 1.4528172 v 2.74218755 h 0.515625 z m 2.1445312,3.28125005 H 3.5387547 v 0.5859375 H 4.1129734 Z M 5.5602391,-3.3053713 h 1.640625 V -3.78584 H 5.1969578 l -0.2929687,2.0742187 0.421875,0.023437 c 0.1757812,-0.234375 0.4335937,-0.3632812 0.7148437,-0.3632812 0.4804688,0 0.8554688,0.2929687 0.8554688,0.8554687 0,0.4804688 -0.3164063,0.8789063 -0.8085938,0.8789063 -0.4335937,0 -0.7734375,-0.19921875 -0.8203125,-0.64453125 H 4.7633641 c 0.09375,0.8671875 0.7382812,1.06640625 1.2421875,1.06640625 1.21875,0 1.40625,-0.92578125 1.40625,-1.359375 0,-0.796875 -0.6445313,-1.2304688 -1.265625,-1.2304688 -0.3515625,0 -0.5859375,0.1054688 -0.75,0.234375 z m 0,0"
         style="fill:#000000;fill-opacity:1;fill-rule:nonzero;stroke:none"
         aria-label="1.5"
         transform="matrix(1.3333333,0,0,1.3333333,302.97307,465.79779)" />
      <path
         id="path208"
         d="m 238.175,332.023 h 1.575 m 102.9,0 h -1.575"
         style="fill:none;stroke:#000000;stroke-width:0.25;stroke-linecap:butt;stroke-linejoin:miter;stroke-miterlimit:10;stroke-dasharray:none;stroke-opacity:1"
         transform="matrix(1.3333333,0,0,-1.3333333,0,887.99579)" />
      <path
         id="path209"
         d="m 0.72674531,-2.4848634 c 0.0117188,-0.2578125 0.046875,-0.9492188 0.78515629,-0.9492188 0.5625,0 0.7617187,0.3984375 0.7617187,0.703125 0,0.5039063 -0.3046875,0.6679688 -0.7148437,0.9023438 L 1.0548703,-1.5356447 C 0.52752656,-1.2309572 0.17596406,-0.79736344 0.14080781,-4.884375e-4 H 2.7892453 V -0.45751969 H 0.69158906 c 0.0234375,-0.15234375 0.12890625,-0.4453125 0.65625004,-0.73828121 l 0.4101562,-0.2226563 c 0.5742188,-0.3046875 1.03125,-0.5976562 1.03125,-1.2890625 0,-0.7265625 -0.5390625,-1.1601562 -1.2070312,-1.1601562 -0.421875,0 -1.33593754,0.1289062 -1.33593754,1.3828125 z m 0,0"
         style="fill:#000000;fill-opacity:1;fill-rule:nonzero;stroke:none"
         aria-label="2"
         transform="matrix(1.3333333,0,0,1.3333333,309.0896,447.73112)" />
      <path
         id="path210"
         d="m 238.175,223.623 v 1.575 m 0,106.825 v -1.575"
         style="fill:none;stroke:#000000;stroke-width:0.25;stroke-linecap:butt;stroke-linejoin:miter;stroke-miterlimit:10;stroke-dasharray:none;stroke-opacity:1"
         transform="matrix(1.3333333,0,0,-1.3333333,0,887.99579)" />
      <path
         id="path211"
         d="M 1.5946953,-1.7696291 H 0.24703906 v 0.4921875 H 1.5946953 Z m 0.9638672,-0.7148437 c 0.011719,-0.2578125 0.046875,-0.9492188 0.7851563,-0.9492188 0.5625,0 0.7617187,0.3984375 0.7617187,0.703125 0,0.5039063 -0.3046875,0.6679688 -0.7148437,0.9023438 L 2.8866875,-1.5352541 C 2.3593438,-1.2305666 2.0077813,-0.79697281 1.972625,-9.78125e-5 H 4.6210625 V -0.45712906 H 2.5234063 c 0.023437,-0.15234375 0.1289062,-0.4453125 0.65625,-0.73828124 l 0.4101562,-0.2226563 c 0.5742188,-0.3046875 1.03125,-0.5976562 1.03125,-1.2890625 0,-0.7265625 -0.5390625,-1.1601562 -1.2070312,-1.1601562 -0.421875,0 -1.3359375,0.1289062 -1.3359375,1.3828125 z m 0,0"
         style="fill:#000000;fill-opacity:1;fill-rule:nonzero;stroke:none"
         aria-label="-2"
         transform="matrix(1.3333333,0,0,1.3333333,314.30733,599.59779)" />
      <path
         id="path212"
         d="m 251.225,223.623 v 1.575 m 0,106.825 v -1.575"
         style="fill:none;stroke:#000000;stroke-width:0.25;stroke-linecap:butt;stroke-linejoin:miter;stroke-miterlimit:10;stroke-dasharray:none;stroke-opacity:1"
         transform="matrix(1.3333333,0,0,-1.3333333,0,887.99579)" />
      <path
         id="path213"
         d="M 1.5932781,-1.7696291 H 0.24562187 v 0.4921875 H 1.5932781 Z m 2.2060547,-2.0976562 h -0.375 c -0.1523437,0.6328125 -0.4101562,0.6914062 -1.0429687,0.7382812 v 0.3867188 H 3.2837078 V -9.78125e-5 h 0.515625 z m 2.1445313,3.28124999 H 5.3696453 V -9.78125e-5 H 5.9438641 Z M 7.3911297,-3.3047853 h 1.640625 V -3.7852541 H 7.0278484 l -0.2929687,2.0742188 0.421875,0.023437 c 0.1757812,-0.234375 0.4335937,-0.3632813 0.7148437,-0.3632813 0.4804688,0 0.8554688,0.2929688 0.8554688,0.8554688 0,0.48046874 -0.3164063,0.87890624 -0.8085938,0.87890624 -0.4335937,0 -0.7734375,-0.19921875 -0.8203125,-0.64453125 H 6.5942547 c 0.09375,0.8671875 0.7382812,1.06640625 1.2421875,1.06640625 1.21875,0 1.40625,-0.92578125 1.40625,-1.35937504 0,-0.796875 -0.6445313,-1.2304687 -1.265625,-1.2304687 -0.3515625,0 -0.5859375,0.1054687 -0.75,0.234375 z m 0,0"
         style="fill:#000000;fill-opacity:1;fill-rule:nonzero;stroke:none"
         aria-label="-1.5"
         transform="matrix(1.3333333,0,0,1.3333333,328.64907,599.59779)" />
      <path
         id="path214"
         d="m 264.3,223.623 v 1.575 m 0,106.825 v -1.575"
         style="fill:none;stroke:#000000;stroke-width:0.25;stroke-linecap:butt;stroke-linejoin:miter;stroke-miterlimit:10;stroke-dasharray:none;stroke-opacity:1"
         transform="matrix(1.3333333,0,0,-1.3333333,0,887.99579)" />
      <path
         id="path215"
         d="M 1.5937187,-1.7696291 H 0.2460625 v 0.4921875 h 1.3476562 z m 2.2060547,-2.0976562 h -0.375 c -0.1523437,0.6328125 -0.4101562,0.6914062 -1.0429687,0.7382812 v 0.3867188 H 3.2841484 V -9.78125e-5 h 0.515625 z m 0,0"
         style="fill:#000000;fill-opacity:1;fill-rule:nonzero;stroke:none"
         aria-label="-1"
         transform="matrix(1.3333333,0,0,1.3333333,349.14067,599.59779)" />
      <path
         id="path216"
         d="m 277.35,223.623 v 1.575 m 0,106.825 v -1.575"
         style="fill:none;stroke:#000000;stroke-width:0.25;stroke-linecap:butt;stroke-linejoin:miter;stroke-miterlimit:10;stroke-dasharray:none;stroke-opacity:1"
         transform="matrix(1.3333333,0,0,-1.3333333,0,887.99579)" />
      <path
         id="path217"
         d="M 1.5923016,-1.7696291 H 0.24464531 v 0.4921875 H 1.5923016 Z m 2.5722656,-0.1054687 c 0,0.96093749 -0.2460938,1.54687499 -0.8085938,1.54687499 -0.5507812,0 -0.8085937,-0.5859375 -0.8085937,-1.54687499 0,-0.9726563 0.2578125,-1.5585938 0.8085937,-1.5585938 0.5625,0 0.8085938,0.5859375 0.8085938,1.5585938 z m 0.515625,0 c 0,-0.8085938 -0.2109375,-1.9921875 -1.3242188,-1.9921875 -1.1015625,0 -1.3242187,1.1835937 -1.3242187,1.9921875 0,0.796875 0.2226562,1.98046874 1.3242187,1.98046874 1.1132813,0 1.3242188,-1.18359374 1.3242188,-1.98046874 z m 1.2626953,1.28906249 H 5.3686687 V -9.78125e-5 H 5.9428875 Z M 7.3901531,-3.3047853 h 1.640625 V -3.7852541 H 7.0268719 l -0.2929688,2.0742188 0.421875,0.023437 c 0.1757813,-0.234375 0.4335938,-0.3632813 0.7148438,-0.3632813 0.4804687,0 0.8554687,0.2929688 0.8554687,0.8554688 0,0.48046874 -0.3164062,0.87890624 -0.8085937,0.87890624 -0.4335938,0 -0.7734375,-0.19921875 -0.8203125,-0.64453125 H 6.5932781 c 0.09375,0.8671875 0.7382813,1.06640625 1.2421875,1.06640625 1.21875,0 1.40625,-0.92578125 1.40625,-1.35937504 0,-0.796875 -0.6445312,-1.2304687 -1.265625,-1.2304687 -0.3515625,0 -0.5859375,0.1054687 -0.75,0.234375 z m 0,0"
         style="fill:#000000;fill-opacity:1;fill-rule:nonzero;stroke:none"
         aria-label="-0.5"
         transform="matrix(1.3333333,0,0,1.3333333,363.4824,599.59779)" />
      <path
         id="path218"
         d="m 290.425,223.623 v 1.575 m 0,106.825 v -1.575"
         style="fill:none;stroke:#000000;stroke-width:0.25;stroke-linecap:butt;stroke-linejoin:miter;stroke-miterlimit:10;stroke-dasharray:none;stroke-opacity:1"
         transform="matrix(1.3333333,0,0,-1.3333333,0,887.99579)" />
      <path
         id="path219"
         d="m 2.3322156,-1.8750978 c 0,0.96093749 -0.2460937,1.54687499 -0.8085937,1.54687499 -0.55078127,0 -0.80859377,-0.5859375 -0.80859377,-1.54687499 0,-0.9726563 0.2578125,-1.5585938 0.80859377,-1.5585938 0.5625,0 0.8085937,0.5859375 0.8085937,1.5585938 z m 0.515625,0 c 0,-0.8085938 -0.2109375,-1.9921875 -1.3242187,-1.9921875 -1.10156252,0 -1.32421877,1.1835937 -1.32421877,1.9921875 0,0.796875 0.22265625,1.98046874 1.32421877,1.98046874 1.1132812,0 1.3242187,-1.18359374 1.3242187,-1.98046874 z m 0,0"
         style="fill:#000000;fill-opacity:1;fill-rule:nonzero;stroke:none"
         aria-label="0"
         transform="matrix(1.3333333,0,0,1.3333333,385.19507,599.59779)" />
      <path
         id="path220"
         d="m 303.475,223.623 v 1.575 m 0,106.825 v -1.575"
         style="fill:none;stroke:#000000;stroke-width:0.25;stroke-linecap:butt;stroke-linejoin:miter;stroke-miterlimit:10;stroke-dasharray:none;stroke-opacity:1"
         transform="matrix(1.3333333,0,0,-1.3333333,0,887.99579)" />
      <path
         id="path221"
         d="m 2.3307984,-1.8750978 c 0,0.96093749 -0.2460937,1.54687499 -0.8085937,1.54687499 -0.55078126,0 -0.80859376,-0.5859375 -0.80859376,-1.54687499 0,-0.9726563 0.2578125,-1.5585938 0.80859376,-1.5585938 0.5625,0 0.8085937,0.5859375 0.8085937,1.5585938 z m 0.515625,0 c 0,-0.8085938 -0.2109375,-1.9921875 -1.3242187,-1.9921875 -1.10156251,0 -1.32421876,1.1835937 -1.32421876,1.9921875 0,0.796875 0.22265625,1.98046874 1.32421876,1.98046874 1.1132812,0 1.3242187,-1.18359374 1.3242187,-1.98046874 z m 1.265625,1.28906249 H 3.5378297 V -9.78125e-5 H 4.1120484 Z M 5.5593141,-3.3047853 h 1.640625 V -3.7852541 H 5.1960328 l -0.2929687,2.0742188 0.421875,0.023437 c 0.1757812,-0.234375 0.4335937,-0.3632813 0.7148437,-0.3632813 0.4804688,0 0.8554688,0.2929688 0.8554688,0.8554688 0,0.48046874 -0.3164063,0.87890624 -0.8085938,0.87890624 -0.4335937,0 -0.7734375,-0.19921875 -0.8203125,-0.64453125 H 4.7624391 c 0.09375,0.8671875 0.7382812,1.06640625 1.2421875,1.06640625 1.21875,0 1.40625,-0.92578125 1.40625,-1.35937504 0,-0.796875 -0.6445313,-1.2304687 -1.265625,-1.2304687 -0.3515625,0 -0.5859375,0.1054687 -0.75,0.234375 z m 0,0"
         style="fill:#000000;fill-opacity:1;fill-rule:nonzero;stroke:none"
         aria-label="0.5"
         transform="matrix(1.3333333,0,0,1.3333333,399.5368,599.59779)" />
      <path
         id="path222"
         d="m 316.525,223.623 v 1.575 m 0,106.825 v -1.575"
         style="fill:none;stroke:#000000;stroke-width:0.25;stroke-linecap:butt;stroke-linejoin:miter;stroke-miterlimit:10;stroke-dasharray:none;stroke-opacity:1"
         transform="matrix(1.3333333,0,0,-1.3333333,0,887.99579)" />
      <path
         id="path223"
         d="m 1.9695203,-3.8672853 h -0.375 c -0.1523437,0.6328125 -0.4101562,0.6914062 -1.04296874,0.7382812 v 0.3867188 H 1.4538953 V -9.78125e-5 h 0.515625 z m 0,0"
         style="fill:#000000;fill-opacity:1;fill-rule:nonzero;stroke:none"
         aria-label="1"
         transform="matrix(1.3333333,0,0,1.3333333,419.99507,599.59779)" />
      <path
         id="path224"
         d="m 329.6,223.623 v 1.575 m 0,106.825 v -1.575"
         style="fill:none;stroke:#000000;stroke-width:0.25;stroke-linecap:butt;stroke-linejoin:miter;stroke-miterlimit:10;stroke-dasharray:none;stroke-opacity:1"
         transform="matrix(1.3333333,0,0,-1.3333333,0,887.99579)" />
      <path
         id="path225"
         d="m 1.9694703,-3.8672853 h -0.375 c -0.1523437,0.6328125 -0.4101562,0.6914062 -1.04296874,0.7382812 v 0.3867188 H 1.4538453 V -9.78125e-5 h 0.515625 z m 2.1445313,3.28124999 H 3.5397828 V -9.78125e-5 H 4.1140016 Z M 5.5612672,-3.3047853 h 1.640625 V -3.7852541 H 5.1979859 l -0.2929687,2.0742188 0.421875,0.023437 c 0.1757812,-0.234375 0.4335937,-0.3632813 0.7148437,-0.3632813 0.4804688,0 0.8554688,0.2929688 0.8554688,0.8554688 0,0.48046874 -0.3164063,0.87890624 -0.8085938,0.87890624 -0.4335937,0 -0.7734375,-0.19921875 -0.8203125,-0.64453125 H 4.7643922 c 0.09375,0.8671875 0.7382812,1.06640625 1.2421875,1.06640625 1.21875,0 1.40625,-0.92578125 1.40625,-1.35937504 0,-0.796875 -0.6445313,-1.2304687 -1.265625,-1.2304687 -0.3515625,0 -0.5859375,0.1054687 -0.75,0.234375 z m 0,0"
         style="fill:#000000;fill-opacity:1;fill-rule:nonzero;stroke:none"
         aria-label="1.5"
         transform="matrix(1.3333333,0,0,1.3333333,434.37013,599.59779)" />
      <path
         id="path226"
         d="m 342.65,223.623 v 1.575 m 0,106.825 v -1.575"
         style="fill:none;stroke:#000000;stroke-width:0.25;stroke-linecap:butt;stroke-linejoin:miter;stroke-miterlimit:10;stroke-dasharray:none;stroke-opacity:1"
         transform="matrix(1.3333333,0,0,-1.3333333,0,887.99579)" />
      <path
         id="path227"
         d="m 0.72635625,-2.4844728 c 0.0117188,-0.2578125 0.046875,-0.9492188 0.78515625,-0.9492188 0.5625,0 0.7617188,0.3984375 0.7617188,0.703125 0,0.5039063 -0.3046875,0.6679688 -0.7148438,0.9023438 L 1.0544813,-1.5352541 C 0.5271375,-1.2305666 0.175575,-0.79697281 0.14041875,-9.78125e-5 H 2.7888563 V -0.45712906 H 0.6912 c 0.0234375,-0.15234375 0.12890625,-0.4453125 0.65625,-0.73828124 l 0.4101563,-0.2226563 c 0.5742187,-0.3046875 1.03125,-0.5976562 1.03125,-1.2890625 0,-0.7265625 -0.5390625,-1.1601562 -1.2070313,-1.1601562 -0.421875,0 -1.3359375,0.1289062 -1.3359375,1.3828125 z m 0,0"
         style="fill:#000000;fill-opacity:1;fill-rule:nonzero;stroke:none"
         aria-label="2"
         transform="matrix(1.3333333,0,0,1.3333333,454.8284,599.59779)" />
      <path
         id="path228"
         d="M 238.175,223.623 H 342.65 v 108.4 H 238.175 v -108.4"
         style="fill:none;stroke:#000000;stroke-width:0.25;stroke-linecap:butt;stroke-linejoin:miter;stroke-miterlimit:10;stroke-dasharray:none;stroke-opacity:1"
         transform="matrix(1.3333333,0,0,-1.3333333,0,887.99579)" />
      <path
         id="path229"
         d="m 316.475,279.523 -0.15,1.7 m -0.25,1.675 -0.375,1.675 m -0.45,1.625 -0.55,1.6 m -0.65,1.575 -0.75,1.5 m -0.825,1.476 -0.925,1.399 m -1.025,1.35 -1.075,1.275 m -1.15,1.2 -1.25,1.125 m -1.275,1.05 -1.375,0.95 m -1.4,0.875 -1.475,0.775 m -1.5,0.675 -1.55,0.575 m -1.575,0.475 -1.6,0.375 m -1.625,0.25 -1.625,0.175 m -1.65,0.05 -1.625,-0.05 m -1.625,-0.175 -1.625,-0.25 m -1.6,-0.375 -1.575,-0.475 m -1.55,-0.575 -1.5,-0.675 m -1.475,-0.775 -1.4,-0.875 m -1.375,-0.95 -1.275,-1.05 m -1.25,-1.125 -1.15,-1.2 m -1.075,-1.275 -1.025,-1.35 m -0.925,-1.399 -0.825,-1.476 m -0.75,-1.5 -0.65,-1.575 m -0.55,-1.6 -0.45,-1.625 m -0.375,-1.675 -0.25,-1.675 m -0.15,-1.7 -0.05,-1.7 m 0.05,-1.699 0.15,-1.7 m 0.25,-1.675 0.375,-1.676 m 0.45,-1.625 0.55,-1.599 m 0.65,-1.576 0.75,-1.5 m 0.825,-1.475 0.925,-1.4 m 1.025,-1.349 1.075,-1.276 m 1.15,-1.2 1.25,-1.125 m 1.275,-1.05 1.375,-0.949 m 1.4,-0.875 1.475,-0.775 m 1.5,-0.675 1.55,-0.575 m 1.575,-0.475 1.6,-0.375 m 1.625,-0.25 1.625,-0.176 m 1.65,-0.05 1.625,0.05 m 1.625,0.176 1.625,0.25 m 1.6,0.375 1.575,0.475 m 1.55,0.575 1.5,0.675 m 1.475,0.775 1.4,0.875 m 1.375,0.949 1.275,1.05 m 1.25,1.125 1.15,1.2 m 1.075,1.276 1.025,1.349 m 0.925,1.4 0.825,1.475 m 0.75,1.5 0.65,1.576 m 0.55,1.599 0.45,1.625 m 0.375,1.676 0.25,1.675 m 0.15,1.7 0.05,1.699 m -78.35,0 H 342.65 m -52.225,-54.2 v 108.4"
         style="fill:none;stroke:#000000;stroke-width:0.125;stroke-linecap:butt;stroke-linejoin:miter;stroke-miterlimit:10;stroke-dasharray:none;stroke-opacity:1"
         transform="matrix(1.3333333,0,0,-1.3333333,0,887.99579)" />
      <g
         id="g172"
         transform="matrix(0.27043545,0,0,0.27043545,287.77077,387.74535)"
         style="stroke-width:3.69774">
        <g
           clip-path="url(#clipPath168)"
           id="g171"
           style="stroke-width:3.69774">
          <path
             d="m 221.021,251.148 13.709,13.708 h -13.709 v -13.708 h 13.709 v 13.708 -13.708 h 13.708 l -13.708,13.708 h 13.708 v -13.708 m 0,0 13.708,13.708 h -13.708 v -13.708 h 13.708 v 13.708 -13.708 h 13.709 l -13.709,13.708 h 13.709 v -13.708 m 0,0 13.679,13.708 h -13.679 v -13.708 h 13.679 v 13.708 -13.708 h 13.708 l -13.708,13.708 h 13.708 v -13.708 m 0,0 13.708,13.708 h -13.708 v -13.708 h 13.708 v 13.708 -13.708 h 13.709 l -13.709,13.708 h 13.709 v -13.708 m -109.638,27.417 v -13.709 h 13.709 l -13.709,13.709 h 13.709 v -13.709 l 13.708,13.709 H 234.73 v -13.709 h 13.708 v 13.709 m 0,0 v -13.709 h 13.708 l -13.708,13.709 h 13.708 v -13.709 l 13.709,13.709 h -13.709 v -13.709 h 13.709 v 13.709 m 0,0 v -13.709 h 13.679 l -13.679,13.709 h 13.679 v -13.709 l 13.708,13.709 h -13.708 v -13.709 h 13.708 v 13.709 m 0,0 v -13.709 h 13.708 l -13.708,13.709 h 13.708 v -13.709 l 13.709,13.709 H 316.95 v -13.709 h 13.709 v 13.709 m -109.638,0 13.709,13.708 h -13.709 v -13.708 h 13.709 v 13.708 -13.708 h 13.708 l -13.708,13.708 h 13.708 v -13.708 m 0,0 13.708,13.708 h -13.708 v -13.708 h 13.708 v 13.708 -13.708 h 13.709 l -13.709,13.708 h 13.709 v -13.708 m 0,0 13.679,13.708 h -13.679 v -13.708 h 13.679 v 13.708 -13.708 h 13.708 l -13.708,13.708 h 13.708 v -13.708 m 0,0 13.708,13.708 h -13.708 v -13.708 h 13.708 v 13.708 -13.708 h 13.709 l -13.709,13.708 h 13.709 v -13.708"
             style="fill:none;stroke:#000000;stroke-width:1.29421;stroke-linecap:butt;stroke-linejoin:round;stroke-miterlimit:10;stroke-dasharray:none;stroke-opacity:1"
             transform="matrix(1.3333333,0,0,-1.3333333,0,887.99579)"
             clip-path="url(#clipPath165)"
             id="path169-2" />
          <path
             d="m 221.021,305.952 v -13.679 h 13.709 l -13.709,13.679 h 13.709 v -13.679 l 13.708,13.679 H 234.73 v -13.679 h 13.708 v 13.679 m 0,0 v -13.679 h 13.708 l -13.708,13.679 h 13.708 v -13.679 l 13.709,13.679 h -13.709 v -13.679 h 13.709 v 13.679 m 0,0 v -13.679 h 13.679 l -13.679,13.679 h 13.679 v -13.679 l 13.708,13.679 h -13.708 v -13.679 h 13.708 v 13.679 m 0,0 v -13.679 h 13.708 l -13.708,13.679 h 13.708 v -13.679 l 13.709,13.679 H 316.95 v -13.679 h 13.709 v 13.679 m -109.638,0 13.709,13.709 h -13.709 v -13.709 h 13.709 v 13.709 -13.709 h 13.708 l -13.708,13.709 h 13.708 v -13.709 m 0,0 13.708,13.709 h -13.708 v -13.709 h 13.708 v 13.709 -13.709 h 13.709 l -13.709,13.709 h 13.709 v -13.709 m 0,0 13.679,13.709 h -13.679 v -13.709 h 13.679 v 13.709 -13.709 h 13.708 l -13.708,13.709 h 13.708 v -13.709 m 0,0 13.708,13.709 h -13.708 v -13.709 h 13.708 v 13.709 -13.709 h 13.709 l -13.709,13.709 h 13.709 v -13.709 m -109.638,27.417 v -13.708 h 13.709 l -13.709,13.708 h 13.709 v -13.708 l 13.708,13.708 H 234.73 v -13.708 h 13.708 v 13.708 m 0,0 v -13.708 h 13.708 l -13.708,13.708 h 13.708 v -13.708 l 13.709,13.708 h -13.709 v -13.708 h 13.709 v 13.708 m 0,0 v -13.708 h 13.679 l -13.679,13.708 h 13.679 v -13.708 l 13.708,13.708 h -13.708 v -13.708 h 13.708 v 13.708 m 0,0 v -13.708 h 13.708 l -13.708,13.708 h 13.708 v -13.708 l 13.709,13.708 H 316.95 v -13.708 h 13.709 v 13.708"
             style="fill:none;stroke:#000000;stroke-width:1.29421;stroke-linecap:butt;stroke-linejoin:round;stroke-miterlimit:10;stroke-dasharray:none;stroke-opacity:1"
             transform="matrix(1.3333333,0,0,-1.3333333,0,887.99579)"
             clip-path="url(#clipPath166)"
             id="path170-6" />
          <path
             d="m 221.021,333.369 13.709,13.708 h -13.709 v -13.708 h 13.709 v 13.708 -13.708 h 13.708 l -13.708,13.708 h 13.708 v -13.708 m 0,0 13.708,13.708 h -13.708 v -13.708 h 13.708 v 13.708 -13.708 h 13.709 l -13.709,13.708 h 13.709 v -13.708 m 0,0 13.679,13.708 h -13.679 v -13.708 h 13.679 v 13.708 -13.708 h 13.708 l -13.708,13.708 h 13.708 v -13.708 m 0,0 13.708,13.708 h -13.708 v -13.708 h 13.708 v 13.708 -13.708 h 13.709 l -13.709,13.708 h 13.709 v -13.708 m -109.638,27.417 v -13.709 h 13.709 l -13.709,13.709 h 13.709 v -13.709 l 13.708,13.709 H 234.73 v -13.709 h 13.708 v 13.709 m 0,0 v -13.709 h 13.708 l -13.708,13.709 h 13.708 v -13.709 l 13.709,13.709 h -13.709 v -13.709 h 13.709 v 13.709 m 0,0 v -13.709 h 13.679 l -13.679,13.709 h 13.679 v -13.709 l 13.708,13.709 h -13.708 v -13.709 h 13.708 v 13.709 m 0,0 v -13.709 h 13.708 l -13.708,13.709 h 13.708 v -13.709 l 13.709,13.709 H 316.95 v -13.709 h 13.709 v 13.709"
             style="fill:none;stroke:#000000;stroke-width:1.29421;stroke-linecap:butt;stroke-linejoin:round;stroke-miterlimit:10;stroke-dasharray:none;stroke-opacity:1"
             transform="matrix(1.3333333,0,0,-1.3333333,0,887.99579)"
             clip-path="url(#clipPath167)"
             id="path171-1" />
        </g>
      </g>
      <path
         id="path230"
         d="m 327.35,277.823 -9.225,28.75 -27.7,9.575 -27.725,-9.575 -9.225,-28.75 9.225,-28.75 27.725,-9.575 27.7,9.575 9.225,28.75"
         style="fill:none;stroke:#000000;stroke-width:0.375;stroke-linecap:butt;stroke-linejoin:miter;stroke-miterlimit:10;stroke-dasharray:none;stroke-opacity:1"
         transform="matrix(1.3333333,0,0,-1.3333333,0,887.99579)" />
    </g>
    <g
       id="g4"
       inkscape:label="T1"
       transform="translate(0,4.4120432)">
      <path
         id="path153"
         d="m 106.384,223.623 h 1.575 m 102.9,0 h -1.575"
         style="fill:none;stroke:#000000;stroke-width:0.25;stroke-linecap:butt;stroke-linejoin:miter;stroke-miterlimit:10;stroke-dasharray:none;stroke-opacity:1"
         transform="matrix(1.3333333,0,0,-1.3333333,0,887.99579)" />
      <path
         id="path154"
         d="M 1.5939859,-1.7686525 H 0.24632969 V -1.276465 H 1.5939859 Z m 0.9638672,-0.7148438 c 0.011719,-0.2578125 0.046875,-0.9492187 0.7851563,-0.9492187 0.5625,0 0.7617187,0.3984375 0.7617187,0.703125 0,0.5039062 -0.3046875,0.6679687 -0.7148437,0.9023437 L 2.8859781,-1.5342775 C 2.3586344,-1.22959 2.0070719,-0.79599625 1.9719156,8.7875e-4 H 4.6203531 V -0.4561525 H 2.5226969 c 0.023437,-0.15234375 0.1289062,-0.4453125 0.65625,-0.7382813 L 3.5891031,-1.41709 c 0.5742188,-0.3046875 1.03125,-0.5976563 1.03125,-1.2890625 0,-0.7265625 -0.5390625,-1.1601563 -1.2070312,-1.1601563 -0.421875,0 -1.3359375,0.1289063 -1.3359375,1.3828125 z m 0,0"
         style="fill:#000000;fill-opacity:1;fill-rule:nonzero;stroke:none"
         aria-label="-2"
         transform="matrix(1.3333333,0,0,1.3333333,130.92547,592.26445)" />
      <path
         id="path155"
         d="m 106.384,237.173 h 1.575 m 102.9,0 h -1.575"
         style="fill:none;stroke:#000000;stroke-width:0.25;stroke-linecap:butt;stroke-linejoin:miter;stroke-miterlimit:10;stroke-dasharray:none;stroke-opacity:1"
         transform="matrix(1.3333333,0,0,-1.3333333,0,887.99579)" />
      <path
         id="path156"
         d="M 1.5934953,-1.7684572 H 0.24583906 v 0.4921875 H 1.5934953 Z M 3.79955,-3.8661134 h -0.375 c -0.1523437,0.6328125 -0.4101562,0.6914062 -1.0429687,0.7382812 v 0.3867188 H 3.283925 V 0.00107406 H 3.79955 Z m 2.1445313,3.28124996 H 5.3698625 v 0.5859375 H 5.9440813 Z M 7.3913469,-3.3036134 h 1.640625 V -3.7840822 H 7.0280656 l -0.2929687,2.0742188 0.421875,0.023437 c 0.1757812,-0.234375 0.4335937,-0.3632813 0.7148437,-0.3632813 0.4804688,0 0.8554688,0.2929688 0.8554688,0.8554688 0,0.48046871 -0.3164063,0.87890621 -0.8085938,0.87890621 -0.4335937,0 -0.7734375,-0.19921875 -0.8203125,-0.64453125 H 6.5944719 c 0.09375,0.8671875 0.7382812,1.06640625 1.2421875,1.06640625 1.21875,0 1.40625,-0.92578125 1.40625,-1.35937501 0,-0.796875 -0.6445313,-1.2304687 -1.265625,-1.2304687 -0.3515625,0 -0.5859375,0.1054687 -0.75,0.234375 z m 0,0"
         style="fill:#000000;fill-opacity:1;fill-rule:nonzero;stroke:none"
         aria-label="-1.5"
         transform="matrix(1.3333333,0,0,1.3333333,124.80893,574.19779)" />
      <path
         id="path157"
         d="m 106.384,250.723 h 1.575 m 102.9,0 h -1.575"
         style="fill:none;stroke:#000000;stroke-width:0.25;stroke-linecap:butt;stroke-linejoin:miter;stroke-miterlimit:10;stroke-dasharray:none;stroke-opacity:1"
         transform="matrix(1.3333333,0,0,-1.3333333,0,887.99579)" />
      <path
         id="path158"
         d="M 1.5939859,-1.7682619 H 0.24632969 v 0.4921875 H 1.5939859 Z m 2.2060547,-2.0976562 h -0.375 c -0.1523437,0.6328125 -0.4101562,0.6914062 -1.0429687,0.7382812 v 0.3867188 h 0.9023437 v 2.74218747 h 0.515625 z m 0,0"
         style="fill:#000000;fill-opacity:1;fill-rule:nonzero;stroke:none"
         aria-label="-1"
         transform="matrix(1.3333333,0,0,1.3333333,130.92547,556.13112)" />
      <path
         id="path159"
         d="m 106.384,264.273 h 1.575 m 102.9,0 h -1.575"
         style="fill:none;stroke:#000000;stroke-width:0.25;stroke-linecap:butt;stroke-linejoin:miter;stroke-miterlimit:10;stroke-dasharray:none;stroke-opacity:1"
         transform="matrix(1.3333333,0,0,-1.3333333,0,887.99579)" />
      <path
         id="path160"
         d="M 1.5934953,-1.7680666 H 0.24583906 v 0.4921875 H 1.5934953 Z m 2.569336,-0.1054687 c 0,0.96093749 -0.2460938,1.54687499 -0.8085938,1.54687499 -0.5507812,0 -0.8085937,-0.5859375 -0.8085937,-1.54687499 0,-0.9726563 0.2578125,-1.5585938 0.8085937,-1.5585938 0.5625,0 0.8085938,0.5859375 0.8085938,1.5585938 z m 0.515625,0 c 0,-0.8085938 -0.2109375,-1.9921875 -1.3242188,-1.9921875 -1.1015625,0 -1.3242187,1.1835937 -1.3242187,1.9921875 0,0.796875 0.2226562,1.98046874 1.3242187,1.98046874 1.1132813,0 1.3242188,-1.18359374 1.3242188,-1.98046874 z m 1.265625,1.28906249 H 5.3698625 v 0.5859375 H 5.9440813 Z M 7.3913469,-3.3032228 h 1.640625 V -3.7836916 H 7.0280656 l -0.2929687,2.0742188 0.421875,0.023437 c 0.1757812,-0.234375 0.4335937,-0.3632813 0.7148437,-0.3632813 0.4804688,0 0.8554688,0.2929688 0.8554688,0.8554688 0,0.48046874 -0.3164063,0.87890624 -0.8085938,0.87890624 -0.4335937,0 -0.7734375,-0.19921875 -0.8203125,-0.64453125 H 6.5944719 c 0.09375,0.8671875 0.7382812,1.06640625 1.2421875,1.06640625 1.21875,0 1.40625,-0.92578125 1.40625,-1.35937504 0,-0.796875 -0.6445313,-1.2304687 -1.265625,-1.2304687 -0.3515625,0 -0.5859375,0.1054687 -0.75,0.234375 z m 0,0"
         style="fill:#000000;fill-opacity:1;fill-rule:nonzero;stroke:none"
         aria-label="-0.5"
         transform="matrix(1.3333333,0,0,1.3333333,124.80893,538.06445)" />
      <path
         id="path161"
         d="m 106.384,277.823 h 1.575 m 102.9,0 h -1.575"
         style="fill:none;stroke:#000000;stroke-width:0.25;stroke-linecap:butt;stroke-linejoin:miter;stroke-miterlimit:10;stroke-dasharray:none;stroke-opacity:1"
         transform="matrix(1.3333333,0,0,-1.3333333,0,887.99579)" />
      <path
         id="path162"
         d="m 2.3316219,-1.8762697 c 0,0.96093751 -0.2460938,1.54687501 -0.8085938,1.54687501 -0.55078122,0 -0.80859372,-0.5859375 -0.80859372,-1.54687501 0,-0.9726562 0.2578125,-1.5585937 0.80859372,-1.5585937 0.5625,0 0.8085938,0.5859375 0.8085938,1.5585937 z m 0.515625,0 c 0,-0.8085937 -0.2109375,-1.9921875 -1.3242188,-1.9921875 -1.10156247,0 -1.32421872,1.1835938 -1.32421872,1.9921875 0,0.796875 0.22265625,1.98046876 1.32421872,1.98046876 1.1132813,0 1.3242188,-1.18359376 1.3242188,-1.98046876 z m 0,0"
         style="fill:#000000;fill-opacity:1;fill-rule:nonzero;stroke:none"
         aria-label="0"
         transform="matrix(1.3333333,0,0,1.3333333,133.36773,519.99779)" />
      <path
         id="path163"
         d="m 106.384,291.373 h 1.575 m 102.9,0 h -1.575"
         style="fill:none;stroke:#000000;stroke-width:0.25;stroke-linecap:butt;stroke-linejoin:miter;stroke-miterlimit:10;stroke-dasharray:none;stroke-opacity:1"
         transform="matrix(1.3333333,0,0,-1.3333333,0,887.99579)" />
      <path
         id="path164"
         d="m 2.3311312,-1.8760744 c 0,0.96093753 -0.2460937,1.54687503 -0.8085937,1.54687503 -0.55078125,0 -0.80859375,-0.5859375 -0.80859375,-1.54687503 0,-0.9726562 0.2578125,-1.5585937 0.80859375,-1.5585937 0.5625,0 0.8085937,0.5859375 0.8085937,1.5585937 z m 0.515625,0 c 0,-0.8085937 -0.2109375,-1.9921875 -1.3242187,-1.9921875 -1.1015625,0 -1.32421875,1.1835938 -1.32421875,1.9921875 0,0.796875 0.22265625,1.98046878 1.32421875,1.98046878 1.1132812,0 1.3242187,-1.18359378 1.3242187,-1.98046878 z m 1.265625,1.28906253 H 3.5381625 v 0.5859375 H 4.1123812 Z M 5.5596469,-3.3057619 h 1.640625 V -3.7862306 H 5.1963656 l -0.2929687,2.0742187 0.421875,0.023437 c 0.1757812,-0.234375 0.4335937,-0.3632812 0.7148437,-0.3632812 0.4804688,0 0.8554688,0.2929687 0.8554688,0.8554687 0,0.48046878 -0.3164063,0.87890628 -0.8085938,0.87890628 -0.4335937,0 -0.7734375,-0.19921875 -0.8203125,-0.64453125 H 4.7627719 c 0.09375,0.8671875 0.7382812,1.06640625 1.2421875,1.06640625 1.21875,0 1.40625,-0.92578125 1.40625,-1.35937498 0,-0.796875 -0.6445313,-1.2304688 -1.265625,-1.2304688 -0.3515625,0 -0.5859375,0.1054688 -0.75,0.234375 z m 0,0"
         style="fill:#000000;fill-opacity:1;fill-rule:nonzero;stroke:none"
         aria-label="0.5"
         transform="matrix(1.3333333,0,0,1.3333333,127.2512,501.93112)" />
      <path
         id="path165"
         d="m 106.384,304.923 h 1.575 m 102.9,0 h -1.575"
         style="fill:none;stroke:#000000;stroke-width:0.25;stroke-linecap:butt;stroke-linejoin:miter;stroke-miterlimit:10;stroke-dasharray:none;stroke-opacity:1"
         transform="matrix(1.3333333,0,0,-1.3333333,0,887.99579)" />
      <path
         id="path166"
         d="m 1.9683406,-3.8680666 h -0.375 c -0.1523437,0.6328125 -0.4101562,0.6914063 -1.04296872,0.7382813 v 0.3867187 H 1.4527156 v 2.7421875375 h 0.515625 z m 0,0"
         style="fill:#000000;fill-opacity:1;fill-rule:nonzero;stroke:none"
         aria-label="1"
         transform="matrix(1.3333333,0,0,1.3333333,133.36773,483.86445)" />
      <path
         id="path167"
         d="m 106.384,318.473 h 1.575 m 102.9,0 h -1.575"
         style="fill:none;stroke:#000000;stroke-width:0.25;stroke-linecap:butt;stroke-linejoin:miter;stroke-miterlimit:10;stroke-dasharray:none;stroke-opacity:1"
         transform="matrix(1.3333333,0,0,-1.3333333,0,887.99579)" />
      <path
         id="path168"
         d="m 1.96785,-3.8678713 h -0.375 C 1.4405062,-3.2350588 1.1826937,-3.176465 0.54988125,-3.12959 v 0.3867187 H 1.452225 V -6.8375e-4 H 1.96785 Z m 2.1445312,3.28125005 H 3.5381625 v 0.5859375 H 4.1123812 Z M 5.5596469,-3.3053713 h 1.640625 V -3.78584 H 5.1963656 l -0.2929687,2.0742187 0.421875,0.023437 c 0.1757812,-0.234375 0.4335937,-0.3632812 0.7148437,-0.3632812 0.4804688,0 0.8554688,0.2929687 0.8554688,0.8554687 0,0.4804688 -0.3164063,0.8789063 -0.8085938,0.8789063 -0.4335937,0 -0.7734375,-0.19921875 -0.8203125,-0.64453125 H 4.7627719 c 0.09375,0.8671875 0.7382812,1.06640625 1.2421875,1.06640625 1.21875,0 1.40625,-0.92578125 1.40625,-1.359375 0,-0.796875 -0.6445313,-1.2304688 -1.265625,-1.2304688 -0.3515625,0 -0.5859375,0.1054688 -0.75,0.234375 z m 0,0"
         style="fill:#000000;fill-opacity:1;fill-rule:nonzero;stroke:none"
         aria-label="1.5"
         transform="matrix(1.3333333,0,0,1.3333333,127.2512,465.79779)" />
      <path
         id="path169"
         d="m 106.384,332.023 h 1.575 m 102.9,0 h -1.575"
         style="fill:none;stroke:#000000;stroke-width:0.25;stroke-linecap:butt;stroke-linejoin:miter;stroke-miterlimit:10;stroke-dasharray:none;stroke-opacity:1"
         transform="matrix(1.3333333,0,0,-1.3333333,0,887.99579)" />
      <path
         id="path170"
         d="m 0.72615313,-2.4848634 c 0.0117188,-0.2578125 0.046875,-0.9492188 0.78515627,-0.9492188 0.5625,0 0.7617187,0.3984375 0.7617187,0.703125 0,0.5039063 -0.3046875,0.6679688 -0.7148437,0.9023438 L 1.0542781,-1.5356447 C 0.52693438,-1.2309572 0.17537188,-0.79736344 0.14021563,-4.884375e-4 H 2.7886531 V -0.45751969 H 0.69099688 c 0.0234375,-0.15234375 0.12890625,-0.4453125 0.65625002,-0.73828121 l 0.4101562,-0.2226563 c 0.5742188,-0.3046875 1.03125,-0.5976562 1.03125,-1.2890625 0,-0.7265625 -0.5390625,-1.1601562 -1.2070312,-1.1601562 -0.421875,0 -1.33593752,0.1289062 -1.33593752,1.3828125 z m 0,0"
         style="fill:#000000;fill-opacity:1;fill-rule:nonzero;stroke:none"
         aria-label="2"
         transform="matrix(1.3333333,0,0,1.3333333,133.36773,447.73112)" />
      <path
         id="path171"
         d="m 106.384,223.623 v 1.575 m 0,106.825 v -1.575"
         style="fill:none;stroke:#000000;stroke-width:0.25;stroke-linecap:butt;stroke-linejoin:miter;stroke-miterlimit:10;stroke-dasharray:none;stroke-opacity:1"
         transform="matrix(1.3333333,0,0,-1.3333333,0,887.99579)" />
      <path
         id="path172"
         d="M 1.5941031,-1.7696291 H 0.24644688 v 0.4921875 H 1.5941031 Z m 0.9638672,-0.7148437 c 0.011719,-0.2578125 0.046875,-0.9492188 0.7851563,-0.9492188 0.5625,0 0.7617187,0.3984375 0.7617187,0.703125 0,0.5039063 -0.3046875,0.6679688 -0.7148437,0.9023438 L 2.8860953,-1.5352541 C 2.3587516,-1.2305666 2.0071891,-0.79697281 1.9720328,-9.78125e-5 H 4.6204703 V -0.45712906 H 2.5228141 c 0.023437,-0.15234375 0.1289062,-0.4453125 0.65625,-0.73828124 l 0.4101562,-0.2226563 c 0.5742188,-0.3046875 1.03125,-0.5976562 1.03125,-1.2890625 0,-0.7265625 -0.5390625,-1.1601562 -1.2070312,-1.1601562 -0.421875,0 -1.3359375,0.1289062 -1.3359375,1.3828125 z m 0,0"
         style="fill:#000000;fill-opacity:1;fill-rule:nonzero;stroke:none"
         aria-label="-2"
         transform="matrix(1.3333333,0,0,1.3333333,138.58547,599.59779)" />
      <path
         id="path173"
         d="m 119.434,223.623 v 1.575 m 0,106.825 v -1.575"
         style="fill:none;stroke:#000000;stroke-width:0.25;stroke-linecap:butt;stroke-linejoin:miter;stroke-miterlimit:10;stroke-dasharray:none;stroke-opacity:1"
         transform="matrix(1.3333333,0,0,-1.3333333,0,887.99579)" />
      <path
         id="path174"
         d="M 1.5926859,-1.7696291 H 0.24502969 v 0.4921875 H 1.5926859 Z m 2.2089844,-2.0976562 h -0.375 c -0.1523437,0.6328125 -0.4101562,0.6914062 -1.0429687,0.7382812 v 0.3867188 H 3.2860453 V -9.78125e-5 h 0.515625 z m 2.1416016,3.28124999 H 5.3690531 V -9.78125e-5 H 5.9432719 Z M 7.3905375,-3.3047853 h 1.640625 V -3.7852541 H 7.0272563 l -0.2929688,2.0742188 0.421875,0.023437 c 0.1757813,-0.234375 0.4335938,-0.3632813 0.7148438,-0.3632813 0.4804687,0 0.8554687,0.2929688 0.8554687,0.8554688 0,0.48046874 -0.3164062,0.87890624 -0.8085937,0.87890624 -0.4335938,0 -0.7734375,-0.19921875 -0.8203125,-0.64453125 H 6.5936625 c 0.09375,0.8671875 0.7382813,1.06640625 1.2421875,1.06640625 1.21875,0 1.40625,-0.92578125 1.40625,-1.35937504 0,-0.796875 -0.6445312,-1.2304687 -1.265625,-1.2304687 -0.3515625,0 -0.5859375,0.1054687 -0.75,0.234375 z m 0,0"
         style="fill:#000000;fill-opacity:1;fill-rule:nonzero;stroke:none"
         aria-label="-1.5"
         transform="matrix(1.3333333,0,0,1.3333333,152.9272,599.59779)" />
      <path
         id="path175"
         d="m 132.509,223.623 v 1.575 m 0,106.825 v -1.575"
         style="fill:none;stroke:#000000;stroke-width:0.25;stroke-linecap:butt;stroke-linejoin:miter;stroke-miterlimit:10;stroke-dasharray:none;stroke-opacity:1"
         transform="matrix(1.3333333,0,0,-1.3333333,0,887.99579)" />
      <path
         id="path176"
         d="M 1.5931266,-1.7696291 H 0.24547031 v 0.4921875 H 1.5931266 Z m 2.2060547,-2.0976562 h -0.375 C 3.2718375,-3.2344728 3.014025,-3.1758791 2.3812125,-3.1290041 v 0.3867188 H 3.2835563 V -9.78125e-5 h 0.515625 z m 0,0"
         style="fill:#000000;fill-opacity:1;fill-rule:nonzero;stroke:none"
         aria-label="-1"
         transform="matrix(1.3333333,0,0,1.3333333,173.4188,599.59779)" />
      <path
         id="path177"
         d="m 145.559,223.623 v 1.575 m 0,106.825 v -1.575"
         style="fill:none;stroke:#000000;stroke-width:0.25;stroke-linecap:butt;stroke-linejoin:miter;stroke-miterlimit:10;stroke-dasharray:none;stroke-opacity:1"
         transform="matrix(1.3333333,0,0,-1.3333333,0,887.99579)" />
      <path
         id="path178"
         d="M 1.5946391,-1.7696291 H 0.24698281 v 0.4921875 H 1.5946391 Z M 4.163975,-1.8750978 c 0,0.96093749 -0.2460938,1.54687499 -0.8085938,1.54687499 -0.5507812,0 -0.8085937,-0.5859375 -0.8085937,-1.54687499 0,-0.9726563 0.2578125,-1.5585938 0.8085937,-1.5585938 0.5625,0 0.8085938,0.5859375 0.8085938,1.5585938 z m 0.515625,0 c 0,-0.8085938 -0.2109375,-1.9921875 -1.3242188,-1.9921875 -1.1015625,0 -1.3242187,1.1835937 -1.3242187,1.9921875 0,0.796875 0.2226562,1.98046874 1.3242187,1.98046874 1.1132813,0 1.3242188,-1.18359374 1.3242188,-1.98046874 z m 1.265625,1.28906249 H 5.3710062 V -9.78125e-5 H 5.945225 Z M 7.3924906,-3.3047853 h 1.640625 V -3.7852541 H 7.0292094 l -0.2929688,2.0742188 0.421875,0.023437 c 0.1757813,-0.234375 0.4335938,-0.3632813 0.7148438,-0.3632813 0.4804687,0 0.8554687,0.2929688 0.8554687,0.8554688 0,0.48046874 -0.3164062,0.87890624 -0.8085937,0.87890624 -0.4335938,0 -0.7734375,-0.19921875 -0.8203125,-0.64453125 H 6.5956156 c 0.09375,0.8671875 0.7382813,1.06640625 1.2421875,1.06640625 1.21875,0 1.40625,-0.92578125 1.40625,-1.35937504 0,-0.796875 -0.6445312,-1.2304687 -1.265625,-1.2304687 -0.3515625,0 -0.5859375,0.1054687 -0.75,0.234375 z m 0,0"
         style="fill:#000000;fill-opacity:1;fill-rule:nonzero;stroke:none"
         aria-label="-0.5"
         transform="matrix(1.3333333,0,0,1.3333333,187.76053,599.59779)" />
      <path
         id="path179"
         d="m 158.634,223.623 v 1.575 m 0,106.825 v -1.575"
         style="fill:none;stroke:#000000;stroke-width:0.25;stroke-linecap:butt;stroke-linejoin:miter;stroke-miterlimit:10;stroke-dasharray:none;stroke-opacity:1"
         transform="matrix(1.3333333,0,0,-1.3333333,0,887.99579)" />
      <path
         id="path180"
         d="m 2.3316234,-1.8750978 c 0,0.96093749 -0.2460937,1.54687499 -0.8085937,1.54687499 -0.55078126,0 -0.80859376,-0.5859375 -0.80859376,-1.54687499 0,-0.9726563 0.2578125,-1.5585938 0.80859376,-1.5585938 0.5625,0 0.8085937,0.5859375 0.8085937,1.5585938 z m 0.515625,0 c 0,-0.8085938 -0.2109375,-1.9921875 -1.3242187,-1.9921875 -1.10156251,0 -1.32421876,1.1835937 -1.32421876,1.9921875 0,0.796875 0.22265625,1.98046874 1.32421876,1.98046874 1.1132812,0 1.3242187,-1.18359374 1.3242187,-1.98046874 z m 0,0"
         style="fill:#000000;fill-opacity:1;fill-rule:nonzero;stroke:none"
         aria-label="0"
         transform="matrix(1.3333333,0,0,1.3333333,209.4732,599.59779)" />
      <path
         id="path181"
         d="m 171.684,223.623 v 1.575 m 0,106.825 v -1.575"
         style="fill:none;stroke:#000000;stroke-width:0.25;stroke-linecap:butt;stroke-linejoin:miter;stroke-miterlimit:10;stroke-dasharray:none;stroke-opacity:1"
         transform="matrix(1.3333333,0,0,-1.3333333,0,887.99579)" />
      <path
         id="path182"
         d="m 2.3331359,-1.8750978 c 0,0.96093749 -0.2460937,1.54687499 -0.8085937,1.54687499 -0.55078126,0 -0.80859376,-0.5859375 -0.80859376,-1.54687499 0,-0.9726563 0.2578125,-1.5585938 0.80859376,-1.5585938 0.5625,0 0.8085937,0.5859375 0.8085937,1.5585938 z m 0.515625,0 c 0,-0.8085938 -0.2109375,-1.9921875 -1.3242187,-1.9921875 -1.10156251,0 -1.32421876,1.1835937 -1.32421876,1.9921875 0,0.796875 0.22265625,1.98046874 1.32421876,1.98046874 1.1132812,0 1.3242187,-1.18359374 1.3242187,-1.98046874 z m 1.265625,1.28906249 H 3.5401672 V -9.78125e-5 H 4.1143859 Z M 5.5616516,-3.3047853 h 1.640625 V -3.7852541 H 5.1983703 l -0.2929687,2.0742188 0.421875,0.023437 c 0.1757812,-0.234375 0.4335937,-0.3632813 0.7148437,-0.3632813 0.4804688,0 0.8554688,0.2929688 0.8554688,0.8554688 0,0.48046874 -0.3164063,0.87890624 -0.8085938,0.87890624 -0.4335937,0 -0.7734375,-0.19921875 -0.8203125,-0.64453125 H 4.7647766 c 0.09375,0.8671875 0.7382812,1.06640625 1.2421875,1.06640625 1.21875,0 1.40625,-0.92578125 1.40625,-1.35937504 0,-0.796875 -0.6445313,-1.2304687 -1.265625,-1.2304687 -0.3515625,0 -0.5859375,0.1054687 -0.75,0.234375 z m 0,0"
         style="fill:#000000;fill-opacity:1;fill-rule:nonzero;stroke:none"
         aria-label="0.5"
         transform="matrix(1.3333333,0,0,1.3333333,223.81493,599.59779)" />
      <path
         id="path183"
         d="m 184.734,223.623 v 1.575 m 0,106.825 v -1.575"
         style="fill:none;stroke:#000000;stroke-width:0.25;stroke-linecap:butt;stroke-linejoin:miter;stroke-miterlimit:10;stroke-dasharray:none;stroke-opacity:1"
         transform="matrix(1.3333333,0,0,-1.3333333,0,887.99579)" />
      <path
         id="path184"
         d="m 1.9689281,-3.8672853 h -0.375 c -0.1523437,0.6328125 -0.4101562,0.6914062 -1.04296872,0.7382812 v 0.3867188 H 1.4533031 V -9.78125e-5 h 0.515625 z m 0,0"
         style="fill:#000000;fill-opacity:1;fill-rule:nonzero;stroke:none"
         aria-label="1"
         transform="matrix(1.3333333,0,0,1.3333333,244.2732,599.59779)" />
      <path
         id="path185"
         d="m 197.809,223.623 v 1.575 m 0,106.825 v -1.575"
         style="fill:none;stroke:#000000;stroke-width:0.25;stroke-linecap:butt;stroke-linejoin:miter;stroke-miterlimit:10;stroke-dasharray:none;stroke-opacity:1"
         transform="matrix(1.3333333,0,0,-1.3333333,0,887.99579)" />
      <path
         id="path186"
         d="m 1.9688781,-3.8672853 h -0.375 c -0.1523437,0.6328125 -0.4101562,0.6914062 -1.04296873,0.7382812 v 0.3867188 H 1.4532531 V -9.78125e-5 h 0.515625 z m 2.1445313,3.28124999 H 3.5391906 V -9.78125e-5 H 4.1134094 Z M 5.560675,-3.3047853 H 7.2013 V -3.7852541 H 5.1973937 L 4.904425,-1.7110353 5.3263,-1.6875978 c 0.1757812,-0.234375 0.4335937,-0.3632813 0.7148437,-0.3632813 0.4804688,0 0.8554688,0.2929688 0.8554688,0.8554688 0,0.48046874 -0.3164063,0.87890624 -0.8085938,0.87890624 -0.4335937,0 -0.7734375,-0.19921875 -0.8203125,-0.64453125 H 4.7638 c 0.09375,0.8671875 0.7382812,1.06640625 1.2421875,1.06640625 1.21875,0 1.40625,-0.92578125 1.40625,-1.35937504 0,-0.796875 -0.6445313,-1.2304687 -1.265625,-1.2304687 -0.3515625,0 -0.5859375,0.1054687 -0.75,0.234375 z m 0,0"
         style="fill:#000000;fill-opacity:1;fill-rule:nonzero;stroke:none"
         aria-label="1.5"
         transform="matrix(1.3333333,0,0,1.3333333,258.64827,599.59779)" />
      <path
         id="path187"
         d="m 210.859,223.623 v 1.575 m 0,106.825 v -1.575"
         style="fill:none;stroke:#000000;stroke-width:0.25;stroke-linecap:butt;stroke-linejoin:miter;stroke-miterlimit:10;stroke-dasharray:none;stroke-opacity:1"
         transform="matrix(1.3333333,0,0,-1.3333333,0,887.99579)" />
      <path
         id="path188"
         d="m 0.72576406,-2.4844728 c 0.0117188,-0.2578125 0.046875,-0.9492188 0.78515624,-0.9492188 0.5625,0 0.7617188,0.3984375 0.7617188,0.703125 0,0.5039063 -0.3046875,0.6679688 -0.7148438,0.9023438 L 1.0538891,-1.5352541 C 0.52654531,-1.2305666 0.17498281,-0.79697281 0.13982656,-9.78125e-5 H 2.7882641 V -0.45712906 H 0.69060781 c 0.0234375,-0.15234375 0.12890625,-0.4453125 0.65624999,-0.73828124 l 0.4101563,-0.2226563 c 0.5742187,-0.3046875 1.03125,-0.5976562 1.03125,-1.2890625 0,-0.7265625 -0.5390625,-1.1601562 -1.2070313,-1.1601562 -0.421875,0 -1.33593749,0.1289062 -1.33593749,1.3828125 z m 0,0"
         style="fill:#000000;fill-opacity:1;fill-rule:nonzero;stroke:none"
         aria-label="2"
         transform="matrix(1.3333333,0,0,1.3333333,279.10653,599.59779)" />
      <path
         id="path189"
         d="m 106.384,223.623 h 104.475 v 108.4 H 106.384 v -108.4"
         style="fill:none;stroke:#000000;stroke-width:0.25;stroke-linecap:butt;stroke-linejoin:miter;stroke-miterlimit:10;stroke-dasharray:none;stroke-opacity:1"
         transform="matrix(1.3333333,0,0,-1.3333333,0,887.99579)" />
      <path
         id="path190"
         d="m 184.684,279.523 -0.15,1.7 m -0.25,1.675 -0.375,1.675 m -0.45,1.625 -0.55,1.6 m -0.65,1.575 -0.75,1.5 m -0.825,1.476 -0.925,1.399 m -1.025,1.35 -1.075,1.275 m -1.15,1.2 -1.25,1.125 m -1.275,1.05 -1.375,0.95 m -1.4,0.875 -1.475,0.775 m -1.5,0.675 -1.55,0.575 m -1.575,0.475 -1.6,0.375 m -1.625,0.25 -1.625,0.175 m -1.65,0.05 -1.625,-0.05 m -1.625,-0.175 -1.625,-0.25 m -1.6,-0.375 -1.575,-0.475 m -1.55,-0.575 -1.5,-0.675 m -1.475,-0.775 -1.4,-0.875 m -1.375,-0.95 -1.275,-1.05 m -1.25,-1.125 -1.15,-1.2 m -1.075,-1.275 -1.025,-1.35 m -0.925,-1.399 -0.825,-1.476 m -0.75,-1.5 -0.65,-1.575 m -0.55,-1.6 -0.45,-1.625 m -0.375,-1.675 -0.25,-1.675 m -0.15,-1.7 -0.05,-1.7 m 0.05,-1.699 0.15,-1.7 m 0.25,-1.675 0.375,-1.676 m 0.45,-1.625 0.55,-1.599 m 0.65,-1.576 0.75,-1.5 m 0.825,-1.475 0.925,-1.4 m 1.025,-1.349 1.075,-1.276 m 1.15,-1.2 1.25,-1.125 m 1.275,-1.05 1.375,-0.949 m 1.4,-0.875 1.475,-0.775 m 1.5,-0.675 1.55,-0.575 m 1.575,-0.475 1.6,-0.375 m 1.625,-0.25 1.625,-0.176 m 1.65,-0.05 1.625,0.05 m 1.625,0.176 1.625,0.25 m 1.6,0.375 1.575,0.475 m 1.55,0.575 1.5,0.675 m 1.475,0.775 1.4,0.875 m 1.375,0.949 1.275,1.05 m 1.25,1.125 1.15,1.2 m 1.075,1.276 1.025,1.349 m 0.925,1.4 0.825,1.475 m 0.75,1.5 0.65,1.576 m 0.55,1.599 0.45,1.625 m 0.375,1.676 0.25,1.675 m 0.15,1.7 0.05,1.699 m -78.35,0 h 104.475 m -52.225,-54.2 v 108.4"
         style="fill:none;stroke:#000000;stroke-width:0.125;stroke-linecap:butt;stroke-linejoin:miter;stroke-miterlimit:10;stroke-dasharray:none;stroke-opacity:1"
         transform="matrix(1.3333333,0,0,-1.3333333,0,887.99579)" />
      <path
         id="path191"
         d="m 195.559,277.823 -36.925,38.325 h -36.95 v -38.325 l 36.95,-38.325 h 36.925 v 38.325"
         style="fill:none;stroke:#000000;stroke-width:0.375;stroke-linecap:butt;stroke-linejoin:miter;stroke-miterlimit:10;stroke-dasharray:none;stroke-opacity:1"
         transform="matrix(1.3333333,0,0,-1.3333333,0,887.99579)" />
      <g
         id="g159"
         transform="matrix(0.27043789,0,0,0.27043791,157.28281,387.74417)"
         style="stroke-width:3.69772">
        <g
           clip-path="url(#clipPath155)"
           id="g158"
           style="stroke-width:3.69772">
          <path
             d="m 95.528,251.148 v 13.708 h 13.708 L 95.528,251.148 h 13.708 v 13.708 m 0,-13.708 v 13.708 h 13.708 l -13.708,-13.708 h 13.708 v 13.708 m 0,-13.708 v 13.708 h 13.709 l -13.709,-13.708 h 13.709 v 13.708 m 0,-13.708 v 13.708 h 13.708 l -13.708,-13.708 h 13.708 v 13.708 m 0,-13.708 v 13.708 h 13.679 l -13.679,-13.708 h 13.679 v 13.708 m 0,-13.708 v 13.708 h 13.709 L 164.04,251.148 h 13.709 v 13.708 m 0,-13.708 v 13.708 h 13.708 l -13.708,-13.708 h 13.708 v 13.708 m 0,-13.708 v 13.708 h 13.708 l -13.708,-13.708 h 13.708 v 13.708 m -109.637,0 v 13.709 h 13.708 L 95.528,264.856 h 13.708 v 13.709 m 0,-13.709 v 13.709 h 13.708 l -13.708,-13.709 h 13.708 v 13.709 m 0,-13.709 v 13.709 h 13.709 l -13.709,-13.709 h 13.709 v 13.709 m 0,-13.709 v 13.709 h 13.708 l -13.708,-13.709 h 13.708 v 13.709 m 0,-13.709 v 13.709 h 13.679 l -13.679,-13.709 h 13.679 v 13.709 m 0,-13.709 v 13.709 h 13.709 L 164.04,264.856 h 13.709 v 13.709 m 0,-13.709 v 13.709 h 13.708 l -13.708,-13.709 h 13.708 v 13.709 m 0,-13.709 v 13.709 h 13.708 l -13.708,-13.709 h 13.708 v 13.709 m -109.637,0 v 13.708 h 13.708 L 95.528,278.565 h 13.708 v 13.708 m 0,-13.708 v 13.708 h 13.708 l -13.708,-13.708 h 13.708 v 13.708 m 0,-13.708 v 13.708 h 13.709 l -13.709,-13.708 h 13.709 v 13.708 m 0,-13.708 v 13.708 h 13.708 l -13.708,-13.708 h 13.708 v 13.708 m 0,-13.708 v 13.708 h 13.679 l -13.679,-13.708 h 13.679 v 13.708 m 0,-13.708 v 13.708 h 13.709 L 164.04,278.565 h 13.709 v 13.708"
             style="fill:none;stroke:#000000;stroke-width:1.2942;stroke-linecap:butt;stroke-linejoin:round;stroke-miterlimit:10;stroke-dasharray:none;stroke-opacity:1"
             transform="matrix(1.3333333,0,0,-1.3333333,0,887.99579)"
             clip-path="url(#clipPath152)"
             id="path156-2" />
          <path
             d="m 177.749,278.565 v 13.708 h 13.708 l -13.708,-13.708 h 13.708 v 13.708 m 0,-13.708 v 13.708 h 13.708 l -13.708,-13.708 h 13.708 v 13.708 m -109.637,0 v 13.679 h 13.708 L 95.528,292.273 h 13.708 v 13.679 m 0,-13.679 v 13.679 h 13.708 l -13.708,-13.679 h 13.708 v 13.679 m 0,-13.679 v 13.679 h 13.709 l -13.709,-13.679 h 13.709 v 13.679 m 0,-13.679 v 13.679 h 13.708 l -13.708,-13.679 h 13.708 v 13.679 m 0,-13.679 v 13.679 h 13.679 l -13.679,-13.679 h 13.679 v 13.679 m 0,-13.679 v 13.679 h 13.709 L 164.04,292.273 h 13.709 v 13.679 m 0,-13.679 v 13.679 h 13.708 l -13.708,-13.679 h 13.708 v 13.679 m 0,-13.679 v 13.679 h 13.708 l -13.708,-13.679 h 13.708 v 13.679 m -109.637,0 v 13.709 h 13.708 L 95.528,305.952 h 13.708 v 13.709 m 0,-13.709 v 13.709 h 13.708 l -13.708,-13.709 h 13.708 v 13.709 m 0,-13.709 v 13.709 h 13.709 l -13.709,-13.709 h 13.709 v 13.709 m 0,-13.709 v 13.709 h 13.708 l -13.708,-13.709 h 13.708 v 13.709 m 0,-13.709 v 13.709 h 13.679 l -13.679,-13.709 h 13.679 v 13.709 m 0,-13.709 v 13.709 h 13.709 L 164.04,305.952 h 13.709 v 13.709 m 0,-13.709 v 13.709 h 13.708 l -13.708,-13.709 h 13.708 v 13.709 m 0,-13.709 v 13.709 h 13.708 l -13.708,-13.709 h 13.708 v 13.709 m -109.637,0 v 13.708 h 13.708 L 95.528,319.661 h 13.708 v 13.708 m 0,-13.708 v 13.708 h 13.708 l -13.708,-13.708 h 13.708 v 13.708 m 0,-13.708 v 13.708 h 13.709 l -13.709,-13.708 h 13.709 v 13.708 m 0,-13.708 v 13.708 h 13.708 l -13.708,-13.708 h 13.708 v 13.708"
             style="fill:none;stroke:#000000;stroke-width:1.2942;stroke-linecap:butt;stroke-linejoin:round;stroke-miterlimit:10;stroke-dasharray:none;stroke-opacity:1"
             transform="matrix(1.3333333,0,0,-1.3333333,0,887.99579)"
             clip-path="url(#clipPath153)"
             id="path157-9" />
          <path
             d="m 150.361,319.661 v 13.708 h 13.679 l -13.679,-13.708 h 13.679 v 13.708 m 0,-13.708 v 13.708 h 13.709 L 164.04,319.661 h 13.709 v 13.708 m 0,-13.708 v 13.708 h 13.708 l -13.708,-13.708 h 13.708 v 13.708 m 0,-13.708 v 13.708 h 13.708 l -13.708,-13.708 h 13.708 v 13.708 m -109.637,0 v 13.708 h 13.708 L 95.528,333.369 h 13.708 v 13.708 m 0,-13.708 v 13.708 h 13.708 l -13.708,-13.708 h 13.708 v 13.708 m 0,-13.708 v 13.708 h 13.709 l -13.709,-13.708 h 13.709 v 13.708 m 0,-13.708 v 13.708 h 13.708 l -13.708,-13.708 h 13.708 v 13.708 m 0,-13.708 v 13.708 h 13.679 l -13.679,-13.708 h 13.679 v 13.708 m 0,-13.708 v 13.708 h 13.709 L 164.04,333.369 h 13.709 v 13.708 m 0,-13.708 v 13.708 h 13.708 l -13.708,-13.708 h 13.708 v 13.708 m 0,-13.708 v 13.708 h 13.708 l -13.708,-13.708 h 13.708 v 13.708 m -109.637,0 v 13.709 h 13.708 L 95.528,347.077 h 13.708 v 13.709 m 0,-13.709 v 13.709 h 13.708 l -13.708,-13.709 h 13.708 v 13.709 m 0,-13.709 v 13.709 h 13.709 l -13.709,-13.709 h 13.709 v 13.709 m 0,-13.709 v 13.709 h 13.708 l -13.708,-13.709 h 13.708 v 13.709 m 0,-13.709 v 13.709 h 13.679 l -13.679,-13.709 h 13.679 v 13.709 m 0,-13.709 v 13.709 h 13.709 L 164.04,347.077 h 13.709 v 13.709 m 0,-13.709 v 13.709 h 13.708 l -13.708,-13.709 h 13.708 v 13.709 m 0,-13.709 v 13.709 h 13.708 l -13.708,-13.709 h 13.708 v 13.709"
             style="fill:none;stroke:#000000;stroke-width:1.2942;stroke-linecap:butt;stroke-linejoin:round;stroke-miterlimit:10;stroke-dasharray:none;stroke-opacity:1"
             transform="matrix(1.3333333,0,0,-1.3333333,0,887.99579)"
             clip-path="url(#clipPath154)"
             id="path158-1" />
        </g>
      </g>
    </g>
  </g>
</svg>
