<?xml version="1.0" encoding="UTF-8" standalone="no"?>
<!-- Created with Inkscape (http://www.inkscape.org/) -->

<svg
   version="1.1"
   id="svg1"
   width="333.41016"
   height="326.49219"
   viewBox="0 0 333.41016 326.49219"
   sodipodi:docname="Negri - 2003 - A finite element approximation of the Griffith’s m.pdf"
   xmlns:inkscape="http://www.inkscape.org/namespaces/inkscape"
   xmlns:sodipodi="http://sodipodi.sourceforge.net/DTD/sodipodi-0.dtd"
   xmlns="http://www.w3.org/2000/svg"
   xmlns:svg="http://www.w3.org/2000/svg">
  <defs
     id="defs1">
    <clipPath
       clipPathUnits="userSpaceOnUse"
       id="clipPath1">
      <path
         d="M 0,0 H 793.33333 V 1122.6667 H 0 Z"
         id="path1" />
    </clipPath>
  </defs>
  <sodipodi:namedview
     id="namedview1"
     pagecolor="#ffffff"
     bordercolor="#000000"
     borderopacity="0.25"
     inkscape:showpageshadow="2"
     inkscape:pageopacity="0.0"
     inkscape:pagecheckerboard="0"
     inkscape:deskcolor="#d1d1d1">
    <inkscape:page
       x="0"
       y="0"
       width="333.41016"
       height="326.49219"
       id="page2"
       margin="0"
       bleed="0" />
  </sodipodi:namedview>
  <g
     id="g1"
     inkscape:groupmode="layer"
     inkscape:label="13"
     clip-path="url(#clipPath1)"
     transform="translate(-125.13672,-442.57422)">
    <path
       id="path153"
       d="m 106.384,223.623 h 1.575 m 102.9,0 h -1.575"
       style="fill:none;stroke:#000000;stroke-width:0.25;stroke-linecap:butt;stroke-linejoin:miter;stroke-miterlimit:10;stroke-dasharray:none;stroke-opacity:1"
       transform="matrix(1.3333333,0,0,-1.3333333,0,887.99579)" />
    <path
       id="path154"
       d="M 1.5939859,-1.7686525 H 0.24632969 V -1.276465 H 1.5939859 Z m 0.9638672,-0.7148438 c 0.011719,-0.2578125 0.046875,-0.9492187 0.7851563,-0.9492187 0.5625,0 0.7617187,0.3984375 0.7617187,0.703125 0,0.5039062 -0.3046875,0.6679687 -0.7148437,0.9023437 L 2.8859781,-1.5342775 C 2.3586344,-1.22959 2.0070719,-0.79599625 1.9719156,8.7875e-4 H 4.6203531 V -0.4561525 H 2.5226969 c 0.023437,-0.15234375 0.1289062,-0.4453125 0.65625,-0.7382813 L 3.5891031,-1.41709 c 0.5742188,-0.3046875 1.03125,-0.5976563 1.03125,-1.2890625 0,-0.7265625 -0.5390625,-1.1601563 -1.2070312,-1.1601563 -0.421875,0 -1.3359375,0.1289063 -1.3359375,1.3828125 z m 0,0"
       style="fill:#000000;fill-opacity:1;fill-rule:nonzero;stroke:none"
       aria-label="-2"
       transform="matrix(1.3333333,0,0,1.3333333,130.92547,592.26445)" />
    <path
       id="path155"
       d="m 106.384,237.173 h 1.575 m 102.9,0 h -1.575"
       style="fill:none;stroke:#000000;stroke-width:0.25;stroke-linecap:butt;stroke-linejoin:miter;stroke-miterlimit:10;stroke-dasharray:none;stroke-opacity:1"
       transform="matrix(1.3333333,0,0,-1.3333333,0,887.99579)" />
    <path
       id="path156"
       d="M 1.5934953,-1.7684572 H 0.24583906 v 0.4921875 H 1.5934953 Z M 3.79955,-3.8661134 h -0.375 c -0.1523437,0.6328125 -0.4101562,0.6914062 -1.0429687,0.7382812 v 0.3867188 H 3.283925 V 0.00107406 H 3.79955 Z m 2.1445313,3.28124996 H 5.3698625 v 0.5859375 H 5.9440813 Z M 7.3913469,-3.3036134 h 1.640625 V -3.7840822 H 7.0280656 l -0.2929687,2.0742188 0.421875,0.023437 c 0.1757812,-0.234375 0.4335937,-0.3632813 0.7148437,-0.3632813 0.4804688,0 0.8554688,0.2929688 0.8554688,0.8554688 0,0.48046871 -0.3164063,0.87890621 -0.8085938,0.87890621 -0.4335937,0 -0.7734375,-0.19921875 -0.8203125,-0.64453125 H 6.5944719 c 0.09375,0.8671875 0.7382812,1.06640625 1.2421875,1.06640625 1.21875,0 1.40625,-0.92578125 1.40625,-1.35937501 0,-0.796875 -0.6445313,-1.2304687 -1.265625,-1.2304687 -0.3515625,0 -0.5859375,0.1054687 -0.75,0.234375 z m 0,0"
       style="fill:#000000;fill-opacity:1;fill-rule:nonzero;stroke:none"
       aria-label="-1.5"
       transform="matrix(1.3333333,0,0,1.3333333,124.80893,574.19779)" />
    <path
       id="path157"
       d="m 106.384,250.723 h 1.575 m 102.9,0 h -1.575"
       style="fill:none;stroke:#000000;stroke-width:0.25;stroke-linecap:butt;stroke-linejoin:miter;stroke-miterlimit:10;stroke-dasharray:none;stroke-opacity:1"
       transform="matrix(1.3333333,0,0,-1.3333333,0,887.99579)" />
    <path
       id="path158"
       d="M 1.5939859,-1.7682619 H 0.24632969 v 0.4921875 H 1.5939859 Z m 2.2060547,-2.0976562 h -0.375 c -0.1523437,0.6328125 -0.4101562,0.6914062 -1.0429687,0.7382812 v 0.3867188 h 0.9023437 v 2.74218747 h 0.515625 z m 0,0"
       style="fill:#000000;fill-opacity:1;fill-rule:nonzero;stroke:none"
       aria-label="-1"
       transform="matrix(1.3333333,0,0,1.3333333,130.92547,556.13112)" />
    <path
       id="path159"
       d="m 106.384,264.273 h 1.575 m 102.9,0 h -1.575"
       style="fill:none;stroke:#000000;stroke-width:0.25;stroke-linecap:butt;stroke-linejoin:miter;stroke-miterlimit:10;stroke-dasharray:none;stroke-opacity:1"
       transform="matrix(1.3333333,0,0,-1.3333333,0,887.99579)" />
    <path
       id="path160"
       d="M 1.5934953,-1.7680666 H 0.24583906 v 0.4921875 H 1.5934953 Z m 2.569336,-0.1054687 c 0,0.96093749 -0.2460938,1.54687499 -0.8085938,1.54687499 -0.5507812,0 -0.8085937,-0.5859375 -0.8085937,-1.54687499 0,-0.9726563 0.2578125,-1.5585938 0.8085937,-1.5585938 0.5625,0 0.8085938,0.5859375 0.8085938,1.5585938 z m 0.515625,0 c 0,-0.8085938 -0.2109375,-1.9921875 -1.3242188,-1.9921875 -1.1015625,0 -1.3242187,1.1835937 -1.3242187,1.9921875 0,0.796875 0.2226562,1.98046874 1.3242187,1.98046874 1.1132813,0 1.3242188,-1.18359374 1.3242188,-1.98046874 z m 1.265625,1.28906249 H 5.3698625 v 0.5859375 H 5.9440813 Z M 7.3913469,-3.3032228 h 1.640625 V -3.7836916 H 7.0280656 l -0.2929687,2.0742188 0.421875,0.023437 c 0.1757812,-0.234375 0.4335937,-0.3632813 0.7148437,-0.3632813 0.4804688,0 0.8554688,0.2929688 0.8554688,0.8554688 0,0.48046874 -0.3164063,0.87890624 -0.8085938,0.87890624 -0.4335937,0 -0.7734375,-0.19921875 -0.8203125,-0.64453125 H 6.5944719 c 0.09375,0.8671875 0.7382812,1.06640625 1.2421875,1.06640625 1.21875,0 1.40625,-0.92578125 1.40625,-1.35937504 0,-0.796875 -0.6445313,-1.2304687 -1.265625,-1.2304687 -0.3515625,0 -0.5859375,0.1054687 -0.75,0.234375 z m 0,0"
       style="fill:#000000;fill-opacity:1;fill-rule:nonzero;stroke:none"
       aria-label="-0.5"
       transform="matrix(1.3333333,0,0,1.3333333,124.80893,538.06445)" />
    <path
       id="path161"
       d="m 106.384,277.823 h 1.575 m 102.9,0 h -1.575"
       style="fill:none;stroke:#000000;stroke-width:0.25;stroke-linecap:butt;stroke-linejoin:miter;stroke-miterlimit:10;stroke-dasharray:none;stroke-opacity:1"
       transform="matrix(1.3333333,0,0,-1.3333333,0,887.99579)" />
    <path
       id="path162"
       d="m 2.3316219,-1.8762697 c 0,0.96093751 -0.2460938,1.54687501 -0.8085938,1.54687501 -0.55078122,0 -0.80859372,-0.5859375 -0.80859372,-1.54687501 0,-0.9726562 0.2578125,-1.5585937 0.80859372,-1.5585937 0.5625,0 0.8085938,0.5859375 0.8085938,1.5585937 z m 0.515625,0 c 0,-0.8085937 -0.2109375,-1.9921875 -1.3242188,-1.9921875 -1.10156247,0 -1.32421872,1.1835938 -1.32421872,1.9921875 0,0.796875 0.22265625,1.98046876 1.32421872,1.98046876 1.1132813,0 1.3242188,-1.18359376 1.3242188,-1.98046876 z m 0,0"
       style="fill:#000000;fill-opacity:1;fill-rule:nonzero;stroke:none"
       aria-label="0"
       transform="matrix(1.3333333,0,0,1.3333333,133.36773,519.99779)" />
    <path
       id="path163"
       d="m 106.384,291.373 h 1.575 m 102.9,0 h -1.575"
       style="fill:none;stroke:#000000;stroke-width:0.25;stroke-linecap:butt;stroke-linejoin:miter;stroke-miterlimit:10;stroke-dasharray:none;stroke-opacity:1"
       transform="matrix(1.3333333,0,0,-1.3333333,0,887.99579)" />
    <path
       id="path164"
       d="m 2.3311312,-1.8760744 c 0,0.96093753 -0.2460937,1.54687503 -0.8085937,1.54687503 -0.55078125,0 -0.80859375,-0.5859375 -0.80859375,-1.54687503 0,-0.9726562 0.2578125,-1.5585937 0.80859375,-1.5585937 0.5625,0 0.8085937,0.5859375 0.8085937,1.5585937 z m 0.515625,0 c 0,-0.8085937 -0.2109375,-1.9921875 -1.3242187,-1.9921875 -1.1015625,0 -1.32421875,1.1835938 -1.32421875,1.9921875 0,0.796875 0.22265625,1.98046878 1.32421875,1.98046878 1.1132812,0 1.3242187,-1.18359378 1.3242187,-1.98046878 z m 1.265625,1.28906253 H 3.5381625 v 0.5859375 H 4.1123812 Z M 5.5596469,-3.3057619 h 1.640625 V -3.7862306 H 5.1963656 l -0.2929687,2.0742187 0.421875,0.023437 c 0.1757812,-0.234375 0.4335937,-0.3632812 0.7148437,-0.3632812 0.4804688,0 0.8554688,0.2929687 0.8554688,0.8554687 0,0.48046878 -0.3164063,0.87890628 -0.8085938,0.87890628 -0.4335937,0 -0.7734375,-0.19921875 -0.8203125,-0.64453125 H 4.7627719 c 0.09375,0.8671875 0.7382812,1.06640625 1.2421875,1.06640625 1.21875,0 1.40625,-0.92578125 1.40625,-1.35937498 0,-0.796875 -0.6445313,-1.2304688 -1.265625,-1.2304688 -0.3515625,0 -0.5859375,0.1054688 -0.75,0.234375 z m 0,0"
       style="fill:#000000;fill-opacity:1;fill-rule:nonzero;stroke:none"
       aria-label="0.5"
       transform="matrix(1.3333333,0,0,1.3333333,127.2512,501.93112)" />
    <path
       id="path165"
       d="m 106.384,304.923 h 1.575 m 102.9,0 h -1.575"
       style="fill:none;stroke:#000000;stroke-width:0.25;stroke-linecap:butt;stroke-linejoin:miter;stroke-miterlimit:10;stroke-dasharray:none;stroke-opacity:1"
       transform="matrix(1.3333333,0,0,-1.3333333,0,887.99579)" />
    <path
       id="path166"
       d="m 1.9683406,-3.8680666 h -0.375 c -0.1523437,0.6328125 -0.4101562,0.6914063 -1.04296872,0.7382813 v 0.3867187 H 1.4527156 v 2.7421875375 h 0.515625 z m 0,0"
       style="fill:#000000;fill-opacity:1;fill-rule:nonzero;stroke:none"
       aria-label="1"
       transform="matrix(1.3333333,0,0,1.3333333,133.36773,483.86445)" />
    <path
       id="path167"
       d="m 106.384,318.473 h 1.575 m 102.9,0 h -1.575"
       style="fill:none;stroke:#000000;stroke-width:0.25;stroke-linecap:butt;stroke-linejoin:miter;stroke-miterlimit:10;stroke-dasharray:none;stroke-opacity:1"
       transform="matrix(1.3333333,0,0,-1.3333333,0,887.99579)" />
    <path
       id="path168"
       d="m 1.96785,-3.8678713 h -0.375 C 1.4405062,-3.2350588 1.1826937,-3.176465 0.54988125,-3.12959 v 0.3867187 H 1.452225 V -6.8375e-4 H 1.96785 Z m 2.1445312,3.28125005 H 3.5381625 v 0.5859375 H 4.1123812 Z M 5.5596469,-3.3053713 h 1.640625 V -3.78584 H 5.1963656 l -0.2929687,2.0742187 0.421875,0.023437 c 0.1757812,-0.234375 0.4335937,-0.3632812 0.7148437,-0.3632812 0.4804688,0 0.8554688,0.2929687 0.8554688,0.8554687 0,0.4804688 -0.3164063,0.8789063 -0.8085938,0.8789063 -0.4335937,0 -0.7734375,-0.19921875 -0.8203125,-0.64453125 H 4.7627719 c 0.09375,0.8671875 0.7382812,1.06640625 1.2421875,1.06640625 1.21875,0 1.40625,-0.92578125 1.40625,-1.359375 0,-0.796875 -0.6445313,-1.2304688 -1.265625,-1.2304688 -0.3515625,0 -0.5859375,0.1054688 -0.75,0.234375 z m 0,0"
       style="fill:#000000;fill-opacity:1;fill-rule:nonzero;stroke:none"
       aria-label="1.5"
       transform="matrix(1.3333333,0,0,1.3333333,127.2512,465.79779)" />
    <path
       id="path169"
       d="m 106.384,332.023 h 1.575 m 102.9,0 h -1.575"
       style="fill:none;stroke:#000000;stroke-width:0.25;stroke-linecap:butt;stroke-linejoin:miter;stroke-miterlimit:10;stroke-dasharray:none;stroke-opacity:1"
       transform="matrix(1.3333333,0,0,-1.3333333,0,887.99579)" />
    <path
       id="path170"
       d="m 0.72615313,-2.4848634 c 0.0117188,-0.2578125 0.046875,-0.9492188 0.78515627,-0.9492188 0.5625,0 0.7617187,0.3984375 0.7617187,0.703125 0,0.5039063 -0.3046875,0.6679688 -0.7148437,0.9023438 L 1.0542781,-1.5356447 C 0.52693438,-1.2309572 0.17537188,-0.79736344 0.14021563,-4.884375e-4 H 2.7886531 V -0.45751969 H 0.69099688 c 0.0234375,-0.15234375 0.12890625,-0.4453125 0.65625002,-0.73828121 l 0.4101562,-0.2226563 c 0.5742188,-0.3046875 1.03125,-0.5976562 1.03125,-1.2890625 0,-0.7265625 -0.5390625,-1.1601562 -1.2070312,-1.1601562 -0.421875,0 -1.33593752,0.1289062 -1.33593752,1.3828125 z m 0,0"
       style="fill:#000000;fill-opacity:1;fill-rule:nonzero;stroke:none"
       aria-label="2"
       transform="matrix(1.3333333,0,0,1.3333333,133.36773,447.73112)" />
    <path
       id="path171"
       d="m 106.384,223.623 v 1.575 m 0,106.825 v -1.575"
       style="fill:none;stroke:#000000;stroke-width:0.25;stroke-linecap:butt;stroke-linejoin:miter;stroke-miterlimit:10;stroke-dasharray:none;stroke-opacity:1"
       transform="matrix(1.3333333,0,0,-1.3333333,0,887.99579)" />
    <path
       id="path172"
       d="M 1.5941031,-1.7696291 H 0.24644688 v 0.4921875 H 1.5941031 Z m 0.9638672,-0.7148437 c 0.011719,-0.2578125 0.046875,-0.9492188 0.7851563,-0.9492188 0.5625,0 0.7617187,0.3984375 0.7617187,0.703125 0,0.5039063 -0.3046875,0.6679688 -0.7148437,0.9023438 L 2.8860953,-1.5352541 C 2.3587516,-1.2305666 2.0071891,-0.79697281 1.9720328,-9.78125e-5 H 4.6204703 V -0.45712906 H 2.5228141 c 0.023437,-0.15234375 0.1289062,-0.4453125 0.65625,-0.73828124 l 0.4101562,-0.2226563 c 0.5742188,-0.3046875 1.03125,-0.5976562 1.03125,-1.2890625 0,-0.7265625 -0.5390625,-1.1601562 -1.2070312,-1.1601562 -0.421875,0 -1.3359375,0.1289062 -1.3359375,1.3828125 z m 0,0"
       style="fill:#000000;fill-opacity:1;fill-rule:nonzero;stroke:none"
       aria-label="-2"
       transform="matrix(1.3333333,0,0,1.3333333,138.58547,599.59779)" />
    <path
       id="path173"
       d="m 119.434,223.623 v 1.575 m 0,106.825 v -1.575"
       style="fill:none;stroke:#000000;stroke-width:0.25;stroke-linecap:butt;stroke-linejoin:miter;stroke-miterlimit:10;stroke-dasharray:none;stroke-opacity:1"
       transform="matrix(1.3333333,0,0,-1.3333333,0,887.99579)" />
    <path
       id="path174"
       d="M 1.5926859,-1.7696291 H 0.24502969 v 0.4921875 H 1.5926859 Z m 2.2089844,-2.0976562 h -0.375 c -0.1523437,0.6328125 -0.4101562,0.6914062 -1.0429687,0.7382812 v 0.3867188 H 3.2860453 V -9.78125e-5 h 0.515625 z m 2.1416016,3.28124999 H 5.3690531 V -9.78125e-5 H 5.9432719 Z M 7.3905375,-3.3047853 h 1.640625 V -3.7852541 H 7.0272563 l -0.2929688,2.0742188 0.421875,0.023437 c 0.1757813,-0.234375 0.4335938,-0.3632813 0.7148438,-0.3632813 0.4804687,0 0.8554687,0.2929688 0.8554687,0.8554688 0,0.48046874 -0.3164062,0.87890624 -0.8085937,0.87890624 -0.4335938,0 -0.7734375,-0.19921875 -0.8203125,-0.64453125 H 6.5936625 c 0.09375,0.8671875 0.7382813,1.06640625 1.2421875,1.06640625 1.21875,0 1.40625,-0.92578125 1.40625,-1.35937504 0,-0.796875 -0.6445312,-1.2304687 -1.265625,-1.2304687 -0.3515625,0 -0.5859375,0.1054687 -0.75,0.234375 z m 0,0"
       style="fill:#000000;fill-opacity:1;fill-rule:nonzero;stroke:none"
       aria-label="-1.5"
       transform="matrix(1.3333333,0,0,1.3333333,152.9272,599.59779)" />
    <path
       id="path175"
       d="m 132.509,223.623 v 1.575 m 0,106.825 v -1.575"
       style="fill:none;stroke:#000000;stroke-width:0.25;stroke-linecap:butt;stroke-linejoin:miter;stroke-miterlimit:10;stroke-dasharray:none;stroke-opacity:1"
       transform="matrix(1.3333333,0,0,-1.3333333,0,887.99579)" />
    <path
       id="path176"
       d="M 1.5931266,-1.7696291 H 0.24547031 v 0.4921875 H 1.5931266 Z m 2.2060547,-2.0976562 h -0.375 C 3.2718375,-3.2344728 3.014025,-3.1758791 2.3812125,-3.1290041 v 0.3867188 H 3.2835563 V -9.78125e-5 h 0.515625 z m 0,0"
       style="fill:#000000;fill-opacity:1;fill-rule:nonzero;stroke:none"
       aria-label="-1"
       transform="matrix(1.3333333,0,0,1.3333333,173.4188,599.59779)" />
    <path
       id="path177"
       d="m 145.559,223.623 v 1.575 m 0,106.825 v -1.575"
       style="fill:none;stroke:#000000;stroke-width:0.25;stroke-linecap:butt;stroke-linejoin:miter;stroke-miterlimit:10;stroke-dasharray:none;stroke-opacity:1"
       transform="matrix(1.3333333,0,0,-1.3333333,0,887.99579)" />
    <path
       id="path178"
       d="M 1.5946391,-1.7696291 H 0.24698281 v 0.4921875 H 1.5946391 Z M 4.163975,-1.8750978 c 0,0.96093749 -0.2460938,1.54687499 -0.8085938,1.54687499 -0.5507812,0 -0.8085937,-0.5859375 -0.8085937,-1.54687499 0,-0.9726563 0.2578125,-1.5585938 0.8085937,-1.5585938 0.5625,0 0.8085938,0.5859375 0.8085938,1.5585938 z m 0.515625,0 c 0,-0.8085938 -0.2109375,-1.9921875 -1.3242188,-1.9921875 -1.1015625,0 -1.3242187,1.1835937 -1.3242187,1.9921875 0,0.796875 0.2226562,1.98046874 1.3242187,1.98046874 1.1132813,0 1.3242188,-1.18359374 1.3242188,-1.98046874 z m 1.265625,1.28906249 H 5.3710062 V -9.78125e-5 H 5.945225 Z M 7.3924906,-3.3047853 h 1.640625 V -3.7852541 H 7.0292094 l -0.2929688,2.0742188 0.421875,0.023437 c 0.1757813,-0.234375 0.4335938,-0.3632813 0.7148438,-0.3632813 0.4804687,0 0.8554687,0.2929688 0.8554687,0.8554688 0,0.48046874 -0.3164062,0.87890624 -0.8085937,0.87890624 -0.4335938,0 -0.7734375,-0.19921875 -0.8203125,-0.64453125 H 6.5956156 c 0.09375,0.8671875 0.7382813,1.06640625 1.2421875,1.06640625 1.21875,0 1.40625,-0.92578125 1.40625,-1.35937504 0,-0.796875 -0.6445312,-1.2304687 -1.265625,-1.2304687 -0.3515625,0 -0.5859375,0.1054687 -0.75,0.234375 z m 0,0"
       style="fill:#000000;fill-opacity:1;fill-rule:nonzero;stroke:none"
       aria-label="-0.5"
       transform="matrix(1.3333333,0,0,1.3333333,187.76053,599.59779)" />
    <path
       id="path179"
       d="m 158.634,223.623 v 1.575 m 0,106.825 v -1.575"
       style="fill:none;stroke:#000000;stroke-width:0.25;stroke-linecap:butt;stroke-linejoin:miter;stroke-miterlimit:10;stroke-dasharray:none;stroke-opacity:1"
       transform="matrix(1.3333333,0,0,-1.3333333,0,887.99579)" />
    <path
       id="path180"
       d="m 2.3316234,-1.8750978 c 0,0.96093749 -0.2460937,1.54687499 -0.8085937,1.54687499 -0.55078126,0 -0.80859376,-0.5859375 -0.80859376,-1.54687499 0,-0.9726563 0.2578125,-1.5585938 0.80859376,-1.5585938 0.5625,0 0.8085937,0.5859375 0.8085937,1.5585938 z m 0.515625,0 c 0,-0.8085938 -0.2109375,-1.9921875 -1.3242187,-1.9921875 -1.10156251,0 -1.32421876,1.1835937 -1.32421876,1.9921875 0,0.796875 0.22265625,1.98046874 1.32421876,1.98046874 1.1132812,0 1.3242187,-1.18359374 1.3242187,-1.98046874 z m 0,0"
       style="fill:#000000;fill-opacity:1;fill-rule:nonzero;stroke:none"
       aria-label="0"
       transform="matrix(1.3333333,0,0,1.3333333,209.4732,599.59779)" />
    <path
       id="path181"
       d="m 171.684,223.623 v 1.575 m 0,106.825 v -1.575"
       style="fill:none;stroke:#000000;stroke-width:0.25;stroke-linecap:butt;stroke-linejoin:miter;stroke-miterlimit:10;stroke-dasharray:none;stroke-opacity:1"
       transform="matrix(1.3333333,0,0,-1.3333333,0,887.99579)" />
    <path
       id="path182"
       d="m 2.3331359,-1.8750978 c 0,0.96093749 -0.2460937,1.54687499 -0.8085937,1.54687499 -0.55078126,0 -0.80859376,-0.5859375 -0.80859376,-1.54687499 0,-0.9726563 0.2578125,-1.5585938 0.80859376,-1.5585938 0.5625,0 0.8085937,0.5859375 0.8085937,1.5585938 z m 0.515625,0 c 0,-0.8085938 -0.2109375,-1.9921875 -1.3242187,-1.9921875 -1.10156251,0 -1.32421876,1.1835937 -1.32421876,1.9921875 0,0.796875 0.22265625,1.98046874 1.32421876,1.98046874 1.1132812,0 1.3242187,-1.18359374 1.3242187,-1.98046874 z m 1.265625,1.28906249 H 3.5401672 V -9.78125e-5 H 4.1143859 Z M 5.5616516,-3.3047853 h 1.640625 V -3.7852541 H 5.1983703 l -0.2929687,2.0742188 0.421875,0.023437 c 0.1757812,-0.234375 0.4335937,-0.3632813 0.7148437,-0.3632813 0.4804688,0 0.8554688,0.2929688 0.8554688,0.8554688 0,0.48046874 -0.3164063,0.87890624 -0.8085938,0.87890624 -0.4335937,0 -0.7734375,-0.19921875 -0.8203125,-0.64453125 H 4.7647766 c 0.09375,0.8671875 0.7382812,1.06640625 1.2421875,1.06640625 1.21875,0 1.40625,-0.92578125 1.40625,-1.35937504 0,-0.796875 -0.6445313,-1.2304687 -1.265625,-1.2304687 -0.3515625,0 -0.5859375,0.1054687 -0.75,0.234375 z m 0,0"
       style="fill:#000000;fill-opacity:1;fill-rule:nonzero;stroke:none"
       aria-label="0.5"
       transform="matrix(1.3333333,0,0,1.3333333,223.81493,599.59779)" />
    <path
       id="path183"
       d="m 184.734,223.623 v 1.575 m 0,106.825 v -1.575"
       style="fill:none;stroke:#000000;stroke-width:0.25;stroke-linecap:butt;stroke-linejoin:miter;stroke-miterlimit:10;stroke-dasharray:none;stroke-opacity:1"
       transform="matrix(1.3333333,0,0,-1.3333333,0,887.99579)" />
    <path
       id="path184"
       d="m 1.9689281,-3.8672853 h -0.375 c -0.1523437,0.6328125 -0.4101562,0.6914062 -1.04296872,0.7382812 v 0.3867188 H 1.4533031 V -9.78125e-5 h 0.515625 z m 0,0"
       style="fill:#000000;fill-opacity:1;fill-rule:nonzero;stroke:none"
       aria-label="1"
       transform="matrix(1.3333333,0,0,1.3333333,244.2732,599.59779)" />
    <path
       id="path185"
       d="m 197.809,223.623 v 1.575 m 0,106.825 v -1.575"
       style="fill:none;stroke:#000000;stroke-width:0.25;stroke-linecap:butt;stroke-linejoin:miter;stroke-miterlimit:10;stroke-dasharray:none;stroke-opacity:1"
       transform="matrix(1.3333333,0,0,-1.3333333,0,887.99579)" />
    <path
       id="path186"
       d="m 1.9688781,-3.8672853 h -0.375 c -0.1523437,0.6328125 -0.4101562,0.6914062 -1.04296873,0.7382812 v 0.3867188 H 1.4532531 V -9.78125e-5 h 0.515625 z m 2.1445313,3.28124999 H 3.5391906 V -9.78125e-5 H 4.1134094 Z M 5.560675,-3.3047853 H 7.2013 V -3.7852541 H 5.1973937 L 4.904425,-1.7110353 5.3263,-1.6875978 c 0.1757812,-0.234375 0.4335937,-0.3632813 0.7148437,-0.3632813 0.4804688,0 0.8554688,0.2929688 0.8554688,0.8554688 0,0.48046874 -0.3164063,0.87890624 -0.8085938,0.87890624 -0.4335937,0 -0.7734375,-0.19921875 -0.8203125,-0.64453125 H 4.7638 c 0.09375,0.8671875 0.7382812,1.06640625 1.2421875,1.06640625 1.21875,0 1.40625,-0.92578125 1.40625,-1.35937504 0,-0.796875 -0.6445313,-1.2304687 -1.265625,-1.2304687 -0.3515625,0 -0.5859375,0.1054687 -0.75,0.234375 z m 0,0"
       style="fill:#000000;fill-opacity:1;fill-rule:nonzero;stroke:none"
       aria-label="1.5"
       transform="matrix(1.3333333,0,0,1.3333333,258.64827,599.59779)" />
    <path
       id="path187"
       d="m 210.859,223.623 v 1.575 m 0,106.825 v -1.575"
       style="fill:none;stroke:#000000;stroke-width:0.25;stroke-linecap:butt;stroke-linejoin:miter;stroke-miterlimit:10;stroke-dasharray:none;stroke-opacity:1"
       transform="matrix(1.3333333,0,0,-1.3333333,0,887.99579)" />
    <path
       id="path188"
       d="m 0.72576406,-2.4844728 c 0.0117188,-0.2578125 0.046875,-0.9492188 0.78515624,-0.9492188 0.5625,0 0.7617188,0.3984375 0.7617188,0.703125 0,0.5039063 -0.3046875,0.6679688 -0.7148438,0.9023438 L 1.0538891,-1.5352541 C 0.52654531,-1.2305666 0.17498281,-0.79697281 0.13982656,-9.78125e-5 H 2.7882641 V -0.45712906 H 0.69060781 c 0.0234375,-0.15234375 0.12890625,-0.4453125 0.65624999,-0.73828124 l 0.4101563,-0.2226563 c 0.5742187,-0.3046875 1.03125,-0.5976562 1.03125,-1.2890625 0,-0.7265625 -0.5390625,-1.1601562 -1.2070313,-1.1601562 -0.421875,0 -1.33593749,0.1289062 -1.33593749,1.3828125 z m 0,0"
       style="fill:#000000;fill-opacity:1;fill-rule:nonzero;stroke:none"
       aria-label="2"
       transform="matrix(1.3333333,0,0,1.3333333,279.10653,599.59779)" />
    <path
       id="path189"
       d="m 106.384,223.623 h 104.475 v 108.4 H 106.384 v -108.4"
       style="fill:none;stroke:#000000;stroke-width:0.25;stroke-linecap:butt;stroke-linejoin:miter;stroke-miterlimit:10;stroke-dasharray:none;stroke-opacity:1"
       transform="matrix(1.3333333,0,0,-1.3333333,0,887.99579)" />
    <path
       id="path190"
       d="m 184.684,279.523 -0.15,1.7 m -0.25,1.675 -0.375,1.675 m -0.45,1.625 -0.55,1.6 m -0.65,1.575 -0.75,1.5 m -0.825,1.476 -0.925,1.399 m -1.025,1.35 -1.075,1.275 m -1.15,1.2 -1.25,1.125 m -1.275,1.05 -1.375,0.95 m -1.4,0.875 -1.475,0.775 m -1.5,0.675 -1.55,0.575 m -1.575,0.475 -1.6,0.375 m -1.625,0.25 -1.625,0.175 m -1.65,0.05 -1.625,-0.05 m -1.625,-0.175 -1.625,-0.25 m -1.6,-0.375 -1.575,-0.475 m -1.55,-0.575 -1.5,-0.675 m -1.475,-0.775 -1.4,-0.875 m -1.375,-0.95 -1.275,-1.05 m -1.25,-1.125 -1.15,-1.2 m -1.075,-1.275 -1.025,-1.35 m -0.925,-1.399 -0.825,-1.476 m -0.75,-1.5 -0.65,-1.575 m -0.55,-1.6 -0.45,-1.625 m -0.375,-1.675 -0.25,-1.675 m -0.15,-1.7 -0.05,-1.7 m 0.05,-1.699 0.15,-1.7 m 0.25,-1.675 0.375,-1.676 m 0.45,-1.625 0.55,-1.599 m 0.65,-1.576 0.75,-1.5 m 0.825,-1.475 0.925,-1.4 m 1.025,-1.349 1.075,-1.276 m 1.15,-1.2 1.25,-1.125 m 1.275,-1.05 1.375,-0.949 m 1.4,-0.875 1.475,-0.775 m 1.5,-0.675 1.55,-0.575 m 1.575,-0.475 1.6,-0.375 m 1.625,-0.25 1.625,-0.176 m 1.65,-0.05 1.625,0.05 m 1.625,0.176 1.625,0.25 m 1.6,0.375 1.575,0.475 m 1.55,0.575 1.5,0.675 m 1.475,0.775 1.4,0.875 m 1.375,0.949 1.275,1.05 m 1.25,1.125 1.15,1.2 m 1.075,1.276 1.025,1.349 m 0.925,1.4 0.825,1.475 m 0.75,1.5 0.65,1.576 m 0.55,1.599 0.45,1.625 m 0.375,1.676 0.25,1.675 m 0.15,1.7 0.05,1.699 m -78.35,0 h 104.475 m -52.225,-54.2 v 108.4"
       style="fill:none;stroke:#000000;stroke-width:0.125;stroke-linecap:butt;stroke-linejoin:miter;stroke-miterlimit:10;stroke-dasharray:none;stroke-opacity:1"
       transform="matrix(1.3333333,0,0,-1.3333333,0,887.99579)" />
    <path
       id="path191"
       d="m 195.559,277.823 -36.925,38.325 h -36.95 v -38.325 l 36.95,-38.325 h 36.925 v 38.325"
       style="fill:none;stroke:#000000;stroke-width:0.375;stroke-linecap:butt;stroke-linejoin:miter;stroke-miterlimit:10;stroke-dasharray:none;stroke-opacity:1"
       transform="matrix(1.3333333,0,0,-1.3333333,0,887.99579)" />
    <path
       id="path192"
       d="m 238.175,223.623 h 1.575 m 102.9,0 h -1.575"
       style="fill:none;stroke:#000000;stroke-width:0.25;stroke-linecap:butt;stroke-linejoin:miter;stroke-miterlimit:10;stroke-dasharray:none;stroke-opacity:1"
       transform="matrix(1.3333333,0,0,-1.3333333,0,887.99579)" />
    <path
       id="path193"
       d="M 1.5945781,-1.7686525 H 0.24692187 V -1.276465 H 1.5945781 Z m 0.9638672,-0.7148438 c 0.011719,-0.2578125 0.046875,-0.9492187 0.7851563,-0.9492187 0.5625,0 0.7617187,0.3984375 0.7617187,0.703125 0,0.5039062 -0.3046875,0.6679687 -0.7148437,0.9023437 L 2.8865703,-1.5342775 C 2.3592266,-1.22959 2.0076641,-0.79599625 1.9725078,8.7875e-4 H 4.6209453 V -0.4561525 H 2.5232891 c 0.023437,-0.15234375 0.1289062,-0.4453125 0.65625,-0.7382813 L 3.5896953,-1.41709 c 0.5742188,-0.3046875 1.03125,-0.5976563 1.03125,-1.2890625 0,-0.7265625 -0.5390625,-1.1601563 -1.2070312,-1.1601563 -0.421875,0 -1.3359375,0.1289063 -1.3359375,1.3828125 z m 0,0"
       style="fill:#000000;fill-opacity:1;fill-rule:nonzero;stroke:none"
       aria-label="-2"
       transform="matrix(1.3333333,0,0,1.3333333,306.64733,592.26445)" />
    <path
       id="path194"
       d="m 238.175,237.173 h 1.575 m 102.9,0 h -1.575"
       style="fill:none;stroke:#000000;stroke-width:0.25;stroke-linecap:butt;stroke-linejoin:miter;stroke-miterlimit:10;stroke-dasharray:none;stroke-opacity:1"
       transform="matrix(1.3333333,0,0,-1.3333333,0,887.99579)" />
    <path
       id="path195"
       d="M 1.5940875,-1.7684572 H 0.24643125 v 0.4921875 H 1.5940875 Z m 2.2060547,-2.0976562 h -0.375 c -0.1523438,0.6328125 -0.4101563,0.6914062 -1.0429688,0.7382812 v 0.3867188 h 0.9023438 v 2.74218746 h 0.515625 z m 2.1445312,3.28124996 H 5.3704547 v 0.5859375 H 5.9446734 Z M 7.3919391,-3.3036134 h 1.640625 V -3.7840822 H 7.0286578 l -0.2929687,2.0742188 0.421875,0.023437 c 0.1757812,-0.234375 0.4335937,-0.3632813 0.7148437,-0.3632813 0.4804688,0 0.8554688,0.2929688 0.8554688,0.8554688 0,0.48046871 -0.3164063,0.87890621 -0.8085938,0.87890621 -0.4335937,0 -0.7734375,-0.19921875 -0.8203125,-0.64453125 H 6.5950641 c 0.09375,0.8671875 0.7382812,1.06640625 1.2421875,1.06640625 1.21875,0 1.40625,-0.92578125 1.40625,-1.35937501 0,-0.796875 -0.6445313,-1.2304687 -1.265625,-1.2304687 -0.3515625,0 -0.5859375,0.1054687 -0.75,0.234375 z m 0,0"
       style="fill:#000000;fill-opacity:1;fill-rule:nonzero;stroke:none"
       aria-label="-1.5"
       transform="matrix(1.3333333,0,0,1.3333333,300.5308,574.19779)" />
    <path
       id="path196"
       d="m 238.175,250.723 h 1.575 m 102.9,0 h -1.575"
       style="fill:none;stroke:#000000;stroke-width:0.25;stroke-linecap:butt;stroke-linejoin:miter;stroke-miterlimit:10;stroke-dasharray:none;stroke-opacity:1"
       transform="matrix(1.3333333,0,0,-1.3333333,0,887.99579)" />
    <path
       id="path197"
       d="M 1.5945781,-1.7682619 H 0.24692187 v 0.4921875 H 1.5945781 Z m 2.2060547,-2.0976562 h -0.375 c -0.1523437,0.6328125 -0.4101562,0.6914062 -1.0429687,0.7382812 v 0.3867188 h 0.9023437 v 2.74218747 h 0.515625 z m 0,0"
       style="fill:#000000;fill-opacity:1;fill-rule:nonzero;stroke:none"
       aria-label="-1"
       transform="matrix(1.3333333,0,0,1.3333333,306.64733,556.13112)" />
    <path
       id="path198"
       d="m 238.175,264.273 h 1.575 m 102.9,0 h -1.575"
       style="fill:none;stroke:#000000;stroke-width:0.25;stroke-linecap:butt;stroke-linejoin:miter;stroke-miterlimit:10;stroke-dasharray:none;stroke-opacity:1"
       transform="matrix(1.3333333,0,0,-1.3333333,0,887.99579)" />
    <path
       id="path199"
       d="M 1.5940875,-1.7680666 H 0.24643125 v 0.4921875 H 1.5940875 Z m 2.5693359,-0.1054687 c 0,0.96093749 -0.2460937,1.54687499 -0.8085937,1.54687499 -0.5507813,0 -0.8085938,-0.5859375 -0.8085938,-1.54687499 0,-0.9726563 0.2578125,-1.5585938 0.8085938,-1.5585938 0.5625,0 0.8085937,0.5859375 0.8085937,1.5585938 z m 0.515625,0 c 0,-0.8085938 -0.2109375,-1.9921875 -1.3242187,-1.9921875 -1.1015625,0 -1.3242188,1.1835937 -1.3242188,1.9921875 0,0.796875 0.2226563,1.98046874 1.3242188,1.98046874 1.1132812,0 1.3242187,-1.18359374 1.3242187,-1.98046874 z m 1.265625,1.28906249 H 5.3704547 v 0.5859375 H 5.9446734 Z M 7.3919391,-3.3032228 h 1.640625 V -3.7836916 H 7.0286578 l -0.2929687,2.0742188 0.421875,0.023437 c 0.1757812,-0.234375 0.4335937,-0.3632813 0.7148437,-0.3632813 0.4804688,0 0.8554688,0.2929688 0.8554688,0.8554688 0,0.48046874 -0.3164063,0.87890624 -0.8085938,0.87890624 -0.4335937,0 -0.7734375,-0.19921875 -0.8203125,-0.64453125 H 6.5950641 c 0.09375,0.8671875 0.7382812,1.06640625 1.2421875,1.06640625 1.21875,0 1.40625,-0.92578125 1.40625,-1.35937504 0,-0.796875 -0.6445313,-1.2304687 -1.265625,-1.2304687 -0.3515625,0 -0.5859375,0.1054687 -0.75,0.234375 z m 0,0"
       style="fill:#000000;fill-opacity:1;fill-rule:nonzero;stroke:none"
       aria-label="-0.5"
       transform="matrix(1.3333333,0,0,1.3333333,300.5308,538.06445)" />
    <path
       id="path200"
       d="m 238.175,277.823 h 1.575 m 102.9,0 h -1.575"
       style="fill:none;stroke:#000000;stroke-width:0.25;stroke-linecap:butt;stroke-linejoin:miter;stroke-miterlimit:10;stroke-dasharray:none;stroke-opacity:1"
       transform="matrix(1.3333333,0,0,-1.3333333,0,887.99579)" />
    <path
       id="path201"
       d="m 2.3322141,-1.8762697 c 0,0.96093751 -0.2460938,1.54687501 -0.8085938,1.54687501 -0.55078124,0 -0.80859374,-0.5859375 -0.80859374,-1.54687501 0,-0.9726562 0.2578125,-1.5585937 0.80859374,-1.5585937 0.5625,0 0.8085938,0.5859375 0.8085938,1.5585937 z m 0.515625,0 c 0,-0.8085937 -0.2109375,-1.9921875 -1.3242188,-1.9921875 -1.10156249,0 -1.32421874,1.1835938 -1.32421874,1.9921875 0,0.796875 0.22265625,1.98046876 1.32421874,1.98046876 1.1132813,0 1.3242188,-1.18359376 1.3242188,-1.98046876 z m 0,0"
       style="fill:#000000;fill-opacity:1;fill-rule:nonzero;stroke:none"
       aria-label="0"
       transform="matrix(1.3333333,0,0,1.3333333,309.0896,519.99779)" />
    <path
       id="path202"
       d="m 238.175,291.373 h 1.575 m 102.9,0 h -1.575"
       style="fill:none;stroke:#000000;stroke-width:0.25;stroke-linecap:butt;stroke-linejoin:miter;stroke-miterlimit:10;stroke-dasharray:none;stroke-opacity:1"
       transform="matrix(1.3333333,0,0,-1.3333333,0,887.99579)" />
    <path
       id="path203"
       d="m 2.3317234,-1.8760744 c 0,0.96093753 -0.2460937,1.54687503 -0.8085937,1.54687503 -0.55078126,0 -0.80859376,-0.5859375 -0.80859376,-1.54687503 0,-0.9726562 0.2578125,-1.5585937 0.80859376,-1.5585937 0.5625,0 0.8085937,0.5859375 0.8085937,1.5585937 z m 0.515625,0 c 0,-0.8085937 -0.2109375,-1.9921875 -1.3242187,-1.9921875 -1.10156251,0 -1.32421876,1.1835938 -1.32421876,1.9921875 0,0.796875 0.22265625,1.98046878 1.32421876,1.98046878 1.1132812,0 1.3242187,-1.18359378 1.3242187,-1.98046878 z m 1.265625,1.28906253 H 3.5387547 v 0.5859375 H 4.1129734 Z M 5.5602391,-3.3057619 h 1.640625 V -3.7862306 H 5.1969578 l -0.2929687,2.0742187 0.421875,0.023437 c 0.1757812,-0.234375 0.4335937,-0.3632812 0.7148437,-0.3632812 0.4804688,0 0.8554688,0.2929687 0.8554688,0.8554687 0,0.48046878 -0.3164063,0.87890628 -0.8085938,0.87890628 -0.4335937,0 -0.7734375,-0.19921875 -0.8203125,-0.64453125 H 4.7633641 c 0.09375,0.8671875 0.7382812,1.06640625 1.2421875,1.06640625 1.21875,0 1.40625,-0.92578125 1.40625,-1.35937498 0,-0.796875 -0.6445313,-1.2304688 -1.265625,-1.2304688 -0.3515625,0 -0.5859375,0.1054688 -0.75,0.234375 z m 0,0"
       style="fill:#000000;fill-opacity:1;fill-rule:nonzero;stroke:none"
       aria-label="0.5"
       transform="matrix(1.3333333,0,0,1.3333333,302.97307,501.93112)" />
    <path
       id="path204"
       d="m 238.175,304.923 h 1.575 m 102.9,0 h -1.575"
       style="fill:none;stroke:#000000;stroke-width:0.25;stroke-linecap:butt;stroke-linejoin:miter;stroke-miterlimit:10;stroke-dasharray:none;stroke-opacity:1"
       transform="matrix(1.3333333,0,0,-1.3333333,0,887.99579)" />
    <path
       id="path205"
       d="m 1.9689328,-3.8680666 h -0.375 c -0.1523437,0.6328125 -0.4101562,0.6914063 -1.04296874,0.7382813 v 0.3867187 H 1.4533078 v 2.7421875375 h 0.515625 z m 0,0"
       style="fill:#000000;fill-opacity:1;fill-rule:nonzero;stroke:none"
       aria-label="1"
       transform="matrix(1.3333333,0,0,1.3333333,309.0896,483.86445)" />
    <path
       id="path206"
       d="m 238.175,318.473 h 1.575 m 102.9,0 h -1.575"
       style="fill:none;stroke:#000000;stroke-width:0.25;stroke-linecap:butt;stroke-linejoin:miter;stroke-miterlimit:10;stroke-dasharray:none;stroke-opacity:1"
       transform="matrix(1.3333333,0,0,-1.3333333,0,887.99579)" />
    <path
       id="path207"
       d="m 1.9684422,-3.8678713 h -0.375 C 1.4410984,-3.2350588 1.1832859,-3.176465 0.55047344,-3.12959 v 0.3867187 H 1.4528172 v 2.74218755 h 0.515625 z m 2.1445312,3.28125005 H 3.5387547 v 0.5859375 H 4.1129734 Z M 5.5602391,-3.3053713 h 1.640625 V -3.78584 H 5.1969578 l -0.2929687,2.0742187 0.421875,0.023437 c 0.1757812,-0.234375 0.4335937,-0.3632812 0.7148437,-0.3632812 0.4804688,0 0.8554688,0.2929687 0.8554688,0.8554687 0,0.4804688 -0.3164063,0.8789063 -0.8085938,0.8789063 -0.4335937,0 -0.7734375,-0.19921875 -0.8203125,-0.64453125 H 4.7633641 c 0.09375,0.8671875 0.7382812,1.06640625 1.2421875,1.06640625 1.21875,0 1.40625,-0.92578125 1.40625,-1.359375 0,-0.796875 -0.6445313,-1.2304688 -1.265625,-1.2304688 -0.3515625,0 -0.5859375,0.1054688 -0.75,0.234375 z m 0,0"
       style="fill:#000000;fill-opacity:1;fill-rule:nonzero;stroke:none"
       aria-label="1.5"
       transform="matrix(1.3333333,0,0,1.3333333,302.97307,465.79779)" />
    <path
       id="path208"
       d="m 238.175,332.023 h 1.575 m 102.9,0 h -1.575"
       style="fill:none;stroke:#000000;stroke-width:0.25;stroke-linecap:butt;stroke-linejoin:miter;stroke-miterlimit:10;stroke-dasharray:none;stroke-opacity:1"
       transform="matrix(1.3333333,0,0,-1.3333333,0,887.99579)" />
    <path
       id="path209"
       d="m 0.72674531,-2.4848634 c 0.0117188,-0.2578125 0.046875,-0.9492188 0.78515629,-0.9492188 0.5625,0 0.7617187,0.3984375 0.7617187,0.703125 0,0.5039063 -0.3046875,0.6679688 -0.7148437,0.9023438 L 1.0548703,-1.5356447 C 0.52752656,-1.2309572 0.17596406,-0.79736344 0.14080781,-4.884375e-4 H 2.7892453 V -0.45751969 H 0.69158906 c 0.0234375,-0.15234375 0.12890625,-0.4453125 0.65625004,-0.73828121 l 0.4101562,-0.2226563 c 0.5742188,-0.3046875 1.03125,-0.5976562 1.03125,-1.2890625 0,-0.7265625 -0.5390625,-1.1601562 -1.2070312,-1.1601562 -0.421875,0 -1.33593754,0.1289062 -1.33593754,1.3828125 z m 0,0"
       style="fill:#000000;fill-opacity:1;fill-rule:nonzero;stroke:none"
       aria-label="2"
       transform="matrix(1.3333333,0,0,1.3333333,309.0896,447.73112)" />
    <path
       id="path210"
       d="m 238.175,223.623 v 1.575 m 0,106.825 v -1.575"
       style="fill:none;stroke:#000000;stroke-width:0.25;stroke-linecap:butt;stroke-linejoin:miter;stroke-miterlimit:10;stroke-dasharray:none;stroke-opacity:1"
       transform="matrix(1.3333333,0,0,-1.3333333,0,887.99579)" />
    <path
       id="path211"
       d="M 1.5946953,-1.7696291 H 0.24703906 v 0.4921875 H 1.5946953 Z m 0.9638672,-0.7148437 c 0.011719,-0.2578125 0.046875,-0.9492188 0.7851563,-0.9492188 0.5625,0 0.7617187,0.3984375 0.7617187,0.703125 0,0.5039063 -0.3046875,0.6679688 -0.7148437,0.9023438 L 2.8866875,-1.5352541 C 2.3593438,-1.2305666 2.0077813,-0.79697281 1.972625,-9.78125e-5 H 4.6210625 V -0.45712906 H 2.5234063 c 0.023437,-0.15234375 0.1289062,-0.4453125 0.65625,-0.73828124 l 0.4101562,-0.2226563 c 0.5742188,-0.3046875 1.03125,-0.5976562 1.03125,-1.2890625 0,-0.7265625 -0.5390625,-1.1601562 -1.2070312,-1.1601562 -0.421875,0 -1.3359375,0.1289062 -1.3359375,1.3828125 z m 0,0"
       style="fill:#000000;fill-opacity:1;fill-rule:nonzero;stroke:none"
       aria-label="-2"
       transform="matrix(1.3333333,0,0,1.3333333,314.30733,599.59779)" />
    <path
       id="path212"
       d="m 251.225,223.623 v 1.575 m 0,106.825 v -1.575"
       style="fill:none;stroke:#000000;stroke-width:0.25;stroke-linecap:butt;stroke-linejoin:miter;stroke-miterlimit:10;stroke-dasharray:none;stroke-opacity:1"
       transform="matrix(1.3333333,0,0,-1.3333333,0,887.99579)" />
    <path
       id="path213"
       d="M 1.5932781,-1.7696291 H 0.24562187 v 0.4921875 H 1.5932781 Z m 2.2060547,-2.0976562 h -0.375 c -0.1523437,0.6328125 -0.4101562,0.6914062 -1.0429687,0.7382812 v 0.3867188 H 3.2837078 V -9.78125e-5 h 0.515625 z m 2.1445313,3.28124999 H 5.3696453 V -9.78125e-5 H 5.9438641 Z M 7.3911297,-3.3047853 h 1.640625 V -3.7852541 H 7.0278484 l -0.2929687,2.0742188 0.421875,0.023437 c 0.1757812,-0.234375 0.4335937,-0.3632813 0.7148437,-0.3632813 0.4804688,0 0.8554688,0.2929688 0.8554688,0.8554688 0,0.48046874 -0.3164063,0.87890624 -0.8085938,0.87890624 -0.4335937,0 -0.7734375,-0.19921875 -0.8203125,-0.64453125 H 6.5942547 c 0.09375,0.8671875 0.7382812,1.06640625 1.2421875,1.06640625 1.21875,0 1.40625,-0.92578125 1.40625,-1.35937504 0,-0.796875 -0.6445313,-1.2304687 -1.265625,-1.2304687 -0.3515625,0 -0.5859375,0.1054687 -0.75,0.234375 z m 0,0"
       style="fill:#000000;fill-opacity:1;fill-rule:nonzero;stroke:none"
       aria-label="-1.5"
       transform="matrix(1.3333333,0,0,1.3333333,328.64907,599.59779)" />
    <path
       id="path214"
       d="m 264.3,223.623 v 1.575 m 0,106.825 v -1.575"
       style="fill:none;stroke:#000000;stroke-width:0.25;stroke-linecap:butt;stroke-linejoin:miter;stroke-miterlimit:10;stroke-dasharray:none;stroke-opacity:1"
       transform="matrix(1.3333333,0,0,-1.3333333,0,887.99579)" />
    <path
       id="path215"
       d="M 1.5937187,-1.7696291 H 0.2460625 v 0.4921875 h 1.3476562 z m 2.2060547,-2.0976562 h -0.375 c -0.1523437,0.6328125 -0.4101562,0.6914062 -1.0429687,0.7382812 v 0.3867188 H 3.2841484 V -9.78125e-5 h 0.515625 z m 0,0"
       style="fill:#000000;fill-opacity:1;fill-rule:nonzero;stroke:none"
       aria-label="-1"
       transform="matrix(1.3333333,0,0,1.3333333,349.14067,599.59779)" />
    <path
       id="path216"
       d="m 277.35,223.623 v 1.575 m 0,106.825 v -1.575"
       style="fill:none;stroke:#000000;stroke-width:0.25;stroke-linecap:butt;stroke-linejoin:miter;stroke-miterlimit:10;stroke-dasharray:none;stroke-opacity:1"
       transform="matrix(1.3333333,0,0,-1.3333333,0,887.99579)" />
    <path
       id="path217"
       d="M 1.5923016,-1.7696291 H 0.24464531 v 0.4921875 H 1.5923016 Z m 2.5722656,-0.1054687 c 0,0.96093749 -0.2460938,1.54687499 -0.8085938,1.54687499 -0.5507812,0 -0.8085937,-0.5859375 -0.8085937,-1.54687499 0,-0.9726563 0.2578125,-1.5585938 0.8085937,-1.5585938 0.5625,0 0.8085938,0.5859375 0.8085938,1.5585938 z m 0.515625,0 c 0,-0.8085938 -0.2109375,-1.9921875 -1.3242188,-1.9921875 -1.1015625,0 -1.3242187,1.1835937 -1.3242187,1.9921875 0,0.796875 0.2226562,1.98046874 1.3242187,1.98046874 1.1132813,0 1.3242188,-1.18359374 1.3242188,-1.98046874 z m 1.2626953,1.28906249 H 5.3686687 V -9.78125e-5 H 5.9428875 Z M 7.3901531,-3.3047853 h 1.640625 V -3.7852541 H 7.0268719 l -0.2929688,2.0742188 0.421875,0.023437 c 0.1757813,-0.234375 0.4335938,-0.3632813 0.7148438,-0.3632813 0.4804687,0 0.8554687,0.2929688 0.8554687,0.8554688 0,0.48046874 -0.3164062,0.87890624 -0.8085937,0.87890624 -0.4335938,0 -0.7734375,-0.19921875 -0.8203125,-0.64453125 H 6.5932781 c 0.09375,0.8671875 0.7382813,1.06640625 1.2421875,1.06640625 1.21875,0 1.40625,-0.92578125 1.40625,-1.35937504 0,-0.796875 -0.6445312,-1.2304687 -1.265625,-1.2304687 -0.3515625,0 -0.5859375,0.1054687 -0.75,0.234375 z m 0,0"
       style="fill:#000000;fill-opacity:1;fill-rule:nonzero;stroke:none"
       aria-label="-0.5"
       transform="matrix(1.3333333,0,0,1.3333333,363.4824,599.59779)" />
    <path
       id="path218"
       d="m 290.425,223.623 v 1.575 m 0,106.825 v -1.575"
       style="fill:none;stroke:#000000;stroke-width:0.25;stroke-linecap:butt;stroke-linejoin:miter;stroke-miterlimit:10;stroke-dasharray:none;stroke-opacity:1"
       transform="matrix(1.3333333,0,0,-1.3333333,0,887.99579)" />
    <path
       id="path219"
       d="m 2.3322156,-1.8750978 c 0,0.96093749 -0.2460937,1.54687499 -0.8085937,1.54687499 -0.55078127,0 -0.80859377,-0.5859375 -0.80859377,-1.54687499 0,-0.9726563 0.2578125,-1.5585938 0.80859377,-1.5585938 0.5625,0 0.8085937,0.5859375 0.8085937,1.5585938 z m 0.515625,0 c 0,-0.8085938 -0.2109375,-1.9921875 -1.3242187,-1.9921875 -1.10156252,0 -1.32421877,1.1835937 -1.32421877,1.9921875 0,0.796875 0.22265625,1.98046874 1.32421877,1.98046874 1.1132812,0 1.3242187,-1.18359374 1.3242187,-1.98046874 z m 0,0"
       style="fill:#000000;fill-opacity:1;fill-rule:nonzero;stroke:none"
       aria-label="0"
       transform="matrix(1.3333333,0,0,1.3333333,385.19507,599.59779)" />
    <path
       id="path220"
       d="m 303.475,223.623 v 1.575 m 0,106.825 v -1.575"
       style="fill:none;stroke:#000000;stroke-width:0.25;stroke-linecap:butt;stroke-linejoin:miter;stroke-miterlimit:10;stroke-dasharray:none;stroke-opacity:1"
       transform="matrix(1.3333333,0,0,-1.3333333,0,887.99579)" />
    <path
       id="path221"
       d="m 2.3307984,-1.8750978 c 0,0.96093749 -0.2460937,1.54687499 -0.8085937,1.54687499 -0.55078126,0 -0.80859376,-0.5859375 -0.80859376,-1.54687499 0,-0.9726563 0.2578125,-1.5585938 0.80859376,-1.5585938 0.5625,0 0.8085937,0.5859375 0.8085937,1.5585938 z m 0.515625,0 c 0,-0.8085938 -0.2109375,-1.9921875 -1.3242187,-1.9921875 -1.10156251,0 -1.32421876,1.1835937 -1.32421876,1.9921875 0,0.796875 0.22265625,1.98046874 1.32421876,1.98046874 1.1132812,0 1.3242187,-1.18359374 1.3242187,-1.98046874 z m 1.265625,1.28906249 H 3.5378297 V -9.78125e-5 H 4.1120484 Z M 5.5593141,-3.3047853 h 1.640625 V -3.7852541 H 5.1960328 l -0.2929687,2.0742188 0.421875,0.023437 c 0.1757812,-0.234375 0.4335937,-0.3632813 0.7148437,-0.3632813 0.4804688,0 0.8554688,0.2929688 0.8554688,0.8554688 0,0.48046874 -0.3164063,0.87890624 -0.8085938,0.87890624 -0.4335937,0 -0.7734375,-0.19921875 -0.8203125,-0.64453125 H 4.7624391 c 0.09375,0.8671875 0.7382812,1.06640625 1.2421875,1.06640625 1.21875,0 1.40625,-0.92578125 1.40625,-1.35937504 0,-0.796875 -0.6445313,-1.2304687 -1.265625,-1.2304687 -0.3515625,0 -0.5859375,0.1054687 -0.75,0.234375 z m 0,0"
       style="fill:#000000;fill-opacity:1;fill-rule:nonzero;stroke:none"
       aria-label="0.5"
       transform="matrix(1.3333333,0,0,1.3333333,399.5368,599.59779)" />
    <path
       id="path222"
       d="m 316.525,223.623 v 1.575 m 0,106.825 v -1.575"
       style="fill:none;stroke:#000000;stroke-width:0.25;stroke-linecap:butt;stroke-linejoin:miter;stroke-miterlimit:10;stroke-dasharray:none;stroke-opacity:1"
       transform="matrix(1.3333333,0,0,-1.3333333,0,887.99579)" />
    <path
       id="path223"
       d="m 1.9695203,-3.8672853 h -0.375 c -0.1523437,0.6328125 -0.4101562,0.6914062 -1.04296874,0.7382812 v 0.3867188 H 1.4538953 V -9.78125e-5 h 0.515625 z m 0,0"
       style="fill:#000000;fill-opacity:1;fill-rule:nonzero;stroke:none"
       aria-label="1"
       transform="matrix(1.3333333,0,0,1.3333333,419.99507,599.59779)" />
    <path
       id="path224"
       d="m 329.6,223.623 v 1.575 m 0,106.825 v -1.575"
       style="fill:none;stroke:#000000;stroke-width:0.25;stroke-linecap:butt;stroke-linejoin:miter;stroke-miterlimit:10;stroke-dasharray:none;stroke-opacity:1"
       transform="matrix(1.3333333,0,0,-1.3333333,0,887.99579)" />
    <path
       id="path225"
       d="m 1.9694703,-3.8672853 h -0.375 c -0.1523437,0.6328125 -0.4101562,0.6914062 -1.04296874,0.7382812 v 0.3867188 H 1.4538453 V -9.78125e-5 h 0.515625 z m 2.1445313,3.28124999 H 3.5397828 V -9.78125e-5 H 4.1140016 Z M 5.5612672,-3.3047853 h 1.640625 V -3.7852541 H 5.1979859 l -0.2929687,2.0742188 0.421875,0.023437 c 0.1757812,-0.234375 0.4335937,-0.3632813 0.7148437,-0.3632813 0.4804688,0 0.8554688,0.2929688 0.8554688,0.8554688 0,0.48046874 -0.3164063,0.87890624 -0.8085938,0.87890624 -0.4335937,0 -0.7734375,-0.19921875 -0.8203125,-0.64453125 H 4.7643922 c 0.09375,0.8671875 0.7382812,1.06640625 1.2421875,1.06640625 1.21875,0 1.40625,-0.92578125 1.40625,-1.35937504 0,-0.796875 -0.6445313,-1.2304687 -1.265625,-1.2304687 -0.3515625,0 -0.5859375,0.1054687 -0.75,0.234375 z m 0,0"
       style="fill:#000000;fill-opacity:1;fill-rule:nonzero;stroke:none"
       aria-label="1.5"
       transform="matrix(1.3333333,0,0,1.3333333,434.37013,599.59779)" />
    <path
       id="path226"
       d="m 342.65,223.623 v 1.575 m 0,106.825 v -1.575"
       style="fill:none;stroke:#000000;stroke-width:0.25;stroke-linecap:butt;stroke-linejoin:miter;stroke-miterlimit:10;stroke-dasharray:none;stroke-opacity:1"
       transform="matrix(1.3333333,0,0,-1.3333333,0,887.99579)" />
    <path
       id="path227"
       d="m 0.72635625,-2.4844728 c 0.0117188,-0.2578125 0.046875,-0.9492188 0.78515625,-0.9492188 0.5625,0 0.7617188,0.3984375 0.7617188,0.703125 0,0.5039063 -0.3046875,0.6679688 -0.7148438,0.9023438 L 1.0544813,-1.5352541 C 0.5271375,-1.2305666 0.175575,-0.79697281 0.14041875,-9.78125e-5 H 2.7888563 V -0.45712906 H 0.6912 c 0.0234375,-0.15234375 0.12890625,-0.4453125 0.65625,-0.73828124 l 0.4101563,-0.2226563 c 0.5742187,-0.3046875 1.03125,-0.5976562 1.03125,-1.2890625 0,-0.7265625 -0.5390625,-1.1601562 -1.2070313,-1.1601562 -0.421875,0 -1.3359375,0.1289062 -1.3359375,1.3828125 z m 0,0"
       style="fill:#000000;fill-opacity:1;fill-rule:nonzero;stroke:none"
       aria-label="2"
       transform="matrix(1.3333333,0,0,1.3333333,454.8284,599.59779)" />
    <path
       id="path228"
       d="M 238.175,223.623 H 342.65 v 108.4 H 238.175 v -108.4"
       style="fill:none;stroke:#000000;stroke-width:0.25;stroke-linecap:butt;stroke-linejoin:miter;stroke-miterlimit:10;stroke-dasharray:none;stroke-opacity:1"
       transform="matrix(1.3333333,0,0,-1.3333333,0,887.99579)" />
    <path
       id="path229"
       d="m 316.475,279.523 -0.15,1.7 m -0.25,1.675 -0.375,1.675 m -0.45,1.625 -0.55,1.6 m -0.65,1.575 -0.75,1.5 m -0.825,1.476 -0.925,1.399 m -1.025,1.35 -1.075,1.275 m -1.15,1.2 -1.25,1.125 m -1.275,1.05 -1.375,0.95 m -1.4,0.875 -1.475,0.775 m -1.5,0.675 -1.55,0.575 m -1.575,0.475 -1.6,0.375 m -1.625,0.25 -1.625,0.175 m -1.65,0.05 -1.625,-0.05 m -1.625,-0.175 -1.625,-0.25 m -1.6,-0.375 -1.575,-0.475 m -1.55,-0.575 -1.5,-0.675 m -1.475,-0.775 -1.4,-0.875 m -1.375,-0.95 -1.275,-1.05 m -1.25,-1.125 -1.15,-1.2 m -1.075,-1.275 -1.025,-1.35 m -0.925,-1.399 -0.825,-1.476 m -0.75,-1.5 -0.65,-1.575 m -0.55,-1.6 -0.45,-1.625 m -0.375,-1.675 -0.25,-1.675 m -0.15,-1.7 -0.05,-1.7 m 0.05,-1.699 0.15,-1.7 m 0.25,-1.675 0.375,-1.676 m 0.45,-1.625 0.55,-1.599 m 0.65,-1.576 0.75,-1.5 m 0.825,-1.475 0.925,-1.4 m 1.025,-1.349 1.075,-1.276 m 1.15,-1.2 1.25,-1.125 m 1.275,-1.05 1.375,-0.949 m 1.4,-0.875 1.475,-0.775 m 1.5,-0.675 1.55,-0.575 m 1.575,-0.475 1.6,-0.375 m 1.625,-0.25 1.625,-0.176 m 1.65,-0.05 1.625,0.05 m 1.625,0.176 1.625,0.25 m 1.6,0.375 1.575,0.475 m 1.55,0.575 1.5,0.675 m 1.475,0.775 1.4,0.875 m 1.375,0.949 1.275,1.05 m 1.25,1.125 1.15,1.2 m 1.075,1.276 1.025,1.349 m 0.925,1.4 0.825,1.475 m 0.75,1.5 0.65,1.576 m 0.55,1.599 0.45,1.625 m 0.375,1.676 0.25,1.675 m 0.15,1.7 0.05,1.699 m -78.35,0 H 342.65 m -52.225,-54.2 v 108.4"
       style="fill:none;stroke:#000000;stroke-width:0.125;stroke-linecap:butt;stroke-linejoin:miter;stroke-miterlimit:10;stroke-dasharray:none;stroke-opacity:1"
       transform="matrix(1.3333333,0,0,-1.3333333,0,887.99579)" />
    <path
       id="path230"
       d="m 327.35,277.823 -9.225,28.75 -27.7,9.575 -27.725,-9.575 -9.225,-28.75 9.225,-28.75 27.725,-9.575 27.7,9.575 9.225,28.75"
       style="fill:none;stroke:#000000;stroke-width:0.375;stroke-linecap:butt;stroke-linejoin:miter;stroke-miterlimit:10;stroke-dasharray:none;stroke-opacity:1"
       transform="matrix(1.3333333,0,0,-1.3333333,0,887.99579)" />
    <path
       id="path231"
       d="m 172.28,96.627 h 1.575 m 102.9,0 h -1.575"
       style="fill:none;stroke:#000000;stroke-width:0.25;stroke-linecap:butt;stroke-linejoin:miter;stroke-miterlimit:10;stroke-dasharray:none;stroke-opacity:1"
       transform="matrix(1.3333333,0,0,-1.3333333,0,887.99579)" />
    <path
       id="path232"
       d="M 1.5928172,-1.7688587 H 0.24516094 v 0.4921875 H 1.5928172 Z m 0.9638672,-0.7148438 c 0.011719,-0.2578125 0.046875,-0.9492187 0.7851562,-0.9492187 0.5625,0 0.7617188,0.3984375 0.7617188,0.703125 0,0.5039062 -0.3046875,0.6679687 -0.7148438,0.9023437 L 2.8848094,-1.5344837 C 2.3574656,-1.2297962 2.0059031,-0.7962025 1.9707469,6.725e-4 H 4.6191844 V -0.45635875 H 2.5215281 c 0.023437,-0.15234375 0.1289063,-0.4453125 0.65625,-0.73828125 l 0.4101563,-0.2226562 c 0.5742187,-0.3046875 1.03125,-0.5976563 1.03125,-1.2890625 0,-0.7265625 -0.5390625,-1.1601563 -1.2070313,-1.1601563 -0.421875,0 -1.3359375,0.1289063 -1.3359375,1.3828125 z m 0,0"
       style="fill:#000000;fill-opacity:1;fill-rule:nonzero;stroke:none"
       aria-label="-2"
       transform="matrix(1.3333333,0,0,1.3333333,218.7864,761.59285)" />
    <path
       id="path233"
       d="m 172.28,110.177 h 1.575 m 102.9,0 h -1.575"
       style="fill:none;stroke:#000000;stroke-width:0.25;stroke-linecap:butt;stroke-linejoin:miter;stroke-miterlimit:10;stroke-dasharray:none;stroke-opacity:1"
       transform="matrix(1.3333333,0,0,-1.3333333,0,887.99579)" />
    <path
       id="path234"
       d="M 1.5923266,-1.7686634 H 0.24467031 v 0.4921875 H 1.5923266 Z m 2.2089843,-2.0976563 h -0.375 c -0.1523437,0.6328125 -0.4101562,0.6914063 -1.0429687,0.7382813 v 0.3867187 H 3.2856859 V 8.678125e-4 h 0.515625 z m 2.1416016,3.28125001 H 5.3686937 V 8.678125e-4 H 5.9429125 Z M 7.3901781,-3.3038197 h 1.640625 V -3.7842884 H 7.0268969 l -0.2929688,2.0742187 0.421875,0.023437 c 0.1757813,-0.234375 0.4335938,-0.3632812 0.7148438,-0.3632812 0.4804687,0 0.8554687,0.2929687 0.8554687,0.8554687 0,0.48046876 -0.3164062,0.87890626 -0.8085937,0.87890626 -0.4335938,0 -0.7734375,-0.19921875 -0.8203125,-0.64453125 H 6.5933031 c 0.09375,0.8671875 0.7382813,1.06640625 1.2421875,1.06640625 1.21875,0 1.40625,-0.92578125 1.40625,-1.35937496 0,-0.796875 -0.6445312,-1.2304688 -1.265625,-1.2304688 -0.3515625,0 -0.5859375,0.1054688 -0.75,0.234375 z m 0,0"
       style="fill:#000000;fill-opacity:1;fill-rule:nonzero;stroke:none"
       aria-label="-1.5"
       transform="matrix(1.3333333,0,0,1.3333333,212.66987,743.52619)" />
    <path
       id="path235"
       d="m 172.28,123.727 h 1.575 m 102.9,0 h -1.575"
       style="fill:none;stroke:#000000;stroke-width:0.25;stroke-linecap:butt;stroke-linejoin:miter;stroke-miterlimit:10;stroke-dasharray:none;stroke-opacity:1"
       transform="matrix(1.3333333,0,0,-1.3333333,0,887.99579)" />
    <path
       id="path236"
       d="M 1.5928172,-1.7684681 H 0.24516094 v 0.4921875 H 1.5928172 Z m 2.2060547,-2.0976563 h -0.375 c -0.1523438,0.6328125 -0.4101563,0.6914063 -1.0429688,0.7382813 v 0.3867187 h 0.9023438 v 2.74218753 h 0.515625 z m 0,0"
       style="fill:#000000;fill-opacity:1;fill-rule:nonzero;stroke:none"
       aria-label="-1"
       transform="matrix(1.3333333,0,0,1.3333333,218.7864,725.45952)" />
    <path
       id="path237"
       d="m 172.28,137.277 h 1.575 m 102.9,0 h -1.575"
       style="fill:none;stroke:#000000;stroke-width:0.25;stroke-linecap:butt;stroke-linejoin:miter;stroke-miterlimit:10;stroke-dasharray:none;stroke-opacity:1"
       transform="matrix(1.3333333,0,0,-1.3333333,0,887.99579)" />
    <path
       id="path238"
       d="M 1.5923266,-1.7681728 H 0.24467031 v 0.4921875 H 1.5923266 Z m 2.5722656,-0.1054688 c 0,0.96093754 -0.2460938,1.54687504 -0.8085938,1.54687504 -0.5507812,0 -0.8085937,-0.5859375 -0.8085937,-1.54687504 0,-0.9726562 0.2578125,-1.5585937 0.8085937,-1.5585937 0.5625,0 0.8085938,0.5859375 0.8085938,1.5585937 z m 0.515625,0 c 0,-0.8085937 -0.2109375,-1.9921875 -1.3242188,-1.9921875 -1.1015625,0 -1.3242187,1.1835938 -1.3242187,1.9921875 0,0.796875 0.2226562,1.98046879 1.3242187,1.98046879 1.1132813,0 1.3242188,-1.18359379 1.3242188,-1.98046879 z m 1.2626953,1.28906254 H 5.3686937 v 0.5859375 H 5.9429125 Z M 7.3901781,-3.3033291 h 1.640625 V -3.7837978 H 7.0268969 l -0.2929688,2.0742187 0.421875,0.023437 c 0.1757813,-0.234375 0.4335938,-0.3632812 0.7148438,-0.3632812 0.4804687,0 0.8554687,0.2929687 0.8554687,0.8554687 0,0.48046879 -0.3164062,0.87890629 -0.8085937,0.87890629 -0.4335938,0 -0.7734375,-0.19921875 -0.8203125,-0.64453125 H 6.5933031 c 0.09375,0.8671875 0.7382813,1.06640625 1.2421875,1.06640625 1.21875,0 1.40625,-0.92578125 1.40625,-1.35937499 0,-0.796875 -0.6445312,-1.2304688 -1.265625,-1.2304688 -0.3515625,0 -0.5859375,0.1054688 -0.75,0.234375 z m 0,0"
       style="fill:#000000;fill-opacity:1;fill-rule:nonzero;stroke:none"
       aria-label="-0.5"
       transform="matrix(1.3333333,0,0,1.3333333,212.66987,707.39272)" />
    <path
       id="path239"
       d="m 172.28,150.827 h 1.575 m 102.9,0 h -1.575"
       style="fill:none;stroke:#000000;stroke-width:0.25;stroke-linecap:butt;stroke-linejoin:miter;stroke-miterlimit:10;stroke-dasharray:none;stroke-opacity:1"
       transform="matrix(1.3333333,0,0,-1.3333333,0,887.99579)" />
    <path
       id="path240"
       d="m 2.3333828,-1.8735463 c 0,0.96093755 -0.2460937,1.54687505 -0.8085937,1.54687505 -0.55078129,0 -0.80859379,-0.5859375 -0.80859379,-1.54687505 0,-0.9726562 0.2578125,-1.5585937 0.80859379,-1.5585937 0.5625,0 0.8085937,0.5859375 0.8085937,1.5585937 z m 0.515625,0 c 0,-0.8085937 -0.2109375,-1.9921875 -1.3242187,-1.9921875 -1.10156254,0 -1.32421879,1.1835938 -1.32421879,1.9921875 0,0.796875 0.22265625,1.9804688 1.32421879,1.9804688 1.1132812,0 1.3242187,-1.1835938 1.3242187,-1.9804688 z m 0,0"
       style="fill:#000000;fill-opacity:1;fill-rule:nonzero;stroke:none"
       aria-label="0"
       transform="matrix(1.3333333,0,0,1.3333333,221.22867,689.32619)" />
    <path
       id="path241"
       d="m 172.28,164.377 h 1.575 m 102.9,0 h -1.575"
       style="fill:none;stroke:#000000;stroke-width:0.25;stroke-linecap:butt;stroke-linejoin:miter;stroke-miterlimit:10;stroke-dasharray:none;stroke-opacity:1"
       transform="matrix(1.3333333,0,0,-1.3333333,0,887.99579)" />
    <path
       id="path242"
       d="m 2.3328922,-1.8762806 c 0,0.96093748 -0.2460938,1.54687498 -0.8085938,1.54687498 -0.55078121,0 -0.80859371,-0.5859375 -0.80859371,-1.54687498 0,-0.9726563 0.2578125,-1.5585938 0.80859371,-1.5585938 0.5625,0 0.8085938,0.5859375 0.8085938,1.5585938 z m 0.515625,0 c 0,-0.8085938 -0.2109375,-1.9921875 -1.3242188,-1.9921875 -1.10156246,0 -1.32421871,1.1835937 -1.32421871,1.9921875 0,0.796875 0.22265625,1.98046873 1.32421871,1.98046873 1.1132813,0 1.3242188,-1.18359373 1.3242188,-1.98046873 z m 1.265625,1.28906248 H 3.5399234 v 0.5859375 H 4.1141422 Z M 5.5584781,-3.3059681 h 1.640625 V -3.7864369 H 5.1951969 l -0.2929688,2.0742188 0.421875,0.023437 c 0.1757813,-0.234375 0.4335938,-0.3632813 0.7148438,-0.3632813 0.4804687,0 0.8554687,0.2929688 0.8554687,0.8554688 0,0.48046873 -0.3164062,0.87890623 -0.8085937,0.87890623 -0.4335938,0 -0.7734375,-0.19921875 -0.8203125,-0.64453125 H 4.7616031 c 0.09375,0.8671875 0.7382813,1.06640625 1.2421875,1.06640625 1.21875,0 1.40625,-0.92578125 1.40625,-1.35937503 0,-0.796875 -0.6445312,-1.2304687 -1.265625,-1.2304687 -0.3515625,0 -0.5859375,0.1054687 -0.75,0.234375 z m 0,0"
       style="fill:#000000;fill-opacity:1;fill-rule:nonzero;stroke:none"
       aria-label="0.5"
       transform="matrix(1.3333333,0,0,1.3333333,215.11213,671.25952)" />
    <path
       id="path243"
       d="m 172.28,177.927 h 1.575 m 102.9,0 h -1.575"
       style="fill:none;stroke:#000000;stroke-width:0.25;stroke-linecap:butt;stroke-linejoin:miter;stroke-miterlimit:10;stroke-dasharray:none;stroke-opacity:1"
       transform="matrix(1.3333333,0,0,-1.3333333,0,887.99579)" />
    <path
       id="path244"
       d="m 1.9701016,-3.8682728 h -0.375 c -0.1523438,0.6328125 -0.4101563,0.6914062 -1.04296879,0.7382812 v 0.3867188 H 1.4544766 v 2.74218749 h 0.515625 z m 0,0"
       style="fill:#000000;fill-opacity:1;fill-rule:nonzero;stroke:none"
       aria-label="1"
       transform="matrix(1.3333333,0,0,1.3333333,221.22867,653.19285)" />
    <path
       id="path245"
       d="m 172.28,191.477 h 1.575 m 102.9,0 h -1.575"
       style="fill:none;stroke:#000000;stroke-width:0.25;stroke-linecap:butt;stroke-linejoin:miter;stroke-miterlimit:10;stroke-dasharray:none;stroke-opacity:1"
       transform="matrix(1.3333333,0,0,-1.3333333,0,887.99579)" />
    <path
       id="path246"
       d="m 1.9696109,-3.8680775 h -0.375 C 1.4422672,-3.235265 1.1844547,-3.1766712 0.55164219,-3.1297962 v 0.3867187 H 1.4539859 V -8.9e-4 h 0.515625 z m 2.1445313,3.28125 H 3.5399234 V -8.9e-4 h 0.5742188 z m 1.4443359,-2.71875 h 1.640625 V -3.7860462 H 5.1951969 l -0.2929688,2.0742187 0.421875,0.023437 c 0.1757813,-0.234375 0.4335938,-0.3632812 0.7148438,-0.3632812 0.4804687,0 0.8554687,0.2929687 0.8554687,0.8554687 0,0.48046875 -0.3164062,0.87890625 -0.8085937,0.87890625 -0.4335938,0 -0.7734375,-0.19921875 -0.8203125,-0.64453125 H 4.7616031 c 0.09375,0.8671875 0.7382813,1.06640625 1.2421875,1.06640625 1.21875,0 1.40625,-0.92578125 1.40625,-1.35937495 0,-0.796875 -0.6445312,-1.2304688 -1.265625,-1.2304688 -0.3515625,0 -0.5859375,0.1054688 -0.75,0.234375 z m 0,0"
       style="fill:#000000;fill-opacity:1;fill-rule:nonzero;stroke:none"
       aria-label="1.5"
       transform="matrix(1.3333333,0,0,1.3333333,215.11213,635.12619)" />
    <path
       id="path247"
       d="m 172.28,205.027 h 1.575 m 102.9,0 h -1.575"
       style="fill:none;stroke:#000000;stroke-width:0.25;stroke-linecap:butt;stroke-linejoin:miter;stroke-miterlimit:10;stroke-dasharray:none;stroke-opacity:1"
       transform="matrix(1.3333333,0,0,-1.3333333,0,887.99579)" />
    <path
       id="path248"
       d="m 0.72791406,-2.4850697 c 0.0117188,-0.2578125 0.046875,-0.9492187 0.78515624,-0.9492187 0.5625,0 0.7617188,0.3984375 0.7617188,0.703125 0,0.5039062 -0.3046875,0.6679687 -0.7148438,0.9023437 L 1.0560391,-1.5358509 C 0.52869531,-1.2311634 0.17713281,-0.79756969 0.14197656,-6.946875e-4 H 2.7904141 V -0.45772594 H 0.69275781 c 0.0234375,-0.15234375 0.12890625,-0.4453125 0.65624999,-0.73828126 l 0.4101563,-0.2226562 c 0.5742187,-0.3046875 1.03125,-0.5976563 1.03125,-1.2890625 0,-0.7265625 -0.5390625,-1.1601563 -1.2070313,-1.1601563 -0.421875,0 -1.33593749,0.1289063 -1.33593749,1.3828125 z m 0,0"
       style="fill:#000000;fill-opacity:1;fill-rule:nonzero;stroke:none"
       aria-label="2"
       transform="matrix(1.3333333,0,0,1.3333333,221.22867,617.05952)" />
    <path
       id="path249"
       d="m 172.28,96.627 v 1.575 m 0,106.825 v -1.575"
       style="fill:none;stroke:#000000;stroke-width:0.25;stroke-linecap:butt;stroke-linejoin:miter;stroke-miterlimit:10;stroke-dasharray:none;stroke-opacity:1"
       transform="matrix(1.3333333,0,0,-1.3333333,0,887.99579)" />
    <path
       id="path250"
       d="M 1.5929344,-1.7698353 H 0.24527813 v 0.4921875 H 1.5929344 Z m 0.9638672,-0.7148438 c 0.011719,-0.2578125 0.046875,-0.9492187 0.7851562,-0.9492187 0.5625,0 0.7617188,0.3984375 0.7617188,0.703125 0,0.5039062 -0.3046875,0.6679687 -0.7148438,0.9023437 L 2.8849266,-1.5354603 C 2.3575828,-1.2307728 2.0060203,-0.79717906 1.9708641,-3.040625e-4 H 4.6193016 V -0.45733531 H 2.5216453 c 0.023437,-0.15234375 0.1289063,-0.4453125 0.65625,-0.73828129 l 0.4101563,-0.2226562 c 0.5742187,-0.3046875 1.03125,-0.5976563 1.03125,-1.2890625 0,-0.7265625 -0.5390625,-1.1601563 -1.2070313,-1.1601563 -0.421875,0 -1.3359375,0.1289063 -1.3359375,1.3828125 z m 0,0"
       style="fill:#000000;fill-opacity:1;fill-rule:nonzero;stroke:none"
       aria-label="-2"
       transform="matrix(1.3333333,0,0,1.3333333,226.4464,768.92619)" />
    <path
       id="path251"
       d="m 185.33,96.627 v 1.575 m 0,106.825 v -1.575"
       style="fill:none;stroke:#000000;stroke-width:0.25;stroke-linecap:butt;stroke-linejoin:miter;stroke-miterlimit:10;stroke-dasharray:none;stroke-opacity:1"
       transform="matrix(1.3333333,0,0,-1.3333333,0,887.99579)" />
    <path
       id="path252"
       d="M 1.5944469,-1.7698353 H 0.24679062 v 0.4921875 H 1.5944469 Z m 2.2060547,-2.0976563 h -0.375 c -0.1523438,0.6328125 -0.4101563,0.6914063 -1.0429688,0.7382813 v 0.3867187 h 0.9023438 v 2.7421875375 h 0.515625 z m 2.1445312,3.28125004 H 5.3708141 V -3.040625e-4 H 5.9450328 Z M 7.3922984,-3.3049916 h 1.640625 V -3.7854603 H 7.0290172 l -0.2929688,2.0742187 0.421875,0.023437 c 0.1757813,-0.234375 0.4335938,-0.3632812 0.7148438,-0.3632812 0.4804687,0 0.8554687,0.2929687 0.8554687,0.8554687 0,0.48046879 -0.3164062,0.87890629 -0.8085937,0.87890629 -0.4335938,0 -0.7734375,-0.19921875 -0.8203125,-0.64453125 H 6.5954234 c 0.09375,0.8671875 0.7382813,1.06640625 1.2421875,1.06640625 1.21875,0 1.40625,-0.92578125 1.40625,-1.35937499 0,-0.796875 -0.6445312,-1.2304688 -1.265625,-1.2304688 -0.3515625,0 -0.5859375,0.1054688 -0.75,0.234375 z m 0,0"
       style="fill:#000000;fill-opacity:1;fill-rule:nonzero;stroke:none"
       aria-label="-1.5"
       transform="matrix(1.3333333,0,0,1.3333333,240.78813,768.92619)" />
    <path
       id="path253"
       d="m 198.405,96.627 v 1.575 m 0,106.825 v -1.575"
       style="fill:none;stroke:#000000;stroke-width:0.25;stroke-linecap:butt;stroke-linejoin:miter;stroke-miterlimit:10;stroke-dasharray:none;stroke-opacity:1"
       transform="matrix(1.3333333,0,0,-1.3333333,0,887.99579)" />
    <path
       id="path254"
       d="M 1.5948875,-1.7698353 H 0.24723125 v 0.4921875 H 1.5948875 Z m 2.2060547,-2.0976563 h -0.375 c -0.1523438,0.6328125 -0.4101563,0.6914063 -1.0429688,0.7382813 v 0.3867187 h 0.9023438 v 2.7421875375 h 0.515625 z m 0,0"
       style="fill:#000000;fill-opacity:1;fill-rule:nonzero;stroke:none"
       aria-label="-1"
       transform="matrix(1.3333333,0,0,1.3333333,261.27973,768.92619)" />
    <path
       id="path255"
       d="m 211.455,96.627 v 1.575 m 0,106.825 v -1.575"
       style="fill:none;stroke:#000000;stroke-width:0.25;stroke-linecap:butt;stroke-linejoin:miter;stroke-miterlimit:10;stroke-dasharray:none;stroke-opacity:1"
       transform="matrix(1.3333333,0,0,-1.3333333,0,887.99579)" />
    <path
       id="path256"
       d="M 1.5934703,-1.7698353 H 0.24581406 v 0.4921875 H 1.5934703 Z m 2.569336,-0.1054688 c 0,0.96093754 -0.2460938,1.54687504 -0.8085938,1.54687504 -0.5507812,0 -0.8085937,-0.5859375 -0.8085937,-1.54687504 0,-0.9726562 0.2578125,-1.5585937 0.8085937,-1.5585937 0.5625,0 0.8085938,0.5859375 0.8085938,1.5585937 z m 0.515625,0 c 0,-0.8085937 -0.2109375,-1.9921875 -1.3242188,-1.9921875 -1.1015625,0 -1.3242187,1.1835938 -1.3242187,1.9921875 0,0.796875 0.2226562,1.98046879 1.3242187,1.98046879 1.1132813,0 1.3242188,-1.18359379 1.3242188,-1.98046879 z m 1.265625,1.28906254 H 5.3698375 V -3.040625e-4 H 5.9440563 Z M 7.3913219,-3.3049916 h 1.640625 V -3.7854603 H 7.0280406 l -0.2929687,2.0742187 0.421875,0.023437 c 0.1757812,-0.234375 0.4335937,-0.3632812 0.7148437,-0.3632812 0.4804688,0 0.8554688,0.2929687 0.8554688,0.8554687 0,0.48046879 -0.3164063,0.87890629 -0.8085938,0.87890629 -0.4335937,0 -0.7734375,-0.19921875 -0.8203125,-0.64453125 H 6.5944469 c 0.09375,0.8671875 0.7382812,1.06640625 1.2421875,1.06640625 1.21875,0 1.40625,-0.92578125 1.40625,-1.35937499 0,-0.796875 -0.6445313,-1.2304688 -1.265625,-1.2304688 -0.3515625,0 -0.5859375,0.1054688 -0.75,0.234375 z m 0,0"
       style="fill:#000000;fill-opacity:1;fill-rule:nonzero;stroke:none"
       aria-label="-0.5"
       transform="matrix(1.3333333,0,0,1.3333333,275.62147,768.92619)" />
    <path
       id="path257"
       d="m 224.53,96.627 v 1.575 m 0,106.825 v -1.575"
       style="fill:none;stroke:#000000;stroke-width:0.25;stroke-linecap:butt;stroke-linejoin:miter;stroke-miterlimit:10;stroke-dasharray:none;stroke-opacity:1"
       transform="matrix(1.3333333,0,0,-1.3333333,0,887.99579)" />
    <path
       id="path258"
       d="m 2.3333844,-1.8753041 c 0,0.96093754 -0.2460938,1.54687504 -0.8085938,1.54687504 -0.55078122,0 -0.80859372,-0.5859375 -0.80859372,-1.54687504 0,-0.9726562 0.2578125,-1.5585937 0.80859372,-1.5585937 0.5625,0 0.8085938,0.5859375 0.8085938,1.5585937 z m 0.515625,0 c 0,-0.8085937 -0.2109375,-1.9921875 -1.3242188,-1.9921875 -1.10156247,0 -1.32421872,1.1835938 -1.32421872,1.9921875 0,0.796875 0.22265625,1.98046879 1.32421872,1.98046879 1.1132813,0 1.3242188,-1.18359379 1.3242188,-1.98046879 z m 0,0"
       style="fill:#000000;fill-opacity:1;fill-rule:nonzero;stroke:none"
       aria-label="0"
       transform="matrix(1.3333333,0,0,1.3333333,297.33413,768.92619)" />
    <path
       id="path259"
       d="m 237.58,96.627 v 1.575 m 0,106.825 v -1.575"
       style="fill:none;stroke:#000000;stroke-width:0.25;stroke-linecap:butt;stroke-linejoin:miter;stroke-miterlimit:10;stroke-dasharray:none;stroke-opacity:1"
       transform="matrix(1.3333333,0,0,-1.3333333,0,887.99579)" />
    <path
       id="path260"
       d="m 2.3319672,-1.8753041 c 0,0.96093754 -0.2460938,1.54687504 -0.8085938,1.54687504 -0.55078121,0 -0.80859371,-0.5859375 -0.80859371,-1.54687504 0,-0.9726562 0.2578125,-1.5585937 0.80859371,-1.5585937 0.5625,0 0.8085938,0.5859375 0.8085938,1.5585937 z m 0.515625,0 c 0,-0.8085937 -0.2109375,-1.9921875 -1.3242188,-1.9921875 -1.10156246,0 -1.32421871,1.1835938 -1.32421871,1.9921875 0,0.796875 0.22265625,1.98046879 1.32421871,1.98046879 1.1132813,0 1.3242188,-1.18359379 1.3242188,-1.98046879 z m 1.265625,1.28906254 H 3.5389984 V -3.040625e-4 H 4.1132172 Z M 5.5604828,-3.3049916 h 1.640625 V -3.7854603 H 5.1972016 l -0.2929688,2.0742187 0.421875,0.023437 c 0.1757813,-0.234375 0.4335938,-0.3632812 0.7148438,-0.3632812 0.4804687,0 0.8554687,0.2929687 0.8554687,0.8554687 0,0.48046879 -0.3164062,0.87890629 -0.8085937,0.87890629 -0.4335938,0 -0.7734375,-0.19921875 -0.8203125,-0.64453125 H 4.7636078 c 0.09375,0.8671875 0.7382813,1.06640625 1.2421875,1.06640625 1.21875,0 1.40625,-0.92578125 1.40625,-1.35937499 0,-0.796875 -0.6445312,-1.2304688 -1.265625,-1.2304688 -0.3515625,0 -0.5859375,0.1054688 -0.75,0.234375 z m 0,0"
       style="fill:#000000;fill-opacity:1;fill-rule:nonzero;stroke:none"
       aria-label="0.5"
       transform="matrix(1.3333333,0,0,1.3333333,311.67587,768.92619)" />
    <path
       id="path261"
       d="m 250.63,96.627 v 1.575 m 0,106.825 v -1.575"
       style="fill:none;stroke:#000000;stroke-width:0.25;stroke-linecap:butt;stroke-linejoin:miter;stroke-miterlimit:10;stroke-dasharray:none;stroke-opacity:1"
       transform="matrix(1.3333333,0,0,-1.3333333,0,887.99579)" />
    <path
       id="path262"
       d="m 1.9677594,-3.8674916 h -0.375 c -0.1523438,0.6328125 -0.4101563,0.6914063 -1.04296877,0.7382813 v 0.3867187 H 1.4521344 v 2.7421875375 h 0.515625 z m 0,0"
       style="fill:#000000;fill-opacity:1;fill-rule:nonzero;stroke:none"
       aria-label="1"
       transform="matrix(1.3333333,0,0,1.3333333,332.13413,768.92619)" />
    <path
       id="path263"
       d="m 263.705,96.627 v 1.575 m 0,106.825 v -1.575"
       style="fill:none;stroke:#000000;stroke-width:0.25;stroke-linecap:butt;stroke-linejoin:miter;stroke-miterlimit:10;stroke-dasharray:none;stroke-opacity:1"
       transform="matrix(1.3333333,0,0,-1.3333333,0,887.99579)" />
    <path
       id="path264"
       d="m 1.9677094,-3.8674916 h -0.375 c -0.1523438,0.6328125 -0.4101563,0.6914063 -1.04296877,0.7382813 v 0.3867187 H 1.4520844 v 2.7421875375 h 0.515625 z m 2.1445312,3.28125004 H 3.5380219 V -3.040625e-4 H 4.1122406 Z M 5.5595063,-3.3049916 h 1.640625 V -3.7854603 H 5.196225 l -0.2929687,2.0742187 0.421875,0.023437 c 0.1757812,-0.234375 0.4335937,-0.3632812 0.7148437,-0.3632812 0.4804688,0 0.8554688,0.2929687 0.8554688,0.8554687 0,0.48046879 -0.3164063,0.87890629 -0.8085938,0.87890629 -0.4335937,0 -0.7734375,-0.19921875 -0.8203125,-0.64453125 H 4.7626313 c 0.09375,0.8671875 0.7382812,1.06640625 1.2421875,1.06640625 1.21875,0 1.40625,-0.92578125 1.40625,-1.35937499 0,-0.796875 -0.6445313,-1.2304688 -1.265625,-1.2304688 -0.3515625,0 -0.5859375,0.1054688 -0.75,0.234375 z m 0,0"
       style="fill:#000000;fill-opacity:1;fill-rule:nonzero;stroke:none"
       aria-label="1.5"
       transform="matrix(1.3333333,0,0,1.3333333,346.5092,768.92619)" />
    <path
       id="path265"
       d="m 276.755,96.627 v 1.575 m 0,106.825 v -1.575"
       style="fill:none;stroke:#000000;stroke-width:0.25;stroke-linecap:butt;stroke-linejoin:miter;stroke-miterlimit:10;stroke-dasharray:none;stroke-opacity:1"
       transform="matrix(1.3333333,0,0,-1.3333333,0,887.99579)" />
    <path
       id="path266"
       d="m 0.727525,-2.4846791 c 0.0117188,-0.2578125 0.046875,-0.9492187 0.7851563,-0.9492187 0.5625,0 0.7617187,0.3984375 0.7617187,0.703125 0,0.5039062 -0.3046875,0.6679687 -0.7148437,0.9023437 L 1.05565,-1.5354603 C 0.52830625,-1.2307728 0.17674375,-0.79717906 0.1415875,-3.040625e-4 H 2.790025 V -0.45733531 H 0.69236875 C 0.71580625,-0.60967906 0.821275,-0.90264781 1.3486188,-1.1956166 L 1.758775,-1.4182728 c 0.5742188,-0.3046875 1.03125,-0.5976563 1.03125,-1.2890625 0,-0.7265625 -0.5390625,-1.1601563 -1.2070312,-1.1601563 -0.421875,0 -1.33593755,0.1289063 -1.33593755,1.3828125 z m 0,0"
       style="fill:#000000;fill-opacity:1;fill-rule:nonzero;stroke:none"
       aria-label="2"
       transform="matrix(1.3333333,0,0,1.3333333,366.96747,768.92619)" />
    <path
       id="path267"
       d="m 172.28,96.627 h 104.475 v 108.4 H 172.28 v -108.4"
       style="fill:none;stroke:#000000;stroke-width:0.25;stroke-linecap:butt;stroke-linejoin:miter;stroke-miterlimit:10;stroke-dasharray:none;stroke-opacity:1"
       transform="matrix(1.3333333,0,0,-1.3333333,0,887.99579)" />
    <path
       id="path268"
       d="m 250.58,152.527 -0.15,1.7 m -0.25,1.675 -0.375,1.675 m -0.45,1.625 -0.55,1.6 m -0.65,1.575 -0.75,1.5 m -0.825,1.475 -0.925,1.4 m -1.025,1.35 -1.075,1.275 m -1.15,1.2 -1.25,1.125 m -1.275,1.05 -1.375,0.95 m -1.4,0.875 -1.475,0.775 m -1.5,0.675 -1.55,0.575 m -1.575,0.475 -1.6,0.375 m -1.625,0.25 -1.625,0.175 m -1.65,0.05 -1.625,-0.05 m -1.625,-0.175 -1.625,-0.25 m -1.6,-0.375 -1.575,-0.475 m -1.55,-0.575 -1.5,-0.675 m -1.475,-0.775 -1.4,-0.875 m -1.375,-0.95 -1.275,-1.05 m -1.25,-1.125 -1.15,-1.2 m -1.075,-1.275 -1.025,-1.35 m -0.925,-1.4 -0.825,-1.475 m -0.75,-1.5 -0.65,-1.575 m -0.55,-1.6 -0.45,-1.625 m -0.375,-1.675 -0.25,-1.675 m -0.15,-1.7 -0.05,-1.7 m 0.05,-1.7 0.15,-1.7 m 0.25,-1.675 0.375,-1.675 m 0.45,-1.625 0.55,-1.6 m 0.65,-1.575 0.75,-1.5 m 0.825,-1.475 0.925,-1.4 m 1.025,-1.35 1.075,-1.275 m 1.15,-1.2 1.25,-1.125 m 1.275,-1.05 1.375,-0.95 m 1.4,-0.875 1.475,-0.775 m 1.5,-0.675 1.55,-0.575 m 1.575,-0.475 1.6,-0.375 m 1.625,-0.25 1.625,-0.175 m 1.65,-0.05 1.625,0.05 m 1.625,0.175 1.625,0.25 m 1.6,0.375 1.575,0.475 m 1.55,0.575 1.5,0.675 m 1.475,0.775 1.4,0.875 m 1.375,0.95 1.275,1.05 m 1.25,1.125 1.15,1.2 m 1.075,1.275 1.025,1.35 m 0.925,1.4 0.825,1.475 m 0.75,1.5 0.65,1.575 m 0.55,1.6 0.45,1.625 m 0.375,1.675 0.25,1.675 m 0.15,1.7 0.05,1.7 m -78.35,0 h 104.475 m -52.225,-54.2 v 108.4"
       style="fill:none;stroke:#000000;stroke-width:0.125;stroke-linecap:butt;stroke-linejoin:miter;stroke-miterlimit:10;stroke-dasharray:none;stroke-opacity:1"
       transform="matrix(1.3333333,0,0,-1.3333333,0,887.99579)" />
    <path
       id="path269"
       d="m 250.63,166.452 -26.1,15.65 -26.125,-15.65 v -31.25 l 26.125,-15.65 26.1,15.65 v 31.25"
       style="fill:none;stroke:#000000;stroke-width:0.375;stroke-linecap:butt;stroke-linejoin:miter;stroke-miterlimit:10;stroke-dasharray:none;stroke-opacity:1"
       transform="matrix(1.3333333,0,0,-1.3333333,0,887.99579)" />
  </g>
</svg>
