<?xml version="1.0" encoding="UTF-8" standalone="no"?>
<svg
   width="504.422"
   height="432.53"
   viewBox="0 0 504.422 432.53"
   version="1.1"
   id="svg86"
   sodipodi:docname="ct_f_u_2.svg"
   inkscape:version="1.3.2 (091e20ef0f, 2023-11-25)"
   xmlns:inkscape="http://www.inkscape.org/namespaces/inkscape"
   xmlns:sodipodi="http://sodipodi.sourceforge.net/DTD/sodipodi-0.dtd"
   xmlns:xlink="http://www.w3.org/1999/xlink"
   xmlns="http://www.w3.org/2000/svg"
   xmlns:svg="http://www.w3.org/2000/svg">
  <defs
     id="defs86" />
  <sodipodi:namedview
     id="namedview86"
     pagecolor="#ffffff"
     bordercolor="#000000"
     borderopacity="0.25"
     inkscape:showpageshadow="2"
     inkscape:pageopacity="0.0"
     inkscape:pagecheckerboard="0"
     inkscape:deskcolor="#d1d1d1"
     inkscape:zoom="0.31716562"
     inkscape:cx="-267.99878"
     inkscape:cy="386.23354"
     inkscape:window-width="1916"
     inkscape:window-height="1021"
     inkscape:window-x="0"
     inkscape:window-y="0"
     inkscape:window-maximized="0"
     inkscape:current-layer="gnuplot_canvas" />
  <title
     id="title1">Gnuplot</title>
  <desc
     id="desc1">Produced by GNUPLOT 5.4 patchlevel 9 </desc>
  <g
     id="gnuplot_canvas"
     inkscape:groupmode="layer"
     transform="translate(-73.926,-32.91)">
    <rect
       x="73.926003"
       y="32.909996"
       width="504.422"
       height="432.52997"
       fill="none"
       id="rect1"
       style="fill:#ffffff;stroke-width:1" />
    <defs
       id="defs2">
      <circle
         id="gpDot"
         r="0.5"
         stroke-width="0.5"
         stroke="currentColor"
         cx="0"
         cy="0" />
      <path
         id="gpPt0"
         stroke-width="0.095"
         stroke="currentColor"
         d="M -1,0 H 1 M 0,-1 v 2" />
      <path
         id="gpPt1"
         stroke-width="0.095"
         stroke="currentColor"
         d="M -1,-1 1,1 M 1,-1 -1,1" />
      <path
         id="gpPt2"
         stroke-width="0.095"
         stroke="currentColor"
         d="M -1,0 H 1 M 0,-1 v 2 m -1,-2 2,2 m -2,0 2,-2" />
      <rect
         id="gpPt3"
         stroke-width="0.095"
         stroke="currentColor"
         x="-1"
         y="-1"
         width="2"
         height="2" />
      <rect
         id="gpPt4"
         stroke-width="0.095"
         stroke="currentColor"
         fill="currentColor"
         x="-1"
         y="-1"
         width="2"
         height="2" />
      <circle
         id="gpPt5"
         stroke-width="0.095"
         stroke="currentColor"
         cx="0"
         cy="0"
         r="1" />
      <use
         xlink:href="#gpPt5"
         id="gpPt6"
         fill="currentColor"
         stroke="none" />
      <path
         id="gpPt7"
         stroke-width="0.095"
         stroke="currentColor"
         d="m 0,-1.33 -1.33,2 h 2.66 z" />
      <use
         xlink:href="#gpPt7"
         id="gpPt8"
         fill="currentColor"
         stroke="none" />
      <use
         xlink:href="#gpPt7"
         id="gpPt9"
         stroke="currentColor"
         transform="scale(-1)" />
      <use
         xlink:href="#gpPt9"
         id="gpPt10"
         fill="currentColor"
         stroke="none" />
      <use
         xlink:href="#gpPt3"
         id="gpPt11"
         stroke="currentColor"
         transform="rotate(45)" />
      <use
         xlink:href="#gpPt11"
         id="gpPt12"
         fill="currentColor"
         stroke="none" />
      <path
         id="gpPt13"
         stroke-width="0.095"
         stroke="currentColor"
         d="M 0,1.33 1.265,0.411 0.782,-1.067 -0.782,-1.076 -1.265,0.411 Z" />
      <use
         xlink:href="#gpPt13"
         id="gpPt14"
         fill="currentColor"
         stroke="none" />
      <filter
         id="textbox"
         filterUnits="objectBoundingBox"
         x="0"
         y="0"
         height="1"
         width="1">
        <feFlood
           flood-color="white"
           flood-opacity="1"
           result="bgnd"
           id="feFlood1" />
        <feComposite
           in="SourceGraphic"
           in2="bgnd"
           operator="atop"
           id="feComposite1" />
      </filter>
      <filter
         id="greybox"
         filterUnits="objectBoundingBox"
         x="0"
         y="0"
         height="1"
         width="1">
        <feFlood
           flood-color="lightgrey"
           flood-opacity="1"
           result="grey"
           id="feFlood2" />
        <feComposite
           in="SourceGraphic"
           in2="grey"
           operator="atop"
           id="feComposite2" />
      </filter>
    </defs>
    <g
       fill="none"
       color="#ffffff"
       stroke="#003162"
       stroke-width="1"
       stroke-linecap="butt"
       stroke-linejoin="miter"
       id="g2" />
    <g
       fill="none"
       color="#000000"
       stroke="currentColor"
       stroke-width="1"
       stroke-linecap="butt"
       stroke-linejoin="miter"
       id="g3" />
    <g
       fill="none"
       color="#000000"
       stroke="#003162"
       stroke-width="0.5"
       stroke-linecap="butt"
       stroke-linejoin="miter"
       id="g4" />
    <g
       fill="none"
       color="#808080"
       stroke="currentColor"
       stroke-width="0.5"
       stroke-linecap="butt"
       stroke-linejoin="miter"
       id="g5">
      <path
         stroke="#003162"
         stroke-dasharray="2, 4"
         class="gridline"
         d="m 188.92,370.8 h 352.3"
         id="path4" />
    </g>
    <g
       fill="none"
       color="#808080"
       stroke="#003162"
       stroke-width="1"
       stroke-linecap="butt"
       stroke-linejoin="miter"
       id="g6" />
    <g
       fill="none"
       color="#000000"
       stroke="currentColor"
       stroke-width="1"
       stroke-linecap="butt"
       stroke-linejoin="miter"
       id="g8">
      <path
         stroke="#003162"
         d="m 188.92,370.8 h 21 m 331.3,0 h -21"
         id="path6" />
      <g
         transform="translate(169.33,379.9)"
         stroke="none"
         fill="#003162"
         font-family="'Source Sans 3'"
         font-size="28px"
         text-anchor="end"
         id="g7">
        <text
           id="text6"><tspan
             font-family="'Source Sans 3'"
             id="tspan6">0</tspan></text>
      </g>
    </g>
    <g
       fill="none"
       color="#000000"
       stroke="currentColor"
       stroke-width="1"
       stroke-linecap="butt"
       stroke-linejoin="miter"
       id="g9" />
    <g
       fill="none"
       color="#000000"
       stroke="#003162"
       stroke-width="0.5"
       stroke-linecap="butt"
       stroke-linejoin="miter"
       id="g10" />
    <g
       fill="none"
       color="#808080"
       stroke="currentColor"
       stroke-width="0.5"
       stroke-linecap="butt"
       stroke-linejoin="miter"
       id="g11">
      <path
         stroke="#003162"
         stroke-dasharray="2, 4"
         class="gridline"
         d="m 188.92,305.04 h 352.3"
         id="path10" />
    </g>
    <g
       fill="none"
       color="#808080"
       stroke="#003162"
       stroke-width="1"
       stroke-linecap="butt"
       stroke-linejoin="miter"
       id="g12" />
    <g
       fill="none"
       color="#000000"
       stroke="currentColor"
       stroke-width="1"
       stroke-linecap="butt"
       stroke-linejoin="miter"
       id="g14">
      <path
         stroke="#003162"
         d="m 188.92,305.04 h 21 m 331.3,0 h -21"
         id="path12" />
      <g
         transform="translate(169.33,314.14)"
         stroke="none"
         fill="#003162"
         font-family="'Source Sans 3'"
         font-size="28px"
         text-anchor="end"
         id="g13">
        <text
           id="text12"><tspan
             font-family="'Source Sans 3'"
             id="tspan12">1000</tspan></text>
      </g>
    </g>
    <g
       fill="none"
       color="#000000"
       stroke="currentColor"
       stroke-width="1"
       stroke-linecap="butt"
       stroke-linejoin="miter"
       id="g15" />
    <g
       fill="none"
       color="#000000"
       stroke="#003162"
       stroke-width="0.5"
       stroke-linecap="butt"
       stroke-linejoin="miter"
       id="g16" />
    <g
       fill="none"
       color="#808080"
       stroke="currentColor"
       stroke-width="0.5"
       stroke-linecap="butt"
       stroke-linejoin="miter"
       id="g17">
      <path
         stroke="#003162"
         stroke-dasharray="2, 4"
         class="gridline"
         d="m 188.92,239.28 h 352.3"
         id="path16" />
    </g>
    <g
       fill="none"
       color="#808080"
       stroke="#003162"
       stroke-width="1"
       stroke-linecap="butt"
       stroke-linejoin="miter"
       id="g18" />
    <g
       fill="none"
       color="#000000"
       stroke="currentColor"
       stroke-width="1"
       stroke-linecap="butt"
       stroke-linejoin="miter"
       id="g20">
      <path
         stroke="#003162"
         d="m 188.92,239.28 h 21 m 331.3,0 h -21"
         id="path18" />
      <g
         transform="translate(169.33,248.38)"
         stroke="none"
         fill="#003162"
         font-family="'Source Sans 3'"
         font-size="28px"
         text-anchor="end"
         id="g19">
        <text
           id="text18"><tspan
             font-family="'Source Sans 3'"
             id="tspan18">2000</tspan></text>
      </g>
    </g>
    <g
       fill="none"
       color="#000000"
       stroke="currentColor"
       stroke-width="1"
       stroke-linecap="butt"
       stroke-linejoin="miter"
       id="g21" />
    <g
       fill="none"
       color="#000000"
       stroke="#003162"
       stroke-width="0.5"
       stroke-linecap="butt"
       stroke-linejoin="miter"
       id="g22" />
    <g
       fill="none"
       color="#808080"
       stroke="currentColor"
       stroke-width="0.5"
       stroke-linecap="butt"
       stroke-linejoin="miter"
       id="g23">
      <path
         stroke="#003162"
         stroke-dasharray="2, 4"
         class="gridline"
         d="m 188.92,173.53 h 352.3"
         id="path22" />
    </g>
    <g
       fill="none"
       color="#808080"
       stroke="#003162"
       stroke-width="1"
       stroke-linecap="butt"
       stroke-linejoin="miter"
       id="g24" />
    <g
       fill="none"
       color="#000000"
       stroke="currentColor"
       stroke-width="1"
       stroke-linecap="butt"
       stroke-linejoin="miter"
       id="g26">
      <path
         stroke="#003162"
         d="m 188.92,173.53 h 21 m 331.3,0 h -21"
         id="path24" />
      <g
         transform="translate(169.33,182.63)"
         stroke="none"
         fill="#003162"
         font-family="'Source Sans 3'"
         font-size="28px"
         text-anchor="end"
         id="g25">
        <text
           id="text24"><tspan
             font-family="'Source Sans 3'"
             id="tspan24">3000</tspan></text>
      </g>
    </g>
    <g
       fill="none"
       color="#000000"
       stroke="currentColor"
       stroke-width="1"
       stroke-linecap="butt"
       stroke-linejoin="miter"
       id="g27" />
    <g
       fill="none"
       color="#000000"
       stroke="#003162"
       stroke-width="0.5"
       stroke-linecap="butt"
       stroke-linejoin="miter"
       id="g28" />
    <g
       fill="none"
       color="#808080"
       stroke="currentColor"
       stroke-width="0.5"
       stroke-linecap="butt"
       stroke-linejoin="miter"
       id="g29">
      <path
         stroke="#003162"
         stroke-dasharray="2, 4"
         class="gridline"
         d="M 188.92,107.77 H 363.5 m 158.13,0 h 19.59"
         id="path28" />
    </g>
    <g
       fill="none"
       color="#808080"
       stroke="#003162"
       stroke-width="1"
       stroke-linecap="butt"
       stroke-linejoin="miter"
       id="g30" />
    <g
       fill="none"
       color="#000000"
       stroke="currentColor"
       stroke-width="1"
       stroke-linecap="butt"
       stroke-linejoin="miter"
       id="g32">
      <path
         stroke="#003162"
         d="m 188.92,107.77 h 21 m 331.3,0 h -21"
         id="path30" />
      <g
         transform="translate(169.33,116.87)"
         stroke="none"
         fill="#003162"
         font-family="'Source Sans 3'"
         font-size="28px"
         text-anchor="end"
         id="g31">
        <text
           id="text30"><tspan
             font-family="'Source Sans 3'"
             id="tspan30">4000</tspan></text>
      </g>
    </g>
    <g
       fill="none"
       color="#000000"
       stroke="currentColor"
       stroke-width="1"
       stroke-linecap="butt"
       stroke-linejoin="miter"
       id="g33" />
    <g
       fill="none"
       color="#000000"
       stroke="#003162"
       stroke-width="0.5"
       stroke-linecap="butt"
       stroke-linejoin="miter"
       id="g34" />
    <g
       fill="none"
       color="#808080"
       stroke="currentColor"
       stroke-width="0.5"
       stroke-linecap="butt"
       stroke-linejoin="miter"
       id="g35">
      <path
         stroke="#003162"
         stroke-dasharray="2, 4"
         class="gridline"
         d="m 188.92,42.01 h 352.3"
         id="path34" />
    </g>
    <g
       fill="none"
       color="#808080"
       stroke="#003162"
       stroke-width="1"
       stroke-linecap="butt"
       stroke-linejoin="miter"
       id="g36" />
    <g
       fill="none"
       color="#000000"
       stroke="currentColor"
       stroke-width="1"
       stroke-linecap="butt"
       stroke-linejoin="miter"
       id="g38">
      <path
         stroke="#003162"
         d="m 188.92,42.01 h 21 m 331.3,0 h -21"
         id="path36" />
      <g
         transform="translate(169.33,51.11)"
         stroke="none"
         fill="#003162"
         font-family="'Source Sans 3'"
         font-size="28px"
         text-anchor="end"
         id="g37">
        <text
           id="text36"><tspan
             font-family="'Source Sans 3'"
             id="tspan36">5000</tspan></text>
      </g>
    </g>
    <g
       fill="none"
       color="#000000"
       stroke="currentColor"
       stroke-width="1"
       stroke-linecap="butt"
       stroke-linejoin="miter"
       id="g39" />
    <g
       fill="none"
       color="#000000"
       stroke="#003162"
       stroke-width="0.5"
       stroke-linecap="butt"
       stroke-linejoin="miter"
       id="g40" />
    <g
       fill="none"
       color="#808080"
       stroke="currentColor"
       stroke-width="0.5"
       stroke-linecap="butt"
       stroke-linejoin="miter"
       id="g41">
      <path
         stroke="#003162"
         stroke-dasharray="2, 4"
         class="gridline"
         d="M 188.92,370.8 V 42.01"
         id="path40" />
    </g>
    <g
       fill="none"
       color="#808080"
       stroke="#003162"
       stroke-width="1"
       stroke-linecap="butt"
       stroke-linejoin="miter"
       id="g42" />
    <g
       fill="none"
       color="#000000"
       stroke="currentColor"
       stroke-width="1"
       stroke-linecap="butt"
       stroke-linejoin="miter"
       id="g44">
      <path
         stroke="#003162"
         d="m 188.92,370.8 v -21 m 0,-307.79 v 21"
         id="path42" />
      <g
         transform="translate(188.92,421.9)"
         stroke="none"
         fill="#003162"
         font-family="'Source Sans 3'"
         font-size="28px"
         text-anchor="middle"
         id="g43">
        <text
           id="text42"><tspan
             font-family="'Source Sans 3'"
             id="tspan42">0</tspan></text>
      </g>
    </g>
    <g
       fill="none"
       color="#000000"
       stroke="currentColor"
       stroke-width="1"
       stroke-linecap="butt"
       stroke-linejoin="miter"
       id="g45" />
    <g
       fill="none"
       color="#000000"
       stroke="#003162"
       stroke-width="0.5"
       stroke-linecap="butt"
       stroke-linejoin="miter"
       id="g46" />
    <g
       fill="none"
       color="#808080"
       stroke="currentColor"
       stroke-width="0.5"
       stroke-linecap="butt"
       stroke-linejoin="miter"
       id="g47">
      <path
         stroke="#003162"
         stroke-dasharray="2, 4"
         class="gridline"
         d="M 277,370.8 V 42.01"
         id="path46" />
    </g>
    <g
       fill="none"
       color="#808080"
       stroke="#003162"
       stroke-width="1"
       stroke-linecap="butt"
       stroke-linejoin="miter"
       id="g48" />
    <g
       fill="none"
       color="#000000"
       stroke="currentColor"
       stroke-width="1"
       stroke-linecap="butt"
       stroke-linejoin="miter"
       id="g50">
      <path
         stroke="#003162"
         d="m 277,370.8 v -21 m 0,-307.79 v 21"
         id="path48" />
      <g
         transform="translate(277,421.9)"
         stroke="none"
         fill="#003162"
         font-family="'Source Sans 3'"
         font-size="28px"
         text-anchor="middle"
         id="g49">
        <text
           id="text48"><tspan
             font-family="'Source Sans 3'"
             id="tspan48">0.0002</tspan></text>
      </g>
    </g>
    <g
       fill="none"
       color="#000000"
       stroke="currentColor"
       stroke-width="1"
       stroke-linecap="butt"
       stroke-linejoin="miter"
       id="g51" />
    <g
       fill="none"
       color="#000000"
       stroke="#003162"
       stroke-width="0.5"
       stroke-linecap="butt"
       stroke-linejoin="miter"
       id="g52" />
    <g
       fill="none"
       color="#808080"
       stroke="currentColor"
       stroke-width="0.5"
       stroke-linecap="butt"
       stroke-linejoin="miter"
       id="g53">
      <path
         stroke="#003162"
         stroke-dasharray="2, 4"
         class="gridline"
         d="M 365.07,370.8 V 147.01 m 0,-84 v -21"
         id="path52" />
    </g>
    <g
       fill="none"
       color="#808080"
       stroke="#003162"
       stroke-width="1"
       stroke-linecap="butt"
       stroke-linejoin="miter"
       id="g54" />
    <g
       fill="none"
       color="#000000"
       stroke="currentColor"
       stroke-width="1"
       stroke-linecap="butt"
       stroke-linejoin="miter"
       id="g56">
      <path
         stroke="#003162"
         d="m 365.07,370.8 v -21 m 0,-307.79 v 21"
         id="path54" />
      <g
         transform="translate(365.07,421.9)"
         stroke="none"
         fill="#003162"
         font-family="'Source Sans 3'"
         font-size="28px"
         text-anchor="middle"
         id="g55">
        <text
           id="text54"><tspan
             font-family="'Source Sans 3'"
             id="tspan54">0.0004</tspan></text>
      </g>
    </g>
    <g
       fill="none"
       color="#000000"
       stroke="currentColor"
       stroke-width="1"
       stroke-linecap="butt"
       stroke-linejoin="miter"
       id="g57" />
    <g
       fill="none"
       color="#000000"
       stroke="#003162"
       stroke-width="0.5"
       stroke-linecap="butt"
       stroke-linejoin="miter"
       id="g58" />
    <g
       fill="none"
       color="#808080"
       stroke="currentColor"
       stroke-width="0.5"
       stroke-linecap="butt"
       stroke-linejoin="miter"
       id="g59">
      <path
         stroke="#003162"
         stroke-dasharray="2, 4"
         class="gridline"
         d="M 453.15,370.8 V 147.01 m 0,-84 v -21"
         id="path58" />
    </g>
    <g
       fill="none"
       color="#808080"
       stroke="#003162"
       stroke-width="1"
       stroke-linecap="butt"
       stroke-linejoin="miter"
       id="g60" />
    <g
       fill="none"
       color="#000000"
       stroke="currentColor"
       stroke-width="1"
       stroke-linecap="butt"
       stroke-linejoin="miter"
       id="g62">
      <path
         stroke="#003162"
         d="m 453.15,370.8 v -21 m 0,-307.79 v 21"
         id="path60" />
      <g
         transform="translate(453.15,421.9)"
         stroke="none"
         fill="#003162"
         font-family="'Source Sans 3'"
         font-size="28px"
         text-anchor="middle"
         id="g61">
        <text
           id="text60"><tspan
             font-family="'Source Sans 3'"
             id="tspan60">0.0006</tspan></text>
      </g>
    </g>
    <g
       fill="none"
       color="#000000"
       stroke="currentColor"
       stroke-width="1"
       stroke-linecap="butt"
       stroke-linejoin="miter"
       id="g63" />
    <g
       fill="none"
       color="#000000"
       stroke="#003162"
       stroke-width="0.5"
       stroke-linecap="butt"
       stroke-linejoin="miter"
       id="g64" />
    <g
       fill="none"
       color="#808080"
       stroke="currentColor"
       stroke-width="0.5"
       stroke-linecap="butt"
       stroke-linejoin="miter"
       id="g65">
      <path
         stroke="#003162"
         stroke-dasharray="2, 4"
         class="gridline"
         d="M 541.22,370.8 V 42.01"
         id="path64" />
    </g>
    <g
       fill="none"
       color="#808080"
       stroke="#003162"
       stroke-width="1"
       stroke-linecap="butt"
       stroke-linejoin="miter"
       id="g66" />
    <g
       fill="none"
       color="#000000"
       stroke="currentColor"
       stroke-width="1"
       stroke-linecap="butt"
       stroke-linejoin="miter"
       id="g68">
      <path
         stroke="#003162"
         d="m 541.22,370.8 v -21 m 0,-307.79 v 21"
         id="path66" />
      <g
         transform="translate(541.22,421.9)"
         stroke="none"
         fill="#003162"
         font-family="'Source Sans 3'"
         font-size="28px"
         text-anchor="middle"
         id="g67">
        <text
           id="text66"><tspan
             font-family="'Source Sans 3'"
             id="tspan66">0.0008</tspan></text>
      </g>
    </g>
    <g
       fill="none"
       color="#000000"
       stroke="currentColor"
       stroke-width="1"
       stroke-linecap="butt"
       stroke-linejoin="miter"
       id="g69" />
    <g
       fill="none"
       color="#000000"
       stroke="currentColor"
       stroke-width="1"
       stroke-linecap="butt"
       stroke-linejoin="miter"
       id="g70">
      <path
         stroke="#003162"
         d="M 188.92,42.01 V 370.8 h 352.3 m 0,-328.79 m -352.3,0"
         id="path69" />
    </g>
    <g
       fill="none"
       color="#000000"
       stroke="currentColor"
       stroke-width="1"
       stroke-linecap="butt"
       stroke-linejoin="miter"
       id="g72">
      <g
         transform="rotate(-90,150.08,56.33)"
         stroke="none"
         fill="#003162"
         font-family="'Source Sans 3'"
         font-size="28px"
         text-anchor="middle"
         id="g71">
        <text
           id="text70"><tspan
             font-family="'Source Sans 3'"
             id="tspan70">Force [N]</tspan></text>
      </g>
    </g>
    <g
       fill="none"
       color="#000000"
       stroke="currentColor"
       stroke-width="1"
       stroke-linecap="butt"
       stroke-linejoin="miter"
       id="g74">
      <g
         transform="translate(365.07,459.7)"
         stroke="none"
         fill="#003162"
         font-family="'Source Sans 3'"
         font-size="28px"
         text-anchor="middle"
         id="g73">
        <text
           id="text72"><tspan
             font-family="'Source Sans 3'"
             id="tspan72">Displacement [m]</tspan></text>
      </g>
    </g>
    <g
       fill="none"
       color="#000000"
       stroke="currentColor"
       stroke-width="1"
       stroke-linecap="butt"
       stroke-linejoin="miter"
       id="g75" />
    <g
       id="gnuplot_plot_1">
      <title
         id="title75">LEFM</title>
      <g
         fill="none"
         color="#ffffff"
         stroke="currentColor"
         stroke-width="2"
         stroke-linecap="butt"
         stroke-linejoin="miter"
         id="g76" />
      <g
         fill="none"
         color="#000000"
         stroke="currentColor"
         stroke-width="2"
         stroke-linecap="butt"
         stroke-linejoin="miter"
         id="g78">
        <g
           transform="translate(441.86,93.11)"
           stroke="none"
           fill="#003162"
           font-family="'Source Sans 3'"
           font-size="28px"
           text-anchor="end"
           id="g77">
          <text
             id="text76"><tspan
               font-family="'Source Sans 3'"
               id="tspan76">LEFM</tspan></text>
        </g>
      </g>
      <g
         fill="none"
         color="#000000"
         stroke="currentColor"
         stroke-width="2"
         stroke-linecap="butt"
         stroke-linejoin="miter"
         id="g79">
        <path
           stroke="#003162"
           d="m 461.45,84.01 h 40.59 M 188.92,370.8 235.77,83.24 l 1.18,14.46 1.25,14.48 1.29,10.4 1.25,13.41 1.34,15.36 1.34,14.78 1.4,10.3 1.44,11.96 1.51,9.94 1.58,10.7 1.64,12.24 1.83,10.74 1.88,11.15 2.06,10.59 2.24,10.26 2.48,10.22 2.77,10.74 3,7.76 3.46,10.15 3.88,6.29 4.48,7.54 5.21,7.71 6.03,7.1 7.31,6.51 8.66,6.13 10.85,5.75 13.85,4.95 18.6,4.61 27.12,3.98 45.01,3.15 97.61,2.73"
           id="path78" />
      </g>
    </g>
    <g
       id="gnuplot_plot_2">
      <title
         id="title79">CMSI</title>
      <g
         fill="none"
         color="#000000"
         stroke="currentColor"
         stroke-width="2"
         stroke-linecap="butt"
         stroke-linejoin="miter"
         id="g81">
        <g
           transform="translate(441.86,135.11)"
           stroke="none"
           fill="#003162"
           font-family="'Source Sans 3'"
           font-size="28px"
           text-anchor="end"
           id="g80">
          <text
             id="text79"><tspan
               font-family="'Source Sans 3'"
               id="tspan79">CMSI</tspan></text>
        </g>
      </g>
      <g
         fill="none"
         color="#000000"
         stroke="currentColor"
         stroke-width="2"
         stroke-linecap="butt"
         stroke-linejoin="miter"
         id="g82">
        <path
           stroke="#f1443a"
           d="m 461.45,126.01 h 40.59 m -313.12,244.79 0.01,-0.07 35.5,-226.36 10.68,-65.49 2.48,-13.2 0.22,-0.22 -0.04,1.32 0.05,1.06 0.18,-0.03 0.13,0.08 0.08,0.24 0.14,0.4 0.09,0.92 0.08,0.91 -0.01,1.28 -0.05,1.26 0.09,0.96 0.24,0.26 0.15,0.72 0.03,1.04 0.17,0.73 0.06,0.95 0.19,0.16 0.08,0.7 0.01,0.93 0.02,0.97 0.12,0.71 0.19,0.12 0.13,0.5 0.11,1.14 0.12,0.79 -0.06,1.58 0.06,1.07 0.11,1.27 -0.04,1.74 0.06,0.83 0.12,0.57 0.03,0.57 0.17,-0.08 0.08,1.04 -0.08,1.6 0.18,0.38 0.26,0.38 0.12,0.92 0.08,0.62 0.02,0.83 0.16,0.72 -0.05,1.69 -0.05,1.42 v 1.19 l 0.03,1.09 0.06,0.83 0.13,0.58 0.09,0.88 0.12,0.9 0.07,0.88 0.13,0.65 0.14,0.41 0.04,0.95 0.05,1.25 0.1,1.19 0.12,1.1 0.1,0.95 0.05,0.9 0.02,0.9 -0.01,1.04 0.14,0.72 0.1,0.75 0.17,0.55 0.18,0.37 0.18,0.44 0.18,0.88 0.15,0.72 0.17,1.15 v 1.82 l 0.12,0.98 0.09,1.24 0.01,1.3 0.08,0.76 0.09,0.48 0.04,0.59 0.15,0.27 0.3,0.17 -0.05,1.87 -0.06,1.13 0.15,0.31 0.13,0.77 -0.01,0.89 0.16,0.28 0.15,0.81 -0.03,1.03 0.13,0.94 -0.04,1.3 0.17,0.69 -0.04,1.15 v 1.1 l 0.12,0.79 0.33,0.08 -0.01,1.16 0.06,0.85 0.16,0.95 0.03,1.25 0.13,0.74 0.11,0.89 0.03,1.06 0.03,1.01 0.09,0.63 0.09,0.48 0.01,0.8 0.19,0.41 -0.01,1.11 -0.06,0.99 0.2,0.33 0.11,0.59 0.07,0.61 0.03,0.7 -0.1,1.35 0.06,0.68 0.43,-0.34 0.01,1.03 -0.07,1.47 0.3,0.6 0.24,0.54 0.13,0.96 0.11,1.18 0.13,0.78 0.13,0.8 0.08,1.12 0.35,0.44 0.03,1.72 0.03,1.04 0.01,0.69 0.03,0.61 0.1,0.83 0.19,0.99 0.34,0.49 0.04,0.77 -0.09,1.34 0.07,0.86 0.25,0.51 -0.02,1.25 -0.02,0.88 0.24,0.32 0.09,1 0.12,0.83 0.2,0.59 0.04,1.2 -0.01,0.9 -0.07,0.9 v 0.85 l 0.2,0.42 0.26,0.24 0.09,0.69 0.02,1.06 -0.04,1.2 -0.11,0.98 0.06,0.64 0.11,0.6 0.27,0.54 0.15,0.75 0.25,0.8 0.08,0.67 0.12,0.55 0.05,0.96 0.22,0.68 0.15,1.02 0.02,0.84 0.09,0.81 0.16,1.14 0.16,0.74 0.4,0.27 -0.02,1.16 0.02,0.79 0.4,0.37 -0.12,1.51 0.11,0.66 -0.03,1.02 0.01,0.8 0.23,0.87 0.11,0.59 -0.01,0.76 0.03,0.79 0.1,0.68 0.06,0.58 0.17,0.62 0.25,0.47 0.19,0.89 0.13,0.92 0.29,0.91 0.17,1.27 0.14,0.92 0.22,1.08 -0.12,1.13 0.03,0.96 0.04,0.63 0.13,0.69 -0.01,0.81 0.05,0.65 0.07,0.46 0.2,0.28 0.31,0.23 0.33,0.82 0.05,0.97 -0.11,0.86 -0.03,0.85 0.24,0.46 0.26,0.46 0.26,0.57 0.01,0.82 0.22,0.44 0.31,0.76 -0.06,0.89 -0.04,0.72 0.38,0.38 0.07,1.08 -0.05,0.87 0.27,0.8 0.06,0.59 0.25,0.35 0.02,0.96 -0.1,0.9 0.08,0.62 0.37,0.5 0.38,0.51 0.16,0.95 0.06,0.6 0.26,0.39 v 0.66 l -0.05,0.73 0.06,1.16 0.12,0.94 0.2,0.35 0.23,0.35 0.07,0.71 0.02,0.86 0.38,0.36 0.15,0.85 0.04,0.54 0.11,0.55 0.03,0.99 0.16,0.6 0.18,0.35 0.23,0.34 -0.01,0.84 0.02,0.7 0.02,0.56 0.08,0.41 0.33,0.28 0.15,0.65 0.33,0.88 0.01,0.68 0.39,0.59 0.08,0.69 -0.1,0.89 0.14,0.64 0.01,0.61 0.23,0.37 0.37,0.34 0.19,0.55 0.3,0.56 0.17,0.8 V 266 l 0.16,0.87 0.13,0.83 0.13,0.7 0.15,0.53 0.23,0.49 0.28,0.76 0.15,0.52 0.41,0.35 -0.03,0.85 -0.11,0.77 0.09,0.76 0.39,0.42 0.05,0.74 0.39,0.29 0.06,0.91 0.23,0.64 0.08,0.4 -0.14,0.57 0.13,0.46 0.5,0.29 0.2,0.47 -0.02,0.74 0.2,0.7 0.07,0.48 0.28,0.26 0.42,0.28 0.35,0.73 0.14,0.94 v 0.73 l 0.07,0.54 0.13,0.53 0.25,0.51 0.34,0.5 0.14,0.41 0.18,0.41 0.13,0.45 0.14,0.65 0.47,0.52 0.03,0.67 0.09,0.79 0.28,0.6 0.3,0.47 0.32,0.43 0.14,0.62 -0.03,0.56 0.07,0.38 0.13,0.37 0.25,0.46 0.36,0.38 0.36,0.55 0.36,0.85 0.16,0.53 0.14,0.39 0.15,0.51 0.41,0.61 0.33,0.73 0.29,0.55 0.09,0.77 -0.04,0.6 0.33,0.54 0.27,0.44 0.11,0.62 0.24,0.54 0.67,0.29 0.49,0.41 -0.06,0.66 0.11,0.63 0.38,0.53 0.44,0.25 0.38,0.42 0.1,0.47 0.3,0.46 0.54,0.58 0.08,0.64 0.05,0.5 0.25,0.54 0.35,0.48 0.22,0.43 0.11,0.45 0.49,0.48 0.28,0.49 0.25,0.42 0.2,0.46 0.29,0.53 0.08,0.46 0.15,0.45 0.41,0.38 0.3,0.41 0.43,0.47 0.37,0.41 0.73,0.38 0.23,0.51 0.07,0.58 -0.04,0.47 -0.07,0.51 0.28,0.3 0.29,0.43 0.31,0.35 0.91,0.34 0.16,0.5 0.04,0.49 0.6,0.6 0.9,0.55 0.28,0.79 0.53,0.68 0.26,0.68 0.11,0.56 0.63,0.34 0.41,0.33 0.57,0.48 0.08,0.38 0.15,0.28 0.39,0.25 0.65,0.38 0.55,0.52 -0.07,0.53 0.5,0.4 0.17,0.31 0.15,0.41 0.13,0.38 0.59,0.39 0.62,0.29 0.73,0.36 0.12,0.33 0.12,0.36 0.43,0.48 0.49,0.58 0.82,0.48 0.49,0.46 0.83,0.63 0.58,0.68 0.15,0.51 0.63,0.53 0.81,0.52 0.63,0.5 0.28,0.47 1.03,0.38 0.38,0.35 0.13,0.36 0.85,0.48 0.46,0.56 0.99,0.39 0.03,0.25 -0.05,0.27 0.16,0.29 0.77,0.42 0.82,0.36 0.75,0.35 0.76,0.33 0.11,0.27 0.49,0.32 0.88,0.56 0.54,0.45 0.67,0.47 0.27,0.3 0.61,0.36 0.35,0.24 0.55,0.28 0.49,0.35 0.46,0.23 0.81,0.26 0.48,0.38 0.58,0.28 0.78,0.35 0.63,0.27 0.84,0.31 0.42,0.23 0.66,0.25 0.1,0.29 0.12,0.3 0.56,0.3 0.65,0.2 0.82,0.21 0.53,0.27 0.58,0.25 0.91,0.26 0.69,0.25 1.1,0.22 0.71,0.27 0.3,0.25 0.6,0.35 0.92,0.37 0.67,0.24 1.15,0.21 0.54,0.38 0.84,0.3 1.04,0.3 0.55,0.27 0.9,0.22 1.15,0.22 1.03,0.38 0.76,0.36 0.77,0.38 1.14,0.24 1.08,0.28 0.52,0.21 0.45,0.19 1.06,0.24 1.11,0.31 1.12,0.25 1.13,0.23 0.5,0.27 0.84,0.22 1.03,0.2 1.14,0.19 0.83,0.27 1.1,0.29 1.11,0.25 1.09,0.3 0.64,0.23 0.99,0.23 1.15,0.15 1.16,0.11 1.17,0.1 1.15,0.13 1.12,0.19 0.39,0.23 0.88,0.25 1.13,0.16 1.14,0.15 1.14,0.15 0.94,0.23 1.11,0.22 1.15,0.11 1.13,0.18 1.07,0.27 1.12,0.17 1.12,0.17 1.13,0.15 1.11,0.18 1.13,0.14 1.15,0.1 1.15,0.09 1.15,0.12 1.14,0.1 1.15,0.11 1.1,0.2 1.15,0.1 1.15,0.08 1.16,0.09 0.94,0.19 1.02,0.21 1.12,0.15 1.14,0.11 1.15,0.08 1.15,0.08 1.16,0.07 1.04,0.16 0.26,0.15 1.13,0.11 1.16,0.07 1.15,0.07 1.14,0.09 1.13,0.1 1.14,0.1 1.13,0.1 1.14,0.1"
           id="path81" />
      </g>
    </g>
    <g
       fill="none"
       color="#000000"
       stroke="currentColor"
       stroke-width="2"
       stroke-linecap="butt"
       stroke-linejoin="miter"
       id="g83" />
    <g
       fill="none"
       color="#000000"
       stroke="#000000"
       stroke-width="1"
       stroke-linecap="butt"
       stroke-linejoin="miter"
       id="g84" />
    <g
       fill="none"
       color="#000000"
       stroke="currentColor"
       stroke-width="1"
       stroke-linecap="butt"
       stroke-linejoin="miter"
       id="g85">
      <path
         stroke="#003162"
         d="M 188.92,42.01 V 370.8 h 352.3 m 0,-328.79 m -352.3,0"
         id="path84" />
    </g>
    <g
       fill="none"
       color="#000000"
       stroke="currentColor"
       stroke-width="1"
       stroke-linecap="butt"
       stroke-linejoin="miter"
       id="g86" />
  </g>
</svg>
