<?xml version="1.0" encoding="UTF-8" standalone="no"?>
<svg
   width="385.65967pt"
   height="312.63583pt"
   viewBox="0 0 385.65966 312.63582"
   version="1.1"
   id="svg24"
   sodipodi:docname="gmerr.svg"
   inkscape:version="1.4 (e7c3feb100, 2024-10-09)"
   xmlns:inkscape="http://www.inkscape.org/namespaces/inkscape"
   xmlns:sodipodi="http://sodipodi.sourceforge.net/DTD/sodipodi-0.dtd"
   xmlns:xlink="http://www.w3.org/1999/xlink"
   xmlns="http://www.w3.org/2000/svg"
   xmlns:svg="http://www.w3.org/2000/svg"
   xmlns:rdf="http://www.w3.org/1999/02/22-rdf-syntax-ns#"
   xmlns:cc="http://creativecommons.org/ns#"
   xmlns:dc="http://purl.org/dc/elements/1.1/">
  <sodipodi:namedview
     id="namedview24"
     pagecolor="#ffffff"
     bordercolor="#000000"
     borderopacity="0.25"
     inkscape:showpageshadow="2"
     inkscape:pageopacity="0.0"
     inkscape:pagecheckerboard="0"
     inkscape:deskcolor="#d1d1d1"
     inkscape:document-units="pt"
     inkscape:zoom="0.82262261"
     inkscape:cx="316.67012"
     inkscape:cy="325.7873"
     inkscape:window-width="1916"
     inkscape:window-height="1021"
     inkscape:window-x="0"
     inkscape:window-y="0"
     inkscape:window-maximized="0"
     inkscape:current-layer="figure_1" />
  <metadata
     id="metadata1">
    <rdf:RDF>
      <cc:Work>
        <dc:type
           rdf:resource="http://purl.org/dc/dcmitype/StillImage" />
        <dc:date>2024-10-31T16:21:22.616355</dc:date>
        <dc:format>image/svg+xml</dc:format>
        <dc:creator>
          <cc:Agent>
            <dc:title>Matplotlib v3.8.2, https://matplotlib.org/</dc:title>
          </cc:Agent>
        </dc:creator>
      </cc:Work>
    </rdf:RDF>
  </metadata>
  <defs
     id="defs1">
    <style
       type="text/css"
       id="style1">*{stroke-linejoin: round; stroke-linecap: butt}</style>
  </defs>
  <g
     id="figure_1"
     transform="translate(-13.638068,-59.215839)">
    <g
       id="axes_1">
      <g
         id="matplotlib.axis_1" />
      <g
         id="matplotlib.axis_2" />
      <g
         id="line2d_1">
        <path
           d="M 14.162413,215.53387 H 227.78189"
           clip-path="url(#p328ed7f55c)"
           style="fill:none;stroke:#000000;stroke-dasharray:3.7, 1.6;stroke-dashoffset:0"
           id="path3" />
      </g>
      <g
         id="line2d_2">
        <path
           d="M 172.39906,215.53387 315.68958,154.11023"
           clip-path="url(#p328ed7f55c)"
           style="fill:none;stroke:#000000;stroke-linecap:square"
           id="path4" />
      </g>
      <g
         id="line2d_3">
        <path
           d="m 14.162413,223.44571 158.236647,-7.91184 v 0"
           clip-path="url(#p328ed7f55c)"
           style="fill:none;stroke:#000000;stroke-linecap:square"
           id="path5" />
      </g>
      <g
         id="line2d_4">
        <path
           d="m 14.162413,207.62204 158.236647,7.91183 v 0"
           clip-path="url(#p328ed7f55c)"
           style="fill:none;stroke:#000000;stroke-linecap:square"
           id="path6" />
      </g>
      <g
         id="line2d_5">
        <path
           d="m 101.14004,215.53387 -16.143722,9.28784 -7.823176,4.77662 -6.456344,4.16864 -5.807596,3.97001 -5.985673,4.36186 -4.28722,3.3321 -5.817553,4.87916 -2.902991,2.63235 -2.794789,2.69673 -4.439316,4.7326 -2.632064,3.19244 -2.303144,3.1854 -1.01057,1.57898 -1.157955,2.02744 -0.970196,1.99068 -0.714049,1.7846 -0.536636,1.73601 -0.351789,1.67906 -0.162414,2.58943 0.230309,1.85774 0.232517,0.87899 0.485339,1.23081 0.654037,1.14975 0.820155,1.06493 1.781126,1.62006 1.829259,1.14537 2.1207,0.9558 2.387734,0.76639 2.520941,0.56083 1.280364,0.2093 4.785575,0.44003 4.404541,0.0395 4.601457,-0.23921 2.350171,-0.2134 5.228757,-0.6617 5.256058,-0.88914 10.624095,-2.35884 7.500468,-2.0431 8.141871,-2.51581 8.864683,-3.04284 9.00556,-3.35883 13.80822,-5.46735 9.00308,-3.46759 5.28793,-1.75239 3.30523,-0.85014 2.56717,-0.4436 2.29489,-0.16409 2.19711,0.12361 1.68512,0.33473 1.59439,0.55112 1.77087,0.92329 1.76536,1.28362 1.51287,1.40292 1.66884,1.86521 1.93777,2.5437 1.85429,2.7467 3.3173,5.43102 6.14204,10.74563 6.44787,11.10594 5.08958,8.27929 3.98018,6.11154 5.27508,7.5801 5.17953,6.84806 5.64762,6.7701 2.8377,3.11495 4.67472,4.68677 3.43885,3.06907 3.32746,2.63453 3.04802,2.0934 2.7445,1.59147 2.63214,1.22921 2.49812,0.85561 2.30666,0.47291 2.10624,0.1119 1.97065,-0.23549 1.81912,-0.58641 0.84836,-0.42439 1.05616,-0.69414 0.97828,-0.84281 0.77954,-0.84369 1.37542,-1.99867 1.12647,-2.38832 0.87714,-2.74186 0.34632,-1.49078 0.36485,-2.07663 0.38655,-3.7527 0.0786,-1.60558 0.0283,-3.32237 -0.16307,-3.93057 -0.35094,-4.03831 -0.51672,-4.10129 -0.79208,-4.8637 -1.45383,-7.09853 -2.57303,-10.08206 -1.86633,-6.30273 -2.94564,-8.9608 -3.18827,-8.82734 -3.97083,-10.24773 -6.447,-16.46216 -1.50998,-4.48016 -0.67925,-2.38209 -0.72858,-3.39824 -0.25643,-2.24406 -0.006,-2.19401 0.19488,-1.60786 0.56506,-2.07579 0.55863,-1.28397 1.08931,-1.79734 1.02208,-1.29297 1.23618,-1.30188 2.19818,-1.92663 2.8304,-2.09276 3.54764,-2.3146 4.92952,-2.95031 25.50888,-14.83103 8.168,-5.20416 8.16105,-5.60566 4.63224,-3.41193 8.12945,-6.5254 5.38902,-4.84589 2.55717,-2.50591 3.96574,-4.26376 2.92776,-3.5851 2.40499,-3.41725 1.80305,-3.08047 1.36962,-2.99403 0.8938,-2.86956 0.25759,-1.3763 0.13356,-1.49866 -0.1372,-2.24192 -0.23101,-1.05387 -0.6312,-1.65832 -0.73096,-1.23313 -0.92495,-1.1331 -0.53365,-0.52784 -1.20566,-0.9764 -1.1246,-0.72213 -1.23992,-0.64878 -2.80318,-1.0768 -2.32638,-0.6087 -2.51687,-0.45283 -2.68393,-0.30222 -5.15849,-0.18703 -4.84086,0.18153 -2.48653,0.20031 -4.90257,0.57304 -4.9431,0.78378 -9.44778,1.97277 -6.43877,1.64542 -6.13366,1.76205 -7.98774,2.54567 -7.81473,2.73032 -7.89872,2.96004 -14.48256,5.7363 -8.75661,3.35133 -4.61025,1.52285 -3.3363,0.87345 -2.29188,0.42203 -2.36232,0.2166 -1.38236,-0.008 -2.07404,-0.24994 -1.99401,-0.57407 -2.10426,-1.0398 -1.26537,-0.86892 -1.399,-1.18728 -1.53517,-1.57736 -1.65786,-2.00826 -1.99221,-2.77636 -2.84333,-4.47446 -3.31606,-5.65952 -11.27346,-19.5456 -4.72468,-7.6524 -4.38841,-6.70239 -5.87801,-8.33202 -2.8805,-3.80565 -3.02907,-3.800054 -6.32384,-7.241706 -5.60523,-5.584622 -4.16191,-3.586599 -4.01447,-2.949945 -1.98602,-1.252196 -1.84835,-1.028442 -1.81636,-0.869929 -1.77601,-0.701815 -1.72729,-0.525165 -1.50709,-0.315727 -1.45501,-0.162163 -1.39728,-0.0053 -2.27472,0.370038 -1.76288,0.693636 -1.59502,1.038455 -1.41701,1.374116 -1.310635,1.825232 -0.868976,1.657868 -0.737147,1.852751 -0.319312,0.994882 -0.86629,3.826286 -0.437121,3.656769 -0.1163,1.931899 -0.05299,3.129835 0.09405,3.243529 0.229199,3.329027 0.351798,3.38782 0.676201,4.80884 0.856903,4.81443 1.848662,8.35355 2.011738,7.56419 2.01289,6.70064 2.75481,8.29793 3.71539,10.18411 4.39356,11.21108 5.00138,12.75918 1.5256,4.38737 1.05777,3.63046 0.67016,3.18855 0.26353,2.44935 -0.038,2.32624 -0.19005,1.35675 -0.5967,2.09397 -0.87066,1.81461 -0.78827,1.21098 -1.32453,1.61223 -2.38133,2.25467 -2.341,1.8231 -3.45483,2.3459 -5.15375,3.14144 -5.0442,2.90619 v 0"
           clip-path="url(#p328ed7f55c)"
           style="fill:none;stroke:#0000ff;stroke-linecap:square"
           id="path7" />
      </g>
      <g
         id="line2d_6">
        <path
           d="m 328.16829,371.30311 -1.46177,-14.19959 -1.95415,-16.63757 -2.30066,-17.44097 -2.86747,-19.90309 -5.57644,-38.17906 -1.44117,-11.55537 -1.06098,-10.29592 -0.73272,-9.52011 -0.41369,-8.509 -0.16233,-8.65798 0.0857,-7.81012 0.28026,-7.3899 0.5127,-8.0693 0.88714,-9.89395 1.14704,-10.12956 1.70819,-12.89848 2.79436,-19.08688 4.64562,-31.68822 2.4155,-18.20553 1.91284,-16.178024 1.58202,-15.289843 v 0"
           clip-path="url(#p328ed7f55c)"
           style="fill:none;stroke:#ff0000;stroke-linecap:square"
           id="path8" />
      </g>
      <g
         id="text_1">
        <!-- $\varphi$ -->
        <g
           transform="matrix(0.18,0,0,-0.18,217.88597,208.41644)"
           id="g8">
          <defs
             id="defs8">
            <path
               id="Cmmi10-27"
               d="m 1044,-1216 q 0,25 12,75 L 1416,-13 Q 938,106 628,428 319,750 319,1216 q 0,234 87,528 88,294 225,558 138,264 297,439 38,18 44,18 h 78 q 19,0 34,-19 16,-18 16,-40 0,-25 -12,-37 Q 981,2547 879,2380 778,2213 698,2028 619,1844 566,1641 513,1438 513,1288 513,909 814,676 1116,444 1528,366 l 181,575 q 119,372 236,664 118,292 294,571 177,280 427,466 250,186 559,186 244,0 408,-122 164,-122 243,-325 80,-203 80,-434 0,-381 -169,-745 Q 3619,838 3325,548 3031,259 2662,93 2294,-72 1919,-72 q -50,3 -108,6 -58,3 -95,3 l -213,-1115 q -19,-94 -96,-155 -76,-61 -173,-61 -78,0 -134,49 -56,48 -56,129 z m 740,1547 q 72,-6 207,-6 397,0 807,195 411,196 681,536 271,341 271,741 0,181 -74,325 -73,144 -206,226 -132,83 -307,83 -497,0 -832,-481 -334,-481 -437,-1034 z"
               transform="scale(0.015625)" />
          </defs>
          <use
             xlink:href="#Cmmi10-27"
             transform="translate(0,0.8125)"
             id="use8" />
        </g>
      </g>
      <g
         id="text_2">
        <!-- $1/G_c(\varphi')$ -->
        <g
           style="fill:#0000ff"
           transform="matrix(0.18,0,0,-0.18,216.32739,125.36189)"
           id="g16">
          <defs
             id="defs9">
            <path
               id="Cmr10-31"
               d="m 594,0 v 225 q 800,0 800,203 V 3788 Q 1063,3628 556,3628 v 225 q 785,0 1185,410 h 90 q 22,0 42,-18 21,-17 21,-39 V 428 q 0,-203 800,-203 V 0 Z"
               transform="scale(0.015625)" />
            <path
               id="Cmmi10-3d"
               d="m 359,-1472 q 0,19 7,25 l 2225,6169 q 12,37 43,57 32,21 72,21 57,0 92,-35 36,-34 36,-93 v -25 L 609,-1522 q -37,-78 -121,-78 -54,0 -92,38 -37,37 -37,90 z"
               transform="scale(0.015625)" />
            <path
               id="Cmmi10-47"
               d="m 934,1403 q 0,-397 158,-696 158,-298 455,-461 297,-162 687,-162 382,0 725,180 344,180 432,517 l 140,550 q 3,19 6,39 4,21 4,33 0,66 -41,75 -159,44 -641,44 -62,0 -62,84 19,78 34,109 16,32 75,32 h 1650 q 66,0 66,-84 -3,-16 -13,-54 -9,-37 -25,-62 -15,-25 -46,-25 -213,0 -312,-35 -98,-34 -135,-181 L 3950,756 3769,44 Q 3759,0 3713,0 3659,0 3559,144 3459,288 3419,384 3197,122 2825,-9 q -372,-132 -766,-132 -496,0 -895,225 -398,225 -619,625 -220,400 -220,904 0,537 239,1060 239,524 648,938 410,414 930,658 521,244 1052,244 212,0 407,-66 196,-66 363,-196 167,-129 274,-301 l 506,550 q 0,13 31,13 h 38 q 25,0 42,-21 17,-20 17,-45 L 4434,2719 q 0,-44 -50,-44 h -115 q -50,0 -50,72 25,141 25,331 0,316 -107,594 -106,278 -331,447 -225,169 -550,169 -515,0 -953,-261 -437,-261 -741,-690 -303,-428 -466,-941 -162,-512 -162,-993 z"
               transform="scale(0.015625)" />
            <path
               id="Cmmi10-63"
               d="m 750,763 q 0,-279 142,-473 142,-193 408,-193 381,0 732,175 352,175 574,484 19,19 50,19 32,0 64,-36 33,-36 33,-67 0,-25 -12,-38 Q 2506,306 2109,117 1713,-72 1288,-72 981,-72 747,73 513,219 384,462 256,706 256,1013 q 0,431 241,856 241,425 641,692 400,267 840,267 288,0 517,-139 230,-139 230,-411 0,-175 -102,-299 -101,-123 -273,-123 -103,0 -174,64 -70,64 -70,168 0,150 109,256 110,106 257,106 h 12 q -75,109 -217,161 -142,52 -295,52 -375,0 -657,-321 Q 1034,2022 892,1576 750,1131 750,763 Z"
               transform="scale(0.015625)" />
            <path
               id="Cmr10-28"
               d="m 1984,-1588 q -356,282 -614,646 -257,364 -422,777 -164,412 -245,862 -81,450 -81,903 0,459 81,909 81,450 248,866 168,416 427,778 260,363 606,635 0,12 32,12 h 59 q 19,0 34,-17 16,-17 16,-39 0,-28 -12,-41 -313,-306 -521,-656 -208,-350 -335,-746 -126,-395 -182,-819 -56,-423 -56,-882 0,-2034 1087,-3091 19,-18 19,-53 0,-15 -17,-35 -17,-21 -33,-21 h -59 q -32,0 -32,12 z"
               transform="scale(0.015625)" />
            <path
               id="Cmsy10-30"
               d="m 225,347 q -41,12 -41,62 l 782,2907 q 37,118 127,190 91,72 207,72 150,0 264,-99 114,-98 114,-248 0,-65 -34,-147 L 488,319 q -22,-44 -60,-44 -34,0 -108,31 -73,32 -95,41 z"
               transform="scale(0.015625)" />
            <path
               id="Cmr10-29"
               d="m 416,-1600 q -57,0 -57,56 0,28 13,41 1094,1069 1094,3103 0,2034 -1082,3091 -25,15 -25,53 0,22 17,39 18,17 40,17 h 59 q 19,0 31,-12 460,-363 766,-882 306,-518 448,-1106 143,-587 143,-1200 0,-453 -77,-892 -77,-439 -244,-865 -167,-427 -423,-788 -256,-361 -613,-643 -12,-12 -31,-12 z"
               transform="scale(0.015625)" />
          </defs>
          <use
             xlink:href="#Cmr10-31"
             transform="translate(0,0.601562)"
             id="use9" />
          <use
             xlink:href="#Cmmi10-3d"
             transform="translate(50,0.601562)"
             id="use10" />
          <use
             xlink:href="#Cmmi10-47"
             transform="translate(100,0.601562)"
             id="use11" />
          <use
             xlink:href="#Cmmi10-63"
             transform="matrix(0.7,0,0,0.7,178.61328,-16.404687)"
             id="use12" />
          <use
             xlink:href="#Cmr10-28"
             transform="translate(215.23965,0.601562)"
             id="use13" />
          <use
             xlink:href="#Cmmi10-27"
             transform="translate(254.05801,0.601562)"
             id="use14" />
          <use
             xlink:href="#Cmsy10-30"
             transform="matrix(0.7,0,0,0.7,325.74215,38.865625)"
             id="use15" />
          <use
             xlink:href="#Cmr10-29"
             transform="translate(351.36266,0.601562)"
             id="use16" />
        </g>
      </g>
      <g
         id="text_3">
        <!-- $1/G^*(\varphi')$ -->
        <g
           style="fill:#ff0000"
           transform="matrix(0.18,0,0,-0.18,323.40304,220.30387)"
           id="g24">
          <defs
             id="defs16">
            <path
               id="Cmsy10-a4"
               d="m 603,813 q -72,0 -130,60 -57,61 -57,133 0,110 90,153 l 922,441 -922,434 q -90,38 -90,154 0,71 57,132 58,61 130,61 47,0 88,-31 l 818,-597 -93,1044 q 0,78 53,128 53,50 131,50 75,0 126,-47 52,-47 52,-119 v -12 l -94,-1044 819,597 q 41,31 88,31 78,0 132,-61 55,-61 55,-132 0,-116 -90,-154 l -922,-434 922,-441 q 90,-43 90,-153 0,-72 -55,-133 -54,-60 -132,-60 -47,0 -88,31 l -819,597 94,-1038 v -19 q 0,-71 -55,-118 -54,-47 -123,-47 -75,0 -130,51 -54,52 -54,127 l 93,1044 -818,-597 q -41,-31 -88,-31 z"
               transform="scale(0.015625)" />
          </defs>
          <use
             xlink:href="#Cmr10-31"
             transform="translate(0,0.601562)"
             id="use17" />
          <use
             xlink:href="#Cmmi10-3d"
             transform="translate(50,0.601562)"
             id="use18" />
          <use
             xlink:href="#Cmmi10-47"
             transform="translate(100,0.601562)"
             id="use19" />
          <use
             xlink:href="#Cmsy10-a4"
             transform="matrix(0.7,0,0,0.7,202.73648,38.865625)"
             id="use20" />
          <use
             xlink:href="#Cmr10-28"
             transform="translate(256.40484,0.601562)"
             id="use21" />
          <use
             xlink:href="#Cmmi10-27"
             transform="translate(295.2232,0.601562)"
             id="use22" />
          <use
             xlink:href="#Cmsy10-30"
             transform="matrix(0.7,0,0,0.7,366.90734,38.865625)"
             id="use23" />
          <use
             xlink:href="#Cmr10-29"
             transform="translate(392.52785,0.601562)"
             id="use24" />
        </g>
      </g>
      <g
         id="patch_3">
        <path
           d="m 211.95822,215.53387 c 0,-2.67233 -0.27078,-5.33779 -0.8082,-7.95553 -0.53742,-2.61773 -1.33871,-5.17429 -2.39159,-7.63046"
           clip-path="url(#p328ed7f55c)"
           style="fill:none;stroke:#000000;stroke-linejoin:miter"
           id="path24" />
      </g>
    </g>
  </g>
  <defs
     id="defs24">
    <clipPath
       id="p328ed7f55c">
      <rect
         x="7.1999998"
         y="53.533875"
         width="362.04544"
         height="324"
         id="rect24" />
    </clipPath>
  </defs>
</svg>
